<?xml version="1.0" encoding="UTF-8" standalone="no"?>
<!DOCTYPE svg PUBLIC "-//W3C//DTD SVG 1.1//EN"
 "http://www.w3.org/Graphics/SVG/1.1/DTD/svg11.dtd">
<!-- Generated by graphviz version 12.2.0 (20241103.1931)
 -->
<!-- Title: Memory Pages: 1 -->
<svg width="422pt" height="98pt"
 viewBox="0.00 0.00 421.75 98.00" xmlns="http://www.w3.org/2000/svg" xmlns:xlink="http://www.w3.org/1999/xlink">
<g id="graph0" class="graph" transform="scale(1 1) rotate(0) translate(4 94)">
<title>Memory</title>
<polygon fill="white" stroke="none" points="-4,4 -4,-94 417.75,-94 417.75,4 -4,4"/>
<!-- P -->
<g id="node1" class="node">
<title>P</title>
<polygon fill="none" stroke="black" points="179.5,-63 90,-63 90,-27 179.5,-27 179.5,-63"/>
<text text-anchor="middle" x="134.75" y="-39.95" font-family="Times New Roman,serif" font-size="14.00">Phi(memory)</text>
</g>
<!-- S -->
<g id="node2" class="node">
<title>S</title>
<polygon fill="none" stroke="black" points="323.75,-40 215.5,-40 215.5,-4 323.75,-4 323.75,-40"/>
<text text-anchor="middle" x="269.62" y="-16.95" font-family="Times New Roman,serif" font-size="14.00">Loop&#45;body Store</text>
</g>
<!-- P&#45;&gt;S -->
<g id="edge2" class="edge">
<title>P&#45;&gt;S</title>
<path fill="none" stroke="blue" d="M179.67,-43.79C187.52,-42.69 195.84,-41.37 204.12,-39.91"/>
<polygon fill="blue" stroke="blue" points="204.65,-43.37 213.86,-38.13 203.39,-36.49 204.65,-43.37"/>
</g>
<!-- Entry -->
<g id="node3" class="node">
<title>Entry</title>
<polygon fill="none" stroke="black" points="54,-90 0,-90 0,-54 54,-54 54,-90"/>
<text text-anchor="middle" x="27" y="-66.95" font-family="Times New Roman,serif" font-size="14.00">Entry</text>
</g>
<!-- P&#45;&gt;Entry -->
<g id="edge1" class="edge">
<title>P&#45;&gt;Entry</title>
<path fill="none" stroke="blue" d="M89.52,-56.29C81.45,-58.35 73.12,-60.48 65.28,-62.48"/>
<polygon fill="blue" stroke="blue" points="64.54,-59.06 55.72,-64.92 66.27,-65.84 64.54,-59.06"/>
</g>
<!-- Loop -->
<g id="node4" class="node">
<title>Loop</title>
<polygon fill="none" stroke="black" points="54,-36 0,-36 0,0 54,0 54,-36"/>
<text text-anchor="middle" x="27" y="-12.95" font-family="Times New Roman,serif" font-size="14.00">Loop</text>
</g>
<!-- P&#45;&gt;Loop -->
<g id="edge4" class="edge">
<title>P&#45;&gt;Loop</title>
<path fill="none" stroke="black" stroke-dasharray="5,2" d="M89.52,-33.71C81.45,-31.65 73.12,-29.52 65.28,-27.52"/>
<polygon fill="black" stroke="black" points="66.27,-24.16 55.72,-25.08 64.54,-30.94 66.27,-24.16"/>
</g>
<!-- S&#45;&gt;P -->
<g id="edge3" class="edge">
<title>S&#45;&gt;P</title>
<path fill="none" stroke="blue" d="M215.35,-24.59C207.3,-25.84 198.98,-27.27 190.89,-28.79"/>
<polygon fill="blue" stroke="blue" points="190.29,-25.34 181.15,-30.71 191.64,-32.21 190.29,-25.34"/>
</g>
<!-- Return -->
<g id="node5" class="node">
<title>Return</title>
<polygon fill="none" stroke="black" points="413.75,-63 359.75,-63 359.75,-27 413.75,-27 413.75,-63"/>
<text text-anchor="middle" x="386.75" y="-39.95" font-family="Times New Roman,serif" font-size="14.00">Return</text>
</g>
<!-- Return&#45;&gt;P -->
<g id="edge5" class="edge">
<title>Return&#45;&gt;P</title>
<path fill="none" stroke="blue" d="M359.52,-47.07C348.49,-47.84 335.5,-48.62 323.75,-49 275.66,-50.55 263.6,-50.21 215.5,-49 207.59,-48.8 199.24,-48.49 191.04,-48.13"/>
<polygon fill="blue" stroke="blue" points="191.28,-44.64 181.12,-47.67 190.95,-51.63 191.28,-44.64"/>
</g>
<!-- Return&#45;&gt;S -->
</g>
</svg>
