<?xml version="1.0" encoding="UTF-8" standalone="no"?>
<!DOCTYPE svg PUBLIC "-//W3C//DTD SVG 1.1//EN"
 "http://www.w3.org/Graphics/SVG/1.1/DTD/svg11.dtd">
<!-- Generated by graphviz version 2.43.0 (0)
 -->
<!-- Title: chapter06 Pages: 1 -->
<svg width="294pt" height="420pt"
 viewBox="0.00 0.00 294.00 420.00" xmlns="http://www.w3.org/2000/svg" xmlns:xlink="http://www.w3.org/1999/xlink">
<g id="graph0" class="graph" transform="scale(1 1) rotate(0) translate(4 416)">
<title>chapter06</title>
<polygon fill="white" stroke="transparent" points="-4,4 -4,-416 290,-416 290,4 -4,4"/>
<g id="clust1" class="cluster">
<title>cluster_Nodes</title>
<polygon fill="none" stroke="black" points="8,-8 8,-404 278,-404 278,-8 8,-8"/>
</g>
<!-- Return16 -->
<g id="node1" class="node">
<title>Return16</title>
<polygon fill="yellow" stroke="black" points="187,-124 121,-124 121,-88 187,-88 187,-124"/>
<text text-anchor="middle" x="154" y="-102.3" font-family="Times,serif" font-size="14.00">Return</text>
</g>
<!-- Region14 -->
<g id="node8" class="node">
<title>Region14</title>
<polygon fill="yellow" stroke="black" points="226,-196 160,-196 160,-160 226,-160 226,-196"/>
<text text-anchor="middle" x="193" y="-174.3" font-family="Times,serif" font-size="14.00">Region</text>
</g>
<!-- Return16&#45;&gt;Region14 -->
<g id="edge1" class="edge">
<title>Return16&#45;&gt;Region14</title>
<path fill="none" stroke="red" d="M163.64,-124.3C168.13,-132.36 173.56,-142.11 178.52,-151.02"/>
<polygon fill="red" stroke="red" points="175.55,-152.86 183.47,-159.9 181.66,-149.46 175.55,-152.86"/>
<text text-anchor="middle" x="160.64" y="-126.9" font-family="Helvetica,sans-Serif" font-size="8.00">0</text>
</g>
<!-- Phi_a15 -->
<g id="node9" class="node">
<title>Phi_a15</title>
<ellipse fill="lightyellow" stroke="black" cx="115" cy="-178" rx="27" ry="18"/>
<text text-anchor="middle" x="115" y="-174.3" font-family="Times,serif" font-size="14.00">φ_a</text>
</g>
<!-- Return16&#45;&gt;Phi_a15 -->
<g id="edge2" class="edge">
<title>Return16&#45;&gt;Phi_a15</title>
<path fill="none" stroke="black" d="M144.36,-124.3C139.69,-132.68 134,-142.9 128.87,-152.1"/>
<polygon fill="black" stroke="black" points="125.8,-150.42 123.99,-160.86 131.92,-153.82 125.8,-150.42"/>
<text text-anchor="middle" x="141.36" y="-126.9" font-family="Helvetica,sans-Serif" font-size="8.00">1</text>
</g>
<!-- Start2 -->
<g id="node2" class="node">
<title>Start2</title>
<polygon fill="yellow" stroke="transparent" points="126,-367 126,-392 176,-392 176,-367 126,-367"/>
<polygon fill="none" stroke="black" points="126,-367 126,-392 176,-392 176,-367 126,-367"/>
<text text-anchor="start" x="132.5" y="-375.8" font-family="Times,serif" font-size="14.00">Start</text>
<polygon fill="none" stroke="black" points="126,-336 126,-367 176,-367 176,-336 126,-336"/>
<polygon fill="yellow" stroke="transparent" points="131,-341 131,-362 171,-362 171,-341 131,-341"/>
<polygon fill="none" stroke="black" points="131,-341 131,-362 171,-362 171,-341 131,-341"/>
<text text-anchor="start" x="134" y="-347.8" font-family="Times,serif" font-size="14.00">$ctrl</text>
</g>
<!-- Stop3 -->
<g id="node3" class="node">
<title>Stop3</title>
<polygon fill="yellow" stroke="black" points="181,-52 127,-52 127,-16 181,-16 181,-52"/>
<text text-anchor="middle" x="154" y="-30.3" font-family="Times,serif" font-size="14.00">Stop</text>
</g>
<!-- Stop3&#45;&gt;Return16 -->
<g id="edge3" class="edge">
<title>Stop3&#45;&gt;Return16</title>
<path fill="none" stroke="red" d="M154,-52.3C154,-60.02 154,-69.29 154,-77.89"/>
<polygon fill="red" stroke="red" points="150.5,-77.9 154,-87.9 157.5,-77.9 150.5,-77.9"/>
<text text-anchor="middle" x="151" y="-54.9" font-family="Helvetica,sans-Serif" font-size="8.00">0</text>
</g>
<!-- Con_7 -->
<g id="node4" class="node">
<title>Con_7</title>
<ellipse fill="none" stroke="black" cx="229" cy="-364" rx="27" ry="18"/>
<text text-anchor="middle" x="229" y="-360.3" font-family="Times,serif" font-size="14.00">#1</text>
</g>
<!-- If8 -->
<g id="node5" class="node">
<title>If8</title>
<polygon fill="yellow" stroke="transparent" points="168,-267 168,-292 262,-292 262,-267 168,-267"/>
<polygon fill="none" stroke="black" points="168,-267 168,-292 262,-292 262,-267 168,-267"/>
<text text-anchor="start" x="209.5" y="-275.8" font-family="Times,serif" font-size="14.00">If</text>
<polygon fill="none" stroke="black" points="168,-236 168,-267 262,-267 262,-236 168,-236"/>
<polygon fill="yellow" stroke="transparent" points="173,-241 173,-262 213,-262 213,-241 173,-241"/>
<polygon fill="none" stroke="black" points="173,-241 173,-262 213,-262 213,-241 173,-241"/>
<text text-anchor="start" x="176" y="-247.8" font-family="Times,serif" font-size="14.00">True</text>
<polygon fill="yellow" stroke="transparent" points="213,-241 213,-262 257,-262 257,-241 213,-241"/>
<polygon fill="none" stroke="black" points="213,-241 213,-262 257,-262 257,-241 213,-241"/>
<text text-anchor="start" x="216" y="-247.8" font-family="Times,serif" font-size="14.00">False</text>
</g>
<!-- If8&#45;&gt;Start2 -->
<g id="edge4" class="edge">
<title>If8&#45;&gt;Start2:p0</title>
<path fill="none" stroke="red" d="M205.76,-296.05C199.47,-314.72 190.61,-336.65 181.17,-346.18"/>
<polygon fill="red" stroke="red" points="179.22,-343.25 172,-351 182.48,-349.44 179.22,-343.25"/>
<text text-anchor="middle" x="202.76" y="-298.65" font-family="Helvetica,sans-Serif" font-size="8.00">0</text>
</g>
<!-- If8&#45;&gt;Con_7 -->
<g id="edge5" class="edge">
<title>If8&#45;&gt;Con_7</title>
<path fill="none" stroke="black" d="M219.43,-296.01C221.25,-308.76 223.34,-323.4 225.1,-335.73"/>
<polygon fill="black" stroke="black" points="221.67,-336.47 226.55,-345.87 228.6,-335.48 221.67,-336.47"/>
<text text-anchor="middle" x="216.43" y="-298.61" font-family="Helvetica,sans-Serif" font-size="8.00">1</text>
</g>
<!-- Con_12 -->
<g id="node6" class="node">
<title>Con_12</title>
<ellipse fill="none" stroke="black" cx="43" cy="-264" rx="27" ry="18"/>
<text text-anchor="middle" x="43" y="-260.3" font-family="Times,serif" font-size="14.00">#2</text>
</g>
<!-- Con_13 -->
<g id="node7" class="node">
<title>Con_13</title>
<ellipse fill="none" stroke="black" cx="115" cy="-264" rx="27" ry="18"/>
<text text-anchor="middle" x="115" y="-260.3" font-family="Times,serif" font-size="14.00">#3</text>
</g>
<!-- Region14&#45;&gt;If8 -->
<g id="edge6" class="edge">
<title>Region14&#45;&gt;If8:p0</title>
<path fill="none" stroke="red" d="M193,-196.09C193,-205.55 193,-217.77 193,-229.69"/>
<polygon fill="red" stroke="red" points="189.5,-230 193,-240 196.5,-230 189.5,-230"/>
<text text-anchor="middle" x="190" y="-198.69" font-family="Helvetica,sans-Serif" font-size="8.00">1</text>
</g>
<!-- Region14&#45;&gt;If8 -->
<g id="edge7" class="edge">
<title>Region14&#45;&gt;If8:p1</title>
<path fill="none" stroke="red" d="M213.02,-196.12C221.64,-205.06 230.48,-216.84 233.71,-229.84"/>
<polygon fill="red" stroke="red" points="230.27,-230.52 235,-240 237.22,-229.64 230.27,-230.52"/>
<text text-anchor="middle" x="210.02" y="-198.72" font-family="Helvetica,sans-Serif" font-size="8.00">2</text>
</g>
<!-- Phi_a15&#45;&gt;Con_12 -->
<g id="edge9" class="edge">
<title>Phi_a15&#45;&gt;Con_12</title>
<path fill="none" stroke="black" d="M102.13,-194.02C91.07,-206.92 74.96,-225.71 62.35,-240.42"/>
<polygon fill="black" stroke="black" points="59.61,-238.24 55.76,-248.11 64.93,-242.8 59.61,-238.24"/>
<text text-anchor="middle" x="99.13" y="-196.62" font-family="Helvetica,sans-Serif" font-size="8.00">1</text>
</g>
<!-- Phi_a15&#45;&gt;Con_13 -->
<g id="edge10" class="edge">
<title>Phi_a15&#45;&gt;Con_13</title>
<path fill="none" stroke="black" d="M115,-196.4C115,-207.74 115,-222.77 115,-235.68"/>
<polygon fill="black" stroke="black" points="111.5,-235.9 115,-245.9 118.5,-235.9 111.5,-235.9"/>
<text text-anchor="middle" x="112" y="-199" font-family="Helvetica,sans-Serif" font-size="8.00">2</text>
</g>
<!-- Phi_a15&#45;&gt;Region14 -->
<g id="edge8" class="edge">
<title>Phi_a15&#45;&gt;Region14</title>
<path fill="none" stroke="black" stroke-dasharray="1,5" d="M142.12,-178C144.58,-178 147.04,-178 149.5,-178"/>
<polygon fill="black" stroke="black" points="149.61,-181.5 159.61,-178 149.61,-174.5 149.61,-181.5"/>
<text text-anchor="middle" x="145.12" y="-171.6" font-family="Helvetica,sans-Serif" font-size="8.00">0</text>
</g>
</g>
</svg>
