<?xml version="1.0" encoding="UTF-8" standalone="no"?>
<!DOCTYPE svg PUBLIC "-//W3C//DTD SVG 1.1//EN"
 "http://www.w3.org/Graphics/SVG/1.1/DTD/svg11.dtd">
<!-- Generated by graphviz version 2.43.0 (0)
 -->
<!-- Title: chapter06 Pages: 1 -->
<svg width="294pt" height="420pt"
 viewBox="0.00 0.00 294.00 420.00" xmlns="http://www.w3.org/2000/svg" xmlns:xlink="http://www.w3.org/1999/xlink">
<g id="graph0" class="graph" transform="scale(1 1) rotate(0) translate(4 416)">
<title>chapter06</title>
<polygon fill="white" stroke="transparent" points="-4,4 -4,-416 290,-416 290,4 -4,4"/>
<g id="clust1" class="cluster">
<title>cluster_Nodes</title>
<polygon fill="none" stroke="black" points="8,-8 8,-404 278,-404 278,-8 8,-8"/>
</g>
<!-- Start2 -->
<g id="node1" class="node">
<title>Start2</title>
<polygon fill="yellow" stroke="transparent" points="168,-367 168,-392 249,-392 249,-367 168,-367"/>
<polygon fill="none" stroke="black" points="168,-367 168,-392 249,-392 249,-367 168,-367"/>
<text text-anchor="start" x="190" y="-375.8" font-family="Times,serif" font-size="14.00">Start</text>
<polygon fill="none" stroke="black" points="168,-336 168,-367 249,-367 249,-336 168,-336"/>
<polygon fill="yellow" stroke="transparent" points="173,-341 173,-362 213,-362 213,-341 173,-341"/>
<polygon fill="none" stroke="black" points="173,-341 173,-362 213,-362 213,-341 173,-341"/>
<text text-anchor="start" x="176" y="-347.8" font-family="Times,serif" font-size="14.00">$ctrl</text>
<polygon fill="none" stroke="black" points="213,-341 213,-362 244,-362 244,-341 213,-341"/>
<text text-anchor="start" x="216" y="-347.8" font-family="Times,serif" font-size="14.00">arg</text>
</g>
<!-- Stop3 -->
<g id="node2" class="node">
<title>Stop3</title>
<polygon fill="yellow" stroke="black" points="180,-52 126,-52 126,-16 180,-16 180,-52"/>
<text text-anchor="middle" x="153" y="-30.3" font-family="Times,serif" font-size="14.00">Stop</text>
</g>
<!-- Return31 -->
<g id="node8" class="node">
<title>Return31</title>
<polygon fill="yellow" stroke="black" points="186,-124 120,-124 120,-88 186,-88 186,-124"/>
<text text-anchor="middle" x="153" y="-102.3" font-family="Times,serif" font-size="14.00">Return</text>
</g>
<!-- Stop3&#45;&gt;Return31 -->
<g id="edge1" class="edge">
<title>Stop3&#45;&gt;Return31</title>
<path fill="none" stroke="red" d="M153,-52.3C153,-60.02 153,-69.29 153,-77.89"/>
<polygon fill="red" stroke="red" points="149.5,-77.9 153,-87.9 156.5,-77.9 149.5,-77.9"/>
<text text-anchor="middle" x="150" y="-54.9" font-family="Helvetica,sans-Serif" font-size="8.00">0</text>
</g>
<!-- Region22 -->
<g id="node3" class="node">
<title>Region22</title>
<polygon fill="yellow" stroke="black" points="228,-196 162,-196 162,-160 228,-160 228,-196"/>
<text text-anchor="middle" x="195" y="-174.3" font-family="Times,serif" font-size="14.00">Region</text>
</g>
<!-- If8 -->
<g id="node4" class="node">
<title>If8</title>
<polygon fill="yellow" stroke="transparent" points="168,-267 168,-292 262,-292 262,-267 168,-267"/>
<polygon fill="none" stroke="black" points="168,-267 168,-292 262,-292 262,-267 168,-267"/>
<text text-anchor="start" x="209.5" y="-275.8" font-family="Times,serif" font-size="14.00">If</text>
<polygon fill="none" stroke="black" points="168,-236 168,-267 262,-267 262,-236 168,-236"/>
<polygon fill="yellow" stroke="transparent" points="173,-241 173,-262 213,-262 213,-241 173,-241"/>
<polygon fill="none" stroke="black" points="173,-241 173,-262 213,-262 213,-241 173,-241"/>
<text text-anchor="start" x="176" y="-247.8" font-family="Times,serif" font-size="14.00">True</text>
<polygon fill="yellow" stroke="transparent" points="213,-241 213,-262 257,-262 257,-241 213,-241"/>
<polygon fill="none" stroke="black" points="213,-241 213,-262 257,-262 257,-241 213,-241"/>
<text text-anchor="start" x="216" y="-247.8" font-family="Times,serif" font-size="14.00">False</text>
</g>
<!-- Region22&#45;&gt;If8 -->
<g id="edge2" class="edge">
<title>Region22&#45;&gt;If8:p0</title>
<path fill="none" stroke="red" d="M194.14,-196.09C193.72,-205.54 193.27,-217.77 193.08,-229.68"/>
<polygon fill="red" stroke="red" points="189.58,-229.97 193,-240 196.58,-230.03 189.58,-229.97"/>
<text text-anchor="middle" x="191.14" y="-198.69" font-family="Helvetica,sans-Serif" font-size="8.00">1</text>
</g>
<!-- Region22&#45;&gt;If8 -->
<g id="edge3" class="edge">
<title>Region22&#45;&gt;If8:p1</title>
<path fill="none" stroke="red" d="M213.83,-196.05C222.1,-205.05 230.63,-216.92 233.76,-229.89"/>
<polygon fill="red" stroke="red" points="230.31,-230.5 235,-240 237.25,-229.65 230.31,-230.5"/>
<text text-anchor="middle" x="210.83" y="-198.65" font-family="Helvetica,sans-Serif" font-size="8.00">2</text>
</g>
<!-- If8&#45;&gt;Start2 -->
<g id="edge4" class="edge">
<title>If8&#45;&gt;Start2:p0</title>
<path fill="none" stroke="red" d="M201.57,-296.16C198.03,-306.41 194.84,-318.18 193.57,-329.83"/>
<polygon fill="red" stroke="red" points="190.07,-329.82 193,-340 197.06,-330.21 190.07,-329.82"/>
<text text-anchor="middle" x="198.57" y="-298.76" font-family="Helvetica,sans-Serif" font-size="8.00">0</text>
</g>
<!-- If8&#45;&gt;Start2 -->
<g id="edge5" class="edge">
<title>If8&#45;&gt;Start2:p1</title>
<path fill="none" stroke="black" d="M223.47,-296.14C225.75,-306.5 227.81,-318.36 228.63,-329.94"/>
<polygon fill="black" stroke="black" points="225.13,-330.14 229,-340 232.13,-329.88 225.13,-330.14"/>
<text text-anchor="middle" x="220.47" y="-298.74" font-family="Helvetica,sans-Serif" font-size="8.00">1</text>
</g>
<!-- Con_27 -->
<g id="node5" class="node">
<title>Con_27</title>
<ellipse fill="none" stroke="black" cx="43" cy="-264" rx="27" ry="18"/>
<text text-anchor="middle" x="43" y="-260.3" font-family="Times,serif" font-size="14.00">#4</text>
</g>
<!-- Con_29 -->
<g id="node6" class="node">
<title>Con_29</title>
<ellipse fill="none" stroke="black" cx="115" cy="-264" rx="27" ry="18"/>
<text text-anchor="middle" x="115" y="-260.3" font-family="Times,serif" font-size="14.00">#1</text>
</g>
<!-- Phi_ab30 -->
<g id="node7" class="node">
<title>Phi_ab30</title>
<ellipse fill="lightyellow" stroke="black" cx="112" cy="-178" rx="32.49" ry="18"/>
<text text-anchor="middle" x="112" y="-174.3" font-family="Times,serif" font-size="14.00">φ_ab</text>
</g>
<!-- Phi_ab30&#45;&gt;Region22 -->
<g id="edge6" class="edge">
<title>Phi_ab30&#45;&gt;Region22</title>
<path fill="none" stroke="black" stroke-dasharray="1,5" d="M144.75,-178C147.03,-178 149.32,-178 151.6,-178"/>
<polygon fill="black" stroke="black" points="151.63,-181.5 161.63,-178 151.63,-174.5 151.63,-181.5"/>
<text text-anchor="middle" x="147.75" y="-171.6" font-family="Helvetica,sans-Serif" font-size="8.00">0</text>
</g>
<!-- Phi_ab30&#45;&gt;Con_27 -->
<g id="edge7" class="edge">
<title>Phi_ab30&#45;&gt;Con_27</title>
<path fill="none" stroke="black" d="M99.02,-194.8C88.58,-207.51 73.76,-225.56 61.98,-239.89"/>
<polygon fill="black" stroke="black" points="59.1,-237.89 55.46,-247.84 64.51,-242.33 59.1,-237.89"/>
<text text-anchor="middle" x="96.02" y="-197.4" font-family="Helvetica,sans-Serif" font-size="8.00">1</text>
</g>
<!-- Phi_ab30&#45;&gt;Con_29 -->
<g id="edge8" class="edge">
<title>Phi_ab30&#45;&gt;Con_29</title>
<path fill="none" stroke="black" d="M112.61,-196C113.01,-207.31 113.55,-222.42 114.02,-235.43"/>
<polygon fill="black" stroke="black" points="110.53,-235.87 114.38,-245.74 117.52,-235.62 110.53,-235.87"/>
<text text-anchor="middle" x="109.61" y="-198.6" font-family="Helvetica,sans-Serif" font-size="8.00">2</text>
</g>
<!-- Return31&#45;&gt;Region22 -->
<g id="edge9" class="edge">
<title>Return31&#45;&gt;Region22</title>
<path fill="none" stroke="red" d="M163.38,-124.3C168.26,-132.44 174.19,-142.31 179.58,-151.3"/>
<polygon fill="red" stroke="red" points="176.59,-153.12 184.74,-159.9 182.59,-149.52 176.59,-153.12"/>
<text text-anchor="middle" x="160.38" y="-126.9" font-family="Helvetica,sans-Serif" font-size="8.00">0</text>
</g>
<!-- Return31&#45;&gt;Phi_ab30 -->
<g id="edge10" class="edge">
<title>Return31&#45;&gt;Phi_ab30</title>
<path fill="none" stroke="black" d="M142.87,-124.3C138.03,-132.56 132.15,-142.61 126.82,-151.7"/>
<polygon fill="black" stroke="black" points="123.77,-149.98 121.74,-160.38 129.81,-153.52 123.77,-149.98"/>
<text text-anchor="middle" x="139.87" y="-126.9" font-family="Helvetica,sans-Serif" font-size="8.00">1</text>
</g>
</g>
</svg>
