<?xml version="1.0" encoding="UTF-8" standalone="no"?>
<!DOCTYPE svg PUBLIC "-//W3C//DTD SVG 1.1//EN"
 "http://www.w3.org/Graphics/SVG/1.1/DTD/svg11.dtd">
<!-- Generated by graphviz version 2.43.0 (0)
 -->
<!-- Title: Lattice Pages: 1 -->
<svg width="702pt" height="478pt"
 viewBox="0.00 0.00 702.04 478.27" xmlns="http://www.w3.org/2000/svg" xmlns:xlink="http://www.w3.org/1999/xlink">
<g id="graph0" class="graph" transform="scale(1 1) rotate(0) translate(4 474.27)">
<title>Lattice</title>
<polygon fill="white" stroke="transparent" points="-4,4 -4,-474.27 698.04,-474.27 698.04,4 -4,4"/>
<!-- TOP -->
<g id="node1" class="node">
<title>TOP</title>
<ellipse fill="lightblue" stroke="black" cx="277.5" cy="-450.77" rx="19.5" ry="19.5"/>
<text text-anchor="middle" x="277.5" y="-447.07" font-family="Times,serif" font-size="14.00">⊤</text>
</g>
<!-- XCTRL -->
<g id="node3" class="node">
<title>XCTRL</title>
<ellipse fill="lightblue" stroke="black" cx="46.5" cy="-354.98" rx="36.29" ry="36.29"/>
<text text-anchor="middle" x="46.5" y="-351.28" font-family="Times,serif" font-size="14.00">~Ctrl</text>
</g>
<!-- TOP&#45;&gt;XCTRL -->
<g id="edge25" class="edge">
<title>TOP&#45;&gt;XCTRL</title>
<path fill="none" stroke="black" d="M259.76,-442.57C221.3,-426.95 129.74,-389.78 80.01,-369.59"/>
</g>
<!-- INT_TOP -->
<g id="node5" class="node">
<title>INT_TOP</title>
<ellipse fill="lightblue" stroke="black" cx="277.5" cy="-354.98" rx="40.09" ry="40.09"/>
<text text-anchor="middle" x="277.5" y="-351.28" font-family="Times,serif" font-size="14.00">IntTop</text>
</g>
<!-- TOP&#45;&gt;INT_TOP -->
<g id="edge1" class="edge">
<title>TOP&#45;&gt;INT_TOP</title>
<path fill="none" stroke="black" d="M277.5,-431.24C277.5,-420.99 277.5,-407.84 277.5,-395.42"/>
</g>
<!-- TUPLE -->
<g id="node14" class="node">
<title>TUPLE</title>
<ellipse fill="lightblue" stroke="black" cx="650.5" cy="-235.14" rx="43.59" ry="43.59"/>
<text text-anchor="middle" x="650.5" y="-231.44" font-family="Times,serif" font-size="14.00">TUPLE</text>
</g>
<!-- TOP&#45;&gt;TUPLE -->
<g id="edge23" class="edge">
<title>TOP&#45;&gt;TUPLE</title>
<path fill="none" stroke="black" d="M294.49,-440.95C350.93,-408.32 533.03,-303.05 612.65,-257.02"/>
</g>
<!-- BOT -->
<g id="node2" class="node">
<title>BOT</title>
<ellipse fill="lightblue" stroke="black" cx="277.5" cy="-19.5" rx="19.5" ry="19.5"/>
<text text-anchor="middle" x="277.5" y="-15.8" font-family="Times,serif" font-size="14.00">⊥</text>
</g>
<!-- CTRL -->
<g id="node4" class="node">
<title>CTRL</title>
<ellipse fill="lightblue" stroke="black" cx="50.5" cy="-115.29" rx="28.7" ry="28.7"/>
<text text-anchor="middle" x="50.5" y="-111.59" font-family="Times,serif" font-size="14.00">Ctrl</text>
</g>
<!-- XCTRL&#45;&gt;CTRL -->
<g id="edge26" class="edge">
<title>XCTRL&#45;&gt;CTRL</title>
<path fill="none" stroke="black" d="M47.11,-318.58C47.9,-270.77 49.29,-187.82 50.02,-144.12"/>
</g>
<!-- CTRL&#45;&gt;BOT -->
<g id="edge27" class="edge">
<title>CTRL&#45;&gt;BOT</title>
<path fill="none" stroke="black" d="M76.98,-103.35C123.76,-84.02 219.83,-44.32 259.63,-27.88"/>
</g>
<!-- INT_MIN -->
<g id="node7" class="node">
<title>INT_MIN</title>
<ellipse fill="lightblue" stroke="black" cx="19.5" cy="-235.14" rx="19.5" ry="19.5"/>
<text text-anchor="middle" x="19.5" y="-231.44" font-family="Times,serif" font-size="14.00">&#45;n</text>
</g>
<!-- INT_TOP&#45;&gt;INT_MIN -->
<g id="edge2" class="edge">
<title>INT_TOP&#45;&gt;INT_MIN</title>
<path fill="none" stroke="black" d="M241.08,-337.34C184.83,-311.65 78.92,-263.28 37.12,-244.18"/>
</g>
<!-- INT_MINDOTS -->
<g id="node8" class="node">
<title>INT_MINDOTS</title>
<text text-anchor="middle" x="108.5" y="-231.44" font-family="Times,serif" font-size="14.00">...</text>
</g>
<!-- INT_TOP&#45;&gt;INT_MINDOTS -->
<g id="edge3" class="edge">
<title>INT_TOP&#45;&gt;INT_MINDOTS</title>
<path fill="none" stroke="black" d="M244.91,-331.26C212.21,-308.45 162.56,-273.83 133.04,-253.25"/>
</g>
<!-- INT_MINUS -->
<g id="node9" class="node">
<title>INT_MINUS</title>
<ellipse fill="lightblue" stroke="black" cx="197.5" cy="-235.14" rx="19.5" ry="19.5"/>
<text text-anchor="middle" x="197.5" y="-231.44" font-family="Times,serif" font-size="14.00">&#45;1</text>
</g>
<!-- INT_TOP&#45;&gt;INT_MINUS -->
<g id="edge4" class="edge">
<title>INT_TOP&#45;&gt;INT_MINUS</title>
<path fill="none" stroke="black" d="M255.21,-321.15C239.86,-298.54 220.15,-269.51 208.19,-251.89"/>
</g>
<!-- INT_ZERO -->
<g id="node10" class="node">
<title>INT_ZERO</title>
<ellipse fill="lightblue" stroke="black" cx="277.5" cy="-235.14" rx="18" ry="18"/>
<text text-anchor="middle" x="277.5" y="-231.44" font-family="Times,serif" font-size="14.00">0</text>
</g>
<!-- INT_TOP&#45;&gt;INT_ZERO -->
<g id="edge5" class="edge">
<title>INT_TOP&#45;&gt;INT_ZERO</title>
<path fill="none" stroke="black" d="M277.5,-314.41C277.5,-293.68 277.5,-269.36 277.5,-253.39"/>
</g>
<!-- INT_PLUS -->
<g id="node11" class="node">
<title>INT_PLUS</title>
<ellipse fill="lightblue" stroke="black" cx="356.5" cy="-235.14" rx="18" ry="18"/>
<text text-anchor="middle" x="356.5" y="-231.44" font-family="Times,serif" font-size="14.00">1</text>
</g>
<!-- INT_TOP&#45;&gt;INT_PLUS -->
<g id="edge6" class="edge">
<title>INT_TOP&#45;&gt;INT_PLUS</title>
<path fill="none" stroke="black" d="M299.5,-321.15C315.03,-298 335.07,-268.1 346.78,-250.63"/>
</g>
<!-- INT_MAXDOTS -->
<g id="node12" class="node">
<title>INT_MAXDOTS</title>
<text text-anchor="middle" x="444.5" y="-231.44" font-family="Times,serif" font-size="14.00">...</text>
</g>
<!-- INT_TOP&#45;&gt;INT_MAXDOTS -->
<g id="edge7" class="edge">
<title>INT_TOP&#45;&gt;INT_MAXDOTS</title>
<path fill="none" stroke="black" d="M310.09,-330.98C342.46,-308.14 391.33,-273.65 420.37,-253.16"/>
</g>
<!-- INT_MAX -->
<g id="node13" class="node">
<title>INT_MAX</title>
<ellipse fill="lightblue" stroke="black" cx="539.5" cy="-235.14" rx="24.9" ry="24.9"/>
<text text-anchor="middle" x="539.5" y="-231.44" font-family="Times,serif" font-size="14.00">+n</text>
</g>
<!-- INT_TOP&#45;&gt;INT_MAX -->
<g id="edge8" class="edge">
<title>INT_TOP&#45;&gt;INT_MAX</title>
<path fill="none" stroke="black" d="M313.93,-337.59C369.05,-312.8 471.99,-266.5 517.22,-246.16"/>
</g>
<!-- INT_BOT -->
<g id="node6" class="node">
<title>INT_BOT</title>
<ellipse fill="lightblue" stroke="black" cx="277.5" cy="-115.29" rx="40.09" ry="40.09"/>
<text text-anchor="middle" x="277.5" y="-111.59" font-family="Times,serif" font-size="14.00">IntBot</text>
</g>
<!-- INT_BOT&#45;&gt;BOT -->
<g id="edge16" class="edge">
<title>INT_BOT&#45;&gt;BOT</title>
<path fill="none" stroke="black" d="M277.5,-74.79C277.5,-62.37 277.5,-49.25 277.5,-39.01"/>
</g>
<!-- INT_MIN&#45;&gt;INT_BOT -->
<g id="edge9" class="edge">
<title>INT_MIN&#45;&gt;INT_BOT</title>
<path fill="none" stroke="black" d="M37.23,-226.04C79.13,-206.9 184.92,-158.58 241.11,-132.91"/>
</g>
<!-- INT_MIN&#45;&gt;INT_MINDOTS -->
<!-- INT_MINDOTS&#45;&gt;INT_BOT -->
<g id="edge10" class="edge">
<title>INT_MINDOTS&#45;&gt;INT_BOT</title>
<path fill="none" stroke="black" d="M133.07,-217C162.55,-196.45 212.07,-161.91 244.77,-139.11"/>
</g>
<!-- INT_MINDOTS&#45;&gt;INT_MINUS -->
<!-- INT_MINUS&#45;&gt;INT_BOT -->
<g id="edge11" class="edge">
<title>INT_MINUS&#45;&gt;INT_BOT</title>
<path fill="none" stroke="black" d="M208.29,-218.24C220.23,-200.65 239.81,-171.81 255.1,-149.29"/>
</g>
<!-- INT_MINUS&#45;&gt;INT_ZERO -->
<!-- INT_ZERO&#45;&gt;INT_BOT -->
<g id="edge12" class="edge">
<title>INT_ZERO&#45;&gt;INT_BOT</title>
<path fill="none" stroke="black" d="M277.5,-217C277.5,-201.04 277.5,-176.66 277.5,-155.88"/>
</g>
<!-- INT_ZERO&#45;&gt;INT_PLUS -->
<!-- INT_PLUS&#45;&gt;INT_BOT -->
<g id="edge13" class="edge">
<title>INT_PLUS&#45;&gt;INT_BOT</title>
<path fill="none" stroke="black" d="M346.81,-219.69C335.11,-202.23 315.06,-172.33 299.53,-149.16"/>
</g>
<!-- INT_PLUS&#45;&gt;INT_MAXDOTS -->
<!-- INT_MAXDOTS&#45;&gt;INT_BOT -->
<g id="edge14" class="edge">
<title>INT_MAXDOTS&#45;&gt;INT_BOT</title>
<path fill="none" stroke="black" d="M420.22,-217C391.18,-196.51 342.45,-162.13 310.14,-139.33"/>
</g>
<!-- INT_MAXDOTS&#45;&gt;INT_MAX -->
<!-- INT_MAX&#45;&gt;INT_BOT -->
<g id="edge15" class="edge">
<title>INT_MAX&#45;&gt;INT_BOT</title>
<path fill="none" stroke="black" d="M517.16,-224.09C471.99,-203.77 369.42,-157.64 314.25,-132.82"/>
</g>
<!-- TUPLE&#45;&gt;BOT -->
<g id="edge24" class="edge">
<title>TUPLE&#45;&gt;BOT</title>
<path fill="none" stroke="black" d="M612.68,-213.27C533.04,-167.23 350.75,-61.85 294.41,-29.27"/>
</g>
</g>
</svg>
