<?xml version="1.0" encoding="UTF-8" standalone="no"?>
<!DOCTYPE svg PUBLIC "-//W3C//DTD SVG 1.1//EN"
 "http://www.w3.org/Graphics/SVG/1.1/DTD/svg11.dtd">
<!-- Generated by graphviz version 12.2.0 (20241103.1931)
 -->
<!-- Title: Memory Pages: 1 -->
<svg width="581pt" height="166pt"
 viewBox="0.00 0.00 581.12 166.00" xmlns="http://www.w3.org/2000/svg" xmlns:xlink="http://www.w3.org/1999/xlink">
<g id="graph0" class="graph" transform="scale(1 1) rotate(0) translate(4 162)">
<title>Memory</title>
<polygon fill="#fafbfc" stroke="none" points="-4,4 -4,-162 577.12,-162 577.12,4 -4,4"/>
<!-- M -->
<g id="node1" class="node">
<title>M</title>
<polygon fill="#dcecff" stroke="#758191" points="152.14,-101.54 152.14,-116.46 107.58,-127 44.56,-127 0,-116.46 0,-101.54 44.56,-91 107.58,-91 152.14,-101.54"/>
<text text-anchor="middle" x="76.07" y="-104.72" font-family="Helvetica,sans-Serif" font-size="12.00" fill="#152330">Incoming memory</text>
</g>
<!-- A -->
<g id="node2" class="node">
<title>A</title>
<polygon fill="#dcecff" stroke="#758191" points="311.24,-132.54 311.24,-147.46 277.57,-158 229.95,-158 196.27,-147.46 196.27,-132.54 229.95,-122 277.57,-122 311.24,-132.54"/>
<text text-anchor="middle" x="253.76" y="-135.72" font-family="Helvetica,sans-Serif" font-size="12.00" fill="#152330">True: Store x</text>
</g>
<!-- A&#45;&gt;M -->
<g id="edge2" class="edge">
<title>A&#45;&gt;M</title>
<path fill="none" stroke="#2867b2" stroke-width="1.5" d="M272.92,-121.71C272.92,-117.22 272.92,-113.67 272.92,-113.67 272.92,-113.67 161.73,-113.67 161.73,-113.67"/>
<polygon fill="#2867b2" stroke="#2867b2" stroke-width="1.5" points="161.73,-111.22 154.73,-113.67 161.73,-116.12 161.73,-111.22"/>
</g>
<!-- B -->
<g id="node3" class="node">
<title>B</title>
<polygon fill="#dcecff" stroke="#758191" points="315.37,-71.54 315.37,-86.46 279.28,-97 228.24,-97 192.14,-86.46 192.14,-71.54 228.24,-61 279.28,-61 315.37,-71.54"/>
<text text-anchor="middle" x="253.76" y="-74.72" font-family="Helvetica,sans-Serif" font-size="12.00" fill="#152330">False: Store x</text>
</g>
<!-- B&#45;&gt;M -->
<g id="edge4" class="edge">
<title>B&#45;&gt;M</title>
<path fill="none" stroke="#2867b2" stroke-width="1.5" d="M234.6,-97.29C234.6,-101.78 234.6,-105.33 234.6,-105.33 234.6,-105.33 161.82,-105.33 161.82,-105.33"/>
<polygon fill="#2867b2" stroke="#2867b2" stroke-width="1.5" points="161.82,-102.88 154.82,-105.33 161.82,-107.78 161.82,-102.88"/>
</g>
<!-- P -->
<g id="node4" class="node">
<title>P</title>
<polygon fill="#f5e4fa" stroke="#758191" points="479.12,-79 448.18,-97 386.31,-97 355.37,-79 386.31,-61 448.18,-61 479.12,-79"/>
<text text-anchor="middle" x="417.25" y="-74.72" font-family="Helvetica,sans-Serif" font-size="12.00" fill="#152330">Phi(memory)</text>
</g>
<!-- P&#45;&gt;A -->
<g id="edge1" class="edge">
<title>P&#45;&gt;A</title>
<path fill="none" stroke="#2867b2" stroke-width="1.5" d="M417.25,-97.3C417.25,-115.27 417.25,-140 417.25,-140 417.25,-140 320.67,-140 320.67,-140"/>
<polygon fill="#2867b2" stroke="#2867b2" stroke-width="1.5" points="320.67,-137.55 313.67,-140 320.67,-142.45 320.67,-137.55"/>
</g>
<!-- P&#45;&gt;B -->
<g id="edge3" class="edge">
<title>P&#45;&gt;B</title>
<path fill="none" stroke="#2867b2" stroke-width="1.5" d="M354.5,-79C354.5,-79 325.06,-79 325.06,-79"/>
<polygon fill="#2867b2" stroke="#2867b2" stroke-width="1.5" points="325.06,-76.55 318.06,-79 325.06,-81.45 325.06,-76.55"/>
</g>
<!-- Region -->
<g id="node5" class="node">
<title>Region</title>
<polygon fill="#fff1c4" stroke="#758191" points="282.65,-36 224.86,-36 204.29,0 303.23,0 282.65,-36"/>
<text text-anchor="middle" x="253.76" y="-13.72" font-family="Helvetica,sans-Serif" font-size="12.00" fill="#152330">Region</text>
</g>
<!-- P&#45;&gt;Region -->
<g id="edge5" class="edge">
<title>P&#45;&gt;Region</title>
<path fill="none" stroke="#9396a3" stroke-width="1.5" stroke-dasharray="5,2" d="M417.25,-60.7C417.25,-42.73 417.25,-18 417.25,-18 417.25,-18 302.6,-18 302.6,-18"/>
<polygon fill="#9396a3" stroke="#9396a3" stroke-width="1.5" points="302.6,-15.55 295.6,-18 302.6,-20.45 302.6,-15.55"/>
</g>
<!-- Return -->
<g id="node6" class="node">
<title>Return</title>
<polygon fill="#fff1c4" stroke="#758191" points="573.12,-97 519.12,-97 519.12,-61 573.12,-61 573.12,-97"/>
<text text-anchor="middle" x="546.12" y="-74.72" font-family="Helvetica,sans-Serif" font-size="12.00" fill="#152330">Return</text>
</g>
<!-- Return&#45;&gt;P -->
<g id="edge6" class="edge">
<title>Return&#45;&gt;P</title>
<path fill="none" stroke="#2867b2" stroke-width="1.5" d="M518.79,-79C518.79,-79 489.34,-79 489.34,-79"/>
<polygon fill="#2867b2" stroke="#2867b2" stroke-width="1.5" points="489.34,-76.55 482.34,-79 489.34,-81.45 489.34,-76.55"/>
</g>
</g>
</svg>
