<?xml version="1.0" encoding="UTF-8" standalone="no"?>
<!DOCTYPE svg PUBLIC "-//W3C//DTD SVG 1.1//EN"
 "http://www.w3.org/Graphics/SVG/1.1/DTD/svg11.dtd">
<!-- Generated by graphviz version 12.2.0 (20241103.1931)
 -->
<!-- Title: Memory Pages: 1 -->
<svg width="469pt" height="152pt"
 viewBox="0.00 0.00 469.25 152.00" xmlns="http://www.w3.org/2000/svg" xmlns:xlink="http://www.w3.org/1999/xlink">
<g id="graph0" class="graph" transform="scale(1 1) rotate(0) translate(4 148)">
<title>Memory</title>
<polygon fill="white" stroke="none" points="-4,4 -4,-148 465.25,-148 465.25,4 -4,4"/>
<!-- M -->
<g id="node1" class="node">
<title>M</title>
<polygon fill="none" stroke="black" points="118.75,-117 0,-117 0,-81 118.75,-81 118.75,-117"/>
<text text-anchor="middle" x="59.38" y="-93.95" font-family="Times New Roman,serif" font-size="14.00">Incoming memory</text>
</g>
<!-- A -->
<g id="node2" class="node">
<title>A</title>
<polygon fill="none" stroke="black" points="244.25,-144 156.25,-144 156.25,-108 244.25,-108 244.25,-144"/>
<text text-anchor="middle" x="200.25" y="-120.95" font-family="Times New Roman,serif" font-size="14.00">True: Store x</text>
</g>
<!-- M&#45;&gt;A -->
<g id="edge1" class="edge">
<title>M&#45;&gt;A</title>
<path fill="none" stroke="blue" d="M118.87,-110.37C127.53,-112.06 136.42,-113.78 144.99,-115.45"/>
<polygon fill="blue" stroke="blue" points="144.05,-118.83 154.53,-117.31 145.38,-111.96 144.05,-118.83"/>
</g>
<!-- B -->
<g id="node3" class="node">
<title>B</title>
<polygon fill="none" stroke="black" points="245.75,-90 154.75,-90 154.75,-54 245.75,-54 245.75,-90"/>
<text text-anchor="middle" x="200.25" y="-66.95" font-family="Times New Roman,serif" font-size="14.00">False: Store y</text>
</g>
<!-- M&#45;&gt;B -->
<g id="edge3" class="edge">
<title>M&#45;&gt;B</title>
<path fill="none" stroke="blue" d="M118.87,-87.63C126.93,-86.06 135.19,-84.45 143.21,-82.9"/>
<polygon fill="blue" stroke="blue" points="143.7,-86.37 152.84,-81.02 142.36,-79.5 143.7,-86.37"/>
</g>
<!-- P -->
<g id="node4" class="node">
<title>P</title>
<polygon fill="none" stroke="black" points="371.25,-90 281.75,-90 281.75,-54 371.25,-54 371.25,-90"/>
<text text-anchor="middle" x="326.5" y="-66.95" font-family="Times New Roman,serif" font-size="14.00">Phi(memory)</text>
</g>
<!-- A&#45;&gt;P -->
<g id="edge2" class="edge">
<title>A&#45;&gt;P</title>
<path fill="none" stroke="blue" d="M243.66,-107.57C253.06,-103.48 263.13,-99.11 272.87,-94.87"/>
<polygon fill="blue" stroke="blue" points="274.11,-98.15 281.89,-90.95 271.32,-91.73 274.11,-98.15"/>
</g>
<!-- B&#45;&gt;P -->
<g id="edge4" class="edge">
<title>B&#45;&gt;P</title>
<path fill="none" stroke="blue" d="M246.11,-72C253.95,-72 262.19,-72 270.28,-72"/>
<polygon fill="blue" stroke="blue" points="270.03,-75.5 280.03,-72 270.03,-68.5 270.03,-75.5"/>
</g>
<!-- Return -->
<g id="node6" class="node">
<title>Return</title>
<polygon fill="none" stroke="black" points="461.25,-90 407.25,-90 407.25,-54 461.25,-54 461.25,-90"/>
<text text-anchor="middle" x="434.25" y="-66.95" font-family="Times New Roman,serif" font-size="14.00">Return</text>
</g>
<!-- P&#45;&gt;Return -->
<g id="edge6" class="edge">
<title>P&#45;&gt;Return</title>
<path fill="none" stroke="blue" d="M371.73,-72C379.7,-72 387.94,-72 395.7,-72"/>
<polygon fill="blue" stroke="blue" points="395.49,-75.5 405.49,-72 395.49,-68.5 395.49,-75.5"/>
</g>
<!-- Region -->
<g id="node5" class="node">
<title>Region</title>
<polygon fill="none" stroke="black" points="227.75,-36 172.75,-36 172.75,0 227.75,0 227.75,-36"/>
<text text-anchor="middle" x="200.25" y="-12.95" font-family="Times New Roman,serif" font-size="14.00">Region</text>
</g>
<!-- Region&#45;&gt;P -->
<g id="edge5" class="edge">
<title>Region&#45;&gt;P</title>
<path fill="none" stroke="black" stroke-dasharray="5,2" d="M228.21,-29.72C241.2,-35.36 257.25,-42.34 272.54,-48.98"/>
<polygon fill="black" stroke="black" points="271,-52.13 281.57,-52.91 273.79,-45.71 271,-52.13"/>
</g>
</g>
</svg>
