<?xml version="1.0" encoding="UTF-8" standalone="no"?>
<!DOCTYPE svg PUBLIC "-//W3C//DTD SVG 1.1//EN"
 "http://www.w3.org/Graphics/SVG/1.1/DTD/svg11.dtd">
<!-- Generated by graphviz version 12.2.0 (20241103.1931)
 -->
<!-- Title: Memory Pages: 1 -->
<svg width="469pt" height="152pt"
 viewBox="0.00 0.00 469.25 152.00" xmlns="http://www.w3.org/2000/svg" xmlns:xlink="http://www.w3.org/1999/xlink">
<g id="graph0" class="graph" transform="scale(1 1) rotate(0) translate(4 148)">
<title>Memory</title>
<polygon fill="white" stroke="none" points="-4,4 -4,-148 465.25,-148 465.25,4 -4,4"/>
<!-- M -->
<g id="node1" class="node">
<title>M</title>
<polygon fill="none" stroke="black" points="118.75,-117 0,-117 0,-81 118.75,-81 118.75,-117"/>
<text text-anchor="middle" x="59.38" y="-93.95" font-family="Times New Roman,serif" font-size="14.00">Incoming memory</text>
</g>
<!-- A -->
<g id="node2" class="node">
<title>A</title>
<polygon fill="none" stroke="black" points="244.25,-144 156.25,-144 156.25,-108 244.25,-108 244.25,-144"/>
<text text-anchor="middle" x="200.25" y="-120.95" font-family="Times New Roman,serif" font-size="14.00">True: Store x</text>
</g>
<!-- A&#45;&gt;M -->
<g id="edge2" class="edge">
<title>A&#45;&gt;M</title>
<path fill="none" stroke="blue" d="M156.07,-117.61C147.84,-116.01 139.03,-114.29 130.22,-112.58"/>
<polygon fill="blue" stroke="blue" points="131.06,-109.18 120.58,-110.7 129.72,-116.05 131.06,-109.18"/>
</g>
<!-- B -->
<g id="node3" class="node">
<title>B</title>
<polygon fill="none" stroke="black" points="245.75,-90 154.75,-90 154.75,-54 245.75,-54 245.75,-90"/>
<text text-anchor="middle" x="200.25" y="-66.95" font-family="Times New Roman,serif" font-size="14.00">False: Store y</text>
</g>
<!-- B&#45;&gt;M -->
<g id="edge4" class="edge">
<title>B&#45;&gt;M</title>
<path fill="none" stroke="blue" d="M154.54,-80.69C146.8,-82.2 138.59,-83.79 130.37,-85.39"/>
<polygon fill="blue" stroke="blue" points="129.83,-81.93 120.68,-87.28 131.16,-88.8 129.83,-81.93"/>
</g>
<!-- P -->
<g id="node4" class="node">
<title>P</title>
<polygon fill="none" stroke="black" points="371.25,-90 281.75,-90 281.75,-54 371.25,-54 371.25,-90"/>
<text text-anchor="middle" x="326.5" y="-66.95" font-family="Times New Roman,serif" font-size="14.00">Phi(memory)</text>
</g>
<!-- P&#45;&gt;A -->
<g id="edge1" class="edge">
<title>P&#45;&gt;A</title>
<path fill="none" stroke="blue" d="M283.09,-90.43C273.69,-94.52 263.62,-98.89 253.88,-103.13"/>
<polygon fill="blue" stroke="blue" points="252.64,-99.85 244.86,-107.05 255.43,-106.27 252.64,-99.85"/>
</g>
<!-- P&#45;&gt;B -->
<g id="edge3" class="edge">
<title>P&#45;&gt;B</title>
<path fill="none" stroke="blue" d="M281.34,-72C273.66,-72 265.57,-72 257.61,-72"/>
<polygon fill="blue" stroke="blue" points="257.62,-68.5 247.62,-72 257.62,-75.5 257.62,-68.5"/>
</g>
<!-- Region -->
<g id="node5" class="node">
<title>Region</title>
<polygon fill="none" stroke="black" points="227.75,-36 172.75,-36 172.75,0 227.75,0 227.75,-36"/>
<text text-anchor="middle" x="200.25" y="-12.95" font-family="Times New Roman,serif" font-size="14.00">Region</text>
</g>
<!-- P&#45;&gt;Region -->
<g id="edge5" class="edge">
<title>P&#45;&gt;Region</title>
<path fill="none" stroke="black" stroke-dasharray="5,2" d="M283.09,-53.57C268.52,-47.24 252.34,-40.21 238.24,-34.08"/>
<polygon fill="black" stroke="black" points="239.88,-30.97 229.31,-30.2 237.09,-37.39 239.88,-30.97"/>
</g>
<!-- Return -->
<g id="node6" class="node">
<title>Return</title>
<polygon fill="none" stroke="black" points="461.25,-90 407.25,-90 407.25,-54 461.25,-54 461.25,-90"/>
<text text-anchor="middle" x="434.25" y="-66.95" font-family="Times New Roman,serif" font-size="14.00">Return</text>
</g>
<!-- Return&#45;&gt;P -->
<g id="edge6" class="edge">
<title>Return&#45;&gt;P</title>
<path fill="none" stroke="blue" d="M406.84,-72C399.52,-72 391.29,-72 382.97,-72"/>
<polygon fill="blue" stroke="blue" points="383.17,-68.5 373.17,-72 383.17,-75.5 383.17,-68.5"/>
</g>
</g>
</svg>
