<svg aria-label="Compiler graph" width="694" height="1024" xmlns="http://www.w3.org/2000/svg" viewBox="0 0 694 1024" style="font-family: sans-serif;"><style>
    html, body { height:100%; margin:0; font-family:sans-serif; }
    .viewer { height:100%; display:grid; grid-template-rows:auto minmax(0,1fr) auto; }
    .source { padding:8px; border-bottom:1px solid #ccc; }
    #program { width:min(600px,80vw); vertical-align:middle; }
    #status { margin-top:4px; }
    #graph { min-height:0; overflow:hidden; position:relative; background:#fafbfc; }
    #elk { width:100%; height:100%; }
    #graph svg { display:block; }
    .tools { display:flex; flex-wrap:wrap; align-items:center; gap:14px; margin-top:8px; font-size:12px; }
    .hint { color:#616c78; }
    .ctrl { color:#b63838; } .mem { color:#2867b2; } .data { color:#536477; }
    .edge { fill:none; stroke-width:1.5; }
    .edge.CTRL { stroke-width:2; }
    .edge.ASSOC { stroke-dasharray:4 4; }
    .edge.PARSER { stroke-dasharray:5 4; }
    .parser rect { fill:#f6f0ff; stroke:#7956a5; stroke-width:1.5; stroke-dasharray:5 4; }
    .edge.selected { stroke-width:3.5; }
    .edge.bundle { stroke-width:4; }
    .edge.bundle.selected { stroke-width:6; }
    .edge-hit { fill:none; stroke:transparent; stroke-width:12; vector-effect:non-scaling-stroke; pointer-events:stroke; cursor:pointer; }
    .edge-jump { fill:transparent; pointer-events:all; cursor:pointer; }
    .node { cursor:pointer; }
    .box { stroke:#758191; stroke-width:1; }
    .node.held .box { stroke-dasharray:5 3; }
    .node.near .box { stroke:#c18221; stroke-width:2; }
    .node.focus .box { stroke:#9c4900; stroke-width:3; }
    .node.selected .box { stroke:#1569b9; stroke-width:3; }
    .node.folded .box { stroke-width:4; }
    .node.folding .box { fill:#f4ccd7; }
    .fold-tag { font-size:9px; font-weight:700; fill:#963751; }
    .peep-area { fill:#fff3d9; fill-opacity:.8; stroke:#c18221; stroke-width:2; pointer-events:none; }
    .node.peep-edit .box { stroke:#9c4900; stroke-width:3; }
    .node.error .box { stroke:#b42318; stroke-width:4; }
    #event.error { color:#b42318; font-weight:600; white-space:pre-wrap; overflow-wrap:anywhere; }
    .peep-ghosts { pointer-events:none; }
    .region-box { stroke:#9da9b8; stroke-width:1.5; }
    .fold-btn { cursor:pointer; }
    .fold-btn rect { fill:white; stroke:#596674; }
    .fold-btn text { font-size:14px; fill:#152330; }
    .fold-btn:focus rect { stroke:#1569b9; stroke-width:2; }
    .shortcut { cursor:pointer; }
    .shortcut path { fill:none; stroke-width:1.5; }
    .shortcut rect { fill:#fff8ec; stroke:#b63838; stroke-dasharray:3 2; }
    .shortcut text { font-size:11px; fill:#783030; }
    .shortcut.selected rect, .shortcut:focus rect { stroke-width:2.5; }
    .label { font-size:12px; fill:#152330; font-weight:600; }
    .node-id { font-size:10px; fill:#596674; font-weight:400; }
    .type { font-size:11px; fill:#455768; }
    .port { stroke:#536477; stroke-width:1; }
    .row { stroke:#b6afcf; stroke-width:1; }
    .bind { font-size:12px; fill:#152330; }
    .slot { font-size:10px; fill:#364352; paint-order:stroke; stroke:#fafbfc; stroke-width:3; }
    #detail { position:absolute; top:8px; right:8px; margin:0; padding:12px; max-width:320px;
      max-height:45%; overflow:auto; white-space:pre-wrap; overflow-wrap:anywhere;
      background:#fffffff2; border:1px solid #bac5d0; border-radius:4px; font-size:12px; }
    .controls { display:flex; flex-wrap:wrap; justify-content:center; align-items:center; gap:6px; padding:6px; }
    .button { color:white; background:black; font-size:20px; min-width:30px; }
    .button:disabled { background:grey; }
    .count { font-size:20px; min-width:35px; text-align:center; }
    #N { width:6ch; }
    #scrub { width:clamp(120px,35vw,600px); }
  </style><defs><marker id="arrow-CTRL" viewBox="0 -4 8 8" refX="8" refY="0" markerWidth="7" markerHeight="7" orient="auto-start-reverse"><path d="M0,-4L8,0L0,4Z" fill="#b63838"/></marker><marker id="arrow-DATA" viewBox="0 -4 8 8" refX="8" refY="0" markerWidth="7" markerHeight="7" orient="auto-start-reverse"><path d="M0,-4L8,0L0,4Z" fill="#536477"/></marker><marker id="arrow-MEM" viewBox="0 -4 8 8" refX="8" refY="0" markerWidth="7" markerHeight="7" orient="auto-start-reverse"><path d="M0,-4L8,0L0,4Z" fill="#2867b2"/></marker><marker id="arrow-ASSOC" viewBox="0 -4 8 8" refX="8" refY="0" markerWidth="7" markerHeight="7" orient="auto-start-reverse"><path d="M0,-4L8,0L0,4Z" fill="#9396a3"/></marker><marker id="arrow-PARSER" viewBox="0 -4 8 8" refX="8" refY="0" markerWidth="7" markerHeight="7" orient="auto-start-reverse"><path d="M0,-4L8,0L0,4Z" fill="#7956a5"/></marker></defs><rect width="100%" height="100%" fill="rgb(250, 251, 252)"/><g><g class="regions" style="opacity: 1;"><g class="region" transform="translate(24,275)"><rect class="region-box" rx="8" width="635" height="512" fill="#f1f6fc"/></g></g><rect class="peep-area" rx="36" style="opacity: 0;"/><g class="edges"><path class="edge CTRL" id="e5i0" d="M136,118 L136,138 L370,138 L370,166" stroke="#b63838" marker-start="url(#arrow-CTRL)" style="opacity: 1;"><title>#5[0] → #2 · CTRL</title></path><path class="edge ASSOC" id="e6i0" d="M439,46 C439,70 218,145 218,169" stroke="#9396a3" marker-start="url(#arrow-ASSOC)" style="opacity: 1;"><title>#6[0] → #1 · ASSOC</title></path><path class="edge MEM" id="e7i1" d="M256,118 L256,128 L147,128 L147,232 L198,232 L198,333" stroke="#2867b2" marker-start="url(#arrow-MEM)" style="opacity: 1;"><title>#7[1] → #3 · MEM</title></path><path class="edge DATA" id="e7i2" d="M370,222 L370,242 L222,242 L222,333" stroke="#536477" marker-start="url(#arrow-DATA)" style="opacity: 1;"><title>#7[2] → #5 · DATA</title></path><path class="edge DATA" id="e7i3" d="M218,222 L218,232 L246,232 L246,333" stroke="#536477" marker-start="url(#arrow-DATA)" style="opacity: 1;"><title>#7[3] → #6 · DATA</title></path><path class="edge MEM" id="e8i1" d="M210,389 L210,399 L256,399 L256,437" stroke="#2867b2" marker-start="url(#arrow-MEM)" style="opacity: 1;"><title>#8[1] → #7 · MEM</title></path><path class="edge DATA" id="e8i2" d="M370,222 L370,242 L280,242 L280,437" stroke="#536477" marker-start="url(#arrow-DATA)" style="opacity: 1;"><title>#8[2] → #5 · DATA</title></path><path class="edge DATA" id="e8i3" d="M218,222 L218,232 L304,232 L304,437" stroke="#536477" marker-start="url(#arrow-DATA)" style="opacity: 1;"><title>#8[3] → #6 · DATA</title></path><path class="edge CTRL" id="e9i1" d="M136,118 L136,541" stroke="#b63838" marker-start="url(#arrow-CTRL)" style="opacity: 1;"><title>#9[1] → #2 · CTRL</title></path><path class="edge CTRL" id="e9i2" d="M116,742 L116,752 L647,752 L647,516 L166,516 L166,544" stroke="#b63838" marker-start="url(#arrow-CTRL)" style="opacity: 1;"><title>#9[2] → #13 · CTRL</title></path><path class="edge MEM" id="e10i1" d="M268,493 L268,541" stroke="#2867b2" marker-start="url(#arrow-MEM)" style="opacity: 1;"><title>#10[1] → #8 · MEM</title></path><path class="edge MEM" id="e10i2" d="M383,698 L383,708 L637,708 L637,524 L308,524 L308,544" stroke="#2867b2" marker-start="url(#arrow-MEM)" style="opacity: 1;"><title>#10[2] → #15 · MEM</title></path><path class="edge DATA" id="e11i1" d="M376,118 L376,128 L440,128 L440,232 L420,232 L420,541" stroke="#536477" marker-start="url(#arrow-DATA)" style="opacity: 1;"><title>#11[1] → #4 · DATA</title></path><path class="edge DATA" id="e11i2" d="M535,698 L535,708 L627,708 L627,532 L460,532 L460,544" stroke="#536477" marker-start="url(#arrow-DATA)" style="opacity: 1;"><title>#11[2] → #17 · DATA</title></path><path class="edge CTRL" id="e12i0" d="M136,597 L136,645" stroke="#b63838" marker-start="url(#arrow-CTRL)" style="opacity: 1;"><title>#12[0] → #9 · CTRL</title></path><path class="edge DATA" id="e12i1" d="M440,597 L440,607 L216,607 L216,645" stroke="#536477" marker-start="url(#arrow-DATA)" style="opacity: 1;"><title>#12[1] → #11 · DATA</title></path><path class="edge MEM" id="e15i1" d="M288,597 L288,617 L371,617 L371,645" stroke="#2867b2" marker-start="url(#arrow-MEM)" style="opacity: 1;"><title>#15[1] → #10 · MEM</title></path><path class="edge DATA" id="e15i2" d="M370,222 L370,242 L510,242 L510,617 L395,617 L395,645" stroke="#536477" marker-start="url(#arrow-DATA)" style="opacity: 1;"><title>#15[2] → #5 · DATA</title></path><path class="edge DATA" id="e15i3" d="M440,597 L440,607 L419,607 L419,645" stroke="#536477" marker-start="url(#arrow-DATA)" style="opacity: 1;"><title>#15[3] → #11 · DATA</title></path><path class="edge ASSOC" id="e16i0" d="M439,46 C439,70 565,145 565,169" stroke="#9396a3" marker-start="url(#arrow-ASSOC)" style="opacity: 1;"><title>#16[0] → #1 · ASSOC</title></path><path class="edge DATA" id="e17i1" d="M440,597 L440,607 L535,607 L535,645" stroke="#536477" marker-start="url(#arrow-DATA)" style="opacity: 1;"><title>#17[1] → #11 · DATA</title></path><path class="edge DATA" id="e17i2" d="M565,222 L565,645" stroke="#536477" marker-start="url(#arrow-DATA)" style="opacity: 1;"><title>#17[2] → #16 · DATA</title></path><path class="edge MEM" id="e18i1" d="M288,597 L288,617 L312,617 L312,802 L371,802 L371,840" stroke="#2867b2" marker-start="url(#arrow-MEM)" style="opacity: 1;"><title>#18[1] → #10 · MEM</title></path><path class="edge DATA" id="e18i2" d="M370,222 L370,242 L669,242 L669,802 L395,802 L395,840" stroke="#536477" marker-start="url(#arrow-DATA)" style="opacity: 1;"><title>#18[2] → #5 · DATA</title></path><path class="edge CTRL" id="e19i0" d="M236,745 L236,944" stroke="#b63838" marker-start="url(#arrow-CTRL)" style="opacity: 1;"><title>#19[0] → #14 · CTRL</title></path><path class="edge MEM" id="e19i1" d="M288,597 L288,617 L312,617 L312,802 L266,802 L266,944" stroke="#2867b2" marker-start="url(#arrow-MEM)" style="opacity: 1;"><title>#19[1] → #10 · MEM</title></path><path class="edge DATA" id="e19i2" d="M383,896 L383,906 L296,906 L296,944" stroke="#536477" marker-start="url(#arrow-DATA)" style="opacity: 1;"><title>#19[2] → #18 · DATA</title></path></g><g class="edge-hits"/><g class="parser" style="opacity: 1;"/><g class="nodes"><g class="node" id="n1" data-id="1" transform="translate(76,24)" style="opacity: 1;"><path class="box" d="M0,0H360V44H0Z" fill="#fff1c4"/><text class="label" text-anchor="middle" x="180" y="18"><tspan>Start</tspan><tspan class="node-id">  #1</tspan></text><text class="type" text-anchor="middle" y="35" x="180"/><title>#1 Start
Type not computed

</title></g><g class="node" id="n2" data-id="2" transform="translate(76,68)" style="opacity: 1;"><path class="box" d="M0,0H120V44H0Z" fill="#fff1c4"/><text class="label" text-anchor="middle" x="60" y="18"><tspan>$ctrl</tspan><tspan class="node-id">  #2/0</tspan></text><text class="type" text-anchor="middle" y="35" x="60"/><title>#2 $ctrl
Projection 0 of #1
Type not computed

[0] → #1  CTRL</title></g><g class="node" id="n3" data-id="3" transform="translate(196,68)" style="opacity: 1;"><path class="box" d="M0,0H120V44H0Z" fill="#dcecff"/><text class="label" text-anchor="middle" x="60" y="18"><tspan>$mem</tspan><tspan class="node-id">  #3/1</tspan></text><text class="type" text-anchor="middle" y="35" x="60"/><title>#3 $mem
Projection 1 of #1
Type not computed

[0] → #1  MEM</title></g><g class="node" id="n4" data-id="4" transform="translate(316,68)" style="opacity: 1;"><path class="box" d="M0,0H120V44H0Z" fill="#edf3f7"/><text class="label" text-anchor="middle" x="60" y="18"><tspan>arg</tspan><tspan class="node-id">  #4/2</tspan></text><text class="type" text-anchor="middle" y="35" x="60"/><title>#4 arg
Projection 2 of #1
Type not computed

[0] → #1  DATA</title></g><g class="node" id="n5" data-id="5" transform="translate(310,172)" style="opacity: 1;"><path class="box" d="M14,0H106Q120,0 120,14V30Q120,44 106,44H14Q0,44 0,30V14Q0,0 14,0Z" fill="#edf3f7"/><text class="label" text-anchor="middle" x="60" y="18"><tspan>new Point</tspan><tspan class="node-id">  #5</tspan></text><text class="type" text-anchor="middle" y="35" x="60"/><title>#5 new Point
Type not computed

[0] → #2  CTRL</title><circle class="port" cx="60" cy="-3" r="3" fill="#536477"/><text class="slot" x="60" y="-10" text-anchor="middle">0</text></g><g class="node" id="n6" data-id="6" transform="translate(158,172)" style="opacity: 1;"><path class="box" d="M14,0H106Q120,0 120,14V30Q120,44 106,44H14Q0,44 0,30V14Q0,0 14,0Z" fill="#edf3f7"/><text class="label" text-anchor="middle" x="60" y="18"><tspan>#0</tspan><tspan class="node-id">  #6</tspan></text><text class="type" text-anchor="middle" y="35" x="60"/><title>#6 #0
Type not computed

[0] → #1  ASSOC</title><circle class="port" cx="60" cy="-3" r="3" fill="#536477"/><text class="slot" x="60" y="-10" text-anchor="middle">0</text></g><g class="node" id="n7" data-id="7" transform="translate(150,339)" style="opacity: 1;"><path class="box" d="M10,0H110L120,10V34L110,44H10L0,34V10Z" fill="#dcecff"/><text class="label" text-anchor="middle" x="60" y="18"><tspan>Store p.x</tspan><tspan class="node-id">  #7</tspan></text><text class="type" text-anchor="middle" y="35" x="60"/><title>#7 Store p.x
Type not computed

[0] → —  CTRL
[1] → #3  MEM
[2] → #5  DATA
[3] → #6  DATA</title><circle class="port" cx="24" cy="-3" r="3" fill="white"/><circle class="port" cx="48" cy="-3" r="3" fill="#536477"/><circle class="port" cx="72" cy="-3" r="3" fill="#536477"/><circle class="port" cx="96" cy="-3" r="3" fill="#536477"/><text class="slot" x="24" y="-10" text-anchor="middle">0</text><text class="slot" x="48" y="-10" text-anchor="middle">1</text><text class="slot" x="72" y="-10" text-anchor="middle">2</text><text class="slot" x="96" y="-10" text-anchor="middle">3</text></g><g class="node" id="n8" data-id="8" transform="translate(208,443)" style="opacity: 1;"><path class="box" d="M10,0H110L120,10V34L110,44H10L0,34V10Z" fill="#dcecff"/><text class="label" text-anchor="middle" x="60" y="18"><tspan>Store p.y</tspan><tspan class="node-id">  #8</tspan></text><text class="type" text-anchor="middle" y="35" x="60"/><title>#8 Store p.y
Type not computed

[0] → —  CTRL
[1] → #7  MEM
[2] → #5  DATA
[3] → #6  DATA</title><circle class="port" cx="24" cy="-3" r="3" fill="white"/><circle class="port" cx="48" cy="-3" r="3" fill="#536477"/><circle class="port" cx="72" cy="-3" r="3" fill="#536477"/><circle class="port" cx="96" cy="-3" r="3" fill="#536477"/><text class="slot" x="24" y="-10" text-anchor="middle">0</text><text class="slot" x="48" y="-10" text-anchor="middle">1</text><text class="slot" x="72" y="-10" text-anchor="middle">2</text><text class="slot" x="96" y="-10" text-anchor="middle">3</text></g><g class="node" id="n9" data-id="9" transform="translate(76,547)" style="opacity: 1;"><path class="box" d="M20,0H100Q120,0 120,20V24Q120,44 100,44H20Q0,44 0,24V20Q0,0 20,0Z" fill="#ffe0ab"/><text class="label" text-anchor="middle" x="60" y="18"><tspan>Loop</tspan><tspan class="node-id">  #9</tspan></text><text class="type" text-anchor="middle" y="35" x="60"/><title>#9 Loop
Type not computed

[0] → —  ASSOC
[1] → #2  CTRL
[2] → #13  CTRL</title><circle class="port" cx="30" cy="-3" r="3" fill="white"/><circle class="port" cx="60" cy="-3" r="3" fill="#536477"/><circle class="port" cx="90" cy="-3" r="3" fill="#536477"/><text class="slot" x="30" y="-10" text-anchor="middle">0</text><text class="slot" x="60" y="-10" text-anchor="middle">1</text><text class="slot" x="90" y="-10" text-anchor="middle">2</text></g><g class="node" id="n10" data-id="10" transform="translate(228,547)" style="opacity: 1;"><path class="box" d="M12,0H108L120,22L108,44H12L0,22Z" fill="#f5e4fa"/><text class="label" text-anchor="middle" x="60" y="18"><tspan>Phi $mem</tspan><tspan class="node-id">  #10</tspan></text><text class="type" text-anchor="middle" y="35" x="60"/><title>#10 Phi $mem
Type not computed

[0] → #9  ASSOC
[1] → #8  MEM
[2] → #15  MEM</title><circle class="port" cx="-3" cy="22" r="3" fill="#536477"/><circle class="port" cx="40" cy="-3" r="3" fill="#536477"/><circle class="port" cx="80" cy="-3" r="3" fill="#536477"/><path class="reg" fill="none" stroke="#b63838" d="M-3,22H-18m4,-3l-4,3l4,3"><title>[0] → #9</title></path><text class="slot" x="-10" y="15" text-anchor="middle">0</text><text class="slot" x="40" y="-10" text-anchor="middle">1</text><text class="slot" x="80" y="-10" text-anchor="middle">2</text></g><g class="node" id="n11" data-id="11" transform="translate(380,547)" style="opacity: 1;"><path class="box" d="M12,0H108L120,22L108,44H12L0,22Z" fill="#f5e4fa"/><text class="label" text-anchor="middle" x="60" y="18"><tspan>Phi arg</tspan><tspan class="node-id">  #11</tspan></text><text class="type" text-anchor="middle" y="35" x="60"/><title>#11 Phi arg
Type not computed

[0] → #9  ASSOC
[1] → #4  DATA
[2] → #17  DATA</title><circle class="port" cx="-3" cy="22" r="3" fill="#536477"/><circle class="port" cx="40" cy="-3" r="3" fill="#536477"/><circle class="port" cx="80" cy="-3" r="3" fill="#536477"/><path class="reg" fill="none" stroke="#b63838" d="M-3,22H-18m4,-3l-4,3l4,3"><title>[0] → #9</title></path><text class="slot" x="-10" y="15" text-anchor="middle">0</text><text class="slot" x="40" y="-10" text-anchor="middle">1</text><text class="slot" x="80" y="-10" text-anchor="middle">2</text></g><g class="node" id="n12" data-id="12" transform="translate(56,651)" style="opacity: 1;"><path class="box" d="M0,0H240V44H0Z" fill="#fff1c4"/><text class="label" text-anchor="middle" x="120" y="18"><tspan>If</tspan><tspan class="node-id">  #12</tspan></text><text class="type" text-anchor="middle" y="35" x="120"/><title>#12 If
Type not computed

[0] → #9  CTRL
[1] → #11  DATA</title><circle class="port" cx="80" cy="-3" r="3" fill="#536477"/><circle class="port" cx="160" cy="-3" r="3" fill="#536477"/><text class="slot" x="80" y="-10" text-anchor="middle">0</text><text class="slot" x="160" y="-10" text-anchor="middle">1</text></g><g class="node" id="n13" data-id="13" transform="translate(56,695)" style="opacity: 1;"><path class="box" d="M0,0H120V44H0Z" fill="#fff1c4"/><text class="label" text-anchor="middle" x="60" y="18"><tspan>True</tspan><tspan class="node-id">  #13/0</tspan></text><text class="type" text-anchor="middle" y="35" x="60"/><title>#13 True
Projection 0 of #12
Type not computed

[0] → #12  CTRL</title></g><g class="node" id="n14" data-id="14" transform="translate(176,695)" style="opacity: 1;"><path class="box" d="M0,0H120V44H0Z" fill="#fff1c4"/><text class="label" text-anchor="middle" x="60" y="18"><tspan>False</tspan><tspan class="node-id">  #14/1</tspan></text><text class="type" text-anchor="middle" y="35" x="60"/><title>#14 False
Projection 1 of #12
Type not computed

[0] → #12  CTRL</title></g><g class="node" id="n15" data-id="15" transform="translate(323,651)" style="opacity: 1;"><path class="box" d="M10,0H110L120,10V34L110,44H10L0,34V10Z" fill="#dcecff"/><text class="label" text-anchor="middle" x="60" y="18"><tspan>Store p.x</tspan><tspan class="node-id">  #15</tspan></text><text class="type" text-anchor="middle" y="35" x="60"/><title>#15 Store p.x
Type not computed

[0] → —  CTRL
[1] → #10  MEM
[2] → #5  DATA
[3] → #11  DATA</title><circle class="port" cx="24" cy="-3" r="3" fill="white"/><circle class="port" cx="48" cy="-3" r="3" fill="#536477"/><circle class="port" cx="72" cy="-3" r="3" fill="#536477"/><circle class="port" cx="96" cy="-3" r="3" fill="#536477"/><text class="slot" x="24" y="-10" text-anchor="middle">0</text><text class="slot" x="48" y="-10" text-anchor="middle">1</text><text class="slot" x="72" y="-10" text-anchor="middle">2</text><text class="slot" x="96" y="-10" text-anchor="middle">3</text></g><g class="node" id="n16" data-id="16" transform="translate(505,172)" style="opacity: 1;"><path class="box" d="M14,0H106Q120,0 120,14V30Q120,44 106,44H14Q0,44 0,30V14Q0,0 14,0Z" fill="#edf3f7"/><text class="label" text-anchor="middle" x="60" y="18"><tspan>#1</tspan><tspan class="node-id">  #16</tspan></text><text class="type" text-anchor="middle" y="35" x="60"/><title>#16 #1
Type not computed

[0] → #1  ASSOC</title><circle class="port" cx="60" cy="-3" r="3" fill="#536477"/><text class="slot" x="60" y="-10" text-anchor="middle">0</text></g><g class="node" id="n17" data-id="17" transform="translate(475,651)" style="opacity: 1;"><path class="box" d="M14,0H106Q120,0 120,14V30Q120,44 106,44H14Q0,44 0,30V14Q0,0 14,0Z" fill="#edf3f7"/><text class="label" text-anchor="middle" x="60" y="18"><tspan>-</tspan><tspan class="node-id">  #17</tspan></text><text class="type" text-anchor="middle" y="35" x="60"/><title>#17 -
Type not computed

[0] → —  CTRL
[1] → #11  DATA
[2] → #16  DATA</title><circle class="port" cx="30" cy="-3" r="3" fill="white"/><circle class="port" cx="60" cy="-3" r="3" fill="#536477"/><circle class="port" cx="90" cy="-3" r="3" fill="#536477"/><text class="slot" x="30" y="-10" text-anchor="middle">0</text><text class="slot" x="60" y="-10" text-anchor="middle">1</text><text class="slot" x="90" y="-10" text-anchor="middle">2</text></g><g class="node" id="n18" data-id="18" transform="translate(323,846)" style="opacity: 1;"><path class="box" d="M14,0H106Q120,0 120,14V30Q120,44 106,44H14Q0,44 0,30V14Q0,0 14,0Z" fill="#edf3f7"/><text class="label" text-anchor="middle" x="60" y="18"><tspan>Load p.x</tspan><tspan class="node-id">  #18</tspan></text><text class="type" text-anchor="middle" y="35" x="60"/><title>#18 Load p.x
Type not computed

[0] → —  CTRL
[1] → #10  MEM
[2] → #5  DATA
[3] → —  DATA</title><circle class="port" cx="24" cy="-3" r="3" fill="white"/><circle class="port" cx="48" cy="-3" r="3" fill="#536477"/><circle class="port" cx="72" cy="-3" r="3" fill="#536477"/><circle class="port" cx="96" cy="-3" r="3" fill="white"/><text class="slot" x="24" y="-10" text-anchor="middle">0</text><text class="slot" x="48" y="-10" text-anchor="middle">1</text><text class="slot" x="72" y="-10" text-anchor="middle">2</text><text class="slot" x="96" y="-10" text-anchor="middle">3</text></g><g class="node" id="n19" data-id="19" transform="translate(206,950)" style="opacity: 1;"><path class="box" d="M0,0H120V44H0Z" fill="#fff1c4"/><text class="label" text-anchor="middle" x="60" y="18"><tspan>Return</tspan><tspan class="node-id">  #19</tspan></text><text class="type" text-anchor="middle" y="35" x="60"/><title>#19 Return
Type not computed

[0] → #14  CTRL
[1] → #10  MEM
[2] → #18  DATA</title><circle class="port" cx="30" cy="-3" r="3" fill="#536477"/><circle class="port" cx="60" cy="-3" r="3" fill="#536477"/><circle class="port" cx="90" cy="-3" r="3" fill="#536477"/><text class="slot" x="30" y="-10" text-anchor="middle">0</text><text class="slot" x="60" y="-10" text-anchor="middle">1</text><text class="slot" x="90" y="-10" text-anchor="middle">2</text></g></g><g class="region-heads" style="opacity: 1;"><g class="region-head" transform="translate(24,275)"><text class="label" x="26" y="17"><tspan>Loop</tspan><tspan class="node-id">  #9</tspan></text><title>Loop · 10 nodes</title><g class="fold-btn" role="button" tabindex="0" transform="translate(4,4)" aria-label="Fold region #9"><rect width="16" height="16" rx="2"/><text x="8" y="12" text-anchor="middle">−</text><title>Fold region</title></g></g></g><g class="shortcuts" style="opacity: 1;"/><g class="peep-ghosts" pointer-events="none"/></g></svg>
