<?xml version="1.0" encoding="UTF-8" standalone="no"?>
<!DOCTYPE svg PUBLIC "-//W3C//DTD SVG 1.1//EN"
 "http://www.w3.org/Graphics/SVG/1.1/DTD/svg11.dtd">
<!-- Generated by graphviz version 12.2.0 (20241103.1931)
 -->
<!-- Title: Memory Pages: 1 -->
<svg width="556pt" height="67pt"
 viewBox="0.00 0.00 555.75 67.00" xmlns="http://www.w3.org/2000/svg" xmlns:xlink="http://www.w3.org/1999/xlink">
<g id="graph0" class="graph" transform="scale(1 1) rotate(0) translate(4 63)">
<title>Memory</title>
<polygon fill="white" stroke="none" points="-4,4 -4,-63 551.75,-63 551.75,4 -4,4"/>
<!-- M0 -->
<g id="node1" class="node">
<title>M0</title>
<polygon fill="none" stroke="black" points="98.5,-59 0,-59 0,-23 98.5,-23 98.5,-59"/>
<text text-anchor="middle" x="49.25" y="-35.95" font-family="Times New Roman,serif" font-size="14.00">Initial memory</text>
</g>
<!-- X -->
<g id="node2" class="node">
<title>X</title>
<polygon fill="none" stroke="black" points="222.5,-59 134.5,-59 134.5,-23 222.5,-23 222.5,-59"/>
<text text-anchor="middle" x="178.5" y="-35.95" font-family="Times New Roman,serif" font-size="14.00">Store p.x = 3</text>
</g>
<!-- X&#45;&gt;M0 -->
<g id="edge3" class="edge">
<title>X&#45;&gt;M0</title>
<path fill="none" stroke="blue" d="M134.06,-41C126.33,-41 118.16,-41 110.06,-41"/>
<polygon fill="blue" stroke="blue" points="110.24,-37.5 100.24,-41 110.24,-44.5 110.24,-37.5"/>
</g>
<!-- Y -->
<g id="node3" class="node">
<title>Y</title>
<polygon fill="none" stroke="black" points="357,-59 258.5,-59 258.5,-23 357,-23 357,-59"/>
<text text-anchor="middle" x="307.75" y="-35.95" font-family="Times New Roman,serif" font-size="14.00">Store p.y = arg</text>
</g>
<!-- Y&#45;&gt;X -->
<g id="edge2" class="edge">
<title>Y&#45;&gt;X</title>
<path fill="none" stroke="blue" d="M258.28,-41C250.45,-41 242.29,-41 234.32,-41"/>
<polygon fill="blue" stroke="blue" points="234.35,-37.5 224.35,-41 234.35,-44.5 234.35,-37.5"/>
</g>
<!-- L -->
<g id="node4" class="node">
<title>L</title>
<polygon fill="none" stroke="black" points="457.75,-36 393,-36 393,0 457.75,0 457.75,-36"/>
<text text-anchor="middle" x="425.38" y="-12.95" font-family="Times New Roman,serif" font-size="14.00">Load p.x</text>
</g>
<!-- L&#45;&gt;Y -->
<g id="edge1" class="edge">
<title>L&#45;&gt;Y</title>
<path fill="none" stroke="blue" d="M392.78,-24.28C385.16,-25.8 376.76,-27.47 368.31,-29.15"/>
<polygon fill="blue" stroke="blue" points="367.85,-25.68 358.73,-31.06 369.22,-32.54 367.85,-25.68"/>
</g>
<!-- Return -->
<g id="node5" class="node">
<title>Return</title>
<polygon fill="none" stroke="black" points="547.75,-59 493.75,-59 493.75,-23 547.75,-23 547.75,-59"/>
<text text-anchor="middle" x="520.75" y="-35.95" font-family="Times New Roman,serif" font-size="14.00">Return</text>
</g>
<!-- Return&#45;&gt;Y -->
<g id="edge4" class="edge">
<title>Return&#45;&gt;Y</title>
<path fill="none" stroke="blue" d="M493.52,-43.07C482.49,-43.84 469.5,-44.62 457.75,-45 428.99,-45.93 421.77,-45.68 393,-45 385.14,-44.81 376.87,-44.53 368.71,-44.2"/>
<polygon fill="blue" stroke="blue" points="368.95,-40.7 358.81,-43.76 368.65,-47.7 368.95,-40.7"/>
</g>
<!-- Return&#45;&gt;L -->
<g id="edge5" class="edge">
<title>Return&#45;&gt;L</title>
<path fill="none" stroke="black" d="M493.74,-34.59C486.17,-32.73 477.69,-30.64 469.38,-28.59"/>
<polygon fill="black" stroke="black" points="470.24,-25.2 459.7,-26.21 468.57,-32 470.24,-25.2"/>
</g>
</g>
</svg>
