<?xml version="1.0" encoding="UTF-8" standalone="no"?>
<!DOCTYPE svg PUBLIC "-//W3C//DTD SVG 1.1//EN"
 "http://www.w3.org/Graphics/SVG/1.1/DTD/svg11.dtd">
<!-- Generated by graphviz version 2.43.0 (0)
 -->
<!-- Title: chapter05 Pages: 1 -->
<svg width="314pt" height="564pt"
 viewBox="0.00 0.00 314.00 564.00" xmlns="http://www.w3.org/2000/svg" xmlns:xlink="http://www.w3.org/1999/xlink">
<g id="graph0" class="graph" transform="scale(1 1) rotate(0) translate(4 560)">
<title>chapter05</title>
<polygon fill="white" stroke="transparent" points="-4,4 -4,-560 310,-560 310,4 -4,4"/>
<g id="clust1" class="cluster">
<title>cluster_Nodes</title>
<polygon fill="none" stroke="black" points="8,-8 8,-548 298,-548 298,-8 8,-8"/>
</g>
<!-- Start2 -->
<g id="node1" class="node">
<title>Start2</title>
<polygon fill="yellow" stroke="transparent" points="97,-511 97,-536 178,-536 178,-511 97,-511"/>
<polygon fill="none" stroke="black" points="97,-511 97,-536 178,-536 178,-511 97,-511"/>
<text text-anchor="start" x="119" y="-519.8" font-family="Times,serif" font-size="14.00">Start</text>
<polygon fill="none" stroke="black" points="97,-480 97,-511 178,-511 178,-480 97,-480"/>
<polygon fill="yellow" stroke="transparent" points="102,-485 102,-506 142,-506 142,-485 102,-485"/>
<polygon fill="none" stroke="black" points="102,-485 102,-506 142,-506 142,-485 102,-485"/>
<text text-anchor="start" x="105" y="-491.8" font-family="Times,serif" font-size="14.00">$ctrl</text>
<polygon fill="none" stroke="black" points="142,-485 142,-506 173,-506 173,-485 142,-485"/>
<text text-anchor="start" x="145" y="-491.8" font-family="Times,serif" font-size="14.00">arg</text>
</g>
<!-- Stop3 -->
<g id="node2" class="node">
<title>Stop3</title>
<polygon fill="yellow" stroke="black" points="148,-52 94,-52 94,-16 148,-16 148,-52"/>
<text text-anchor="middle" x="121" y="-30.3" font-family="Times,serif" font-size="14.00">Stop</text>
</g>
<!-- Return21 -->
<g id="node11" class="node">
<title>Return21</title>
<polygon fill="yellow" stroke="black" points="154,-124 88,-124 88,-88 154,-88 154,-124"/>
<text text-anchor="middle" x="121" y="-102.3" font-family="Times,serif" font-size="14.00">Return</text>
</g>
<!-- Stop3&#45;&gt;Return21 -->
<g id="edge1" class="edge">
<title>Stop3&#45;&gt;Return21</title>
<path fill="none" stroke="red" d="M121,-52.3C121,-60.02 121,-69.29 121,-77.89"/>
<polygon fill="red" stroke="red" points="117.5,-77.9 121,-87.9 124.5,-77.9 117.5,-77.9"/>
<text text-anchor="middle" x="118" y="-54.9" font-family="Helvetica,sans-Serif" font-size="8.00">0</text>
</g>
<!-- Con_6 -->
<g id="node3" class="node">
<title>Con_6</title>
<ellipse fill="none" stroke="black" cx="263" cy="-336" rx="27" ry="18"/>
<text text-anchor="middle" x="263" y="-332.3" font-family="Times,serif" font-size="14.00">#2</text>
</g>
<!-- Con_8 -->
<g id="node4" class="node">
<title>Con_8</title>
<ellipse fill="none" stroke="black" cx="43" cy="-508" rx="27" ry="18"/>
<text text-anchor="middle" x="43" y="-504.3" font-family="Times,serif" font-size="14.00">#1</text>
</g>
<!-- EQNode9 -->
<g id="node5" class="node">
<title>EQNode9</title>
<ellipse fill="none" stroke="black" cx="71" cy="-422" rx="27" ry="18"/>
<text text-anchor="middle" x="71" y="-418.3" font-family="Times,serif" font-size="14.00">==</text>
</g>
<!-- EQNode9&#45;&gt;Start2 -->
<g id="edge2" class="edge">
<title>EQNode9&#45;&gt;Start2:p1</title>
<path fill="none" stroke="black" d="M92.51,-433.05C113.44,-443.41 143.59,-460.03 154.16,-474.46"/>
<polygon fill="black" stroke="black" points="151.02,-476.03 158,-484 157.51,-473.42 151.02,-476.03"/>
<text text-anchor="middle" x="89.51" y="-435.65" font-family="Helvetica,sans-Serif" font-size="8.00">1</text>
</g>
<!-- EQNode9&#45;&gt;Con_8 -->
<g id="edge3" class="edge">
<title>EQNode9&#45;&gt;Con_8</title>
<path fill="none" stroke="black" d="M65.33,-440C61.44,-451.69 56.19,-467.44 51.76,-480.73"/>
<polygon fill="black" stroke="black" points="48.4,-479.72 48.56,-490.31 55.04,-481.93 48.4,-479.72"/>
<text text-anchor="middle" x="62.33" y="-442.6" font-family="Helvetica,sans-Serif" font-size="8.00">2</text>
</g>
<!-- If10 -->
<g id="node6" class="node">
<title>If10</title>
<polygon fill="yellow" stroke="transparent" points="24,-339 24,-364 118,-364 118,-339 24,-339"/>
<polygon fill="none" stroke="black" points="24,-339 24,-364 118,-364 118,-339 24,-339"/>
<text text-anchor="start" x="65.5" y="-347.8" font-family="Times,serif" font-size="14.00">If</text>
<polygon fill="none" stroke="black" points="24,-308 24,-339 118,-339 118,-308 24,-308"/>
<polygon fill="yellow" stroke="transparent" points="29,-313 29,-334 69,-334 69,-313 29,-313"/>
<polygon fill="none" stroke="black" points="29,-313 29,-334 69,-334 69,-313 29,-313"/>
<text text-anchor="start" x="32" y="-319.8" font-family="Times,serif" font-size="14.00">True</text>
<polygon fill="yellow" stroke="transparent" points="69,-313 69,-334 113,-334 113,-313 69,-313"/>
<polygon fill="none" stroke="black" points="69,-313 69,-334 113,-334 113,-313 69,-313"/>
<text text-anchor="start" x="72" y="-319.8" font-family="Times,serif" font-size="14.00">False</text>
</g>
<!-- If10&#45;&gt;Start2 -->
<g id="edge4" class="edge">
<title>If10&#45;&gt;Start2:p0</title>
<path fill="none" stroke="red" d="M90.29,-368.12C96.41,-379.12 102.69,-391.8 107,-404 117.81,-434.65 121.3,-445.6 121.9,-473.74"/>
<polygon fill="red" stroke="red" points="118.4,-474.03 122,-484 125.4,-473.97 118.4,-474.03"/>
<text text-anchor="middle" x="87.29" y="-370.72" font-family="Helvetica,sans-Serif" font-size="8.00">0</text>
</g>
<!-- If10&#45;&gt;EQNode9 -->
<g id="edge5" class="edge">
<title>If10&#45;&gt;EQNode9</title>
<path fill="none" stroke="black" d="M71,-368.28C71,-376.58 71,-385.48 71,-393.56"/>
<polygon fill="black" stroke="black" points="67.5,-393.6 71,-403.6 74.5,-393.6 67.5,-393.6"/>
<text text-anchor="middle" x="68" y="-370.88" font-family="Helvetica,sans-Serif" font-size="8.00">1</text>
</g>
<!-- Con_14 -->
<g id="node7" class="node">
<title>Con_14</title>
<ellipse fill="none" stroke="black" cx="191" cy="-336" rx="27" ry="18"/>
<text text-anchor="middle" x="191" y="-332.3" font-family="Times,serif" font-size="14.00">#3</text>
</g>
<!-- Region16 -->
<g id="node8" class="node">
<title>Region16</title>
<polygon fill="yellow" stroke="black" points="125,-268 59,-268 59,-232 125,-232 125,-268"/>
<text text-anchor="middle" x="92" y="-246.3" font-family="Times,serif" font-size="14.00">Region</text>
</g>
<!-- Region16&#45;&gt;If10 -->
<g id="edge6" class="edge">
<title>Region16&#45;&gt;If10:p0</title>
<path fill="none" stroke="red" d="M71.51,-268.03C62.68,-276.94 53.63,-288.71 50.32,-301.78"/>
<polygon fill="red" stroke="red" points="46.81,-301.63 49,-312 53.75,-302.53 46.81,-301.63"/>
<text text-anchor="middle" x="68.51" y="-270.63" font-family="Helvetica,sans-Serif" font-size="8.00">1</text>
</g>
<!-- Region16&#45;&gt;If10 -->
<g id="edge7" class="edge">
<title>Region16&#45;&gt;If10:p1</title>
<path fill="none" stroke="red" d="M91.57,-268.09C91.36,-277.55 91.13,-289.77 91.04,-301.69"/>
<polygon fill="red" stroke="red" points="87.54,-301.99 91,-312 94.54,-302.01 87.54,-301.99"/>
<text text-anchor="middle" x="88.57" y="-270.69" font-family="Helvetica,sans-Serif" font-size="8.00">2</text>
</g>
<!-- Phi_a19 -->
<g id="node9" class="node">
<title>Phi_a19</title>
<ellipse fill="lightyellow" stroke="black" cx="191" cy="-250" rx="27" ry="18"/>
<text text-anchor="middle" x="191" y="-246.3" font-family="Times,serif" font-size="14.00">φ_a</text>
</g>
<!-- Phi_a19&#45;&gt;Con_6 -->
<g id="edge10" class="edge">
<title>Phi_a19&#45;&gt;Con_6</title>
<path fill="none" stroke="black" d="M203.87,-266.02C214.93,-278.92 231.04,-297.71 243.65,-312.42"/>
<polygon fill="black" stroke="black" points="241.07,-314.8 250.24,-320.11 246.39,-310.24 241.07,-314.8"/>
<text text-anchor="middle" x="200.87" y="-268.62" font-family="Helvetica,sans-Serif" font-size="8.00">2</text>
</g>
<!-- Phi_a19&#45;&gt;Con_14 -->
<g id="edge9" class="edge">
<title>Phi_a19&#45;&gt;Con_14</title>
<path fill="none" stroke="black" d="M191,-268.4C191,-279.74 191,-294.77 191,-307.68"/>
<polygon fill="black" stroke="black" points="187.5,-307.9 191,-317.9 194.5,-307.9 187.5,-307.9"/>
<text text-anchor="middle" x="188" y="-271" font-family="Helvetica,sans-Serif" font-size="8.00">1</text>
</g>
<!-- Phi_a19&#45;&gt;Region16 -->
<g id="edge8" class="edge">
<title>Phi_a19&#45;&gt;Region16</title>
<path fill="none" stroke="black" stroke-dasharray="1,5" d="M163.78,-250C154.35,-250 144.92,-250 135.49,-250"/>
<polygon fill="black" stroke="black" points="135.26,-246.5 125.26,-250 135.26,-253.5 135.26,-246.5"/>
<text text-anchor="middle" x="160.78" y="-243.6" font-family="Helvetica,sans-Serif" font-size="8.00">0</text>
</g>
<!-- EQNode20 -->
<g id="node10" class="node">
<title>EQNode20</title>
<ellipse fill="none" stroke="black" cx="145" cy="-178" rx="27" ry="18"/>
<text text-anchor="middle" x="145" y="-174.3" font-family="Times,serif" font-size="14.00">==</text>
</g>
<!-- EQNode20&#45;&gt;Start2 -->
<g id="edge11" class="edge">
<title>EQNode20&#45;&gt;Start2:p1</title>
<path fill="none" stroke="black" d="M145.93,-196.36C148.75,-249.2 157.02,-408.5 157.92,-473.67"/>
<polygon fill="black" stroke="black" points="154.42,-474.03 158,-484 161.42,-473.97 154.42,-474.03"/>
<text text-anchor="middle" x="142.93" y="-198.96" font-family="Helvetica,sans-Serif" font-size="8.00">1</text>
</g>
<!-- EQNode20&#45;&gt;Phi_a19 -->
<g id="edge12" class="edge">
<title>EQNode20&#45;&gt;Phi_a19</title>
<path fill="none" stroke="black" d="M155.44,-194.88C161.2,-203.66 168.48,-214.74 174.96,-224.58"/>
<polygon fill="black" stroke="black" points="172.19,-226.74 180.6,-233.18 178.04,-222.9 172.19,-226.74"/>
<text text-anchor="middle" x="152.44" y="-197.48" font-family="Helvetica,sans-Serif" font-size="8.00">2</text>
</g>
<!-- Return21&#45;&gt;Region16 -->
<g id="edge13" class="edge">
<title>Return21&#45;&gt;Region16</title>
<path fill="none" stroke="red" d="M116.96,-124.15C114.56,-134.51 111.51,-147.99 109,-160 104.69,-180.66 100.23,-204.11 96.96,-221.75"/>
<polygon fill="red" stroke="red" points="93.46,-221.44 95.09,-231.9 100.34,-222.7 93.46,-221.44"/>
<text text-anchor="middle" x="113.96" y="-126.75" font-family="Helvetica,sans-Serif" font-size="8.00">0</text>
</g>
<!-- Return21&#45;&gt;EQNode20 -->
<g id="edge14" class="edge">
<title>Return21&#45;&gt;EQNode20</title>
<path fill="none" stroke="black" d="M126.93,-124.3C129.68,-132.3 132.99,-141.98 136.03,-150.85"/>
<polygon fill="black" stroke="black" points="132.75,-152.05 139.3,-160.38 139.37,-149.78 132.75,-152.05"/>
<text text-anchor="middle" x="123.93" y="-126.9" font-family="Helvetica,sans-Serif" font-size="8.00">1</text>
</g>
</g>
</svg>
