<?xml version="1.0" encoding="UTF-8" standalone="no"?>
<!DOCTYPE svg PUBLIC "-//W3C//DTD SVG 1.1//EN"
 "http://www.w3.org/Graphics/SVG/1.1/DTD/svg11.dtd">
<!-- Generated by graphviz version 2.43.0 (0)
 -->
<!-- Title: chapter05 Pages: 1 -->
<svg width="298pt" height="492pt"
 viewBox="0.00 0.00 298.00 492.00" xmlns="http://www.w3.org/2000/svg" xmlns:xlink="http://www.w3.org/1999/xlink">
<g id="graph0" class="graph" transform="scale(1 1) rotate(0) translate(4 488)">
<title>chapter05</title>
<polygon fill="white" stroke="transparent" points="-4,4 -4,-488 294,-488 294,4 -4,4"/>
<g id="clust1" class="cluster">
<title>cluster_Nodes</title>
<polygon fill="none" stroke="black" points="8,-8 8,-476 282,-476 282,-8 8,-8"/>
</g>
<!-- Start2 -->
<g id="node1" class="node">
<title>Start2</title>
<polygon fill="yellow" stroke="transparent" points="113,-439 113,-464 194,-464 194,-439 113,-439"/>
<polygon fill="none" stroke="black" points="113,-439 113,-464 194,-464 194,-439 113,-439"/>
<text text-anchor="start" x="135" y="-447.8" font-family="Times,serif" font-size="14.00">Start</text>
<polygon fill="none" stroke="black" points="113,-408 113,-439 194,-439 194,-408 113,-408"/>
<polygon fill="yellow" stroke="transparent" points="118,-413 118,-434 158,-434 158,-413 118,-413"/>
<polygon fill="none" stroke="black" points="118,-413 118,-434 158,-434 158,-413 118,-413"/>
<text text-anchor="start" x="121" y="-419.8" font-family="Times,serif" font-size="14.00">$ctrl</text>
<polygon fill="none" stroke="black" points="158,-413 158,-434 189,-434 189,-413 158,-413"/>
<text text-anchor="start" x="161" y="-419.8" font-family="Times,serif" font-size="14.00">arg</text>
</g>
<!-- Stop3 -->
<g id="node2" class="node">
<title>Stop3</title>
<polygon fill="yellow" stroke="black" points="185,-52 131,-52 131,-16 185,-16 185,-52"/>
<text text-anchor="middle" x="158" y="-30.3" font-family="Times,serif" font-size="14.00">Stop</text>
</g>
<!-- Return18 -->
<g id="node12" class="node">
<title>Return18</title>
<polygon fill="yellow" stroke="black" points="191,-124 125,-124 125,-88 191,-88 191,-124"/>
<text text-anchor="middle" x="158" y="-102.3" font-family="Times,serif" font-size="14.00">Return</text>
</g>
<!-- Stop3&#45;&gt;Return18 -->
<g id="edge1" class="edge">
<title>Stop3&#45;&gt;Return18</title>
<path fill="none" stroke="red" d="M158,-52.3C158,-60.02 158,-69.29 158,-77.89"/>
<polygon fill="red" stroke="red" points="154.5,-77.9 158,-87.9 161.5,-77.9 154.5,-77.9"/>
<text text-anchor="middle" x="155" y="-54.9" font-family="Helvetica,sans-Serif" font-size="8.00">0</text>
</g>
<!-- Con_6 -->
<g id="node3" class="node">
<title>Con_6</title>
<ellipse fill="none" stroke="black" cx="43" cy="-350" rx="27" ry="18"/>
<text text-anchor="middle" x="43" y="-346.3" font-family="Times,serif" font-size="14.00">#2</text>
</g>
<!-- EQNode7 -->
<g id="node4" class="node">
<title>EQNode7</title>
<ellipse fill="none" stroke="black" cx="47" cy="-264" rx="27" ry="18"/>
<text text-anchor="middle" x="47" y="-260.3" font-family="Times,serif" font-size="14.00">==</text>
</g>
<!-- EQNode7&#45;&gt;Start2 -->
<g id="edge2" class="edge">
<title>EQNode7&#45;&gt;Start2:p1</title>
<path fill="none" stroke="black" d="M54.69,-281.49C67.53,-308.81 92.56,-361.14 99,-368 122.77,-393.31 164.37,-377.46 172.57,-402.01"/>
<polygon fill="black" stroke="black" points="169.12,-402.6 174,-412 176.05,-401.61 169.12,-402.6"/>
<text text-anchor="middle" x="51.69" y="-284.09" font-family="Helvetica,sans-Serif" font-size="8.00">1</text>
</g>
<!-- EQNode7&#45;&gt;Con_6 -->
<g id="edge3" class="edge">
<title>EQNode7&#45;&gt;Con_6</title>
<path fill="none" stroke="black" d="M46.19,-282C45.65,-293.31 44.93,-308.42 44.31,-321.43"/>
<polygon fill="black" stroke="black" points="40.8,-321.58 43.82,-331.74 47.79,-321.92 40.8,-321.58"/>
<text text-anchor="middle" x="43.19" y="-284.6" font-family="Helvetica,sans-Serif" font-size="8.00">2</text>
</g>
<!-- Con_8 -->
<g id="node5" class="node">
<title>Con_8</title>
<ellipse fill="none" stroke="black" cx="247" cy="-436" rx="27" ry="18"/>
<text text-anchor="middle" x="247" y="-432.3" font-family="Times,serif" font-size="14.00">#1</text>
</g>
<!-- EQNode9 -->
<g id="node6" class="node">
<title>EQNode9</title>
<ellipse fill="none" stroke="black" cx="247" cy="-350" rx="27" ry="18"/>
<text text-anchor="middle" x="247" y="-346.3" font-family="Times,serif" font-size="14.00">==</text>
</g>
<!-- EQNode9&#45;&gt;Start2 -->
<g id="edge4" class="edge">
<title>EQNode9&#45;&gt;Start2:p1</title>
<path fill="none" stroke="black" d="M236.57,-366.62C225.76,-382.5 208.98,-406.28 198.26,-417.17"/>
<polygon fill="black" stroke="black" points="196.15,-414.37 190,-423 200.19,-420.09 196.15,-414.37"/>
<text text-anchor="middle" x="233.57" y="-369.22" font-family="Helvetica,sans-Serif" font-size="8.00">1</text>
</g>
<!-- EQNode9&#45;&gt;Con_8 -->
<g id="edge5" class="edge">
<title>EQNode9&#45;&gt;Con_8</title>
<path fill="none" stroke="black" d="M247,-368.4C247,-379.74 247,-394.77 247,-407.68"/>
<polygon fill="black" stroke="black" points="243.5,-407.9 247,-417.9 250.5,-407.9 243.5,-407.9"/>
<text text-anchor="middle" x="244" y="-371" font-family="Helvetica,sans-Serif" font-size="8.00">2</text>
</g>
<!-- If10 -->
<g id="node7" class="node">
<title>If10</title>
<polygon fill="yellow" stroke="transparent" points="172,-267 172,-292 266,-292 266,-267 172,-267"/>
<polygon fill="none" stroke="black" points="172,-267 172,-292 266,-292 266,-267 172,-267"/>
<text text-anchor="start" x="213.5" y="-275.8" font-family="Times,serif" font-size="14.00">If</text>
<polygon fill="none" stroke="black" points="172,-236 172,-267 266,-267 266,-236 172,-236"/>
<polygon fill="yellow" stroke="transparent" points="177,-241 177,-262 217,-262 217,-241 177,-241"/>
<polygon fill="none" stroke="black" points="177,-241 177,-262 217,-262 217,-241 177,-241"/>
<text text-anchor="start" x="180" y="-247.8" font-family="Times,serif" font-size="14.00">True</text>
<polygon fill="yellow" stroke="transparent" points="217,-241 217,-262 261,-262 261,-241 217,-241"/>
<polygon fill="none" stroke="black" points="217,-241 217,-262 261,-262 261,-241 217,-241"/>
<text text-anchor="start" x="220" y="-247.8" font-family="Times,serif" font-size="14.00">False</text>
</g>
<!-- If10&#45;&gt;Start2 -->
<g id="edge6" class="edge">
<title>If10&#45;&gt;Start2:p0</title>
<path fill="none" stroke="red" d="M210.31,-296.18C203.59,-317.4 193.07,-345.57 179,-368 166.9,-387.28 145.68,-386.25 139.64,-402.02"/>
<polygon fill="red" stroke="red" points="136.17,-401.56 138,-412 143.08,-402.7 136.17,-401.56"/>
<text text-anchor="middle" x="207.31" y="-298.78" font-family="Helvetica,sans-Serif" font-size="8.00">0</text>
</g>
<!-- If10&#45;&gt;EQNode9 -->
<g id="edge7" class="edge">
<title>If10&#45;&gt;EQNode9</title>
<path fill="none" stroke="black" d="M229.43,-296.28C232.3,-304.9 235.39,-314.17 238.16,-322.49"/>
<polygon fill="black" stroke="black" points="234.87,-323.69 241.36,-332.07 241.51,-321.48 234.87,-323.69"/>
<text text-anchor="middle" x="226.43" y="-298.88" font-family="Helvetica,sans-Serif" font-size="8.00">1</text>
</g>
<!-- Con_14 -->
<g id="node8" class="node">
<title>Con_14</title>
<ellipse fill="none" stroke="black" cx="135" cy="-350" rx="27" ry="18"/>
<text text-anchor="middle" x="135" y="-346.3" font-family="Times,serif" font-size="14.00">#3</text>
</g>
<!-- EQNode15 -->
<g id="node9" class="node">
<title>EQNode15</title>
<ellipse fill="none" stroke="black" cx="119" cy="-264" rx="27" ry="18"/>
<text text-anchor="middle" x="119" y="-260.3" font-family="Times,serif" font-size="14.00">==</text>
</g>
<!-- EQNode15&#45;&gt;Start2 -->
<g id="edge8" class="edge">
<title>EQNode15&#45;&gt;Start2:p1</title>
<path fill="none" stroke="black" d="M134.23,-279.02C146.68,-291.55 163.4,-311.1 171,-332 181.92,-362.04 175.64,-373.96 174.25,-401.87"/>
<polygon fill="black" stroke="black" points="170.75,-401.92 174,-412 177.75,-402.09 170.75,-401.92"/>
<text text-anchor="middle" x="131.23" y="-281.62" font-family="Helvetica,sans-Serif" font-size="8.00">1</text>
</g>
<!-- EQNode15&#45;&gt;Con_14 -->
<g id="edge9" class="edge">
<title>EQNode15&#45;&gt;Con_14</title>
<path fill="none" stroke="black" d="M122.24,-282C124.43,-293.5 127.37,-308.93 129.87,-322.08"/>
<polygon fill="black" stroke="black" points="126.46,-322.86 131.77,-332.03 133.33,-321.55 126.46,-322.86"/>
<text text-anchor="middle" x="119.24" y="-284.6" font-family="Helvetica,sans-Serif" font-size="8.00">2</text>
</g>
<!-- Region16 -->
<g id="node10" class="node">
<title>Region16</title>
<polygon fill="yellow" stroke="black" points="230,-196 164,-196 164,-160 230,-160 230,-196"/>
<text text-anchor="middle" x="197" y="-174.3" font-family="Times,serif" font-size="14.00">Region</text>
</g>
<!-- Region16&#45;&gt;If10 -->
<g id="edge10" class="edge">
<title>Region16&#45;&gt;If10:p0</title>
<path fill="none" stroke="red" d="M197,-196.09C197,-205.55 197,-217.77 197,-229.69"/>
<polygon fill="red" stroke="red" points="193.5,-230 197,-240 200.5,-230 193.5,-230"/>
<text text-anchor="middle" x="194" y="-198.69" font-family="Helvetica,sans-Serif" font-size="8.00">1</text>
</g>
<!-- Region16&#45;&gt;If10 -->
<g id="edge11" class="edge">
<title>Region16&#45;&gt;If10:p1</title>
<path fill="none" stroke="red" d="M217.02,-196.12C225.64,-205.06 234.48,-216.84 237.71,-229.84"/>
<polygon fill="red" stroke="red" points="234.27,-230.52 239,-240 241.22,-229.64 234.27,-230.52"/>
<text text-anchor="middle" x="214.02" y="-198.72" font-family="Helvetica,sans-Serif" font-size="8.00">2</text>
</g>
<!-- Phi_a17 -->
<g id="node11" class="node">
<title>Phi_a17</title>
<ellipse fill="lightyellow" stroke="black" cx="119" cy="-178" rx="27" ry="18"/>
<text text-anchor="middle" x="119" y="-174.3" font-family="Times,serif" font-size="14.00">φ_a</text>
</g>
<!-- Phi_a17&#45;&gt;EQNode7 -->
<g id="edge14" class="edge">
<title>Phi_a17&#45;&gt;EQNode7</title>
<path fill="none" stroke="black" d="M106.13,-194.02C95.07,-206.92 78.96,-225.71 66.35,-240.42"/>
<polygon fill="black" stroke="black" points="63.61,-238.24 59.76,-248.11 68.93,-242.8 63.61,-238.24"/>
<text text-anchor="middle" x="103.13" y="-196.62" font-family="Helvetica,sans-Serif" font-size="8.00">2</text>
</g>
<!-- Phi_a17&#45;&gt;EQNode15 -->
<g id="edge13" class="edge">
<title>Phi_a17&#45;&gt;EQNode15</title>
<path fill="none" stroke="black" d="M119,-196.4C119,-207.74 119,-222.77 119,-235.68"/>
<polygon fill="black" stroke="black" points="115.5,-235.9 119,-245.9 122.5,-235.9 115.5,-235.9"/>
<text text-anchor="middle" x="116" y="-199" font-family="Helvetica,sans-Serif" font-size="8.00">1</text>
</g>
<!-- Phi_a17&#45;&gt;Region16 -->
<g id="edge12" class="edge">
<title>Phi_a17&#45;&gt;Region16</title>
<path fill="none" stroke="black" stroke-dasharray="1,5" d="M146.12,-178C148.58,-178 151.04,-178 153.5,-178"/>
<polygon fill="black" stroke="black" points="153.61,-181.5 163.61,-178 153.61,-174.5 153.61,-181.5"/>
<text text-anchor="middle" x="149.12" y="-171.6" font-family="Helvetica,sans-Serif" font-size="8.00">0</text>
</g>
<!-- Return18&#45;&gt;Region16 -->
<g id="edge15" class="edge">
<title>Return18&#45;&gt;Region16</title>
<path fill="none" stroke="red" d="M167.64,-124.3C172.13,-132.36 177.56,-142.11 182.52,-151.02"/>
<polygon fill="red" stroke="red" points="179.55,-152.86 187.47,-159.9 185.66,-149.46 179.55,-152.86"/>
<text text-anchor="middle" x="164.64" y="-126.9" font-family="Helvetica,sans-Serif" font-size="8.00">0</text>
</g>
<!-- Return18&#45;&gt;Phi_a17 -->
<g id="edge16" class="edge">
<title>Return18&#45;&gt;Phi_a17</title>
<path fill="none" stroke="black" d="M148.36,-124.3C143.69,-132.68 138,-142.9 132.87,-152.1"/>
<polygon fill="black" stroke="black" points="129.8,-150.42 127.99,-160.86 135.92,-153.82 129.8,-150.42"/>
<text text-anchor="middle" x="145.36" y="-126.9" font-family="Helvetica,sans-Serif" font-size="8.00">1</text>
</g>
</g>
</svg>
