<?xml version="1.0" encoding="UTF-8" standalone="no"?>
<!DOCTYPE svg PUBLIC "-//W3C//DTD SVG 1.1//EN"
 "http://www.w3.org/Graphics/SVG/1.1/DTD/svg11.dtd">
<!-- Generated by graphviz version 2.43.0 (0)
 -->
<!-- Title: chapter05 Pages: 1 -->
<svg width="294pt" height="492pt"
 viewBox="0.00 0.00 294.00 492.00" xmlns="http://www.w3.org/2000/svg" xmlns:xlink="http://www.w3.org/1999/xlink">
<g id="graph0" class="graph" transform="scale(1 1) rotate(0) translate(4 488)">
<title>chapter05</title>
<polygon fill="white" stroke="transparent" points="-4,4 -4,-488 290,-488 290,4 -4,4"/>
<g id="clust1" class="cluster">
<title>cluster_Nodes</title>
<polygon fill="none" stroke="black" points="8,-8 8,-476 278,-476 278,-8 8,-8"/>
</g>
<!-- Start2 -->
<g id="node1" class="node">
<title>Start2</title>
<polygon fill="yellow" stroke="transparent" points="109,-439 109,-464 190,-464 190,-439 109,-439"/>
<polygon fill="none" stroke="black" points="109,-439 109,-464 190,-464 190,-439 109,-439"/>
<text text-anchor="start" x="131" y="-447.8" font-family="Times,serif" font-size="14.00">Start</text>
<polygon fill="none" stroke="black" points="109,-408 109,-439 190,-439 190,-408 109,-408"/>
<polygon fill="yellow" stroke="transparent" points="114,-413 114,-434 154,-434 154,-413 114,-413"/>
<polygon fill="none" stroke="black" points="114,-413 114,-434 154,-434 154,-413 114,-413"/>
<text text-anchor="start" x="117" y="-419.8" font-family="Times,serif" font-size="14.00">$ctrl</text>
<polygon fill="none" stroke="black" points="154,-413 154,-434 185,-434 185,-413 154,-413"/>
<text text-anchor="start" x="157" y="-419.8" font-family="Times,serif" font-size="14.00">arg</text>
</g>
<!-- Stop3 -->
<g id="node2" class="node">
<title>Stop3</title>
<polygon fill="yellow" stroke="black" points="181,-52 127,-52 127,-16 181,-16 181,-52"/>
<text text-anchor="middle" x="154" y="-30.3" font-family="Times,serif" font-size="14.00">Stop</text>
</g>
<!-- Return19 -->
<g id="node10" class="node">
<title>Return19</title>
<polygon fill="yellow" stroke="black" points="187,-124 121,-124 121,-88 187,-88 187,-124"/>
<text text-anchor="middle" x="154" y="-102.3" font-family="Times,serif" font-size="14.00">Return</text>
</g>
<!-- Stop3&#45;&gt;Return19 -->
<g id="edge1" class="edge">
<title>Stop3&#45;&gt;Return19</title>
<path fill="none" stroke="red" d="M154,-52.3C154,-60.02 154,-69.29 154,-77.89"/>
<polygon fill="red" stroke="red" points="150.5,-77.9 154,-87.9 157.5,-77.9 150.5,-77.9"/>
<text text-anchor="middle" x="151" y="-54.9" font-family="Helvetica,sans-Serif" font-size="8.00">0</text>
</g>
<!-- Con_6 -->
<g id="node3" class="node">
<title>Con_6</title>
<ellipse fill="none" stroke="black" cx="43" cy="-264" rx="27" ry="18"/>
<text text-anchor="middle" x="43" y="-260.3" font-family="Times,serif" font-size="14.00">#3</text>
</g>
<!-- Con_8 -->
<g id="node4" class="node">
<title>Con_8</title>
<ellipse fill="none" stroke="black" cx="243" cy="-436" rx="27" ry="18"/>
<text text-anchor="middle" x="243" y="-432.3" font-family="Times,serif" font-size="14.00">#1</text>
</g>
<!-- EQNode9 -->
<g id="node5" class="node">
<title>EQNode9</title>
<ellipse fill="none" stroke="black" cx="215" cy="-350" rx="27" ry="18"/>
<text text-anchor="middle" x="215" y="-346.3" font-family="Times,serif" font-size="14.00">==</text>
</g>
<!-- EQNode9&#45;&gt;Start2 -->
<g id="edge2" class="edge">
<title>EQNode9&#45;&gt;Start2:p1</title>
<path fill="none" stroke="black" d="M197.73,-364.01C187.32,-373.17 175.33,-386.49 171.36,-401.73"/>
<polygon fill="black" stroke="black" points="167.84,-401.63 170,-412 174.78,-402.54 167.84,-401.63"/>
<text text-anchor="middle" x="194.73" y="-366.61" font-family="Helvetica,sans-Serif" font-size="8.00">1</text>
</g>
<!-- EQNode9&#45;&gt;Con_8 -->
<g id="edge3" class="edge">
<title>EQNode9&#45;&gt;Con_8</title>
<path fill="none" stroke="black" d="M220.67,-368C224.56,-379.69 229.81,-395.44 234.24,-408.73"/>
<polygon fill="black" stroke="black" points="230.96,-409.93 237.44,-418.31 237.6,-407.72 230.96,-409.93"/>
<text text-anchor="middle" x="217.67" y="-370.6" font-family="Helvetica,sans-Serif" font-size="8.00">2</text>
</g>
<!-- If10 -->
<g id="node6" class="node">
<title>If10</title>
<polygon fill="yellow" stroke="transparent" points="168,-267 168,-292 262,-292 262,-267 168,-267"/>
<polygon fill="none" stroke="black" points="168,-267 168,-292 262,-292 262,-267 168,-267"/>
<text text-anchor="start" x="209.5" y="-275.8" font-family="Times,serif" font-size="14.00">If</text>
<polygon fill="none" stroke="black" points="168,-236 168,-267 262,-267 262,-236 168,-236"/>
<polygon fill="yellow" stroke="transparent" points="173,-241 173,-262 213,-262 213,-241 173,-241"/>
<polygon fill="none" stroke="black" points="173,-241 173,-262 213,-262 213,-241 173,-241"/>
<text text-anchor="start" x="176" y="-247.8" font-family="Times,serif" font-size="14.00">True</text>
<polygon fill="yellow" stroke="transparent" points="213,-241 213,-262 257,-262 257,-241 213,-241"/>
<polygon fill="none" stroke="black" points="213,-241 213,-262 257,-262 257,-241 213,-241"/>
<text text-anchor="start" x="216" y="-247.8" font-family="Times,serif" font-size="14.00">False</text>
</g>
<!-- If10&#45;&gt;Start2 -->
<g id="edge4" class="edge">
<title>If10&#45;&gt;Start2:p0</title>
<path fill="none" stroke="red" d="M185.76,-296.14C164.32,-322.05 138.32,-361.17 134.48,-401.9"/>
<polygon fill="red" stroke="red" points="130.98,-401.84 134,-412 137.97,-402.18 130.98,-401.84"/>
<text text-anchor="middle" x="182.76" y="-298.74" font-family="Helvetica,sans-Serif" font-size="8.00">0</text>
</g>
<!-- If10&#45;&gt;EQNode9 -->
<g id="edge5" class="edge">
<title>If10&#45;&gt;EQNode9</title>
<path fill="none" stroke="black" d="M215,-296.28C215,-304.58 215,-313.48 215,-321.56"/>
<polygon fill="black" stroke="black" points="211.5,-321.6 215,-331.6 218.5,-321.6 211.5,-321.6"/>
<text text-anchor="middle" x="212" y="-298.88" font-family="Helvetica,sans-Serif" font-size="8.00">1</text>
</g>
<!-- Con_15 -->
<g id="node7" class="node">
<title>Con_15</title>
<ellipse fill="none" stroke="black" cx="115" cy="-264" rx="27" ry="18"/>
<text text-anchor="middle" x="115" y="-260.3" font-family="Times,serif" font-size="14.00">#4</text>
</g>
<!-- Region16 -->
<g id="node8" class="node">
<title>Region16</title>
<polygon fill="yellow" stroke="black" points="226,-196 160,-196 160,-160 226,-160 226,-196"/>
<text text-anchor="middle" x="193" y="-174.3" font-family="Times,serif" font-size="14.00">Region</text>
</g>
<!-- Region16&#45;&gt;If10 -->
<g id="edge6" class="edge">
<title>Region16&#45;&gt;If10:p0</title>
<path fill="none" stroke="red" d="M193,-196.09C193,-205.55 193,-217.77 193,-229.69"/>
<polygon fill="red" stroke="red" points="189.5,-230 193,-240 196.5,-230 189.5,-230"/>
<text text-anchor="middle" x="190" y="-198.69" font-family="Helvetica,sans-Serif" font-size="8.00">1</text>
</g>
<!-- Region16&#45;&gt;If10 -->
<g id="edge7" class="edge">
<title>Region16&#45;&gt;If10:p1</title>
<path fill="none" stroke="red" d="M213.02,-196.12C221.64,-205.06 230.48,-216.84 233.71,-229.84"/>
<polygon fill="red" stroke="red" points="230.27,-230.52 235,-240 237.22,-229.64 230.27,-230.52"/>
<text text-anchor="middle" x="210.02" y="-198.72" font-family="Helvetica,sans-Serif" font-size="8.00">2</text>
</g>
<!-- Phi_c17 -->
<g id="node9" class="node">
<title>Phi_c17</title>
<ellipse fill="lightyellow" stroke="black" cx="115" cy="-178" rx="27" ry="18"/>
<text text-anchor="middle" x="115" y="-174.3" font-family="Times,serif" font-size="14.00">φ_c</text>
</g>
<!-- Phi_c17&#45;&gt;Con_6 -->
<g id="edge10" class="edge">
<title>Phi_c17&#45;&gt;Con_6</title>
<path fill="none" stroke="black" d="M102.13,-194.02C91.07,-206.92 74.96,-225.71 62.35,-240.42"/>
<polygon fill="black" stroke="black" points="59.61,-238.24 55.76,-248.11 64.93,-242.8 59.61,-238.24"/>
<text text-anchor="middle" x="99.13" y="-196.62" font-family="Helvetica,sans-Serif" font-size="8.00">2</text>
</g>
<!-- Phi_c17&#45;&gt;Con_15 -->
<g id="edge9" class="edge">
<title>Phi_c17&#45;&gt;Con_15</title>
<path fill="none" stroke="black" d="M115,-196.4C115,-207.74 115,-222.77 115,-235.68"/>
<polygon fill="black" stroke="black" points="111.5,-235.9 115,-245.9 118.5,-235.9 111.5,-235.9"/>
<text text-anchor="middle" x="112" y="-199" font-family="Helvetica,sans-Serif" font-size="8.00">1</text>
</g>
<!-- Phi_c17&#45;&gt;Region16 -->
<g id="edge8" class="edge">
<title>Phi_c17&#45;&gt;Region16</title>
<path fill="none" stroke="black" stroke-dasharray="1,5" d="M142.12,-178C144.58,-178 147.04,-178 149.5,-178"/>
<polygon fill="black" stroke="black" points="149.61,-181.5 159.61,-178 149.61,-174.5 149.61,-181.5"/>
<text text-anchor="middle" x="145.12" y="-171.6" font-family="Helvetica,sans-Serif" font-size="8.00">0</text>
</g>
<!-- Return19&#45;&gt;Region16 -->
<g id="edge11" class="edge">
<title>Return19&#45;&gt;Region16</title>
<path fill="none" stroke="red" d="M163.64,-124.3C168.13,-132.36 173.56,-142.11 178.52,-151.02"/>
<polygon fill="red" stroke="red" points="175.55,-152.86 183.47,-159.9 181.66,-149.46 175.55,-152.86"/>
<text text-anchor="middle" x="160.64" y="-126.9" font-family="Helvetica,sans-Serif" font-size="8.00">0</text>
</g>
<!-- Return19&#45;&gt;Phi_c17 -->
<g id="edge12" class="edge">
<title>Return19&#45;&gt;Phi_c17</title>
<path fill="none" stroke="black" d="M144.36,-124.3C139.69,-132.68 134,-142.9 128.87,-152.1"/>
<polygon fill="black" stroke="black" points="125.8,-150.42 123.99,-160.86 131.92,-153.82 125.8,-150.42"/>
<text text-anchor="middle" x="141.36" y="-126.9" font-family="Helvetica,sans-Serif" font-size="8.00">1</text>
</g>
</g>
</svg>
