<svg aria-label="Compiler graph" width="782" height="734" xmlns="http://www.w3.org/2000/svg" viewBox="0 0 782 734" style="font-family: sans-serif;"><style>
    html, body { height:100%; margin:0; font-family:sans-serif; }
    .viewer { height:100%; display:grid; grid-template-rows:auto minmax(0,1fr) auto; }
    .source { padding:8px; border-bottom:1px solid #ccc; }
    #program { width:min(600px,80vw); vertical-align:middle; }
    #status { margin-top:4px; }
    #graph { min-height:0; overflow:hidden; position:relative; background:#fafbfc; }
    #elk { width:100%; height:100%; }
    #graph svg { display:block; }
    .tools { display:flex; flex-wrap:wrap; align-items:center; gap:14px; margin-top:8px; font-size:12px; }
    .hint { color:#616c78; }
    .ctrl { color:#b63838; } .mem { color:#2867b2; } .data { color:#536477; }
    .edge { fill:none; stroke-width:1.5; }
    .edge.CTRL { stroke-width:2; }
    .edge.ASSOC { stroke-dasharray:4 4; }
    .edge.PARSER { stroke-dasharray:5 4; }
    .parser rect { fill:#f6f0ff; stroke:#7956a5; stroke-width:1.5; stroke-dasharray:5 4; }
    .edge.selected { stroke-width:3.5; }
    .edge.bundle { stroke-width:4; }
    .edge.bundle.selected { stroke-width:6; }
    .edge-hit { fill:none; stroke:transparent; stroke-width:12; vector-effect:non-scaling-stroke; pointer-events:stroke; cursor:pointer; }
    .edge-jump { fill:transparent; pointer-events:all; cursor:pointer; }
    .node { cursor:pointer; }
    .box { stroke:#758191; stroke-width:1; }
    .node.held .box { stroke-dasharray:5 3; }
    .node.near .box { stroke:#c18221; stroke-width:2; }
    .node.focus .box { stroke:#9c4900; stroke-width:3; }
    .node.selected .box { stroke:#1569b9; stroke-width:3; }
    .node.folded .box { stroke-width:4; }
    .node.folding .box { fill:#f4ccd7; }
    .fold-tag { font-size:9px; font-weight:700; fill:#963751; }
    .peep-area { fill:#fff3d9; fill-opacity:.8; stroke:#c18221; stroke-width:2; pointer-events:none; }
    .node.peep-edit .box { stroke:#9c4900; stroke-width:3; }
    .node.error .box { stroke:#b42318; stroke-width:4; }
    #event.error { color:#b42318; font-weight:600; white-space:pre-wrap; overflow-wrap:anywhere; }
    .peep-ghosts { pointer-events:none; }
    .region-box { stroke:#9da9b8; stroke-width:1.5; }
    .fold-btn { cursor:pointer; }
    .fold-btn rect { fill:white; stroke:#596674; }
    .fold-btn text { font-size:14px; fill:#152330; }
    .fold-btn:focus rect { stroke:#1569b9; stroke-width:2; }
    .shortcut { cursor:pointer; }
    .shortcut path { fill:none; stroke-width:1.5; }
    .shortcut rect { fill:#fff8ec; stroke:#b63838; stroke-dasharray:3 2; }
    .shortcut text { font-size:11px; fill:#783030; }
    .shortcut.selected rect, .shortcut:focus rect { stroke-width:2.5; }
    .label { font-size:12px; fill:#152330; font-weight:600; }
    .node-id { font-size:10px; fill:#596674; font-weight:400; }
    .type { font-size:11px; fill:#455768; }
    .port { stroke:#536477; stroke-width:1; }
    .row { stroke:#b6afcf; stroke-width:1; }
    .bind { font-size:12px; fill:#152330; }
    .slot { font-size:10px; fill:#364352; paint-order:stroke; stroke:#fafbfc; stroke-width:3; }
    #detail { position:absolute; top:8px; right:8px; margin:0; padding:12px; max-width:320px;
      max-height:45%; overflow:auto; white-space:pre-wrap; overflow-wrap:anywhere;
      background:#fffffff2; border:1px solid #bac5d0; border-radius:4px; font-size:12px; }
    .controls { display:flex; flex-wrap:wrap; justify-content:center; align-items:center; gap:6px; padding:6px; }
    .button { color:white; background:black; font-size:20px; min-width:30px; }
    .button:disabled { background:grey; }
    .count { font-size:20px; min-width:35px; text-align:center; }
    #N { width:6ch; }
    #scrub { width:clamp(120px,35vw,600px); }
  </style><defs><marker id="arrow-CTRL" viewBox="0 -4 8 8" refX="8" refY="0" markerWidth="7" markerHeight="7" orient="auto-start-reverse"><path d="M0,-4L8,0L0,4Z" fill="#b63838"/></marker><marker id="arrow-DATA" viewBox="0 -4 8 8" refX="8" refY="0" markerWidth="7" markerHeight="7" orient="auto-start-reverse"><path d="M0,-4L8,0L0,4Z" fill="#536477"/></marker><marker id="arrow-MEM" viewBox="0 -4 8 8" refX="8" refY="0" markerWidth="7" markerHeight="7" orient="auto-start-reverse"><path d="M0,-4L8,0L0,4Z" fill="#2867b2"/></marker><marker id="arrow-ASSOC" viewBox="0 -4 8 8" refX="8" refY="0" markerWidth="7" markerHeight="7" orient="auto-start-reverse"><path d="M0,-4L8,0L0,4Z" fill="#9396a3"/></marker><marker id="arrow-PARSER" viewBox="0 -4 8 8" refX="8" refY="0" markerWidth="7" markerHeight="7" orient="auto-start-reverse"><path d="M0,-4L8,0L0,4Z" fill="#7956a5"/></marker></defs><rect width="100%" height="100%" fill="rgb(250, 251, 252)"/><g><g class="regions" style="opacity: 1;"><g class="region" transform="translate(24,173)"><rect class="region-box" rx="8" width="360" height="354" fill="#f2f7ef"/></g></g><rect class="peep-area" rx="36" style="opacity: 0;"/><g class="edges"><path class="edge CTRL" id="e3i0" d="M180,633 C180,657 391,660 391,684" stroke="#b63838" marker-start="url(#arrow-CTRL)" style="opacity: 1;"><title>#3[0] → #19 · CTRL</title></path><path class="edge DATA" id="e9i1" d="M236,118 L236,128 L196,128 L196,207" stroke="#536477" marker-start="url(#arrow-DATA)" style="opacity: 1;"><title>#9[1] → #4 · DATA</title></path><path class="edge DATA" id="e9i2" d="M394,118 L394,138 L226,138 L226,207" stroke="#536477" marker-start="url(#arrow-DATA)" style="opacity: 1;"><title>#9[2] → #8 · DATA</title></path><path class="edge CTRL" id="e10i0" d="M116,118 L116,311" stroke="#b63838" marker-start="url(#arrow-CTRL)" style="opacity: 1;"><title>#10[0] → #1 · CTRL</title></path><path class="edge DATA" id="e10i1" d="M196,263 L196,311" stroke="#536477" marker-start="url(#arrow-DATA)" style="opacity: 1;"><title>#10[1] → #9 · DATA</title></path><path class="edge CTRL" id="e16i1" d="M96,411 L96,421 L160,421 L160,459" stroke="#b63838" marker-start="url(#arrow-CTRL)" style="opacity: 1;"><title>#16[1] → #5 · CTRL</title></path><path class="edge CTRL" id="e16i2" d="M216,411 L216,421 L190,421 L190,459" stroke="#b63838" marker-start="url(#arrow-CTRL)" style="opacity: 1;"><title>#16[2] → #7 · CTRL</title></path><path class="edge DATA" id="e17i1" d="M546,118 L546,148 L292,148 L292,459" stroke="#536477" marker-start="url(#arrow-DATA)" style="opacity: 1;"><title>#17[1] → #15 · DATA</title></path><path class="edge DATA" id="e17i2" d="M698,118 L698,158 L332,158 L332,459" stroke="#536477" marker-start="url(#arrow-DATA)" style="opacity: 1;"><title>#17[2] → #6 · DATA</title></path><path class="edge CTRL" id="e19i0" d="M160,515 L160,580" stroke="#b63838" marker-start="url(#arrow-CTRL)" style="opacity: 1;"><title>#19[0] → #16 · CTRL</title></path><path class="edge DATA" id="e19i1" d="M312,515 L312,542 L200,542 L200,580" stroke="#536477" marker-start="url(#arrow-DATA)" style="opacity: 1;"><title>#19[1] → #17 · DATA</title></path></g><g class="edge-hits"/><g class="parser" style="opacity: 1;"/><g class="nodes"><g class="node" id="n1" data-id="1" transform="translate(56,68)" style="opacity: 1;"><path class="box" d="M0,0H120V44H0Z" fill="#fff1c4"/><text class="label" text-anchor="middle" x="60" y="18"><tspan>$ctrl</tspan><tspan class="node-id">  #1/0</tspan></text><text class="type" text-anchor="middle" y="35" x="60"/><title>#1 $ctrl
Projection 0 of #2
Type not computed

[0] → #2  CTRL</title></g><g class="node" id="n2" data-id="2" transform="translate(56,24)" style="opacity: 1;"><path class="box" d="M0,0H240V44H0Z" fill="#fff1c4"/><text class="label" text-anchor="middle" x="120" y="18"><tspan>Start</tspan><tspan class="node-id">  #2</tspan></text><text class="type" text-anchor="middle" y="35" x="120"/><title>#2 Start
Type not computed

</title></g><g class="node" id="n3" data-id="3" transform="translate(355,684)" style="opacity: 1;"><path class="box" d="M0,0H72V26H0Z" fill="#fff1c4"/><text class="label" text-anchor="middle" x="36" y="17"><tspan>Stop</tspan><tspan class="node-id">  #3</tspan></text><text class="type" text-anchor="middle" y="35" x="36"/><title>#3 Stop
Type not computed

[0] → #19  CTRL</title><circle class="port" cx="36" cy="0" r="3" fill="#536477"/><text class="slot" x="36" y="-7" text-anchor="middle">0</text></g><g class="node" id="n4" data-id="4" transform="translate(176,68)" style="opacity: 1;"><path class="box" d="M0,0H120V44H0Z" fill="#edf3f7"/><text class="label" text-anchor="middle" x="60" y="18"><tspan>arg</tspan><tspan class="node-id">  #4/1</tspan></text><text class="type" text-anchor="middle" y="35" x="60"/><title>#4 arg
Projection 1 of #2
Type not computed

[0] → #2  DATA</title></g><g class="node" id="n5" data-id="5" transform="translate(36,361)" style="opacity: 1;"><path class="box" d="M0,0H120V44H0Z" fill="#fff1c4"/><text class="label" text-anchor="middle" x="60" y="18"><tspan>True</tspan><tspan class="node-id">  #5/0</tspan></text><text class="type" text-anchor="middle" y="35" x="60"/><title>#5 True
Projection 0 of #10
Type not computed

[0] → #10  CTRL</title></g><g class="node" id="n6" data-id="6" transform="translate(638,68)" style="opacity: 1;"><path class="box" d="M14,0H106Q120,0 120,14V30Q120,44 106,44H14Q0,44 0,30V14Q0,0 14,0Z" fill="#edf3f7"/><text class="label" text-anchor="middle" x="60" y="18"><tspan>#3</tspan><tspan class="node-id">  #6</tspan></text><text class="type" text-anchor="middle" y="35" x="60"/><title>#6 #3
Type not computed

</title></g><g class="node" id="n7" data-id="7" transform="translate(156,361)" style="opacity: 1;"><path class="box" d="M0,0H120V44H0Z" fill="#fff1c4"/><text class="label" text-anchor="middle" x="60" y="18"><tspan>False</tspan><tspan class="node-id">  #7/1</tspan></text><text class="type" text-anchor="middle" y="35" x="60"/><title>#7 False
Projection 1 of #10
Type not computed

[0] → #10  CTRL</title></g><g class="node" id="n8" data-id="8" transform="translate(334,68)" style="opacity: 1;"><path class="box" d="M14,0H106Q120,0 120,14V30Q120,44 106,44H14Q0,44 0,30V14Q0,0 14,0Z" fill="#edf3f7"/><text class="label" text-anchor="middle" x="60" y="18"><tspan>#1</tspan><tspan class="node-id">  #8</tspan></text><text class="type" text-anchor="middle" y="35" x="60"/><title>#8 #1
Type not computed

</title></g><g class="node" id="n9" data-id="9" transform="translate(136,213)" style="opacity: 1;"><path class="box" d="M14,0H106Q120,0 120,14V30Q120,44 106,44H14Q0,44 0,30V14Q0,0 14,0Z" fill="#edf3f7"/><text class="label" text-anchor="middle" x="60" y="18"><tspan>==</tspan><tspan class="node-id">  #9</tspan></text><text class="type" text-anchor="middle" y="35" x="60"/><title>#9 ==
Type not computed

[0] → —  DATA
[1] → #4  DATA
[2] → #8  DATA</title><circle class="port" cx="30" cy="-3" r="3" fill="white"/><circle class="port" cx="60" cy="-3" r="3" fill="#536477"/><circle class="port" cx="90" cy="-3" r="3" fill="#536477"/><text class="slot" x="30" y="-10" text-anchor="middle">0</text><text class="slot" x="60" y="-10" text-anchor="middle">1</text><text class="slot" x="90" y="-10" text-anchor="middle">2</text></g><g class="node" id="n10" data-id="10" transform="translate(36,317)" style="opacity: 1;"><path class="box" d="M0,0H240V44H0Z" fill="#fff1c4"/><text class="label" text-anchor="middle" x="120" y="18"><tspan>If</tspan><tspan class="node-id">  #10</tspan></text><text class="type" text-anchor="middle" y="35" x="120"/><title>#10 If
Type not computed

[0] → #1  CTRL
[1] → #9  DATA</title><circle class="port" cx="80" cy="-3" r="3" fill="#536477"/><circle class="port" cx="160" cy="-3" r="3" fill="#536477"/><text class="slot" x="80" y="-10" text-anchor="middle">0</text><text class="slot" x="160" y="-10" text-anchor="middle">1</text></g><g class="node" id="n15" data-id="15" transform="translate(486,68)" style="opacity: 1;"><path class="box" d="M14,0H106Q120,0 120,14V30Q120,44 106,44H14Q0,44 0,30V14Q0,0 14,0Z" fill="#edf3f7"/><text class="label" text-anchor="middle" x="60" y="18"><tspan>#4</tspan><tspan class="node-id">  #15</tspan></text><text class="type" text-anchor="middle" y="35" x="60"/><title>#15 #4
Type not computed

</title></g><g class="node" id="n16" data-id="16" transform="translate(100,465)" style="opacity: 1;"><path class="box" d="M12,0H108L120,44H0Z" fill="#fff1c4"/><text class="label" text-anchor="middle" x="60" y="18"><tspan>Region</tspan><tspan class="node-id">  #16</tspan></text><text class="type" text-anchor="middle" y="35" x="60"/><title>#16 Region
Type not computed

[0] → —  DATA
[1] → #5  CTRL
[2] → #7  CTRL</title><circle class="port" cx="30" cy="-3" r="3" fill="white"/><circle class="port" cx="60" cy="-3" r="3" fill="#536477"/><circle class="port" cx="90" cy="-3" r="3" fill="#536477"/><text class="slot" x="30" y="-10" text-anchor="middle">0</text><text class="slot" x="60" y="-10" text-anchor="middle">1</text><text class="slot" x="90" y="-10" text-anchor="middle">2</text></g><g class="node" id="n17" data-id="17" transform="translate(252,465)" style="opacity: 1;"><path class="box" d="M12,0H108L120,22L108,44H12L0,22Z" fill="#f5e4fa"/><text class="label" text-anchor="middle" x="60" y="18"><tspan>φ_c</tspan><tspan class="node-id">  #17</tspan></text><text class="type" text-anchor="middle" y="35" x="60"/><title>#17 φ_c
Type not computed

[0] → #16  ASSOC
[1] → #15  DATA
[2] → #6  DATA</title><circle class="port" cx="-3" cy="22" r="3" fill="#536477"/><circle class="port" cx="40" cy="-3" r="3" fill="#536477"/><circle class="port" cx="80" cy="-3" r="3" fill="#536477"/><path class="reg" fill="none" stroke="#b63838" d="M-3,22H-18m4,-3l-4,3l4,3"><title>[0] → #16</title></path><text class="slot" x="-10" y="15" text-anchor="middle">0</text><text class="slot" x="40" y="-10" text-anchor="middle">1</text><text class="slot" x="80" y="-10" text-anchor="middle">2</text></g><g class="node" id="n19" data-id="19" transform="translate(120,586)" style="opacity: 1;"><path class="box" d="M0,0H120V44H0Z" fill="#fff1c4"/><text class="label" text-anchor="middle" x="60" y="18"><tspan>Return</tspan><tspan class="node-id">  #19</tspan></text><text class="type" text-anchor="middle" y="35" x="60"/><title>#19 Return
Type not computed

[0] → #16  CTRL
[1] → #17  DATA</title><circle class="port" cx="40" cy="-3" r="3" fill="#536477"/><circle class="port" cx="80" cy="-3" r="3" fill="#536477"/><text class="slot" x="40" y="-10" text-anchor="middle">0</text><text class="slot" x="80" y="-10" text-anchor="middle">1</text></g></g><g class="region-heads" style="opacity: 1;"><g class="region-head" transform="translate(24,173)"><text class="label" x="26" y="17"><tspan>If</tspan><tspan class="node-id">  #10</tspan></text><title>If · 6 nodes</title><g class="fold-btn" role="button" tabindex="0" transform="translate(4,4)" aria-label="Fold region #10"><rect width="16" height="16" rx="2"/><text x="8" y="12" text-anchor="middle">−</text><title>Fold region</title></g></g></g><g class="shortcuts" style="opacity: 1;"/><g class="peep-ghosts" pointer-events="none"/></g></svg>
