<?xml version="1.0" encoding="UTF-8" standalone="no"?>
<!DOCTYPE svg PUBLIC "-//W3C//DTD SVG 1.1//EN"
 "http://www.w3.org/Graphics/SVG/1.1/DTD/svg11.dtd">
<!-- Generated by graphviz version 2.43.0 (0)
 -->
<!-- Title: chapter05 Pages: 1 -->
<svg width="343pt" height="428pt"
 viewBox="0.00 0.00 343.03 428.00" xmlns="http://www.w3.org/2000/svg" xmlns:xlink="http://www.w3.org/1999/xlink">
<g id="graph0" class="graph" transform="scale(1 1) rotate(0) translate(4 424)">
<title>chapter05</title>
<polygon fill="white" stroke="transparent" points="-4,4 -4,-424 339.03,-424 339.03,4 -4,4"/>
<g id="clust1" class="cluster">
<title>cluster_Nodes</title>
<polygon fill="none" stroke="black" points="8,-88 8,-412 282,-412 282,-88 8,-88"/>
</g>
<g id="clust3" class="cluster">
<title>cluster_Scope1_0</title>
<polygon fill="none" stroke="black" points="67,-8 67,-76 267,-76 267,-8 67,-8"/>
</g>
<g id="clust4" class="cluster">
<title>cluster_Scope1_1</title>
<polygon fill="none" stroke="black" points="75,-16 75,-68 145,-68 145,-16 75,-16"/>
</g>
<!-- Start2 -->
<g id="node1" class="node">
<title>Start2</title>
<polygon fill="yellow" stroke="transparent" points="113,-375 113,-400 194,-400 194,-375 113,-375"/>
<polygon fill="none" stroke="black" points="113,-375 113,-400 194,-400 194,-375 113,-375"/>
<text text-anchor="start" x="135" y="-383.8" font-family="Times,serif" font-size="14.00">Start</text>
<polygon fill="none" stroke="black" points="113,-344 113,-375 194,-375 194,-344 113,-344"/>
<polygon fill="yellow" stroke="transparent" points="118,-349 118,-370 158,-370 158,-349 118,-349"/>
<polygon fill="none" stroke="black" points="118,-349 118,-370 158,-370 158,-349 118,-349"/>
<text text-anchor="start" x="121" y="-355.8" font-family="Times,serif" font-size="14.00">$ctrl</text>
<polygon fill="none" stroke="black" points="158,-349 158,-370 189,-370 189,-349 158,-349"/>
<text text-anchor="start" x="161" y="-355.8" font-family="Times,serif" font-size="14.00">arg</text>
</g>
<!-- Con_7 -->
<g id="node2" class="node">
<title>Con_7</title>
<ellipse fill="none" stroke="black" cx="247" cy="-372" rx="27" ry="18"/>
<text text-anchor="middle" x="247" y="-368.3" font-family="Times,serif" font-size="14.00">#1</text>
</g>
<!-- EQNode8 -->
<g id="node3" class="node">
<title>EQNode8</title>
<ellipse fill="none" stroke="black" cx="247" cy="-286" rx="27" ry="18"/>
<text text-anchor="middle" x="247" y="-282.3" font-family="Times,serif" font-size="14.00">==</text>
</g>
<!-- EQNode8&#45;&gt;Start2 -->
<g id="edge1" class="edge">
<title>EQNode8&#45;&gt;Start2:p1</title>
<path fill="none" stroke="black" d="M236.57,-302.62C225.76,-318.5 208.98,-342.28 198.26,-353.17"/>
<polygon fill="black" stroke="black" points="196.15,-350.37 190,-359 200.19,-356.09 196.15,-350.37"/>
<text text-anchor="middle" x="233.57" y="-305.22" font-family="Helvetica,sans-Serif" font-size="8.00">1</text>
</g>
<!-- EQNode8&#45;&gt;Con_7 -->
<g id="edge2" class="edge">
<title>EQNode8&#45;&gt;Con_7</title>
<path fill="none" stroke="black" d="M247,-304.4C247,-315.74 247,-330.77 247,-343.68"/>
<polygon fill="black" stroke="black" points="243.5,-343.9 247,-353.9 250.5,-343.9 243.5,-343.9"/>
<text text-anchor="middle" x="244" y="-307" font-family="Helvetica,sans-Serif" font-size="8.00">2</text>
</g>
<!-- If9 -->
<g id="node4" class="node">
<title>If9</title>
<polygon fill="yellow" stroke="transparent" points="172,-203 172,-228 266,-228 266,-203 172,-203"/>
<polygon fill="none" stroke="black" points="172,-203 172,-228 266,-228 266,-203 172,-203"/>
<text text-anchor="start" x="213.5" y="-211.8" font-family="Times,serif" font-size="14.00">If</text>
<polygon fill="none" stroke="black" points="172,-172 172,-203 266,-203 266,-172 172,-172"/>
<polygon fill="yellow" stroke="transparent" points="177,-177 177,-198 217,-198 217,-177 177,-177"/>
<polygon fill="none" stroke="black" points="177,-177 177,-198 217,-198 217,-177 177,-177"/>
<text text-anchor="start" x="180" y="-183.8" font-family="Times,serif" font-size="14.00">True</text>
<polygon fill="yellow" stroke="transparent" points="217,-177 217,-198 261,-198 261,-177 217,-177"/>
<polygon fill="none" stroke="black" points="217,-177 217,-198 261,-198 261,-177 217,-177"/>
<text text-anchor="start" x="220" y="-183.8" font-family="Times,serif" font-size="14.00">False</text>
</g>
<!-- If9&#45;&gt;Start2 -->
<g id="edge3" class="edge">
<title>If9&#45;&gt;Start2:p0</title>
<path fill="none" stroke="red" d="M210.31,-232.18C203.59,-253.4 193.07,-281.57 179,-304 166.9,-323.28 145.68,-322.25 139.64,-338.02"/>
<polygon fill="red" stroke="red" points="136.17,-337.56 138,-348 143.08,-338.7 136.17,-337.56"/>
<text text-anchor="middle" x="207.31" y="-234.78" font-family="Helvetica,sans-Serif" font-size="8.00">0</text>
</g>
<!-- If9&#45;&gt;EQNode8 -->
<g id="edge4" class="edge">
<title>If9&#45;&gt;EQNode8</title>
<path fill="none" stroke="black" d="M229.43,-232.28C232.3,-240.9 235.39,-250.17 238.16,-258.49"/>
<polygon fill="black" stroke="black" points="234.87,-259.69 241.36,-268.07 241.51,-257.48 234.87,-259.69"/>
<text text-anchor="middle" x="226.43" y="-234.88" font-family="Helvetica,sans-Serif" font-size="8.00">1</text>
</g>
<!-- Con_13 -->
<g id="node5" class="node">
<title>Con_13</title>
<ellipse fill="none" stroke="black" cx="135" cy="-286" rx="27" ry="18"/>
<text text-anchor="middle" x="135" y="-282.3" font-family="Times,serif" font-size="14.00">#2</text>
</g>
<!-- Add14 -->
<g id="node6" class="node">
<title>Add14</title>
<ellipse fill="none" stroke="black" cx="119" cy="-200" rx="27" ry="18"/>
<text text-anchor="middle" x="119" y="-196.3" font-family="Times,serif" font-size="14.00">+</text>
</g>
<!-- Add14&#45;&gt;Start2 -->
<g id="edge5" class="edge">
<title>Add14&#45;&gt;Start2:p1</title>
<path fill="none" stroke="black" d="M134.23,-215.02C146.68,-227.55 163.4,-247.1 171,-268 181.92,-298.04 175.64,-309.96 174.25,-337.87"/>
<polygon fill="black" stroke="black" points="170.75,-337.92 174,-348 177.75,-338.09 170.75,-337.92"/>
<text text-anchor="middle" x="131.23" y="-217.62" font-family="Helvetica,sans-Serif" font-size="8.00">1</text>
</g>
<!-- Add14&#45;&gt;Con_13 -->
<g id="edge6" class="edge">
<title>Add14&#45;&gt;Con_13</title>
<path fill="none" stroke="black" d="M122.24,-218C124.43,-229.5 127.37,-244.93 129.87,-258.08"/>
<polygon fill="black" stroke="black" points="126.46,-258.86 131.77,-268.03 133.33,-257.55 126.46,-258.86"/>
<text text-anchor="middle" x="119.24" y="-220.6" font-family="Helvetica,sans-Serif" font-size="8.00">2</text>
</g>
<!-- Con_15 -->
<g id="node7" class="node">
<title>Con_15</title>
<ellipse fill="none" stroke="black" cx="43" cy="-286" rx="27" ry="18"/>
<text text-anchor="middle" x="43" y="-282.3" font-family="Times,serif" font-size="14.00">#3</text>
</g>
<!-- Sub16 -->
<g id="node8" class="node">
<title>Sub16</title>
<ellipse fill="none" stroke="black" cx="47" cy="-200" rx="27" ry="18"/>
<text text-anchor="middle" x="47" y="-196.3" font-family="Times,serif" font-size="14.00">&#45;</text>
</g>
<!-- Sub16&#45;&gt;Start2 -->
<g id="edge7" class="edge">
<title>Sub16&#45;&gt;Start2:p1</title>
<path fill="none" stroke="black" d="M54.69,-217.49C67.53,-244.81 92.56,-297.14 99,-304 122.77,-329.31 164.37,-313.46 172.57,-338.01"/>
<polygon fill="black" stroke="black" points="169.12,-338.6 174,-348 176.05,-337.61 169.12,-338.6"/>
<text text-anchor="middle" x="51.69" y="-220.09" font-family="Helvetica,sans-Serif" font-size="8.00">1</text>
</g>
<!-- Sub16&#45;&gt;Con_15 -->
<g id="edge8" class="edge">
<title>Sub16&#45;&gt;Con_15</title>
<path fill="none" stroke="black" d="M46.19,-218C45.65,-229.31 44.93,-244.42 44.31,-257.43"/>
<polygon fill="black" stroke="black" points="40.8,-257.58 43.82,-267.74 47.79,-257.92 40.8,-257.58"/>
<text text-anchor="middle" x="43.19" y="-220.6" font-family="Helvetica,sans-Serif" font-size="8.00">2</text>
</g>
<!-- Region17 -->
<g id="node9" class="node">
<title>Region17</title>
<polygon fill="yellow" stroke="black" points="232,-132 166,-132 166,-96 232,-96 232,-132"/>
<text text-anchor="middle" x="199" y="-110.3" font-family="Times,serif" font-size="14.00">Region</text>
</g>
<!-- Region17&#45;&gt;If9 -->
<g id="edge9" class="edge">
<title>Region17&#45;&gt;If9:p0</title>
<path fill="none" stroke="red" d="M198.14,-132.09C197.72,-141.54 197.27,-153.77 197.08,-165.68"/>
<polygon fill="red" stroke="red" points="193.58,-165.97 197,-176 200.58,-166.03 193.58,-165.97"/>
<text text-anchor="middle" x="195.14" y="-134.69" font-family="Helvetica,sans-Serif" font-size="8.00">1</text>
</g>
<!-- Region17&#45;&gt;If9 -->
<g id="edge10" class="edge">
<title>Region17&#45;&gt;If9:p1</title>
<path fill="none" stroke="red" d="M217.83,-132.05C226.1,-141.05 234.63,-152.92 237.76,-165.89"/>
<polygon fill="red" stroke="red" points="234.31,-166.5 239,-176 241.25,-165.65 234.31,-166.5"/>
<text text-anchor="middle" x="214.83" y="-134.65" font-family="Helvetica,sans-Serif" font-size="8.00">2</text>
</g>
<!-- Phi_a18 -->
<g id="node10" class="node">
<title>Phi_a18</title>
<ellipse fill="lightyellow" stroke="black" cx="119" cy="-114" rx="27" ry="18"/>
<text text-anchor="middle" x="119" y="-110.3" font-family="Times,serif" font-size="14.00">φ_a</text>
</g>
<!-- Phi_a18&#45;&gt;Add14 -->
<g id="edge12" class="edge">
<title>Phi_a18&#45;&gt;Add14</title>
<path fill="none" stroke="black" d="M119,-132.4C119,-143.74 119,-158.77 119,-171.68"/>
<polygon fill="black" stroke="black" points="115.5,-171.9 119,-181.9 122.5,-171.9 115.5,-171.9"/>
<text text-anchor="middle" x="116" y="-135" font-family="Helvetica,sans-Serif" font-size="8.00">1</text>
</g>
<!-- Phi_a18&#45;&gt;Sub16 -->
<g id="edge13" class="edge">
<title>Phi_a18&#45;&gt;Sub16</title>
<path fill="none" stroke="black" d="M106.13,-130.02C95.07,-142.92 78.96,-161.71 66.35,-176.42"/>
<polygon fill="black" stroke="black" points="63.61,-174.24 59.76,-184.11 68.93,-178.8 63.61,-174.24"/>
<text text-anchor="middle" x="103.13" y="-132.62" font-family="Helvetica,sans-Serif" font-size="8.00">2</text>
</g>
<!-- Phi_a18&#45;&gt;Region17 -->
<g id="edge11" class="edge">
<title>Phi_a18&#45;&gt;Region17</title>
<path fill="none" stroke="black" stroke-dasharray="1,5" d="M146.19,-114C149.39,-114 152.58,-114 155.78,-114"/>
<polygon fill="black" stroke="black" points="155.99,-117.5 165.99,-114 155.99,-110.5 155.99,-117.5"/>
<text text-anchor="middle" x="149.19" y="-107.6" font-family="Helvetica,sans-Serif" font-size="8.00">0</text>
</g>
<!-- Scope1_0 -->
<g id="node11" class="node">
<title>Scope1_0</title>
<polygon fill="cyan" stroke="transparent" points="164,-31 164,-52 180,-52 180,-31 164,-31"/>
<polygon fill="none" stroke="black" points="164,-31 164,-52 180,-52 180,-31 164,-31"/>
<text text-anchor="start" x="167" y="-37.8" font-family="Times,serif" font-size="14.00">0</text>
<polygon fill="none" stroke="black" points="180,-31 180,-52 220,-52 220,-31 180,-31"/>
<text text-anchor="start" x="183" y="-37.8" font-family="Times,serif" font-size="14.00">$ctrl</text>
<polygon fill="none" stroke="black" points="220,-31 220,-52 251,-52 251,-31 220,-31"/>
<text text-anchor="start" x="223" y="-37.8" font-family="Times,serif" font-size="14.00">arg</text>
</g>
<!-- Scope1_0&#45;&gt;Start2 -->
<g id="edge15" class="edge">
<title>Scope1_0:Scope1_0_arg&#45;&gt;Start2:p1</title>
<path fill="none" stroke="cornflowerblue" stroke-dasharray="5,2" d="M252,-41C369.7,-41 344.88,-203.88 283,-304 264.19,-334.43 240.54,-319.81 211,-340 204.51,-344.44 202.84,-350.75 199.44,-354.86"/>
<polygon fill="cornflowerblue" stroke="cornflowerblue" points="197.75,-351.78 190,-359 200.56,-358.19 197.75,-351.78"/>
</g>
<!-- Scope1_0&#45;&gt;Region17 -->
<g id="edge14" class="edge">
<title>Scope1_0:Scope1_0_$ctrl&#45;&gt;Region17</title>
<path fill="none" stroke="cornflowerblue" stroke-dasharray="5,2" d="M200,-53C200,-63.75 199.84,-75.58 199.64,-85.87"/>
<polygon fill="cornflowerblue" stroke="cornflowerblue" points="196.14,-85.86 199.44,-95.93 203.14,-86.01 196.14,-85.86"/>
</g>
<!-- Scope1_1 -->
<g id="node12" class="node">
<title>Scope1_1</title>
<polygon fill="cyan" stroke="transparent" points="95,-31 95,-52 111,-52 111,-31 95,-31"/>
<polygon fill="none" stroke="black" points="95,-31 95,-52 111,-52 111,-31 95,-31"/>
<text text-anchor="start" x="98" y="-37.8" font-family="Times,serif" font-size="14.00">1</text>
<polygon fill="none" stroke="black" points="111,-31 111,-52 126,-52 126,-31 111,-31"/>
<text text-anchor="start" x="114" y="-37.8" font-family="Times,serif" font-size="14.00">a</text>
</g>
<!-- Scope1_1&#45;&gt;Phi_a18 -->
<g id="edge16" class="edge">
<title>Scope1_1:Scope1_1_a&#45;&gt;Phi_a18</title>
<path fill="none" stroke="cornflowerblue" stroke-dasharray="5,2" d="M119,-53C119,-63.75 119,-75.58 119,-85.87"/>
<polygon fill="cornflowerblue" stroke="cornflowerblue" points="115.5,-85.93 119,-95.93 122.5,-85.93 115.5,-85.93"/>
</g>
</g>
</svg>
