<?xml version="1.0" encoding="UTF-8" standalone="no"?>
<!DOCTYPE svg PUBLIC "-//W3C//DTD SVG 1.1//EN"
 "http://www.w3.org/Graphics/SVG/1.1/DTD/svg11.dtd">
<!-- Generated by graphviz version 2.43.0 (0)
 -->
<!-- Title: chapter07 Pages: 1 -->
<svg width="612pt" height="368pt"
 viewBox="0.00 0.00 612.00 368.00" xmlns="http://www.w3.org/2000/svg" xmlns:xlink="http://www.w3.org/1999/xlink">
<g id="graph0" class="graph" transform="scale(1 1) rotate(0) translate(4 364)">
<title>chapter07</title>
<polygon fill="white" stroke="transparent" points="-4,4 -4,-364 608,-364 608,4 -4,4"/>
<g id="clust1" class="cluster">
<title>cluster_Controls</title>
<polygon fill="none" stroke="black" points="20,-100 20,-352 146,-352 146,-100 20,-100"/>
</g>
<g id="clust2" class="cluster">
<title>cluster_Nodes</title>
<polygon fill="none" stroke="black" points="362,-114 362,-252 596,-252 596,-114 362,-114"/>
</g>
<g id="clust3" class="cluster">
<title>cluster_Scope7_1</title>
<polygon fill="none" stroke="black" points="8,-8 8,-92 288,-92 288,-8 8,-8"/>
</g>
<g id="clust4" class="cluster">
<title>cluster_Scope7_2</title>
<polygon fill="none" stroke="black" points="80,-16 80,-84 280,-84 280,-16 80,-16"/>
</g>
<g id="clust5" class="cluster">
<title>cluster_Scope7_3</title>
<polygon fill="none" stroke="black" points="152,-24 152,-76 272,-76 272,-24 152,-24"/>
</g>
<g id="clust6" class="cluster">
<title>cluster_Scope1_1</title>
<polygon fill="none" stroke="black" points="154,-106 154,-174 354,-174 354,-106 154,-106"/>
</g>
<g id="clust7" class="cluster">
<title>cluster_Scope1_2</title>
<polygon fill="none" stroke="black" points="226,-114 226,-166 346,-166 346,-114 226,-114"/>
</g>
<g id="clust8" class="cluster">
<title>cluster_Scope14_1</title>
<polygon fill="none" stroke="black" points="329,-16 329,-84 529,-84 529,-16 329,-16"/>
</g>
<g id="clust9" class="cluster">
<title>cluster_Scope14_2</title>
<polygon fill="none" stroke="black" points="401,-24 401,-76 521,-76 521,-24 401,-24"/>
</g>
<!-- Start2 -->
<g id="node1" class="node">
<title>Start2</title>
<polygon fill="yellow" stroke="transparent" points="50,-315 50,-340 131,-340 131,-315 50,-315"/>
<polygon fill="none" stroke="black" points="50,-315 50,-340 131,-340 131,-315 50,-315"/>
<text text-anchor="start" x="72" y="-323.8" font-family="Times,serif" font-size="14.00">Start</text>
<polygon fill="none" stroke="black" points="50,-284 50,-315 131,-315 131,-284 50,-284"/>
<polygon fill="yellow" stroke="transparent" points="55,-289 55,-310 95,-310 95,-289 55,-289"/>
<polygon fill="none" stroke="black" points="55,-289 55,-310 95,-310 95,-289 55,-289"/>
<text text-anchor="start" x="58" y="-295.8" font-family="Times,serif" font-size="14.00">$ctrl</text>
<polygon fill="none" stroke="black" points="95,-289 95,-310 126,-310 126,-289 95,-289"/>
<text text-anchor="start" x="98" y="-295.8" font-family="Times,serif" font-size="14.00">arg</text>
</g>
<!-- Loop6 -->
<g id="node2" class="node">
<title>Loop6</title>
<polygon fill="yellow" stroke="black" points="124,-244 70,-244 70,-208 124,-208 124,-244"/>
<text text-anchor="middle" x="97" y="-222.3" font-family="Times,serif" font-size="14.00">Loop</text>
</g>
<!-- Loop6&#45;&gt;Start2 -->
<g id="edge1" class="edge">
<title>Loop6&#45;&gt;Start2:p0</title>
<path fill="none" stroke="red" d="M87.29,-244.03C82.68,-253.34 77.77,-265.46 75.85,-277.72"/>
<polygon fill="red" stroke="red" points="72.33,-277.75 75,-288 79.31,-278.32 72.33,-277.75"/>
<text text-anchor="middle" x="84.29" y="-246.63" font-family="Helvetica,sans-Serif" font-size="8.00">1</text>
</g>
<!-- If11 -->
<g id="node3" class="node">
<title>If11</title>
<polygon fill="yellow" stroke="transparent" points="36,-143 36,-168 130,-168 130,-143 36,-143"/>
<polygon fill="none" stroke="black" points="36,-143 36,-168 130,-168 130,-143 36,-143"/>
<text text-anchor="start" x="77.5" y="-151.8" font-family="Times,serif" font-size="14.00">If</text>
<polygon fill="none" stroke="black" points="36,-112 36,-143 130,-143 130,-112 36,-112"/>
<polygon fill="yellow" stroke="transparent" points="41,-117 41,-138 81,-138 81,-117 41,-117"/>
<polygon fill="none" stroke="black" points="41,-117 41,-138 81,-138 81,-117 41,-117"/>
<text text-anchor="start" x="44" y="-123.8" font-family="Times,serif" font-size="14.00">True</text>
<polygon fill="yellow" stroke="transparent" points="81,-117 81,-138 125,-138 125,-117 81,-117"/>
<polygon fill="none" stroke="black" points="81,-117 81,-138 125,-138 125,-117 81,-117"/>
<text text-anchor="start" x="84" y="-123.8" font-family="Times,serif" font-size="14.00">False</text>
</g>
<!-- If11&#45;&gt;Loop6 -->
<g id="edge6" class="edge">
<title>If11&#45;&gt;Loop6</title>
<path fill="none" stroke="red" d="M88.21,-172.28C89.6,-180.58 91.08,-189.48 92.43,-197.56"/>
<polygon fill="red" stroke="red" points="89,-198.31 94.1,-207.6 95.91,-197.16 89,-198.31"/>
<text text-anchor="middle" x="85.21" y="-174.88" font-family="Helvetica,sans-Serif" font-size="8.00">0</text>
</g>
<!-- LT10 -->
<g id="node6" class="node">
<title>LT10</title>
<ellipse fill="none" stroke="black" cx="397" cy="-140" rx="27" ry="18"/>
<text text-anchor="middle" x="397" y="-136.3" font-family="Times,serif" font-size="14.00">&lt;</text>
</g>
<!-- If11&#45;&gt;LT10 -->
<g id="edge7" class="edge">
<title>If11&#45;&gt;LT10</title>
<path fill="none" stroke="black" d="M128.12,-107.8C137.85,-102.63 148.41,-98.25 159,-96 178.78,-91.8 321.22,-91.8 341,-96 354.55,-98.88 366.97,-107.66 376.65,-116.64"/>
<polygon fill="black" stroke="black" points="374.24,-119.18 383.79,-123.76 379.18,-114.22 374.24,-119.18"/>
<text text-anchor="middle" x="125.12" y="-101.4" font-family="Helvetica,sans-Serif" font-size="8.00">1</text>
</g>
<!-- Phi_arg8 -->
<g id="node4" class="node">
<title>Phi_arg8</title>
<ellipse fill="lightyellow" stroke="black" cx="479" cy="-226" rx="37.09" ry="18"/>
<text text-anchor="middle" x="479" y="-222.3" font-family="Times,serif" font-size="14.00">φ_arg</text>
</g>
<!-- Phi_arg8&#45;&gt;Start2 -->
<g id="edge3" class="edge">
<title>Phi_arg8&#45;&gt;Start2:p1</title>
<path fill="none" stroke="black" d="M457.24,-240.82C449.8,-245 441.27,-249.21 433,-252 305.92,-294.83 266.59,-298.82 137.29,-298.99"/>
<polygon fill="black" stroke="black" points="137,-295.49 127,-299 137,-302.49 137,-295.49"/>
<text text-anchor="middle" x="454.24" y="-243.42" font-family="Helvetica,sans-Serif" font-size="8.00">1</text>
</g>
<!-- Phi_arg8&#45;&gt;Loop6 -->
<g id="edge2" class="edge">
<title>Phi_arg8&#45;&gt;Loop6</title>
<path fill="none" stroke="black" stroke-dasharray="1,5" d="M459.97,-210.08C449.94,-202.73 437.04,-194.8 424,-191 321.96,-161.29 195.43,-193.29 133.97,-212.96"/>
<polygon fill="black" stroke="black" points="132.74,-209.68 124.33,-216.12 134.92,-216.34 132.74,-209.68"/>
<text text-anchor="middle" x="456.97" y="-203.68" font-family="Helvetica,sans-Serif" font-size="8.00">0</text>
</g>
<!-- Con_9 -->
<g id="node5" class="node">
<title>Con_9</title>
<ellipse fill="none" stroke="black" cx="397" cy="-226" rx="27" ry="18"/>
<text text-anchor="middle" x="397" y="-222.3" font-family="Times,serif" font-size="14.00">10</text>
</g>
<!-- LT10&#45;&gt;Phi_arg8 -->
<g id="edge4" class="edge">
<title>LT10&#45;&gt;Phi_arg8</title>
<path fill="none" stroke="black" d="M411.28,-155.63C423.79,-168.44 442.16,-187.26 456.62,-202.07"/>
<polygon fill="black" stroke="black" points="454.28,-204.69 463.77,-209.4 459.29,-199.8 454.28,-204.69"/>
<text text-anchor="middle" x="408.28" y="-158.23" font-family="Helvetica,sans-Serif" font-size="8.00">1</text>
</g>
<!-- LT10&#45;&gt;Con_9 -->
<g id="edge5" class="edge">
<title>LT10&#45;&gt;Con_9</title>
<path fill="none" stroke="black" d="M397,-158.4C397,-169.74 397,-184.77 397,-197.68"/>
<polygon fill="black" stroke="black" points="393.5,-197.9 397,-207.9 400.5,-197.9 393.5,-197.9"/>
<text text-anchor="middle" x="394" y="-161" font-family="Helvetica,sans-Serif" font-size="8.00">2</text>
</g>
<!-- Con_15 -->
<g id="node7" class="node">
<title>Con_15</title>
<ellipse fill="none" stroke="black" cx="561" cy="-226" rx="27" ry="18"/>
<text text-anchor="middle" x="561" y="-222.3" font-family="Times,serif" font-size="14.00">1</text>
</g>
<!-- Add16 -->
<g id="node8" class="node">
<title>Add16</title>
<ellipse fill="none" stroke="black" cx="469" cy="-140" rx="27" ry="18"/>
<text text-anchor="middle" x="469" y="-136.3" font-family="Times,serif" font-size="14.00">+</text>
</g>
<!-- Add16&#45;&gt;Phi_arg8 -->
<g id="edge8" class="edge">
<title>Add16&#45;&gt;Phi_arg8</title>
<path fill="none" stroke="black" d="M471.02,-158C472.39,-169.5 474.23,-184.93 475.8,-198.08"/>
<polygon fill="black" stroke="black" points="472.32,-198.51 476.98,-208.03 479.27,-197.68 472.32,-198.51"/>
<text text-anchor="middle" x="468.02" y="-160.6" font-family="Helvetica,sans-Serif" font-size="8.00">1</text>
</g>
<!-- Add16&#45;&gt;Con_15 -->
<g id="edge9" class="edge">
<title>Add16&#45;&gt;Con_15</title>
<path fill="none" stroke="black" d="M484.61,-155.25C499.23,-168.6 521.28,-188.73 537.94,-203.94"/>
<polygon fill="black" stroke="black" points="535.88,-206.8 545.62,-210.96 540.6,-201.63 535.88,-206.8"/>
<text text-anchor="middle" x="481.61" y="-157.85" font-family="Helvetica,sans-Serif" font-size="8.00">2</text>
</g>
<!-- Scope7_1 -->
<g id="node9" class="node">
<title>Scope7_1</title>
<polygon fill="cyan" stroke="transparent" points="35,-39 35,-60 51,-60 51,-39 35,-39"/>
<polygon fill="none" stroke="black" points="35,-39 35,-60 51,-60 51,-39 35,-39"/>
<text text-anchor="start" x="38" y="-45.8" font-family="Times,serif" font-size="14.00">2</text>
</g>
<!-- Scope7_2 -->
<g id="node10" class="node">
<title>Scope7_2</title>
<polygon fill="cyan" stroke="transparent" points="107,-39 107,-60 123,-60 123,-39 107,-39"/>
<polygon fill="none" stroke="black" points="107,-39 107,-60 123,-60 123,-39 107,-39"/>
<text text-anchor="start" x="110" y="-45.8" font-family="Times,serif" font-size="14.00">1</text>
</g>
<!-- Scope7_3 -->
<g id="node11" class="node">
<title>Scope7_3</title>
<polygon fill="cyan" stroke="transparent" points="169,-39 169,-60 185,-60 185,-39 169,-39"/>
<polygon fill="none" stroke="black" points="169,-39 169,-60 185,-60 185,-39 169,-39"/>
<text text-anchor="start" x="172" y="-45.8" font-family="Times,serif" font-size="14.00">0</text>
<polygon fill="none" stroke="black" points="185,-39 185,-60 225,-60 225,-39 185,-39"/>
<text text-anchor="start" x="188" y="-45.8" font-family="Times,serif" font-size="14.00">$ctrl</text>
<polygon fill="none" stroke="black" points="225,-39 225,-60 256,-60 256,-39 225,-39"/>
<text text-anchor="start" x="228" y="-45.8" font-family="Times,serif" font-size="14.00">arg</text>
</g>
<!-- Scope7_3&#45;&gt;If11 -->
<g id="edge10" class="edge">
<title>Scope7_3:Scope7_3_$ctrl&#45;&gt;If11:p0</title>
<path fill="none" stroke="cornflowerblue" stroke-dasharray="5,2" d="M205,-61C205,-86.77 179.68,-81.83 156,-92 119.74,-107.58 71.18,-78.87 62.39,-105.76"/>
<polygon fill="cornflowerblue" stroke="cornflowerblue" points="58.88,-105.62 61,-116 65.82,-106.56 58.88,-105.62"/>
</g>
<!-- Scope7_3&#45;&gt;Add16 -->
<g id="edge11" class="edge">
<title>Scope7_3:Scope7_3_arg&#45;&gt;Add16</title>
<path fill="none" stroke="cornflowerblue" stroke-dasharray="5,2" d="M257,-49C292.76,-49 291.05,-80.79 325,-92 347.85,-99.55 411.33,-89.54 433,-100 440.19,-103.47 446.63,-109.06 452.02,-114.93"/>
<polygon fill="cornflowerblue" stroke="cornflowerblue" points="449.59,-117.49 458.67,-122.95 454.98,-113.02 449.59,-117.49"/>
</g>
<!-- Scope1_1 -->
<g id="node12" class="node">
<title>Scope1_1</title>
<polygon fill="cyan" stroke="transparent" points="181,-129 181,-150 197,-150 197,-129 181,-129"/>
<polygon fill="none" stroke="black" points="181,-129 181,-150 197,-150 197,-129 181,-129"/>
<text text-anchor="start" x="184" y="-135.8" font-family="Times,serif" font-size="14.00">1</text>
</g>
<!-- Scope1_2 -->
<g id="node13" class="node">
<title>Scope1_2</title>
<polygon fill="cyan" stroke="transparent" points="243,-129 243,-150 259,-150 259,-129 243,-129"/>
<polygon fill="none" stroke="black" points="243,-129 243,-150 259,-150 259,-129 243,-129"/>
<text text-anchor="start" x="246" y="-135.8" font-family="Times,serif" font-size="14.00">0</text>
<polygon fill="none" stroke="black" points="259,-129 259,-150 299,-150 299,-129 259,-129"/>
<text text-anchor="start" x="262" y="-135.8" font-family="Times,serif" font-size="14.00">$ctrl</text>
<polygon fill="none" stroke="black" points="299,-129 299,-150 330,-150 330,-129 299,-129"/>
<text text-anchor="start" x="302" y="-135.8" font-family="Times,serif" font-size="14.00">arg</text>
</g>
<!-- Scope1_2&#45;&gt;Loop6 -->
<g id="edge12" class="edge">
<title>Scope1_2:Scope1_2_$ctrl&#45;&gt;Loop6</title>
<path fill="none" stroke="cornflowerblue" stroke-dasharray="5,2" d="M279,-151C279,-212.88 187.61,-224.22 134.35,-225.57"/>
<polygon fill="cornflowerblue" stroke="cornflowerblue" points="134.19,-222.08 124.25,-225.72 134.3,-229.07 134.19,-222.08"/>
</g>
<!-- Scope1_2&#45;&gt;Phi_arg8 -->
<g id="edge13" class="edge">
<title>Scope1_2:Scope1_2_arg&#45;&gt;Phi_arg8</title>
<path fill="none" stroke="cornflowerblue" stroke-dasharray="5,2" d="M331,-139C350.65,-139 342.44,-162.01 358,-174 365.07,-179.44 408.74,-197.3 441.6,-210.35"/>
<polygon fill="cornflowerblue" stroke="cornflowerblue" points="440.39,-213.64 450.98,-214.06 442.96,-207.13 440.39,-213.64"/>
</g>
<!-- Scope14_1 -->
<g id="node14" class="node">
<title>Scope14_1</title>
<polygon fill="cyan" stroke="transparent" points="356,-39 356,-60 372,-60 372,-39 356,-39"/>
<polygon fill="none" stroke="black" points="356,-39 356,-60 372,-60 372,-39 356,-39"/>
<text text-anchor="start" x="359" y="-45.8" font-family="Times,serif" font-size="14.00">1</text>
</g>
<!-- Scope14_2 -->
<g id="node15" class="node">
<title>Scope14_2</title>
<polygon fill="cyan" stroke="transparent" points="418,-39 418,-60 434,-60 434,-39 418,-39"/>
<polygon fill="none" stroke="black" points="418,-39 418,-60 434,-60 434,-39 418,-39"/>
<text text-anchor="start" x="421" y="-45.8" font-family="Times,serif" font-size="14.00">0</text>
<polygon fill="none" stroke="black" points="434,-39 434,-60 474,-60 474,-39 434,-39"/>
<text text-anchor="start" x="437" y="-45.8" font-family="Times,serif" font-size="14.00">$ctrl</text>
<polygon fill="none" stroke="black" points="474,-39 474,-60 505,-60 505,-39 474,-39"/>
<text text-anchor="start" x="477" y="-45.8" font-family="Times,serif" font-size="14.00">arg</text>
</g>
<!-- Scope14_2&#45;&gt;If11 -->
<g id="edge14" class="edge">
<title>Scope14_2:Scope14_2_$ctrl&#45;&gt;If11:p1</title>
<path fill="none" stroke="cornflowerblue" stroke-dasharray="5,2" d="M454,-61C454,-86.77 429.64,-84.44 405,-92 377.9,-100.32 175.67,-87.98 150,-100 139.55,-104.89 140.02,-116.7 135.15,-122.95"/>
<polygon fill="cornflowerblue" stroke="cornflowerblue" points="133.73,-119.75 126,-127 136.56,-126.16 133.73,-119.75"/>
</g>
<!-- Scope14_2&#45;&gt;Phi_arg8 -->
<g id="edge15" class="edge">
<title>Scope14_2:Scope14_2_arg&#45;&gt;Phi_arg8</title>
<path fill="none" stroke="cornflowerblue" stroke-dasharray="5,2" d="M490,-61C490,-79.57 501.61,-81.74 505,-100 511,-132.34 512.68,-142.02 505,-174 502.86,-182.89 498.91,-191.98 494.71,-199.97"/>
<polygon fill="cornflowerblue" stroke="cornflowerblue" points="491.61,-198.34 489.77,-208.78 497.72,-201.77 491.61,-198.34"/>
</g>
</g>
</svg>
