<?xml version="1.0" encoding="UTF-8" standalone="no"?>
<!DOCTYPE svg PUBLIC "-//W3C//DTD SVG 1.1//EN"
 "http://www.w3.org/Graphics/SVG/1.1/DTD/svg11.dtd">
<!-- Generated by graphviz version 2.43.0 (0)
 -->
<!-- Title: chapter07 Pages: 1 -->
<svg width="560pt" height="368pt"
 viewBox="0.00 0.00 560.00 368.00" xmlns="http://www.w3.org/2000/svg" xmlns:xlink="http://www.w3.org/1999/xlink">
<g id="graph0" class="graph" transform="scale(1 1) rotate(0) translate(4 364)">
<title>chapter07</title>
<polygon fill="white" stroke="transparent" points="-4,4 -4,-364 556,-364 556,4 -4,4"/>
<g id="clust1" class="cluster">
<title>cluster_Controls</title>
<polygon fill="none" stroke="black" points="8,-100 8,-352 134,-352 134,-100 8,-100"/>
</g>
<g id="clust2" class="cluster">
<title>cluster_Nodes</title>
<polygon fill="none" stroke="black" points="330,-114 330,-338 544,-338 544,-114 330,-114"/>
</g>
<g id="clust3" class="cluster">
<title>cluster_Scope7_1</title>
<polygon fill="none" stroke="black" points="10,-8 10,-92 268,-92 268,-8 10,-8"/>
</g>
<g id="clust4" class="cluster">
<title>cluster_Scope7_2</title>
<polygon fill="none" stroke="black" points="80,-16 80,-84 260,-84 260,-16 80,-16"/>
</g>
<g id="clust5" class="cluster">
<title>cluster_Scope7_3</title>
<polygon fill="none" stroke="black" points="88,-24 88,-76 186,-76 186,-24 88,-24"/>
</g>
<g id="clust6" class="cluster">
<title>cluster_Scope1_1</title>
<polygon fill="none" stroke="black" points="142,-106 142,-174 322,-174 322,-106 142,-106"/>
</g>
<g id="clust7" class="cluster">
<title>cluster_Scope1_2</title>
<polygon fill="none" stroke="black" points="150,-114 150,-166 248,-166 248,-114 150,-114"/>
</g>
<g id="clust8" class="cluster">
<title>cluster_Scope14_1</title>
<polygon fill="none" stroke="black" points="301,-16 301,-84 499,-84 499,-16 301,-16"/>
</g>
<g id="clust9" class="cluster">
<title>cluster_Scope14_2</title>
<polygon fill="none" stroke="black" points="309,-24 309,-76 415,-76 415,-24 309,-24"/>
</g>
<!-- Start2 -->
<g id="node1" class="node">
<title>Start2</title>
<polygon fill="yellow" stroke="transparent" points="68,-315 68,-340 118,-340 118,-315 68,-315"/>
<polygon fill="none" stroke="black" points="68,-315 68,-340 118,-340 118,-315 68,-315"/>
<text text-anchor="start" x="74.5" y="-323.8" font-family="Times,serif" font-size="14.00">Start</text>
<polygon fill="none" stroke="black" points="68,-284 68,-315 118,-315 118,-284 68,-284"/>
<polygon fill="yellow" stroke="transparent" points="73,-289 73,-310 113,-310 113,-289 73,-289"/>
<polygon fill="none" stroke="black" points="73,-289 73,-310 113,-310 113,-289 73,-289"/>
<text text-anchor="start" x="76" y="-295.8" font-family="Times,serif" font-size="14.00">$ctrl</text>
</g>
<!-- Loop6 -->
<g id="node2" class="node">
<title>Loop6</title>
<polygon fill="yellow" stroke="black" points="123,-244 69,-244 69,-208 123,-208 123,-244"/>
<text text-anchor="middle" x="96" y="-222.3" font-family="Times,serif" font-size="14.00">Loop</text>
</g>
<!-- Loop6&#45;&gt;Start2 -->
<g id="edge1" class="edge">
<title>Loop6&#45;&gt;Start2:p0</title>
<path fill="none" stroke="red" d="M94.71,-244.08C94.08,-253.53 93.4,-265.76 93.13,-277.68"/>
<polygon fill="red" stroke="red" points="89.62,-277.96 93,-288 96.62,-278.04 89.62,-277.96"/>
<text text-anchor="middle" x="91.71" y="-246.68" font-family="Helvetica,sans-Serif" font-size="8.00">1</text>
</g>
<!-- If11 -->
<g id="node3" class="node">
<title>If11</title>
<polygon fill="yellow" stroke="transparent" points="24,-143 24,-168 118,-168 118,-143 24,-143"/>
<polygon fill="none" stroke="black" points="24,-143 24,-168 118,-168 118,-143 24,-143"/>
<text text-anchor="start" x="65.5" y="-151.8" font-family="Times,serif" font-size="14.00">If</text>
<polygon fill="none" stroke="black" points="24,-112 24,-143 118,-143 118,-112 24,-112"/>
<polygon fill="yellow" stroke="transparent" points="29,-117 29,-138 69,-138 69,-117 29,-117"/>
<polygon fill="none" stroke="black" points="29,-117 29,-138 69,-138 69,-117 29,-117"/>
<text text-anchor="start" x="32" y="-123.8" font-family="Times,serif" font-size="14.00">True</text>
<polygon fill="yellow" stroke="transparent" points="69,-117 69,-138 113,-138 113,-117 69,-117"/>
<polygon fill="none" stroke="black" points="69,-117 69,-138 113,-138 113,-117 69,-117"/>
<text text-anchor="start" x="72" y="-123.8" font-family="Times,serif" font-size="14.00">False</text>
</g>
<!-- If11&#45;&gt;Loop6 -->
<g id="edge6" class="edge">
<title>If11&#45;&gt;Loop6</title>
<path fill="none" stroke="red" d="M80.31,-172.28C82.81,-180.67 85.49,-189.68 87.92,-197.84"/>
<polygon fill="red" stroke="red" points="84.61,-199.01 90.82,-207.6 91.32,-197.01 84.61,-199.01"/>
<text text-anchor="middle" x="77.31" y="-174.88" font-family="Helvetica,sans-Serif" font-size="8.00">0</text>
</g>
<!-- LT10 -->
<g id="node7" class="node">
<title>LT10</title>
<ellipse fill="none" stroke="black" cx="365" cy="-140" rx="27" ry="18"/>
<text text-anchor="middle" x="365" y="-136.3" font-family="Times,serif" font-size="14.00">&lt;</text>
</g>
<!-- If11&#45;&gt;LT10 -->
<g id="edge7" class="edge">
<title>If11&#45;&gt;LT10</title>
<path fill="none" stroke="black" d="M121.74,-107.86C132.34,-102.77 143.73,-98.39 155,-96 172.61,-92.26 299.39,-92.26 317,-96 328.85,-98.52 339.2,-106.64 347.21,-115.23"/>
<polygon fill="black" stroke="black" points="344.76,-117.75 353.9,-123.11 350.1,-113.22 344.76,-117.75"/>
<text text-anchor="middle" x="118.74" y="-101.46" font-family="Helvetica,sans-Serif" font-size="8.00">1</text>
</g>
<!-- Con_5 -->
<g id="node4" class="node">
<title>Con_5</title>
<ellipse fill="none" stroke="black" cx="437" cy="-312" rx="27" ry="18"/>
<text text-anchor="middle" x="437" y="-308.3" font-family="Times,serif" font-size="14.00">1</text>
</g>
<!-- Phi_a8 -->
<g id="node5" class="node">
<title>Phi_a8</title>
<ellipse fill="lightyellow" stroke="black" cx="437" cy="-226" rx="27" ry="18"/>
<text text-anchor="middle" x="437" y="-222.3" font-family="Times,serif" font-size="14.00">φ_a</text>
</g>
<!-- Phi_a8&#45;&gt;Loop6 -->
<g id="edge2" class="edge">
<title>Phi_a8&#45;&gt;Loop6</title>
<path fill="none" stroke="black" stroke-dasharray="1,5" d="M422.31,-210.49C414.18,-203.05 403.42,-194.92 392,-191 302.65,-160.34 190.23,-191.2 133.06,-211.44"/>
<polygon fill="black" stroke="black" points="131.58,-208.25 123.38,-214.95 133.97,-214.83 131.58,-208.25"/>
<text text-anchor="middle" x="419.31" y="-204.09" font-family="Helvetica,sans-Serif" font-size="8.00">0</text>
</g>
<!-- Phi_a8&#45;&gt;Con_5 -->
<g id="edge3" class="edge">
<title>Phi_a8&#45;&gt;Con_5</title>
<path fill="none" stroke="black" d="M437,-244.4C437,-255.74 437,-270.77 437,-283.68"/>
<polygon fill="black" stroke="black" points="433.5,-283.9 437,-293.9 440.5,-283.9 433.5,-283.9"/>
<text text-anchor="middle" x="434" y="-247" font-family="Helvetica,sans-Serif" font-size="8.00">1</text>
</g>
<!-- Con_9 -->
<g id="node6" class="node">
<title>Con_9</title>
<ellipse fill="none" stroke="black" cx="365" cy="-226" rx="27" ry="18"/>
<text text-anchor="middle" x="365" y="-222.3" font-family="Times,serif" font-size="14.00">10</text>
</g>
<!-- LT10&#45;&gt;Phi_a8 -->
<g id="edge4" class="edge">
<title>LT10&#45;&gt;Phi_a8</title>
<path fill="none" stroke="black" d="M377.87,-156.02C388.93,-168.92 405.04,-187.71 417.65,-202.42"/>
<polygon fill="black" stroke="black" points="415.07,-204.8 424.24,-210.11 420.39,-200.24 415.07,-204.8"/>
<text text-anchor="middle" x="374.87" y="-158.62" font-family="Helvetica,sans-Serif" font-size="8.00">1</text>
</g>
<!-- LT10&#45;&gt;Con_9 -->
<g id="edge5" class="edge">
<title>LT10&#45;&gt;Con_9</title>
<path fill="none" stroke="black" d="M365,-158.4C365,-169.74 365,-184.77 365,-197.68"/>
<polygon fill="black" stroke="black" points="361.5,-197.9 365,-207.9 368.5,-197.9 361.5,-197.9"/>
<text text-anchor="middle" x="362" y="-161" font-family="Helvetica,sans-Serif" font-size="8.00">2</text>
</g>
<!-- Con_15 -->
<g id="node8" class="node">
<title>Con_15</title>
<ellipse fill="none" stroke="black" cx="509" cy="-226" rx="27" ry="18"/>
<text text-anchor="middle" x="509" y="-222.3" font-family="Times,serif" font-size="14.00">1</text>
</g>
<!-- Add16 -->
<g id="node9" class="node">
<title>Add16</title>
<ellipse fill="none" stroke="black" cx="437" cy="-140" rx="27" ry="18"/>
<text text-anchor="middle" x="437" y="-136.3" font-family="Times,serif" font-size="14.00">+</text>
</g>
<!-- Add16&#45;&gt;Phi_a8 -->
<g id="edge8" class="edge">
<title>Add16&#45;&gt;Phi_a8</title>
<path fill="none" stroke="black" d="M437,-158.4C437,-169.74 437,-184.77 437,-197.68"/>
<polygon fill="black" stroke="black" points="433.5,-197.9 437,-207.9 440.5,-197.9 433.5,-197.9"/>
<text text-anchor="middle" x="434" y="-161" font-family="Helvetica,sans-Serif" font-size="8.00">1</text>
</g>
<!-- Add16&#45;&gt;Con_15 -->
<g id="edge9" class="edge">
<title>Add16&#45;&gt;Con_15</title>
<path fill="none" stroke="black" d="M449.87,-156.02C460.93,-168.92 477.04,-187.71 489.65,-202.42"/>
<polygon fill="black" stroke="black" points="487.07,-204.8 496.24,-210.11 492.39,-200.24 487.07,-204.8"/>
<text text-anchor="middle" x="446.87" y="-158.62" font-family="Helvetica,sans-Serif" font-size="8.00">2</text>
</g>
<!-- Scope7_1 -->
<g id="node10" class="node">
<title>Scope7_1</title>
<polygon fill="cyan" stroke="transparent" points="37,-39 37,-60 53,-60 53,-39 37,-39"/>
<polygon fill="none" stroke="black" points="37,-39 37,-60 53,-60 53,-39 37,-39"/>
<text text-anchor="start" x="40" y="-45.8" font-family="Times,serif" font-size="14.00">2</text>
</g>
<!-- Scope7_2 -->
<g id="node11" class="node">
<title>Scope7_2</title>
<polygon fill="cyan" stroke="transparent" points="204,-39 204,-60 220,-60 220,-39 204,-39"/>
<polygon fill="none" stroke="black" points="204,-39 204,-60 220,-60 220,-39 204,-39"/>
<text text-anchor="start" x="207" y="-45.8" font-family="Times,serif" font-size="14.00">1</text>
<polygon fill="none" stroke="black" points="220,-39 220,-60 244,-60 244,-39 220,-39"/>
<text text-anchor="start" x="223" y="-45.8" font-family="Times,serif" font-size="14.00">a7</text>
</g>
<!-- Scope7_2&#45;&gt;Add16 -->
<g id="edge10" class="edge">
<title>Scope7_2:Scope7_2_a&#45;&gt;Add16</title>
<path fill="none" stroke="cornflowerblue" stroke-dasharray="5,2" d="M245,-49C277.81,-49 274.21,-80.67 305,-92 345.18,-106.78 362.53,-81.21 401,-100 408.17,-103.5 414.61,-109.1 420,-114.97"/>
<polygon fill="cornflowerblue" stroke="cornflowerblue" points="417.57,-117.53 426.65,-122.98 422.95,-113.06 417.57,-117.53"/>
</g>
<!-- Scope7_3 -->
<g id="node12" class="node">
<title>Scope7_3</title>
<polygon fill="cyan" stroke="transparent" points="105,-39 105,-60 121,-60 121,-39 105,-39"/>
<polygon fill="none" stroke="black" points="105,-39 105,-60 121,-60 121,-39 105,-39"/>
<text text-anchor="start" x="108" y="-45.8" font-family="Times,serif" font-size="14.00">0</text>
<polygon fill="none" stroke="black" points="121,-39 121,-60 170,-60 170,-39 121,-39"/>
<text text-anchor="start" x="124" y="-45.8" font-family="Times,serif" font-size="14.00">$ctrl7</text>
</g>
<!-- Scope7_3&#45;&gt;If11 -->
<g id="edge11" class="edge">
<title>Scope7_3:Scope7_3_$ctrl&#45;&gt;If11:p0</title>
<path fill="none" stroke="cornflowerblue" stroke-dasharray="5,2" d="M146,-61C146,-88.67 116.08,-78.37 92,-92 76.67,-100.68 58.17,-96.76 51.53,-106.3"/>
<polygon fill="cornflowerblue" stroke="cornflowerblue" points="48.13,-105.44 49,-116 54.91,-107.2 48.13,-105.44"/>
</g>
<!-- Scope1_1 -->
<g id="node13" class="node">
<title>Scope1_1</title>
<polygon fill="cyan" stroke="transparent" points="266,-129 266,-150 282,-150 282,-129 266,-129"/>
<polygon fill="none" stroke="black" points="266,-129 266,-150 282,-150 282,-129 266,-129"/>
<text text-anchor="start" x="269" y="-135.8" font-family="Times,serif" font-size="14.00">1</text>
<polygon fill="none" stroke="black" points="282,-129 282,-150 306,-150 306,-129 282,-129"/>
<text text-anchor="start" x="285" y="-135.8" font-family="Times,serif" font-size="14.00">a1</text>
</g>
<!-- Scope1_1&#45;&gt;Phi_a8 -->
<g id="edge12" class="edge">
<title>Scope1_1:Scope1_1_a&#45;&gt;Phi_a8</title>
<path fill="none" stroke="cornflowerblue" stroke-dasharray="5,2" d="M307,-139C324.7,-139 313.04,-161.94 326,-174 352.79,-198.93 367.79,-192.63 401,-208 402.79,-208.83 404.62,-209.68 406.47,-210.55"/>
<polygon fill="cornflowerblue" stroke="cornflowerblue" points="405.17,-213.8 415.71,-214.88 408.14,-207.46 405.17,-213.8"/>
</g>
<!-- Scope1_2 -->
<g id="node14" class="node">
<title>Scope1_2</title>
<polygon fill="cyan" stroke="transparent" points="167,-129 167,-150 183,-150 183,-129 167,-129"/>
<polygon fill="none" stroke="black" points="167,-129 167,-150 183,-150 183,-129 167,-129"/>
<text text-anchor="start" x="170" y="-135.8" font-family="Times,serif" font-size="14.00">0</text>
<polygon fill="none" stroke="black" points="183,-129 183,-150 232,-150 232,-129 183,-129"/>
<text text-anchor="start" x="186" y="-135.8" font-family="Times,serif" font-size="14.00">$ctrl1</text>
</g>
<!-- Scope1_2&#45;&gt;Loop6 -->
<g id="edge13" class="edge">
<title>Scope1_2:Scope1_2_$ctrl&#45;&gt;Loop6</title>
<path fill="none" stroke="cornflowerblue" stroke-dasharray="5,2" d="M208,-151C208,-187.75 165.51,-207.3 132.87,-216.9"/>
<polygon fill="cornflowerblue" stroke="cornflowerblue" points="131.83,-213.55 123.11,-219.57 133.68,-220.31 131.83,-213.55"/>
</g>
<!-- Scope14_1 -->
<g id="node15" class="node">
<title>Scope14_1</title>
<polygon fill="cyan" stroke="transparent" points="434,-39 434,-60 450,-60 450,-39 434,-39"/>
<polygon fill="none" stroke="black" points="434,-39 434,-60 450,-60 450,-39 434,-39"/>
<text text-anchor="start" x="437" y="-45.8" font-family="Times,serif" font-size="14.00">1</text>
<polygon fill="none" stroke="black" points="450,-39 450,-60 483,-60 483,-39 450,-39"/>
<text text-anchor="start" x="453" y="-45.8" font-family="Times,serif" font-size="14.00">a14</text>
</g>
<!-- Scope14_1&#45;&gt;Phi_a8 -->
<g id="edge14" class="edge">
<title>Scope14_1:Scope14_1_a&#45;&gt;Phi_a8</title>
<path fill="none" stroke="cornflowerblue" stroke-dasharray="5,2" d="M467,-61C467,-78.54 471.66,-82.51 473,-100 475.51,-132.79 482.95,-142.65 473,-174 469.79,-184.12 463.76,-193.96 457.55,-202.26"/>
<polygon fill="cornflowerblue" stroke="cornflowerblue" points="454.63,-200.3 451.11,-210.29 460.09,-204.68 454.63,-200.3"/>
</g>
<!-- Scope14_2 -->
<g id="node16" class="node">
<title>Scope14_2</title>
<polygon fill="cyan" stroke="transparent" points="325,-39 325,-60 341,-60 341,-39 325,-39"/>
<polygon fill="none" stroke="black" points="325,-39 325,-60 341,-60 341,-39 325,-39"/>
<text text-anchor="start" x="328" y="-45.8" font-family="Times,serif" font-size="14.00">0</text>
<polygon fill="none" stroke="black" points="341,-39 341,-60 399,-60 399,-39 341,-39"/>
<text text-anchor="start" x="344" y="-45.8" font-family="Times,serif" font-size="14.00">$ctrl14</text>
</g>
<!-- Scope14_2&#45;&gt;If11 -->
<g id="edge15" class="edge">
<title>Scope14_2:Scope14_2_$ctrl&#45;&gt;If11:p1</title>
<path fill="none" stroke="cornflowerblue" stroke-dasharray="5,2" d="M370,-61C370,-111.53 192.84,-81.06 146,-100 132.79,-105.34 131.96,-118.33 123.94,-124.13"/>
<polygon fill="cornflowerblue" stroke="cornflowerblue" points="122.63,-120.86 114,-127 124.58,-127.59 122.63,-120.86"/>
</g>
</g>
</svg>
