<?xml version="1.0" encoding="UTF-8" standalone="no"?>
<!DOCTYPE svg PUBLIC "-//W3C//DTD SVG 1.1//EN"
 "http://www.w3.org/Graphics/SVG/1.1/DTD/svg11.dtd">
<!-- Generated by graphviz version 2.43.0 (0)
 -->
<!-- Title: chapter07 Pages: 1 -->
<svg width="432pt" height="464pt"
 viewBox="0.00 0.00 432.37 464.00" xmlns="http://www.w3.org/2000/svg" xmlns:xlink="http://www.w3.org/1999/xlink">
<g id="graph0" class="graph" transform="scale(1 1) rotate(0) translate(4 460)">
<title>chapter07</title>
<polygon fill="white" stroke="transparent" points="-4,4 -4,-460 428.37,-460 428.37,4 -4,4"/>
<g id="clust1" class="cluster">
<title>cluster_Nodes</title>
<polygon fill="none" stroke="black" points="10.37,-8 10.37,-448 416.37,-448 416.37,-8 10.37,-8"/>
</g>
<!-- Start2 -->
<g id="node1" class="node">
<title>Start2</title>
<polygon fill="yellow" stroke="transparent" points="191.37,-267 191.37,-292 272.37,-292 272.37,-267 191.37,-267"/>
<polygon fill="none" stroke="black" points="191.37,-267 191.37,-292 272.37,-292 272.37,-267 191.37,-267"/>
<text text-anchor="start" x="213.37" y="-275.8" font-family="Times,serif" font-size="14.00">Start</text>
<polygon fill="none" stroke="black" points="191.37,-236 191.37,-267 272.37,-267 272.37,-236 191.37,-236"/>
<polygon fill="yellow" stroke="transparent" points="196.37,-241 196.37,-262 236.37,-262 236.37,-241 196.37,-241"/>
<polygon fill="none" stroke="black" points="196.37,-241 196.37,-262 236.37,-262 236.37,-241 196.37,-241"/>
<text text-anchor="start" x="199.37" y="-247.8" font-family="Times,serif" font-size="14.00">$ctrl</text>
<polygon fill="none" stroke="black" points="236.37,-241 236.37,-262 267.37,-262 267.37,-241 236.37,-241"/>
<text text-anchor="start" x="239.37" y="-247.8" font-family="Times,serif" font-size="14.00">arg</text>
</g>
<!-- Stop3 -->
<g id="node2" class="node">
<title>Stop3</title>
<polygon fill="yellow" stroke="black" points="229.37,-52 175.37,-52 175.37,-16 229.37,-16 229.37,-52"/>
<text text-anchor="middle" x="202.37" y="-30.3" font-family="Times,serif" font-size="14.00">Stop</text>
</g>
<!-- Return19 -->
<g id="node13" class="node">
<title>Return19</title>
<polygon fill="yellow" stroke="black" points="235.37,-124 169.37,-124 169.37,-88 235.37,-88 235.37,-124"/>
<text text-anchor="middle" x="202.37" y="-102.3" font-family="Times,serif" font-size="14.00">Return</text>
</g>
<!-- Stop3&#45;&gt;Return19 -->
<g id="edge1" class="edge">
<title>Stop3&#45;&gt;Return19</title>
<path fill="none" stroke="red" d="M202.37,-52.3C202.37,-60.02 202.37,-69.29 202.37,-77.89"/>
<polygon fill="red" stroke="red" points="198.87,-77.9 202.37,-87.9 205.87,-77.9 198.87,-77.9"/>
<text text-anchor="middle" x="199.37" y="-54.9" font-family="Helvetica,sans-Serif" font-size="8.00">0</text>
</g>
<!-- Con_6 -->
<g id="node3" class="node">
<title>Con_6</title>
<ellipse fill="none" stroke="black" cx="45.37" cy="-264" rx="27" ry="18"/>
<text text-anchor="middle" x="45.37" y="-260.3" font-family="Times,serif" font-size="14.00">#1</text>
</g>
<!-- Region7 -->
<g id="node4" class="node">
<title>Region7</title>
<polygon fill="yellow" stroke="black" points="275.37,-196 209.37,-196 209.37,-160 275.37,-160 275.37,-196"/>
<text text-anchor="middle" x="242.37" y="-174.3" font-family="Times,serif" font-size="14.00">Region</text>
</g>
<!-- Region7&#45;&gt;Start2 -->
<g id="edge2" class="edge">
<title>Region7&#45;&gt;Start2:p0</title>
<path fill="none" stroke="red" d="M230.74,-196.06C225.28,-205.38 219.49,-217.53 217.29,-229.99"/>
<polygon fill="red" stroke="red" points="213.8,-229.72 216.37,-240 220.77,-230.36 213.8,-229.72"/>
<text text-anchor="middle" x="227.74" y="-198.66" font-family="Helvetica,sans-Serif" font-size="8.00">1</text>
</g>
<!-- If12 -->
<g id="node8" class="node">
<title>If12</title>
<polygon fill="yellow" stroke="transparent" points="306.37,-267 306.37,-292 400.37,-292 400.37,-267 306.37,-267"/>
<polygon fill="none" stroke="black" points="306.37,-267 306.37,-292 400.37,-292 400.37,-267 306.37,-267"/>
<text text-anchor="start" x="347.87" y="-275.8" font-family="Times,serif" font-size="14.00">If</text>
<polygon fill="none" stroke="black" points="306.37,-236 306.37,-267 400.37,-267 400.37,-236 306.37,-236"/>
<polygon fill="yellow" stroke="transparent" points="311.37,-241 311.37,-262 351.37,-262 351.37,-241 311.37,-241"/>
<polygon fill="none" stroke="black" points="311.37,-241 311.37,-262 351.37,-262 351.37,-241 311.37,-241"/>
<text text-anchor="start" x="314.37" y="-247.8" font-family="Times,serif" font-size="14.00">True</text>
<polygon fill="yellow" stroke="transparent" points="351.37,-241 351.37,-262 395.37,-262 395.37,-241 351.37,-241"/>
<polygon fill="none" stroke="black" points="351.37,-241 351.37,-262 395.37,-262 395.37,-241 351.37,-241"/>
<text text-anchor="start" x="354.37" y="-247.8" font-family="Times,serif" font-size="14.00">False</text>
</g>
<!-- Region7&#45;&gt;If12 -->
<g id="edge3" class="edge">
<title>Region7&#45;&gt;If12:p0</title>
<path fill="none" stroke="red" d="M257.36,-196.06C271.21,-211.7 291.28,-234 302.45,-244.74"/>
<polygon fill="red" stroke="red" points="300.36,-247.54 310.37,-251 304.7,-242.05 300.36,-247.54"/>
<text text-anchor="middle" x="254.36" y="-198.66" font-family="Helvetica,sans-Serif" font-size="8.00">2</text>
</g>
<!-- Phi_a9 -->
<g id="node5" class="node">
<title>Phi_a9</title>
<ellipse fill="lightyellow" stroke="black" cx="127.37" cy="-178" rx="27" ry="18"/>
<text text-anchor="middle" x="127.37" y="-174.3" font-family="Times,serif" font-size="14.00">φ_a</text>
</g>
<!-- Phi_a9&#45;&gt;Con_6 -->
<g id="edge5" class="edge">
<title>Phi_a9&#45;&gt;Con_6</title>
<path fill="none" stroke="black" d="M113.09,-193.63C100.27,-206.76 81.29,-226.21 66.68,-241.18"/>
<polygon fill="black" stroke="black" points="63.97,-238.94 59.49,-248.54 68.98,-243.83 63.97,-238.94"/>
<text text-anchor="middle" x="110.09" y="-196.23" font-family="Helvetica,sans-Serif" font-size="8.00">1</text>
</g>
<!-- Phi_a9&#45;&gt;Region7 -->
<g id="edge4" class="edge">
<title>Phi_a9&#45;&gt;Region7</title>
<path fill="none" stroke="black" stroke-dasharray="1,5" d="M154.78,-178C169.51,-178 184.25,-178 198.98,-178"/>
<polygon fill="black" stroke="black" points="199.18,-181.5 209.18,-178 199.18,-174.5 199.18,-181.5"/>
<text text-anchor="middle" x="157.78" y="-171.6" font-family="Helvetica,sans-Serif" font-size="8.00">0</text>
</g>
<!-- Add18 -->
<g id="node12" class="node">
<title>Add18</title>
<ellipse fill="none" stroke="black" cx="117.37" cy="-264" rx="27" ry="18"/>
<text text-anchor="middle" x="117.37" y="-260.3" font-family="Times,serif" font-size="14.00">+</text>
</g>
<!-- Phi_a9&#45;&gt;Add18 -->
<g id="edge6" class="edge">
<title>Phi_a9&#45;&gt;Add18</title>
<path fill="none" stroke="black" d="M125.35,-196C123.98,-207.5 122.14,-222.93 120.58,-236.08"/>
<polygon fill="black" stroke="black" points="117.1,-235.68 119.39,-246.03 124.05,-236.51 117.1,-235.68"/>
<text text-anchor="middle" x="122.35" y="-198.6" font-family="Helvetica,sans-Serif" font-size="8.00">2</text>
</g>
<!-- Con_10 -->
<g id="node6" class="node">
<title>Con_10</title>
<ellipse fill="none" stroke="black" cx="271.37" cy="-422" rx="30.59" ry="18"/>
<text text-anchor="middle" x="271.37" y="-418.3" font-family="Times,serif" font-size="14.00">#10</text>
</g>
<!-- LTNode11 -->
<g id="node7" class="node">
<title>LTNode11</title>
<ellipse fill="none" stroke="black" cx="271.37" cy="-350" rx="27" ry="18"/>
<text text-anchor="middle" x="271.37" y="-346.3" font-family="Times,serif" font-size="14.00">&lt;</text>
</g>
<!-- LTNode11&#45;&gt;Phi_a9 -->
<g id="edge7" class="edge">
<title>LTNode11&#45;&gt;Phi_a9</title>
<path fill="none" stroke="black" d="M247.3,-341.59C225.35,-333.66 193.52,-319.01 174.37,-296 155.23,-272.99 164.66,-259.73 153.37,-232 149.67,-222.9 145.09,-213.17 140.81,-204.58"/>
<polygon fill="black" stroke="black" points="143.82,-202.77 136.17,-195.44 137.58,-205.94 143.82,-202.77"/>
<text text-anchor="middle" x="244.3" y="-335.19" font-family="Helvetica,sans-Serif" font-size="8.00">1</text>
</g>
<!-- LTNode11&#45;&gt;Con_10 -->
<g id="edge8" class="edge">
<title>LTNode11&#45;&gt;Con_10</title>
<path fill="none" stroke="black" d="M271.37,-368.3C271.37,-376.02 271.37,-385.29 271.37,-393.89"/>
<polygon fill="black" stroke="black" points="267.87,-393.9 271.37,-403.9 274.87,-393.9 267.87,-393.9"/>
<text text-anchor="middle" x="268.37" y="-370.9" font-family="Helvetica,sans-Serif" font-size="8.00">2</text>
</g>
<!-- If12&#45;&gt;Region7 -->
<g id="edge9" class="edge">
<title>If12&#45;&gt;Region7</title>
<path fill="none" stroke="red" d="M312.27,-231.89C299.31,-222.09 285.23,-211.44 273.13,-202.28"/>
<polygon fill="red" stroke="red" points="275.19,-199.44 265.1,-196.2 270.97,-205.03 275.19,-199.44"/>
<text text-anchor="middle" x="309.27" y="-225.49" font-family="Helvetica,sans-Serif" font-size="8.00">0</text>
</g>
<!-- If12&#45;&gt;LTNode11 -->
<g id="edge10" class="edge">
<title>If12&#45;&gt;LTNode11</title>
<path fill="none" stroke="black" d="M322.84,-296.28C312.88,-306.48 302.03,-317.59 292.88,-326.97"/>
<polygon fill="black" stroke="black" points="290.13,-324.78 285.64,-334.38 295.13,-329.67 290.13,-324.78"/>
<text text-anchor="middle" x="319.84" y="-298.88" font-family="Helvetica,sans-Serif" font-size="8.00">1</text>
</g>
<!-- Con_15 -->
<g id="node9" class="node">
<title>Con_15</title>
<ellipse fill="none" stroke="black" cx="45.37" cy="-422" rx="27" ry="18"/>
<text text-anchor="middle" x="45.37" y="-418.3" font-family="Times,serif" font-size="14.00">#1</text>
</g>
<!-- Add16 -->
<g id="node10" class="node">
<title>Add16</title>
<ellipse fill="none" stroke="black" cx="45.37" cy="-350" rx="27" ry="18"/>
<text text-anchor="middle" x="45.37" y="-346.3" font-family="Times,serif" font-size="14.00">+</text>
</g>
<!-- Add16&#45;&gt;Phi_a9 -->
<g id="edge11" class="edge">
<title>Add16&#45;&gt;Phi_a9</title>
<path fill="none" stroke="black" d="M31.62,-334.07C23.41,-324.1 13.75,-310.25 9.37,-296 1.01,-268.81 -6.08,-255.88 9.37,-232 27.28,-204.33 63.43,-190.97 91.03,-184.6"/>
<polygon fill="black" stroke="black" points="92.06,-187.96 101.13,-182.49 90.62,-181.11 92.06,-187.96"/>
<text text-anchor="middle" x="28.62" y="-327.67" font-family="Helvetica,sans-Serif" font-size="8.00">1</text>
</g>
<!-- Add16&#45;&gt;Con_15 -->
<g id="edge12" class="edge">
<title>Add16&#45;&gt;Con_15</title>
<path fill="none" stroke="black" d="M45.37,-368.3C45.37,-376.02 45.37,-385.29 45.37,-393.89"/>
<polygon fill="black" stroke="black" points="41.87,-393.9 45.37,-403.9 48.87,-393.9 41.87,-393.9"/>
<text text-anchor="middle" x="42.37" y="-370.9" font-family="Helvetica,sans-Serif" font-size="8.00">2</text>
</g>
<!-- Con_17 -->
<g id="node11" class="node">
<title>Con_17</title>
<ellipse fill="none" stroke="black" cx="117.37" cy="-350" rx="27" ry="18"/>
<text text-anchor="middle" x="117.37" y="-346.3" font-family="Times,serif" font-size="14.00">#2</text>
</g>
<!-- Add18&#45;&gt;Add16 -->
<g id="edge13" class="edge">
<title>Add18&#45;&gt;Add16</title>
<path fill="none" stroke="black" d="M104.5,-280.02C93.44,-292.92 77.34,-311.71 64.73,-326.42"/>
<polygon fill="black" stroke="black" points="61.98,-324.24 58.13,-334.11 67.3,-328.8 61.98,-324.24"/>
<text text-anchor="middle" x="101.5" y="-282.62" font-family="Helvetica,sans-Serif" font-size="8.00">1</text>
</g>
<!-- Add18&#45;&gt;Con_17 -->
<g id="edge14" class="edge">
<title>Add18&#45;&gt;Con_17</title>
<path fill="none" stroke="black" d="M117.37,-282.4C117.37,-293.74 117.37,-308.77 117.37,-321.68"/>
<polygon fill="black" stroke="black" points="113.87,-321.9 117.37,-331.9 120.87,-321.9 113.87,-321.9"/>
<text text-anchor="middle" x="114.37" y="-285" font-family="Helvetica,sans-Serif" font-size="8.00">2</text>
</g>
<!-- Return19&#45;&gt;Phi_a9 -->
<g id="edge16" class="edge">
<title>Return19&#45;&gt;Phi_a9</title>
<path fill="none" stroke="black" d="M183.83,-124.3C173.64,-133.82 160.91,-145.7 150.12,-155.77"/>
<polygon fill="black" stroke="black" points="147.59,-153.34 142.67,-162.72 152.37,-158.46 147.59,-153.34"/>
<text text-anchor="middle" x="180.83" y="-126.9" font-family="Helvetica,sans-Serif" font-size="8.00">1</text>
</g>
<!-- Return19&#45;&gt;If12 -->
<g id="edge15" class="edge">
<title>Return19&#45;&gt;If12:p1</title>
<path fill="none" stroke="red" d="M235.75,-116.35C282.99,-131.75 364.55,-167.14 372.71,-229.72"/>
<polygon fill="red" stroke="red" points="369.24,-230.25 373.37,-240 376.22,-229.8 369.24,-230.25"/>
<text text-anchor="middle" x="238.75" y="-109.95" font-family="Helvetica,sans-Serif" font-size="8.00">0</text>
</g>
</g>
</svg>
