<?xml version="1.0" encoding="UTF-8" standalone="no"?>
<!DOCTYPE svg PUBLIC "-//W3C//DTD SVG 1.1//EN"
 "http://www.w3.org/Graphics/SVG/1.1/DTD/svg11.dtd">
<!-- Generated by graphviz version 12.2.0 (20241103.1931)
 -->
<!-- Title: Lattice Pages: 1 -->
<svg width="1800pt" height="760pt"
 viewBox="0.00 0.00 1800.00 759.54" xmlns="http://www.w3.org/2000/svg" xmlns:xlink="http://www.w3.org/1999/xlink">
<g id="graph0" class="graph" transform="scale(1 1) rotate(0) translate(4 755.54)">
<title>Lattice</title>
<polygon fill="white" stroke="none" points="-4,4 -4,-755.54 1796,-755.54 1796,4 -4,4"/>
<!-- TOP -->
<g id="node1" class="node">
<title>TOP</title>
<ellipse fill="black" stroke="black" cx="829" cy="-730.42" rx="21.12" ry="21.12"/>
<text text-anchor="start" x="821.12" y="-725.99" font-family="Times New Roman,serif" font-weight="bold" font-size="14.00" fill="white">⊤</text>
</g>
<!-- XCTRL -->
<g id="node3" class="node">
<title>XCTRL</title>
<ellipse fill="yellow" stroke="black" cx="45" cy="-646.79" rx="36.51" ry="18"/>
<text text-anchor="start" x="26.25" y="-642.74" font-family="Times New Roman,serif" font-weight="bold" font-size="14.00">⊤</text>
<text text-anchor="start" x="42" y="-642.74" font-family="Times New Roman,serif" font-size="14.00">:ctrl</text>
</g>
<!-- TOP&#45;&gt;XCTRL -->
<g id="edge1" class="edge">
<title>TOP&#45;&gt;XCTRL</title>
<path fill="none" stroke="black" d="M807.62,-727.19C702.73,-716.27 241.49,-668.25 91.97,-652.68"/>
<polygon fill="black" stroke="black" points="92.33,-649.2 82.02,-651.65 91.61,-656.16 92.33,-649.2"/>
</g>
<!-- INT_TOP -->
<g id="node5" class="node">
<title>INT_TOP</title>
<ellipse fill="lightblue" stroke="black" cx="404" cy="-646.79" rx="33.95" ry="18"/>
<text text-anchor="start" x="387.12" y="-642.74" font-family="Times New Roman,serif" font-weight="bold" font-size="14.00">⊤</text>
<text text-anchor="start" x="402.88" y="-642.74" font-family="Times New Roman,serif" font-size="14.00">:int</text>
</g>
<!-- TOP&#45;&gt;INT_TOP -->
<g id="edge4" class="edge">
<title>TOP&#45;&gt;INT_TOP</title>
<path fill="none" stroke="black" d="M808.21,-725.42C742.28,-712.76 536.86,-673.31 446.91,-656.03"/>
<polygon fill="black" stroke="black" points="447.74,-652.63 437.26,-654.18 446.42,-659.5 447.74,-652.63"/>
</g>
<!-- FLT_TOP -->
<g id="node14" class="node">
<title>FLT_TOP</title>
<ellipse fill="aqua" stroke="black" cx="636" cy="-646.79" rx="32.41" ry="18"/>
<text text-anchor="start" x="620.25" y="-642.74" font-family="Times New Roman,serif" font-weight="bold" font-size="14.00">⊤</text>
<text text-anchor="start" x="636" y="-642.74" font-family="Times New Roman,serif" font-size="14.00">:flt</text>
</g>
<!-- TOP&#45;&gt;FLT_TOP -->
<g id="edge18" class="edge">
<title>TOP&#45;&gt;FLT_TOP</title>
<path fill="none" stroke="black" d="M809.79,-721.29C777.65,-707.7 712.5,-680.14 671.73,-662.91"/>
<polygon fill="black" stroke="black" points="673.15,-659.7 662.58,-659.03 670.42,-666.15 673.15,-659.7"/>
</g>
<!-- PTR -->
<g id="node22" class="node">
<title>PTR</title>
<polygon fill="none" stroke="none" points="856,-673.29 802,-673.29 802,-620.29 856,-620.29 856,-673.29"/>
<polygon fill="green" stroke="none" points="811,-646.79 811,-669.29 847,-669.29 847,-646.79 811,-646.79"/>
<polygon fill="none" stroke="black" points="811,-646.79 811,-669.29 847,-669.29 847,-646.79 811,-646.79"/>
<text text-anchor="start" x="818.12" y="-652.99" font-family="Times New Roman,serif" font-size="14.00" fill="white">*ptr</text>
<polygon fill="lightgreen" stroke="none" points="811,-624.29 811,-646.79 847,-646.79 847,-624.29 811,-624.29"/>
<polygon fill="none" stroke="black" points="811,-624.29 811,-646.79 847,-646.79 847,-624.29 811,-624.29"/>
<text text-anchor="start" x="814" y="-630.49" font-family="Times New Roman,serif" font-size="14.00">struct</text>
</g>
<!-- TOP&#45;&gt;PTR -->
<g id="edge33" class="edge">
<title>TOP&#45;&gt;PTR</title>
<path fill="none" stroke="black" d="M829,-708.82C829,-701.44 829,-692.87 829,-684.54"/>
<polygon fill="black" stroke="black" points="832.5,-684.57 829,-674.57 825.5,-684.57 832.5,-684.57"/>
</g>
<!-- STRUCT_TOP -->
<g id="node24" class="node">
<title>STRUCT_TOP</title>
<ellipse fill="lightgreen" stroke="black" cx="997" cy="-646.79" rx="44.7" ry="18"/>
<text text-anchor="start" x="972.25" y="-642.74" font-family="Times New Roman,serif" font-weight="bold" font-size="14.00">⊤</text>
<text text-anchor="start" x="988" y="-642.74" font-family="Times New Roman,serif" font-size="14.00">:struct</text>
</g>
<!-- TOP&#45;&gt;STRUCT_TOP -->
<g id="edge36" class="edge">
<title>TOP&#45;&gt;STRUCT_TOP</title>
<path fill="none" stroke="black" d="M847.95,-720.21C874.78,-707.18 924.42,-683.06 959.01,-666.25"/>
<polygon fill="black" stroke="black" points="960.39,-669.47 967.86,-661.95 957.34,-663.17 960.39,-669.47"/>
</g>
<!-- MEM_TOP -->
<g id="node29" class="node">
<title>MEM_TOP</title>
<ellipse fill="blue" stroke="black" cx="1346" cy="-646.79" rx="43.67" ry="18"/>
<text text-anchor="start" x="1322" y="-642.74" font-family="Times New Roman,serif" font-weight="bold" font-size="14.00" fill="white">⊤</text>
<text text-anchor="start" x="1337.75" y="-642.74" font-family="Times New Roman,serif" font-size="14.00" fill="white">:mem</text>
</g>
<!-- TOP&#45;&gt;MEM_TOP -->
<g id="edge46" class="edge">
<title>TOP&#45;&gt;MEM_TOP</title>
<path fill="none" stroke="black" d="M849.91,-726.12C925.08,-714.25 1183.05,-673.52 1294.28,-655.96"/>
<polygon fill="black" stroke="black" points="1294.7,-659.44 1304.03,-654.42 1293.61,-652.52 1294.7,-659.44"/>
</g>
<!-- TUPLE_TOP -->
<g id="node34" class="node">
<title>TUPLE_TOP</title>
<ellipse fill="pink" stroke="black" cx="1619" cy="-646.79" rx="42.65" ry="18"/>
<text text-anchor="start" x="1595.75" y="-642.74" font-family="Times New Roman,serif" font-weight="bold" font-size="14.00">⊤</text>
<text text-anchor="start" x="1611.5" y="-642.74" font-family="Times New Roman,serif" font-size="14.00">:tuple</text>
</g>
<!-- TOP&#45;&gt;TUPLE_TOP -->
<g id="edge56" class="edge">
<title>TOP&#45;&gt;TUPLE_TOP</title>
<path fill="none" stroke="black" d="M850.13,-727.23C953.9,-716.51 1410.83,-669.3 1566.7,-653.2"/>
<polygon fill="black" stroke="black" points="1566.73,-656.71 1576.32,-652.2 1566.01,-649.75 1566.73,-656.71"/>
</g>
<!-- BOT -->
<g id="node2" class="node">
<title>BOT</title>
<ellipse fill="black" stroke="black" cx="829" cy="-21.12" rx="21.12" ry="21.12"/>
<text text-anchor="start" x="821.12" y="-16.7" font-family="Times New Roman,serif" font-weight="bold" font-size="14.00" fill="white">⊥</text>
</g>
<!-- CTRL -->
<g id="node4" class="node">
<title>CTRL</title>
<ellipse fill="yellow" stroke="black" cx="44" cy="-104.75" rx="36.51" ry="18"/>
<text text-anchor="start" x="25.25" y="-100.7" font-family="Times New Roman,serif" font-weight="bold" font-size="14.00">⊥</text>
<text text-anchor="start" x="41" y="-100.7" font-family="Times New Roman,serif" font-size="14.00">:ctrl</text>
</g>
<!-- XCTRL&#45;&gt;CTRL -->
<g id="edge2" class="edge">
<title>XCTRL&#45;&gt;CTRL</title>
<path fill="none" stroke="black" d="M44.97,-628.45C44.82,-548.91 44.24,-233.44 44.05,-134.55"/>
<polygon fill="black" stroke="black" points="47.56,-134.6 44.04,-124.6 40.56,-134.61 47.56,-134.6"/>
</g>
<!-- CTRL&#45;&gt;BOT -->
<g id="edge3" class="edge">
<title>CTRL&#45;&gt;BOT</title>
<path fill="none" stroke="black" d="M79.77,-100.03C211.83,-86.3 670.83,-38.57 796.8,-25.47"/>
<polygon fill="black" stroke="black" points="796.84,-28.99 806.43,-24.47 796.12,-22.02 796.84,-28.99"/>
</g>
<!-- INT_HI -->
<g id="node7" class="node">
<title>INT_HI</title>
<ellipse fill="lightblue" stroke="black" cx="203" cy="-566.29" rx="52.89" ry="18"/>
<text text-anchor="middle" x="203" y="-561.24" font-family="Times New Roman,serif" font-size="14.00">max &lt; min</text>
</g>
<!-- INT_TOP&#45;&gt;INT_HI -->
<g id="edge5" class="edge">
<title>INT_TOP&#45;&gt;INT_HI</title>
<path fill="none" stroke="black" d="M377.31,-635.37C344.15,-622.42 287.09,-600.13 247.33,-584.6"/>
<polygon fill="black" stroke="black" points="248.85,-581.44 238.26,-581.06 246.31,-587.96 248.85,-581.44"/>
</g>
<!-- INT_BOT -->
<g id="node6" class="node">
<title>INT_BOT</title>
<ellipse fill="lightblue" stroke="black" cx="404" cy="-104.75" rx="33.95" ry="18"/>
<text text-anchor="start" x="387.12" y="-100.7" font-family="Times New Roman,serif" font-weight="bold" font-size="14.00">⊥</text>
<text text-anchor="start" x="402.88" y="-100.7" font-family="Times New Roman,serif" font-size="14.00">:int</text>
</g>
<!-- INT_BOT&#45;&gt;BOT -->
<g id="edge15" class="edge">
<title>INT_BOT&#45;&gt;BOT</title>
<path fill="none" stroke="black" d="M435.6,-97.68C514.28,-82.57 718.3,-43.39 797.2,-28.23"/>
<polygon fill="black" stroke="black" points="797.68,-31.7 806.84,-26.38 796.36,-24.83 797.68,-31.7"/>
</g>
<!-- INT_XBOOL -->
<g id="node8" class="node">
<title>INT_XBOOL</title>
<ellipse fill="lightblue" stroke="black" cx="97" cy="-483.97" rx="27.81" ry="18"/>
<text text-anchor="middle" x="97" y="-478.92" font-family="Times New Roman,serif" font-size="14.00">1...0</text>
</g>
<!-- INT_HI&#45;&gt;INT_XBOOL -->
<g id="edge6" class="edge">
<title>INT_HI&#45;&gt;INT_XBOOL</title>
<path fill="none" stroke="black" d="M182.06,-549.42C165.21,-536.65 141.43,-518.64 123.29,-504.9"/>
<polygon fill="black" stroke="black" points="125.68,-502.32 115.6,-499.07 121.46,-507.89 125.68,-502.32"/>
</g>
<!-- INT_CON -->
<g id="node9" class="node">
<title>INT_CON</title>
<ellipse fill="lightblue" stroke="black" cx="203" cy="-370.65" rx="45.21" ry="18"/>
<text text-anchor="middle" x="203" y="-365.6" font-family="Times New Roman,serif" font-size="14.00">constants</text>
</g>
<!-- INT_HI&#45;&gt;INT_CON -->
<g id="edge9" class="edge">
<title>INT_HI&#45;&gt;INT_CON</title>
<path fill="none" stroke="black" d="M203,-547.89C203,-514.02 203,-441.56 203,-400.55"/>
<polygon fill="black" stroke="black" points="206.5,-400.66 203,-390.66 199.5,-400.66 206.5,-400.66"/>
</g>
<!-- INT_CON0 -->
<g id="node10" class="node">
<title>INT_CON0</title>
<ellipse fill="lightblue" stroke="black" cx="18" cy="-370.65" rx="18" ry="18"/>
<text text-anchor="middle" x="18" y="-365.6" font-family="Times New Roman,serif" font-size="14.00">0</text>
</g>
<!-- INT_XBOOL&#45;&gt;INT_CON0 -->
<g id="edge7" class="edge">
<title>INT_XBOOL&#45;&gt;INT_CON0</title>
<path fill="none" stroke="black" d="M85.68,-467.02C72.29,-448.15 49.88,-416.57 34.54,-394.96"/>
<polygon fill="black" stroke="black" points="37.56,-393.17 28.92,-387.04 31.86,-397.22 37.56,-393.17"/>
</g>
<!-- INT_CON1 -->
<g id="node11" class="node">
<title>INT_CON1</title>
<ellipse fill="lightblue" stroke="black" cx="97" cy="-370.65" rx="18" ry="18"/>
<text text-anchor="middle" x="97" y="-365.6" font-family="Times New Roman,serif" font-size="14.00">1</text>
</g>
<!-- INT_XBOOL&#45;&gt;INT_CON1 -->
<g id="edge8" class="edge">
<title>INT_XBOOL&#45;&gt;INT_CON1</title>
<path fill="none" stroke="black" d="M97,-465.58C97,-448.1 97,-420.85 97,-400.2"/>
<polygon fill="black" stroke="black" points="100.5,-400.44 97,-390.44 93.5,-400.44 100.5,-400.44"/>
</g>
<!-- INT_LO -->
<g id="node13" class="node">
<title>INT_LO</title>
<ellipse fill="lightblue" stroke="black" cx="203" cy="-185.25" rx="52.89" ry="18"/>
<text text-anchor="middle" x="203" y="-180.2" font-family="Times New Roman,serif" font-size="14.00">max &gt; min</text>
</g>
<!-- INT_CON&#45;&gt;INT_LO -->
<g id="edge13" class="edge">
<title>INT_CON&#45;&gt;INT_LO</title>
<path fill="none" stroke="black" d="M203,-352.2C203,-320.06 203,-253.57 203,-214.9"/>
<polygon fill="black" stroke="black" points="206.5,-215.14 203,-205.14 199.5,-215.14 206.5,-215.14"/>
</g>
<!-- INT_CON0&#45;&gt;INT_CON1 -->
<!-- INT_BOOL -->
<g id="node12" class="node">
<title>INT_BOOL</title>
<ellipse fill="lightblue" stroke="black" cx="97" cy="-262.45" rx="27.81" ry="18"/>
<text text-anchor="middle" x="97" y="-257.4" font-family="Times New Roman,serif" font-size="14.00">0...1</text>
</g>
<!-- INT_CON0&#45;&gt;INT_BOOL -->
<g id="edge10" class="edge">
<title>INT_CON0&#45;&gt;INT_BOOL</title>
<path fill="none" stroke="black" d="M28.33,-355.77C41.09,-338.61 63.05,-309.09 78.7,-288.06"/>
<polygon fill="black" stroke="black" points="81.32,-290.39 84.48,-280.28 75.71,-286.21 81.32,-290.39"/>
</g>
<!-- INT_CON1&#45;&gt;INT_CON -->
<!-- INT_CON1&#45;&gt;INT_BOOL -->
<g id="edge11" class="edge">
<title>INT_CON1&#45;&gt;INT_BOOL</title>
<path fill="none" stroke="black" d="M97,-352.59C97,-336.35 97,-311.6 97,-292.3"/>
<polygon fill="black" stroke="black" points="100.5,-292.34 97,-282.34 93.5,-292.34 100.5,-292.34"/>
</g>
<!-- INT_BOOL&#45;&gt;INT_LO -->
<g id="edge12" class="edge">
<title>INT_BOOL&#45;&gt;INT_LO</title>
<path fill="none" stroke="black" d="M114.98,-248.69C130.47,-237.7 153.19,-221.59 171.67,-208.48"/>
<polygon fill="black" stroke="black" points="173.51,-211.46 179.65,-202.82 169.46,-205.75 173.51,-211.46"/>
</g>
<!-- INT_LO&#45;&gt;INT_BOT -->
<g id="edge14" class="edge">
<title>INT_LO&#45;&gt;INT_BOT</title>
<path fill="none" stroke="black" d="M236.64,-171.11C272.65,-157.05 329.61,-134.8 366.9,-120.24"/>
<polygon fill="black" stroke="black" points="367.88,-123.61 375.92,-116.72 365.33,-117.09 367.88,-123.61"/>
</g>
<!-- FLT_CON64 -->
<g id="node16" class="node">
<title>FLT_CON64</title>
<ellipse fill="aqua" stroke="black" cx="709" cy="-370.65" rx="55.33" ry="40.66"/>
<text text-anchor="middle" x="709" y="-382.1" font-family="Times New Roman,serif" font-size="14.00">64b consts</text>
<text text-anchor="middle" x="709" y="-365.6" font-family="Times New Roman,serif" font-size="14.00">[excludes</text>
<text text-anchor="middle" x="709" y="-349.1" font-family="Times New Roman,serif" font-size="14.00">32b consts]</text>
</g>
<!-- FLT_TOP&#45;&gt;FLT_CON64 -->
<g id="edge19" class="edge">
<title>FLT_TOP&#45;&gt;FLT_CON64</title>
<path fill="none" stroke="black" d="M640.79,-628.67C651.74,-587.25 678.94,-484.36 695.5,-421.74"/>
<polygon fill="black" stroke="black" points="698.8,-422.94 697.97,-412.38 692.03,-421.15 698.8,-422.94"/>
</g>
<!-- FLT_CONPI -->
<g id="node18" class="node">
<title>FLT_CONPI</title>
<ellipse fill="aqua" stroke="black" cx="562" cy="-370.65" rx="48.79" ry="18"/>
<text text-anchor="middle" x="562" y="-365.6" font-family="Times New Roman,serif" font-size="14.00">3.14159...</text>
</g>
<!-- FLT_TOP&#45;&gt;FLT_CONPI -->
<g id="edge20" class="edge">
<title>FLT_TOP&#45;&gt;FLT_CONPI</title>
<path fill="none" stroke="black" d="M631.14,-628.67C618.63,-581.96 585.17,-457.11 569.85,-399.95"/>
<polygon fill="black" stroke="black" points="573.23,-399.05 567.27,-390.3 566.47,-400.86 573.23,-399.05"/>
</g>
<!-- FLT_X32 -->
<g id="node19" class="node">
<title>FLT_X32</title>
<ellipse fill="aqua" stroke="black" cx="420" cy="-483.97" rx="28.32" ry="28.32"/>
<text text-anchor="middle" x="420" y="-478.92" font-family="Times New Roman,serif" font-size="14.00">~f32</text>
</g>
<!-- FLT_TOP&#45;&gt;FLT_X32 -->
<g id="edge23" class="edge">
<title>FLT_TOP&#45;&gt;FLT_X32</title>
<path fill="none" stroke="black" d="M616.45,-632.06C579.12,-603.92 497.39,-542.31 451.99,-508.09"/>
<polygon fill="black" stroke="black" points="454.19,-505.36 444.09,-502.13 449.97,-510.95 454.19,-505.36"/>
</g>
<!-- FLT_BOT -->
<g id="node15" class="node">
<title>FLT_BOT</title>
<ellipse fill="aqua" stroke="black" cx="636" cy="-104.75" rx="32.41" ry="18"/>
<text text-anchor="start" x="620.25" y="-100.7" font-family="Times New Roman,serif" font-weight="bold" font-size="14.00">⊥</text>
<text text-anchor="start" x="636" y="-100.7" font-family="Times New Roman,serif" font-size="14.00">:flt</text>
</g>
<!-- FLT_BOT&#45;&gt;BOT -->
<g id="edge29" class="edge">
<title>FLT_BOT&#45;&gt;BOT</title>
<path fill="none" stroke="black" d="M661.23,-93.08C696.76,-78.05 761.4,-50.72 799.23,-34.72"/>
<polygon fill="black" stroke="black" points="800.35,-38.04 808.2,-30.92 797.63,-31.59 800.35,-38.04"/>
</g>
<!-- FLT_CON64&#45;&gt;FLT_BOT -->
<g id="edge21" class="edge">
<title>FLT_CON64&#45;&gt;FLT_BOT</title>
<path fill="none" stroke="black" d="M697.99,-330.56C683.16,-276.52 657.1,-181.62 644,-133.89"/>
<polygon fill="black" stroke="black" points="647.39,-133 641.36,-124.29 640.64,-134.86 647.39,-133"/>
</g>
<!-- FLT_CON32 -->
<g id="node17" class="node">
<title>FLT_CON32</title>
<ellipse fill="aqua" stroke="black" cx="420" cy="-370.65" rx="50.33" ry="18"/>
<text text-anchor="middle" x="420" y="-365.6" font-family="Times New Roman,serif" font-size="14.00">32b consts</text>
</g>
<!-- FLT_CON32&#45;&gt;FLT_CONPI -->
<!-- FLT_32 -->
<g id="node21" class="node">
<title>FLT_32</title>
<ellipse fill="aqua" stroke="black" cx="420" cy="-262.45" rx="23.2" ry="23.2"/>
<text text-anchor="middle" x="420" y="-257.4" font-family="Times New Roman,serif" font-size="14.00">f32</text>
</g>
<!-- FLT_CON32&#45;&gt;FLT_32 -->
<g id="edge27" class="edge">
<title>FLT_CON32&#45;&gt;FLT_32</title>
<path fill="none" stroke="black" d="M420,-352.59C420,-337.77 420,-315.87 420,-297.49"/>
<polygon fill="black" stroke="black" points="423.5,-297.54 420,-287.54 416.5,-297.54 423.5,-297.54"/>
</g>
<!-- FLT_CONPI&#45;&gt;FLT_BOT -->
<g id="edge22" class="edge">
<title>FLT_CONPI&#45;&gt;FLT_BOT</title>
<path fill="none" stroke="black" d="M567.09,-352.38C579.71,-307.01 612.57,-188.95 627.9,-133.86"/>
<polygon fill="black" stroke="black" points="631.26,-134.83 630.57,-124.26 624.52,-132.95 631.26,-134.83"/>
</g>
<!-- FLT_CONPI&#45;&gt;FLT_CON64 -->
<!-- FLT_X32&#45;&gt;FLT_CON32 -->
<g id="edge25" class="edge">
<title>FLT_X32&#45;&gt;FLT_CON32</title>
<path fill="none" stroke="black" d="M420,-455.17C420,-438.48 420,-417.3 420,-400.44"/>
<polygon fill="black" stroke="black" points="423.5,-400.57 420,-390.57 416.5,-400.57 423.5,-400.57"/>
</g>
<!-- FLT_CON0 -->
<g id="node20" class="node">
<title>FLT_CON0</title>
<ellipse fill="aqua" stroke="black" cx="309" cy="-370.65" rx="18.08" ry="18.08"/>
<text text-anchor="middle" x="309" y="-365.6" font-family="Times New Roman,serif" font-size="14.00">0.</text>
</g>
<!-- FLT_X32&#45;&gt;FLT_CON0 -->
<g id="edge24" class="edge">
<title>FLT_X32&#45;&gt;FLT_CON0</title>
<path fill="none" stroke="black" d="M400.41,-463.33C380.48,-443.34 349.72,-412.49 329.47,-392.18"/>
<polygon fill="black" stroke="black" points="332.11,-389.87 322.57,-385.26 327.15,-394.82 332.11,-389.87"/>
</g>
<!-- FLT_CON0&#45;&gt;FLT_CON32 -->
<!-- FLT_CON0&#45;&gt;FLT_32 -->
<g id="edge26" class="edge">
<title>FLT_CON0&#45;&gt;FLT_32</title>
<path fill="none" stroke="black" d="M321.73,-357.47C339.61,-340.37 372.5,-308.9 395.28,-287.1"/>
<polygon fill="black" stroke="black" points="397.56,-289.76 402.37,-280.32 392.72,-284.71 397.56,-289.76"/>
</g>
<!-- FLT_32&#45;&gt;FLT_BOT -->
<g id="edge28" class="edge">
<title>FLT_32&#45;&gt;FLT_BOT</title>
<path fill="none" stroke="black" d="M438.79,-248.73C476.56,-221.15 561.91,-158.84 606.94,-125.97"/>
<polygon fill="black" stroke="black" points="608.93,-128.85 614.94,-120.12 604.8,-123.19 608.93,-128.85"/>
</g>
<!-- PTR0 -->
<g id="node23" class="node">
<title>PTR0</title>
<polygon fill="none" stroke="none" points="856,-131.25 802,-131.25 802,-78.25 856,-78.25 856,-131.25"/>
<polygon fill="green" stroke="none" points="811,-104.75 811,-127.25 847,-127.25 847,-104.75 811,-104.75"/>
<polygon fill="none" stroke="black" points="811,-104.75 811,-127.25 847,-127.25 847,-104.75 811,-104.75"/>
<text text-anchor="start" x="815.12" y="-110.95" font-family="Times New Roman,serif" font-size="14.00" fill="white">*ptr?</text>
<polygon fill="lightgreen" stroke="none" points="811,-82.25 811,-104.75 847,-104.75 847,-82.25 811,-82.25"/>
<polygon fill="none" stroke="black" points="811,-82.25 811,-104.75 847,-104.75 847,-82.25 811,-82.25"/>
<text text-anchor="start" x="814" y="-88.45" font-family="Times New Roman,serif" font-size="14.00">struct</text>
</g>
<!-- PTR&#45;&gt;PTR0 -->
<g id="edge34" class="edge">
<title>PTR&#45;&gt;PTR0</title>
<path fill="none" stroke="black" d="M829,-620.65C829,-532.47 829,-245.72 829,-142.34"/>
<polygon fill="black" stroke="black" points="832.5,-142.46 829,-132.46 825.5,-142.46 832.5,-142.46"/>
</g>
<!-- PTR0&#45;&gt;BOT -->
<g id="edge35" class="edge">
<title>PTR0&#45;&gt;BOT</title>
<path fill="none" stroke="black" d="M829,-78.37C829,-70.63 829,-62.03 829,-53.93"/>
<polygon fill="black" stroke="black" points="832.5,-54.09 829,-44.09 825.5,-54.09 832.5,-54.09"/>
</g>
<!-- STRUCT_S1 -->
<g id="node26" class="node">
<title>STRUCT_S1</title>
<polygon fill="none" stroke="none" points="979.88,-388.65 894.12,-388.65 894.12,-352.65 979.88,-352.65 979.88,-388.65"/>
<polygon fill="lightgreen" stroke="none" points="902.12,-359.4 902.12,-381.9 932.88,-381.9 932.88,-359.4 902.12,-359.4"/>
<polygon fill="none" stroke="black" points="902.12,-359.4 902.12,-381.9 932.88,-381.9 932.88,-359.4 902.12,-359.4"/>
<text text-anchor="start" x="905.12" y="-365.6" font-family="Times New Roman,serif" font-size="14.00">field</text>
<defs>
<linearGradient id="l_0" gradientUnits="userSpaceOnUse" x1="938.59" y1="-378.61" x2="966.16" y2="-362.7" >
<stop offset="0" style="stop-color:lightblue;stop-opacity:1.;"/>
<stop offset="1" style="stop-color:green;stop-opacity:1.;"/>
</linearGradient>
</defs>
<polygon fill="url(#l_0)" stroke="none" points="932.88,-359.4 932.88,-381.9 971.88,-381.9 971.88,-359.4 932.88,-359.4"/>
<polygon fill="none" stroke="black" points="932.88,-359.4 932.88,-381.9 971.88,-381.9 971.88,-359.4 932.88,-359.4"/>
<text text-anchor="start" x="935.88" y="-365.6" font-family="Times New Roman,serif" font-size="14.00">int/ptr</text>
</g>
<!-- STRUCT_TOP&#45;&gt;STRUCT_S1 -->
<g id="edge37" class="edge">
<title>STRUCT_TOP&#45;&gt;STRUCT_S1</title>
<path fill="none" stroke="black" d="M993.06,-628.67C982.89,-581.85 955.66,-456.51 943.28,-399.54"/>
<polygon fill="black" stroke="black" points="946.74,-398.99 941.19,-389.96 939.9,-400.47 946.74,-398.99"/>
</g>
<!-- STRUCT_S2 -->
<g id="node27" class="node">
<title>STRUCT_S2</title>
<polygon fill="none" stroke="none" points="1108.88,-397.15 1023.12,-397.15 1023.12,-344.15 1108.88,-344.15 1108.88,-397.15"/>
<polygon fill="lightgreen" stroke="none" points="1031.12,-370.65 1031.12,-393.15 1061.88,-393.15 1061.88,-370.65 1031.12,-370.65"/>
<polygon fill="none" stroke="black" points="1031.12,-370.65 1031.12,-393.15 1061.88,-393.15 1061.88,-370.65 1031.12,-370.65"/>
<text text-anchor="start" x="1034.12" y="-376.85" font-family="Times New Roman,serif" font-size="14.00">field</text>
<defs>
<linearGradient id="l_1" gradientUnits="userSpaceOnUse" x1="1067.59" y1="-389.86" x2="1095.16" y2="-373.95" >
<stop offset="0" style="stop-color:lightblue;stop-opacity:1.;"/>
<stop offset="1" style="stop-color:green;stop-opacity:1.;"/>
</linearGradient>
</defs>
<polygon fill="url(#l_1)" stroke="none" points="1061.88,-370.65 1061.88,-393.15 1100.88,-393.15 1100.88,-370.65 1061.88,-370.65"/>
<polygon fill="none" stroke="black" points="1061.88,-370.65 1061.88,-393.15 1100.88,-393.15 1100.88,-370.65 1061.88,-370.65"/>
<text text-anchor="start" x="1064.88" y="-376.85" font-family="Times New Roman,serif" font-size="14.00">int/ptr</text>
<polygon fill="lightgreen" stroke="none" points="1031.12,-348.15 1031.12,-370.65 1061.88,-370.65 1061.88,-348.15 1031.12,-348.15"/>
<polygon fill="none" stroke="black" points="1031.12,-348.15 1031.12,-370.65 1061.88,-370.65 1061.88,-348.15 1031.12,-348.15"/>
<text text-anchor="start" x="1034.12" y="-354.35" font-family="Times New Roman,serif" font-size="14.00">field</text>
<defs>
<linearGradient id="l_2" gradientUnits="userSpaceOnUse" x1="1067.59" y1="-367.36" x2="1095.16" y2="-351.45" >
<stop offset="0" style="stop-color:lightblue;stop-opacity:1.;"/>
<stop offset="1" style="stop-color:green;stop-opacity:1.;"/>
</linearGradient>
</defs>
<polygon fill="url(#l_2)" stroke="none" points="1061.88,-348.15 1061.88,-370.65 1100.88,-370.65 1100.88,-348.15 1061.88,-348.15"/>
<polygon fill="none" stroke="black" points="1061.88,-348.15 1061.88,-370.65 1100.88,-370.65 1100.88,-348.15 1061.88,-348.15"/>
<text text-anchor="start" x="1064.88" y="-354.35" font-family="Times New Roman,serif" font-size="14.00">int/ptr</text>
</g>
<!-- STRUCT_TOP&#45;&gt;STRUCT_S2 -->
<g id="edge38" class="edge">
<title>STRUCT_TOP&#45;&gt;STRUCT_S2</title>
<path fill="none" stroke="black" d="M1001.53,-628.67C1012.68,-584.04 1041.67,-468.04 1056.68,-407.95"/>
<polygon fill="black" stroke="black" points="1060,-409.09 1059.03,-398.54 1053.21,-407.39 1060,-409.09"/>
</g>
<!-- STRUCT_SN -->
<g id="node28" class="node">
<title>STRUCT_SN</title>
<polygon fill="none" stroke="none" points="1237.88,-408.4 1152.12,-408.4 1152.12,-332.9 1237.88,-332.9 1237.88,-408.4"/>
<polygon fill="lightgreen" stroke="none" points="1160.12,-381.9 1160.12,-404.4 1190.88,-404.4 1190.88,-381.9 1160.12,-381.9"/>
<polygon fill="none" stroke="black" points="1160.12,-381.9 1160.12,-404.4 1190.88,-404.4 1190.88,-381.9 1160.12,-381.9"/>
<text text-anchor="start" x="1163.12" y="-388.1" font-family="Times New Roman,serif" font-size="14.00">field</text>
<defs>
<linearGradient id="l_3" gradientUnits="userSpaceOnUse" x1="1196.59" y1="-401.11" x2="1224.16" y2="-385.2" >
<stop offset="0" style="stop-color:lightblue;stop-opacity:1.;"/>
<stop offset="1" style="stop-color:green;stop-opacity:1.;"/>
</linearGradient>
</defs>
<polygon fill="url(#l_3)" stroke="none" points="1190.88,-381.9 1190.88,-404.4 1229.88,-404.4 1229.88,-381.9 1190.88,-381.9"/>
<polygon fill="none" stroke="black" points="1190.88,-381.9 1190.88,-404.4 1229.88,-404.4 1229.88,-381.9 1190.88,-381.9"/>
<text text-anchor="start" x="1193.88" y="-388.1" font-family="Times New Roman,serif" font-size="14.00">int/ptr</text>
<polygon fill="lightgreen" stroke="none" points="1160.12,-359.4 1160.12,-381.9 1190.88,-381.9 1190.88,-359.4 1160.12,-359.4"/>
<polygon fill="none" stroke="black" points="1160.12,-359.4 1160.12,-381.9 1190.88,-381.9 1190.88,-359.4 1160.12,-359.4"/>
<text text-anchor="start" x="1166.12" y="-365.6" font-family="Times New Roman,serif" font-size="14.00">... &#160;</text>
<defs>
<linearGradient id="l_4" gradientUnits="userSpaceOnUse" x1="1196.59" y1="-378.61" x2="1224.16" y2="-362.7" >
<stop offset="0" style="stop-color:lightblue;stop-opacity:1.;"/>
<stop offset="1" style="stop-color:green;stop-opacity:1.;"/>
</linearGradient>
</defs>
<polygon fill="url(#l_4)" stroke="none" points="1190.88,-359.4 1190.88,-381.9 1229.88,-381.9 1229.88,-359.4 1190.88,-359.4"/>
<polygon fill="none" stroke="black" points="1190.88,-359.4 1190.88,-381.9 1229.88,-381.9 1229.88,-359.4 1190.88,-359.4"/>
<text text-anchor="start" x="1193.88" y="-365.6" font-family="Times New Roman,serif" font-size="14.00">int/ptr</text>
<polygon fill="lightgreen" stroke="none" points="1160.12,-336.9 1160.12,-359.4 1190.88,-359.4 1190.88,-336.9 1160.12,-336.9"/>
<polygon fill="none" stroke="black" points="1160.12,-336.9 1160.12,-359.4 1190.88,-359.4 1190.88,-336.9 1160.12,-336.9"/>
<text text-anchor="start" x="1163.12" y="-343.1" font-family="Times New Roman,serif" font-size="14.00">field</text>
<defs>
<linearGradient id="l_5" gradientUnits="userSpaceOnUse" x1="1196.59" y1="-356.11" x2="1224.16" y2="-340.2" >
<stop offset="0" style="stop-color:lightblue;stop-opacity:1.;"/>
<stop offset="1" style="stop-color:green;stop-opacity:1.;"/>
</linearGradient>
</defs>
<polygon fill="url(#l_5)" stroke="none" points="1190.88,-336.9 1190.88,-359.4 1229.88,-359.4 1229.88,-336.9 1190.88,-336.9"/>
<polygon fill="none" stroke="black" points="1190.88,-336.9 1190.88,-359.4 1229.88,-359.4 1229.88,-336.9 1190.88,-336.9"/>
<text text-anchor="start" x="1193.88" y="-343.1" font-family="Times New Roman,serif" font-size="14.00">int/ptr</text>
</g>
<!-- STRUCT_TOP&#45;&gt;STRUCT_SN -->
<g id="edge39" class="edge">
<title>STRUCT_TOP&#45;&gt;STRUCT_SN</title>
<path fill="none" stroke="black" d="M1009.69,-629.1C1039.89,-586.98 1116.85,-479.64 1161.52,-417.35"/>
<polygon fill="black" stroke="black" points="1164.27,-419.52 1167.25,-409.35 1158.58,-415.44 1164.27,-419.52"/>
</g>
<!-- STRUCT_BOT -->
<g id="node25" class="node">
<title>STRUCT_BOT</title>
<ellipse fill="lightgreen" stroke="black" cx="995" cy="-104.75" rx="44.7" ry="18"/>
<text text-anchor="start" x="970.25" y="-100.7" font-family="Times New Roman,serif" font-weight="bold" font-size="14.00">⊥</text>
<text text-anchor="start" x="986" y="-100.7" font-family="Times New Roman,serif" font-size="14.00">:struct</text>
</g>
<!-- STRUCT_BOT&#45;&gt;BOT -->
<g id="edge43" class="edge">
<title>STRUCT_BOT&#45;&gt;BOT</title>
<path fill="none" stroke="black" d="M967.59,-90.27C937.27,-75.36 888.65,-51.46 857.79,-36.28"/>
<polygon fill="black" stroke="black" points="859.56,-33.25 849.04,-31.98 856.47,-39.53 859.56,-33.25"/>
</g>
<!-- STRUCT_S1&#45;&gt;STRUCT_BOT -->
<g id="edge40" class="edge">
<title>STRUCT_S1&#45;&gt;STRUCT_BOT</title>
<path fill="none" stroke="black" d="M940.9,-352.79C950.72,-307.77 976.56,-189.3 988.62,-133.98"/>
<polygon fill="black" stroke="black" points="992.01,-134.88 990.72,-124.36 985.17,-133.38 992.01,-134.88"/>
</g>
<!-- STRUCT_S1&#45;&gt;STRUCT_S2 -->
<!-- STRUCT_S2&#45;&gt;STRUCT_BOT -->
<g id="edge41" class="edge">
<title>STRUCT_S2&#45;&gt;STRUCT_BOT</title>
<path fill="none" stroke="black" d="M1058.93,-344.18C1045.59,-294.22 1016.79,-186.34 1002.86,-134.18"/>
<polygon fill="black" stroke="black" points="1006.24,-133.28 1000.28,-124.52 999.48,-135.08 1006.24,-133.28"/>
</g>
<!-- STRUCT_S2&#45;&gt;STRUCT_SN -->
<!-- STRUCT_SN&#45;&gt;STRUCT_BOT -->
<g id="edge42" class="edge">
<title>STRUCT_SN&#45;&gt;STRUCT_BOT</title>
<path fill="none" stroke="black" d="M1166.77,-333.12C1125.77,-278.61 1050.75,-178.87 1014.99,-131.32"/>
<polygon fill="black" stroke="black" points="1017.9,-129.37 1009.09,-123.48 1012.3,-133.58 1017.9,-129.37"/>
</g>
<!-- MEM_ALIAS1 -->
<g id="node31" class="node">
<title>MEM_ALIAS1</title>
<ellipse fill="blue" stroke="black" cx="1301" cy="-370.65" rx="20.13" ry="20.13"/>
<text text-anchor="middle" x="1301" y="-365.6" font-family="Times New Roman,serif" font-size="14.00" fill="white">#1</text>
</g>
<!-- MEM_TOP&#45;&gt;MEM_ALIAS1 -->
<g id="edge47" class="edge">
<title>MEM_TOP&#45;&gt;MEM_ALIAS1</title>
<path fill="none" stroke="black" d="M1343.05,-628.67C1335.53,-582.52 1315.58,-460.09 1306.11,-402.04"/>
<polygon fill="black" stroke="black" points="1309.57,-401.48 1304.51,-392.17 1302.66,-402.6 1309.57,-401.48"/>
</g>
<!-- MEM_ALIASDOTS -->
<g id="node32" class="node">
<title>MEM_ALIASDOTS</title>
<ellipse fill="blue" stroke="black" cx="1391" cy="-370.65" rx="27" ry="18"/>
<text text-anchor="middle" x="1391" y="-365.6" font-family="Times New Roman,serif" font-size="14.00" fill="white">...</text>
</g>
<!-- MEM_TOP&#45;&gt;MEM_ALIASDOTS -->
<g id="edge48" class="edge">
<title>MEM_TOP&#45;&gt;MEM_ALIASDOTS</title>
<path fill="none" stroke="black" d="M1348.95,-628.67C1356.56,-581.96 1376.91,-457.11 1386.23,-399.95"/>
<polygon fill="black" stroke="black" points="1389.64,-400.76 1387.79,-390.33 1382.73,-399.64 1389.64,-400.76"/>
</g>
<!-- MEM_ALIASN -->
<g id="node33" class="node">
<title>MEM_ALIASN</title>
<ellipse fill="blue" stroke="black" cx="1481" cy="-370.65" rx="20.13" ry="20.13"/>
<text text-anchor="middle" x="1481" y="-365.6" font-family="Times New Roman,serif" font-size="14.00" fill="white">#n</text>
</g>
<!-- MEM_TOP&#45;&gt;MEM_ALIASN -->
<g id="edge49" class="edge">
<title>MEM_TOP&#45;&gt;MEM_ALIASN</title>
<path fill="none" stroke="black" d="M1354.86,-628.67C1377.84,-581.67 1439.5,-455.54 1467.2,-398.89"/>
<polygon fill="black" stroke="black" points="1470.2,-400.72 1471.44,-390.2 1463.91,-397.64 1470.2,-400.72"/>
</g>
<!-- MEM_BOT -->
<g id="node30" class="node">
<title>MEM_BOT</title>
<ellipse fill="blue" stroke="black" cx="1346" cy="-104.75" rx="43.67" ry="18"/>
<text text-anchor="start" x="1322" y="-100.7" font-family="Times New Roman,serif" font-weight="bold" font-size="14.00" fill="white">⊥</text>
<text text-anchor="start" x="1337.75" y="-100.7" font-family="Times New Roman,serif" font-size="14.00" fill="white">:mem</text>
</g>
<!-- MEM_BOT&#45;&gt;BOT -->
<g id="edge53" class="edge">
<title>MEM_BOT&#45;&gt;BOT</title>
<path fill="none" stroke="black" d="M1305.86,-97.41C1206.64,-81.75 951.34,-41.44 861.15,-27.2"/>
<polygon fill="black" stroke="black" points="861.94,-23.78 851.52,-25.68 860.85,-30.7 861.94,-23.78"/>
</g>
<!-- MEM_ALIAS1&#45;&gt;MEM_BOT -->
<g id="edge50" class="edge">
<title>MEM_ALIAS1&#45;&gt;MEM_BOT</title>
<path fill="none" stroke="black" d="M1304.38,-350.67C1312.23,-304.29 1331.71,-189.17 1340.97,-134.49"/>
<polygon fill="black" stroke="black" points="1344.41,-135.12 1342.63,-124.67 1337.51,-133.95 1344.41,-135.12"/>
</g>
<!-- MEM_ALIAS1&#45;&gt;MEM_ALIASDOTS -->
<!-- MEM_ALIASDOTS&#45;&gt;MEM_BOT -->
<g id="edge51" class="edge">
<title>MEM_ALIASDOTS&#45;&gt;MEM_BOT</title>
<path fill="none" stroke="black" d="M1387.91,-352.38C1380.25,-307.12 1360.35,-189.52 1350.99,-134.26"/>
<polygon fill="black" stroke="black" points="1354.49,-133.92 1349.37,-124.65 1347.58,-135.09 1354.49,-133.92"/>
</g>
<!-- MEM_ALIASDOTS&#45;&gt;MEM_ALIASN -->
<!-- MEM_ALIASN&#45;&gt;MEM_BOT -->
<g id="edge52" class="edge">
<title>MEM_ALIASN&#45;&gt;MEM_BOT</title>
<path fill="none" stroke="black" d="M1471.72,-352.38C1448.54,-306.73 1388,-187.47 1360.26,-132.83"/>
<polygon fill="black" stroke="black" points="1363.5,-131.48 1355.85,-124.15 1357.26,-134.65 1363.5,-131.48"/>
</g>
<!-- TUPLE1 -->
<g id="node36" class="node">
<title>TUPLE1</title>
<polygon fill="none" stroke="none" points="1598,-397.15 1544,-397.15 1544,-344.15 1598,-344.15 1598,-397.15"/>
<polygon fill="pink" stroke="none" points="1552.25,-370.65 1552.25,-393.15 1589.75,-393.15 1589.75,-370.65 1552.25,-370.65"/>
<polygon fill="none" stroke="black" points="1552.25,-370.65 1552.25,-393.15 1589.75,-393.15 1589.75,-370.65 1552.25,-370.65"/>
<text text-anchor="start" x="1555.25" y="-376.85" font-family="Times New Roman,serif" font-size="14.00">Tuple</text>
<polygon fill="black" stroke="none" points="1552.25,-348.15 1552.25,-370.65 1589.75,-370.65 1589.75,-348.15 1552.25,-348.15"/>
<polygon fill="none" stroke="black" points="1552.25,-348.15 1552.25,-370.65 1589.75,-370.65 1589.75,-348.15 1552.25,-348.15"/>
<text text-anchor="start" x="1559.38" y="-354.35" font-family="Times New Roman,serif" font-size="14.00" fill="white">type</text>
</g>
<!-- TUPLE_TOP&#45;&gt;TUPLE1 -->
<g id="edge57" class="edge">
<title>TUPLE_TOP&#45;&gt;TUPLE1</title>
<path fill="none" stroke="black" d="M1615.85,-628.67C1608.11,-584.13 1588.01,-468.52 1577.55,-408.33"/>
<polygon fill="black" stroke="black" points="1581.01,-407.81 1575.85,-398.56 1574.12,-409.01 1581.01,-407.81"/>
</g>
<!-- TUPLE2 -->
<g id="node37" class="node">
<title>TUPLE2</title>
<polygon fill="none" stroke="none" points="1695,-408.4 1641,-408.4 1641,-332.9 1695,-332.9 1695,-408.4"/>
<polygon fill="pink" stroke="none" points="1649.25,-381.9 1649.25,-404.4 1686.75,-404.4 1686.75,-381.9 1649.25,-381.9"/>
<polygon fill="none" stroke="black" points="1649.25,-381.9 1649.25,-404.4 1686.75,-404.4 1686.75,-381.9 1649.25,-381.9"/>
<text text-anchor="start" x="1652.25" y="-388.1" font-family="Times New Roman,serif" font-size="14.00">Tuple</text>
<polygon fill="black" stroke="none" points="1649.25,-359.4 1649.25,-381.9 1686.75,-381.9 1686.75,-359.4 1649.25,-359.4"/>
<polygon fill="none" stroke="black" points="1649.25,-359.4 1649.25,-381.9 1686.75,-381.9 1686.75,-359.4 1649.25,-359.4"/>
<text text-anchor="start" x="1656.38" y="-365.6" font-family="Times New Roman,serif" font-size="14.00" fill="white">type</text>
<polygon fill="black" stroke="none" points="1649.25,-336.9 1649.25,-359.4 1686.75,-359.4 1686.75,-336.9 1649.25,-336.9"/>
<polygon fill="none" stroke="black" points="1649.25,-336.9 1649.25,-359.4 1686.75,-359.4 1686.75,-336.9 1649.25,-336.9"/>
<text text-anchor="start" x="1656.38" y="-343.1" font-family="Times New Roman,serif" font-size="14.00" fill="white">type</text>
</g>
<!-- TUPLE_TOP&#45;&gt;TUPLE2 -->
<g id="edge58" class="edge">
<title>TUPLE_TOP&#45;&gt;TUPLE2</title>
<path fill="none" stroke="black" d="M1622.22,-628.67C1629.67,-586.65 1648.35,-481.4 1659.41,-419.08"/>
<polygon fill="black" stroke="black" points="1662.81,-419.91 1661.11,-409.46 1655.92,-418.69 1662.81,-419.91"/>
</g>
<!-- TUPLEN -->
<g id="node38" class="node">
<title>TUPLEN</title>
<polygon fill="none" stroke="none" points="1792,-419.65 1738,-419.65 1738,-321.65 1792,-321.65 1792,-419.65"/>
<polygon fill="pink" stroke="none" points="1746.25,-393.15 1746.25,-415.65 1783.75,-415.65 1783.75,-393.15 1746.25,-393.15"/>
<polygon fill="none" stroke="black" points="1746.25,-393.15 1746.25,-415.65 1783.75,-415.65 1783.75,-393.15 1746.25,-393.15"/>
<text text-anchor="start" x="1749.25" y="-399.35" font-family="Times New Roman,serif" font-size="14.00">Tuple</text>
<polygon fill="black" stroke="none" points="1746.25,-370.65 1746.25,-393.15 1783.75,-393.15 1783.75,-370.65 1746.25,-370.65"/>
<polygon fill="none" stroke="black" points="1746.25,-370.65 1746.25,-393.15 1783.75,-393.15 1783.75,-370.65 1746.25,-370.65"/>
<text text-anchor="start" x="1753.38" y="-376.85" font-family="Times New Roman,serif" font-size="14.00" fill="white">type</text>
<polygon fill="black" stroke="none" points="1746.25,-348.15 1746.25,-370.65 1783.75,-370.65 1783.75,-348.15 1746.25,-348.15"/>
<polygon fill="none" stroke="black" points="1746.25,-348.15 1746.25,-370.65 1783.75,-370.65 1783.75,-348.15 1746.25,-348.15"/>
<text text-anchor="start" x="1759.38" y="-354.35" font-family="Times New Roman,serif" font-size="14.00" fill="white">...</text>
<polygon fill="black" stroke="none" points="1746.25,-325.65 1746.25,-348.15 1783.75,-348.15 1783.75,-325.65 1746.25,-325.65"/>
<polygon fill="none" stroke="black" points="1746.25,-325.65 1746.25,-348.15 1783.75,-348.15 1783.75,-325.65 1746.25,-325.65"/>
<text text-anchor="start" x="1753.38" y="-331.85" font-family="Times New Roman,serif" font-size="14.00" fill="white">type</text>
</g>
<!-- TUPLE_TOP&#45;&gt;TUPLEN -->
<g id="edge59" class="edge">
<title>TUPLE_TOP&#45;&gt;TUPLEN</title>
<path fill="none" stroke="black" d="M1628.36,-629.1C1649.26,-589.55 1700.57,-492.51 1734.02,-429.24"/>
<polygon fill="black" stroke="black" points="1736.95,-431.2 1738.53,-420.73 1730.76,-427.93 1736.95,-431.2"/>
</g>
<!-- TUPLE_BOT -->
<g id="node35" class="node">
<title>TUPLE_BOT</title>
<ellipse fill="pink" stroke="black" cx="1619" cy="-104.75" rx="42.65" ry="18"/>
<text text-anchor="start" x="1595.75" y="-100.7" font-family="Times New Roman,serif" font-weight="bold" font-size="14.00">⊥</text>
<text text-anchor="start" x="1611.5" y="-100.7" font-family="Times New Roman,serif" font-size="14.00">:tuple</text>
</g>
<!-- TUPLE_BOT&#45;&gt;BOT -->
<g id="edge63" class="edge">
<title>TUPLE_BOT&#45;&gt;BOT</title>
<path fill="none" stroke="black" d="M1577.91,-99.5C1438.76,-85.13 986.93,-38.44 861.54,-25.49"/>
<polygon fill="black" stroke="black" points="861.93,-22.01 851.62,-24.46 861.21,-28.97 861.93,-22.01"/>
</g>
<!-- TUPLE1&#45;&gt;TUPLE_BOT -->
<g id="edge60" class="edge">
<title>TUPLE1&#45;&gt;TUPLE_BOT</title>
<path fill="none" stroke="black" d="M1575.78,-344.18C1584.8,-294.22 1604.27,-186.34 1613.69,-134.18"/>
<polygon fill="black" stroke="black" points="1617.09,-135.01 1615.43,-124.55 1610.21,-133.77 1617.09,-135.01"/>
</g>
<!-- TUPLE2&#45;&gt;TUPLE_BOT -->
<g id="edge61" class="edge">
<title>TUPLE2&#45;&gt;TUPLE_BOT</title>
<path fill="none" stroke="black" d="M1661.08,-333.12C1651.23,-279.67 1633.37,-182.73 1624.42,-134.16"/>
<polygon fill="black" stroke="black" points="1627.87,-133.59 1622.62,-124.39 1620.99,-134.86 1627.87,-133.59"/>
</g>
<!-- TUPLEN&#45;&gt;TUPLE_BOT -->
<g id="edge62" class="edge">
<title>TUPLEN&#45;&gt;TUPLE_BOT</title>
<path fill="none" stroke="black" d="M1738.22,-321.88C1707.66,-266.22 1658.74,-177.12 1634.15,-132.34"/>
<polygon fill="black" stroke="black" points="1637.34,-130.87 1629.45,-123.79 1631.2,-134.24 1637.34,-130.87"/>
</g>
</g>
</svg>
