<svg aria-label="Compiler graph" width="1084" height="437" xmlns="http://www.w3.org/2000/svg" viewBox="0 0 1084 437" style="font-family: sans-serif;"><style>
    html, body { height:100%; margin:0; font-family:sans-serif; }
    .viewer { height:100%; display:grid; grid-template-rows:auto minmax(0,1fr) auto; }
    .source { padding:8px; border-bottom:1px solid #ccc; }
    #program { width:min(600px,80vw); vertical-align:middle; }
    #status { margin-top:4px; }
    #graph { min-height:0; overflow:hidden; position:relative; background:#fafbfc; }
    #elk { width:100%; height:100%; }
    #graph svg { display:block; }
    .tools { display:flex; flex-wrap:wrap; align-items:center; gap:14px; margin-top:8px; font-size:12px; }
    .hint { color:#616c78; }
    .ctrl { color:#b63838; } .mem { color:#2867b2; } .data { color:#536477; }
    .edge { fill:none; stroke-width:1.5; }
    .edge.CTRL { stroke-width:2; }
    .edge.ASSOC { stroke-dasharray:4 4; }
    .edge.PARSER { stroke-dasharray:5 4; }
    .parser rect { fill:#f6f0ff; stroke:#7956a5; stroke-width:1.5; stroke-dasharray:5 4; }
    .edge.selected { stroke-width:3.5; }
    .edge.bundle { stroke-width:4; }
    .edge.bundle.selected { stroke-width:6; }
    .edge-hit { fill:none; stroke:transparent; stroke-width:12; vector-effect:non-scaling-stroke; pointer-events:stroke; cursor:pointer; }
    .edge-jump { fill:transparent; pointer-events:all; cursor:pointer; }
    .node { cursor:pointer; }
    .box { stroke:#758191; stroke-width:1; }
    .node.held .box { stroke-dasharray:5 3; }
    .node.near .box { stroke:#c18221; stroke-width:2; }
    .node.focus .box { stroke:#9c4900; stroke-width:3; }
    .node.selected .box { stroke:#1569b9; stroke-width:3; }
    .node.folded .box { stroke-width:4; }
    .node.folding .box { fill:#f4ccd7; }
    .fold-tag { font-size:9px; font-weight:700; fill:#963751; }
    .peep-area { fill:#fff3d9; fill-opacity:.8; stroke:#c18221; stroke-width:2; pointer-events:none; }
    .node.peep-edit .box { stroke:#9c4900; stroke-width:3; }
    .node.error .box { stroke:#b42318; stroke-width:4; }
    #event.error { color:#b42318; font-weight:600; white-space:pre-wrap; overflow-wrap:anywhere; }
    .peep-ghosts { pointer-events:none; }
    .region-box { stroke:#9da9b8; stroke-width:1.5; }
    .fold-btn { cursor:pointer; }
    .fold-btn rect { fill:white; stroke:#596674; }
    .fold-btn text { font-size:14px; fill:#152330; }
    .fold-btn:focus rect { stroke:#1569b9; stroke-width:2; }
    .shortcut { cursor:pointer; }
    .shortcut path { fill:none; stroke-width:1.5; }
    .shortcut rect { fill:#fff8ec; stroke:#b63838; stroke-dasharray:3 2; }
    .shortcut text { font-size:11px; fill:#783030; }
    .shortcut.selected rect, .shortcut:focus rect { stroke-width:2.5; }
    .label { font-size:12px; fill:#152330; font-weight:600; }
    .node-id { font-size:10px; fill:#596674; font-weight:400; }
    .type { font-size:11px; fill:#455768; }
    .port { stroke:#536477; stroke-width:1; }
    .row { stroke:#b6afcf; stroke-width:1; }
    .bind { font-size:12px; fill:#152330; }
    .slot { font-size:10px; fill:#364352; paint-order:stroke; stroke:#fafbfc; stroke-width:3; }
    #detail { position:absolute; top:8px; right:8px; margin:0; padding:12px; max-width:320px;
      max-height:45%; overflow:auto; white-space:pre-wrap; overflow-wrap:anywhere;
      background:#fffffff2; border:1px solid #bac5d0; border-radius:4px; font-size:12px; }
    .controls { display:flex; flex-wrap:wrap; justify-content:center; align-items:center; gap:6px; padding:6px; }
    .button { color:white; background:black; font-size:20px; min-width:30px; }
    .button:disabled { background:grey; }
    .count { font-size:20px; min-width:35px; text-align:center; }
    #N { width:6ch; }
    #scrub { width:clamp(120px,35vw,600px); }
  </style><defs><marker id="arrow-CTRL" viewBox="0 -4 8 8" refX="8" refY="0" markerWidth="7" markerHeight="7" orient="auto-start-reverse"><path d="M0,-4L8,0L0,4Z" fill="#b63838"/></marker><marker id="arrow-DATA" viewBox="0 -4 8 8" refX="8" refY="0" markerWidth="7" markerHeight="7" orient="auto-start-reverse"><path d="M0,-4L8,0L0,4Z" fill="#536477"/></marker><marker id="arrow-MEM" viewBox="0 -4 8 8" refX="8" refY="0" markerWidth="7" markerHeight="7" orient="auto-start-reverse"><path d="M0,-4L8,0L0,4Z" fill="#2867b2"/></marker><marker id="arrow-ASSOC" viewBox="0 -4 8 8" refX="8" refY="0" markerWidth="7" markerHeight="7" orient="auto-start-reverse"><path d="M0,-4L8,0L0,4Z" fill="#9396a3"/></marker><marker id="arrow-PARSER" viewBox="0 -4 8 8" refX="8" refY="0" markerWidth="7" markerHeight="7" orient="auto-start-reverse"><path d="M0,-4L8,0L0,4Z" fill="#7956a5"/></marker></defs><rect width="100%" height="100%" fill="rgb(250, 251, 252)"/><g><g class="regions" style="opacity: 1;"><g class="region" transform="translate(298,133)"><rect class="region-box" rx="8" width="459" height="206" fill="#fff8ec"/></g></g><rect class="peep-area" rx="36" style="opacity: 0;"/><g class="edges"><path class="edge CTRL" id="e3i0" d="M407,324 C407,348 542,363 542,387" stroke="#b63838" marker-start="url(#arrow-CTRL)" style="opacity: 1;"><title>#3[0] → #14 · CTRL</title></path><path class="edge ASSOC" id="e4i0" d="M390,77 C390,101 236,3 236,27" stroke="#9396a3" marker-start="url(#arrow-ASSOC)" style="opacity: 1;"><title>#4[0] → #2 · ASSOC</title></path><path class="edge ASSOC" id="e5i0" d="M390,77 C390,101 84,3 84,27" stroke="#9396a3" marker-start="url(#arrow-ASSOC)" style="opacity: 1;"><title>#5[0] → #2 · ASSOC</title></path><path class="edge ASSOC" id="e6i0" d="M390,77 C390,101 696,3 696,27" stroke="#9396a3" marker-start="url(#arrow-ASSOC)" style="opacity: 1;"><title>#6[0] → #2 · ASSOC</title></path><path class="edge ASSOC" id="e7i0" d="M390,77 C390,101 848,3 848,27" stroke="#9396a3" marker-start="url(#arrow-ASSOC)" style="opacity: 1;"><title>#7[0] → #2 · ASSOC</title></path><path class="edge CTRL" id="e8i1" d="M390,80 L390,167" stroke="#b63838" marker-start="url(#arrow-CTRL)" style="opacity: 1;"><title>#8[1] → #2 · CTRL</title></path><path class="edge ASSOC" id="e9i0" d="M390,77 C390,101 544,3 544,27" stroke="#9396a3" marker-start="url(#arrow-ASSOC)" style="opacity: 1;"><title>#9[0] → #2 · ASSOC</title></path><path class="edge DATA" id="e10i1" d="M544,80 L544,85 Q544,90 539,90 L530,90 Q522,90 522,98 L522,167" stroke="#536477" marker-start="url(#arrow-DATA)" style="opacity: 1;"><title>#10[1] → #9 · DATA</title></path><path class="edge CTRL" id="e14i0" d="M370,223 L370,271" stroke="#b63838" marker-start="url(#arrow-CTRL)" style="opacity: 1;"><title>#14[0] → #8 · CTRL</title></path><path class="edge MEM" id="e14i1" d="M674,223 L674,228 Q674,233 669,233 L403,233 Q395,233 395,241 L395,271" stroke="#2867b2" marker-start="url(#arrow-MEM)" style="opacity: 1;"><title>#14[1] → #16 · MEM</title></path><path class="edge DATA" id="e14i2" d="M1000,80 L1000,92 Q1000,100 992,100 L752,100 Q744,100 744,108 L744,235 Q744,243 736,243 L427,243 Q419,243 419,251 L419,271" stroke="#536477" marker-start="url(#arrow-DATA)" style="opacity: 1;"><title>#14[2] → #66 · DATA</title></path><path class="edge DATA" id="e14i3" d="M522,223 L522,245 Q522,253 514,253 L452,253 Q444,253 444,261 L444,271" stroke="#536477" marker-start="url(#arrow-DATA)" style="opacity: 1;"><title>#14[3] → #10 · DATA</title></path><path class="edge MEM" id="e16i1" d="M848,80 L848,85 Q848,90 843,90 L682,90 Q674,90 674,98 L674,167" stroke="#2867b2" marker-start="url(#arrow-MEM)" style="opacity: 1;"><title>#16[1] → #7 · MEM</title></path><path class="edge ASSOC" id="e66i0" d="M390,77 C390,101 1000,3 1000,27" stroke="#9396a3" marker-start="url(#arrow-ASSOC)" style="opacity: 1;"><title>#66[0] → #2 · ASSOC</title></path></g><g class="edge-hits"/><g class="parser" style="opacity: 1;"/><g class="nodes"><g class="node" id="n2" data-id="2" transform="translate(328,30)" style="opacity: 1;"><path class="box" d="M0,0H124V44H0Z" fill="#fff1c4"/><text class="label" text-anchor="middle" x="62" y="18"><tspan>Start</tspan><tspan class="node-id">  #2</tspan></text><text class="type" text-anchor="middle" y="35" x="62">[ Ctrl, MemBot, int]</text><title>#2 Start
[  Ctrl, MemBot, int]

[0] → —  ASSOC
[1] → —  CTRL
[2] → —  CTRL</title><circle class="port" cx="31" cy="-3" r="3" fill="white"/><circle class="port" cx="62" cy="-3" r="3" fill="white"/><circle class="port" cx="93" cy="-3" r="3" fill="white"/><text class="slot" x="31" y="-10" text-anchor="middle">0</text><text class="slot" x="62" y="-10" text-anchor="middle">1</text><text class="slot" x="93" y="-10" text-anchor="middle">2</text></g><g class="node" id="n3" data-id="3" transform="translate(506,387)" style="opacity: 1;"><path class="box" d="M0,0H72V26H0Z" fill="#fff1c4"/><text class="label" text-anchor="middle" x="36" y="17"><tspan>Stop</tspan><tspan class="node-id">  #3</tspan></text><text class="type" text-anchor="middle" y="35" x="36"/><title>#3 Stop
Bot

[0] → #14  CTRL</title><circle class="port" cx="36" cy="0" r="3" fill="#536477"/><text class="slot" x="36" y="-7" text-anchor="middle">0</text></g><g class="node" id="n4" data-id="4" transform="translate(176,30)" style="opacity: 1;"><path class="box" d="M14,0H106Q120,0 120,14V30Q120,44 106,44H14Q0,44 0,30V14Q0,0 14,0Z" fill="#edf3f7"/><text class="label" text-anchor="middle" x="60" y="18"><tspan>Con</tspan><tspan class="node-id">  #4</tspan></text><text class="type" text-anchor="middle" y="35" x="60">0</text><title>#4 Con
0

[0] → #2  ASSOC</title><circle class="port" cx="60" cy="-3" r="3" fill="#536477"/><text class="slot" x="60" y="-10" text-anchor="middle">0</text></g><g class="node" id="n5" data-id="5" transform="translate(24,30)" style="opacity: 1;"><path class="box" d="M14,0H106Q120,0 120,14V30Q120,44 106,44H14Q0,44 0,30V14Q0,0 14,0Z" fill="#edf3f7"/><text class="label" text-anchor="middle" x="60" y="18"><tspan>Con</tspan><tspan class="node-id">  #5</tspan></text><text class="type" text-anchor="middle" y="35" x="60">null</text><title>#5 Con
null

[0] → #2  ASSOC</title><circle class="port" cx="60" cy="-3" r="3" fill="#536477"/><text class="slot" x="60" y="-10" text-anchor="middle">0</text></g><g class="node" id="n6" data-id="6" transform="translate(636,30)" style="opacity: 1;"><path class="box" d="M0,0H120V44H0Z" fill="#fff1c4"/><text class="label" text-anchor="middle" x="60" y="18"><tspan>Xctrl</tspan><tspan class="node-id">  #6</tspan></text><text class="type" text-anchor="middle" y="35" x="60">~Ctrl</text><title>#6 Xctrl
~Ctrl

[0] → #2  ASSOC</title><circle class="port" cx="60" cy="-3" r="3" fill="#536477"/><text class="slot" x="60" y="-10" text-anchor="middle">0</text></g><g class="node" id="n7" data-id="7" transform="translate(788,30)" style="opacity: 1;"><path class="box" d="M10,0H110L120,10V34L110,44H10L0,34V10Z" fill="#dcecff"/><text class="label" text-anchor="middle" x="60" y="18"><tspan>Con</tspan><tspan class="node-id">  #7</tspan></text><text class="type" text-anchor="middle" y="35" x="60">MemBot</text><title>#7 Con
MemBot

[0] → #2  ASSOC</title><circle class="port" cx="60" cy="-3" r="3" fill="#536477"/><text class="slot" x="60" y="-10" text-anchor="middle">0</text></g><g class="node" id="n8" data-id="8" transform="translate(310,173)" style="opacity: 1;"><path class="box" d="M10,0H110L120,10V34L110,44H10L0,34V10Z" fill="#ffe0ab"/><text class="label" text-anchor="middle" x="60" y="18"><tspan>main</tspan><tspan class="node-id">  #8</tspan></text><text class="type" text-anchor="middle" y="35" x="60">Ctrl</text><title>#8 main
Ctrl

[0] → —  ASSOC
[1] → #2  CTRL</title><circle class="port" cx="40" cy="-3" r="3" fill="white"/><circle class="port" cx="80" cy="-3" r="3" fill="#536477"/><text class="slot" x="40" y="-10" text-anchor="middle">0</text><text class="slot" x="80" y="-10" text-anchor="middle">1</text></g><g class="node" id="n9" data-id="9" transform="translate(484,30)" style="opacity: 1;"><path class="box" d="M14,0H106Q120,0 120,14V30Q120,44 106,44H14Q0,44 0,30V14Q0,0 14,0Z" fill="#edf3f7"/><text class="label" text-anchor="middle" x="60" y="18"><tspan>Con</tspan><tspan class="node-id">  #9</tspan></text><text class="type" text-anchor="middle" y="35" x="60">$[ALL]</text><title>#9 Con
$[ALL]

[0] → #2  ASSOC</title><circle class="port" cx="60" cy="-3" r="3" fill="#536477"/><text class="slot" x="60" y="-10" text-anchor="middle">0</text></g><g class="node" id="n10" data-id="10" transform="translate(462,173)" style="opacity: 1;"><path class="box" d="M12,0H108L120,22L108,44H12L0,22Z" fill="#f5e4fa"/><text class="label" text-anchor="middle" x="60" y="18"><tspan>$rpc</tspan><tspan class="node-id">  #10</tspan></text><text class="type" text-anchor="middle" y="35" x="60">$[ALL]</text><title>#10 $rpc
$[ALL]

[0] → #8  ASSOC
[1] → #9  DATA</title><circle class="port" cx="-3" cy="22" r="3" fill="#536477"/><circle class="port" cx="60" cy="-3" r="3" fill="#536477"/><path class="reg" fill="none" stroke="#b63838" d="M-3,22H-18m4,-3l-4,3l4,3"><title>[0] → #8</title></path><text class="slot" x="-10" y="15" text-anchor="middle">0</text><text class="slot" x="60" y="-10" text-anchor="middle">1</text></g><g class="node" id="n14" data-id="14" transform="translate(345,277)" style="opacity: 1;"><path class="box" d="M0,0H124V44H0Z" fill="#fff1c4"/><text class="label" text-anchor="middle" x="62" y="18"><tspan>Return</tspan><tspan class="node-id">  #14</tspan></text><text class="type" text-anchor="middle" y="35" x="62">[ Ctrl, MemBot, 11]</text><title>#14 Return
[  Ctrl, MemBot, 11]

[0] → #8  CTRL
[1] → #16  MEM
[2] → #66  DATA
[3] → #10  DATA</title><circle class="port" cx="25" cy="-3" r="3" fill="#536477"/><circle class="port" cx="50" cy="-3" r="3" fill="#536477"/><circle class="port" cx="74" cy="-3" r="3" fill="#536477"/><circle class="port" cx="99" cy="-3" r="3" fill="#536477"/><text class="slot" x="25" y="-10" text-anchor="middle">0</text><text class="slot" x="50" y="-10" text-anchor="middle">1</text><text class="slot" x="74" y="-10" text-anchor="middle">2</text><text class="slot" x="99" y="-10" text-anchor="middle">3</text></g><g class="node" id="n16" data-id="16" transform="translate(614,173)" style="opacity: 1;"><path class="box" d="M12,0H108L120,22L108,44H12L0,22Z" fill="#f5e4fa"/><text class="label" text-anchor="middle" x="60" y="18"><tspan>$mem</tspan><tspan class="node-id">  #16</tspan></text><text class="type" text-anchor="middle" y="35" x="60">MemBot</text><title>#16 $mem
MemBot

[0] → #8  ASSOC
[1] → #7  MEM</title><circle class="port" cx="-3" cy="22" r="3" fill="#536477"/><circle class="port" cx="60" cy="-3" r="3" fill="#536477"/><path class="reg" fill="none" stroke="#b63838" d="M-3,22H-18m4,-3l-4,3l4,3"><title>[0] → #8</title></path><text class="slot" x="-10" y="15" text-anchor="middle">0</text><text class="slot" x="60" y="-10" text-anchor="middle">1</text></g><g class="node" id="n66" data-id="66" transform="translate(940,30)" style="opacity: 1;"><path class="box" d="M14,0H106Q120,0 120,14V30Q120,44 106,44H14Q0,44 0,30V14Q0,0 14,0Z" fill="#edf3f7"/><text class="label" text-anchor="middle" x="60" y="18"><tspan>Con</tspan><tspan class="node-id">  #66</tspan></text><text class="type" text-anchor="middle" y="35" x="60">11</text><title>#66 Con
11

[0] → #2  ASSOC</title><circle class="port" cx="60" cy="-3" r="3" fill="#536477"/><text class="slot" x="60" y="-10" text-anchor="middle">0</text></g></g><g class="region-heads" style="opacity: 1;"><g class="region-head" transform="translate(298,133)"><text class="label" x="26" y="17"><tspan>main</tspan><tspan class="node-id">  #8</tspan></text><title>main · 4 nodes</title><g class="fold-btn" role="button" tabindex="0" transform="translate(4,4)" aria-label="Fold region #8"><rect width="16" height="16" rx="2"/><text x="8" y="12" text-anchor="middle">−</text><title>Fold region</title></g></g></g><g class="shortcuts" style="opacity: 1;"/><g class="peep-ghosts" pointer-events="none"/></g></svg>
