<?xml version="1.0" encoding="UTF-8" standalone="no"?>
<!DOCTYPE svg PUBLIC "-//W3C//DTD SVG 1.1//EN"
 "http://www.w3.org/Graphics/SVG/1.1/DTD/svg11.dtd">
<!-- Generated by graphviz version 2.43.0 (0)
 -->
<!-- Title: Lattice Pages: 1 -->
<svg width="1642pt" height="763pt"
 viewBox="0.00 0.00 1642.20 763.45" xmlns="http://www.w3.org/2000/svg" xmlns:xlink="http://www.w3.org/1999/xlink">
<g id="graph0" class="graph" transform="scale(1 1) rotate(0) translate(4 759.45)">
<title>Lattice</title>
<polygon fill="white" stroke="transparent" points="-4,4 -4,-759.45 1638.2,-759.45 1638.2,4 -4,4"/>
<!-- TOP -->
<g id="node1" class="node">
<title>TOP</title>
<ellipse fill="lightblue" stroke="black" cx="712.5" cy="-735.95" rx="19.5" ry="19.5"/>
<text text-anchor="middle" x="712.5" y="-732.25" font-family="Times,serif" font-size="14.00">⊤</text>
</g>
<!-- CTRL -->
<g id="node3" class="node">
<title>CTRL</title>
<ellipse fill="lightblue" stroke="black" cx="53.5" cy="-616.76" rx="28.7" ry="28.7"/>
<text text-anchor="middle" x="53.5" y="-613.06" font-family="Times,serif" font-size="14.00">Ctrl</text>
</g>
<!-- TOP&#45;&gt;CTRL -->
<g id="edge1" class="edge">
<title>TOP&#45;&gt;CTRL</title>
<path fill="none" stroke="black" d="M693.49,-731.57C600.42,-715.02 192.88,-642.55 81.64,-622.77"/>
</g>
<!-- INT_TOP -->
<g id="node5" class="node">
<title>INT_TOP</title>
<ellipse fill="lightblue" stroke="black" cx="326.5" cy="-616.76" rx="40.09" ry="40.09"/>
<text text-anchor="middle" x="326.5" y="-613.06" font-family="Times,serif" font-size="14.00">IntTop</text>
</g>
<!-- TOP&#45;&gt;INT_TOP -->
<g id="edge4" class="edge">
<title>TOP&#45;&gt;INT_TOP</title>
<path fill="none" stroke="black" d="M694.14,-729.38C634.66,-711.32 446.38,-654.16 364.81,-629.39"/>
</g>
<!-- TUPLE -->
<g id="node14" class="node">
<title>TUPLE</title>
<ellipse fill="lightblue" stroke="black" cx="654.5" cy="-382.93" rx="43.59" ry="43.59"/>
<text text-anchor="middle" x="654.5" y="-379.23" font-family="Times,serif" font-size="14.00">TUPLE</text>
</g>
<!-- TOP&#45;&gt;TUPLE -->
<g id="edge26" class="edge">
<title>TOP&#45;&gt;TUPLE</title>
<path fill="none" stroke="black" d="M709.3,-716.47C700.24,-661.33 674.25,-503.18 661.6,-426.14"/>
</g>
<!-- STRUCT_TOP -->
<g id="node15" class="node">
<title>STRUCT_TOP</title>
<ellipse fill="lightblue" stroke="black" cx="763.5" cy="-616.76" rx="36.29" ry="36.29"/>
<text text-anchor="middle" x="763.5" y="-613.06" font-family="Times,serif" font-size="14.00">$TOP</text>
</g>
<!-- TOP&#45;&gt;STRUCT_TOP -->
<g id="edge28" class="edge">
<title>TOP&#45;&gt;STRUCT_TOP</title>
<path fill="none" stroke="black" d="M719.91,-717.91C727.59,-700.26 739.78,-672.26 749.32,-650.34"/>
</g>
<!-- PTR_TOP -->
<g id="node19" class="node">
<title>PTR_TOP</title>
<ellipse fill="lightblue" stroke="black" cx="1039.5" cy="-616.76" rx="40.09" ry="40.09"/>
<text text-anchor="middle" x="1039.5" y="-613.06" font-family="Times,serif" font-size="14.00">*$TOP</text>
</g>
<!-- TOP&#45;&gt;PTR_TOP -->
<g id="edge34" class="edge">
<title>TOP&#45;&gt;PTR_TOP</title>
<path fill="none" stroke="black" d="M730.54,-728.49C782.16,-709.99 931.2,-656.58 1001.69,-631.31"/>
</g>
<!-- MEM_TOP -->
<g id="node27" class="node">
<title>MEM_TOP</title>
<ellipse fill="lightblue" stroke="black" cx="1419.5" cy="-616.76" rx="63.89" ry="63.89"/>
<text text-anchor="middle" x="1419.5" y="-613.06" font-family="Times,serif" font-size="14.00">MEM#TOP</text>
</g>
<!-- TOP&#45;&gt;MEM_TOP -->
<g id="edge50" class="edge">
<title>TOP&#45;&gt;MEM_TOP</title>
<path fill="none" stroke="black" d="M731.78,-731.76C822.02,-716.8 1204.7,-653.37 1356.8,-628.15"/>
</g>
<!-- BOT -->
<g id="node2" class="node">
<title>BOT</title>
<ellipse fill="lightblue" stroke="black" cx="712.5" cy="-19.5" rx="19.5" ry="19.5"/>
<text text-anchor="middle" x="712.5" y="-15.8" font-family="Times,serif" font-size="14.00">⊥</text>
</g>
<!-- XCTRL -->
<g id="node4" class="node">
<title>XCTRL</title>
<ellipse fill="lightblue" stroke="black" cx="49.5" cy="-138.69" rx="36.29" ry="36.29"/>
<text text-anchor="middle" x="49.5" y="-134.99" font-family="Times,serif" font-size="14.00">~Ctrl</text>
</g>
<!-- CTRL&#45;&gt;XCTRL -->
<g id="edge2" class="edge">
<title>CTRL&#45;&gt;XCTRL</title>
<path fill="none" stroke="black" d="M53.26,-587.93C52.56,-505.16 50.57,-266.88 49.8,-175.22"/>
</g>
<!-- XCTRL&#45;&gt;BOT -->
<g id="edge3" class="edge">
<title>XCTRL&#45;&gt;BOT</title>
<path fill="none" stroke="black" d="M85.61,-131.31C207.62,-109.74 601.93,-40.04 693.42,-23.87"/>
</g>
<!-- INT_MIN -->
<g id="node7" class="node">
<title>INT_MIN</title>
<ellipse fill="lightblue" stroke="black" cx="19.5" cy="-382.93" rx="19.5" ry="19.5"/>
<text text-anchor="middle" x="19.5" y="-379.23" font-family="Times,serif" font-size="14.00">&#45;n</text>
</g>
<!-- INT_TOP&#45;&gt;INT_MIN -->
<g id="edge5" class="edge">
<title>INT_TOP&#45;&gt;INT_MIN</title>
<path fill="none" stroke="black" d="M294.22,-592.18C228.95,-542.46 83.38,-431.58 35.27,-394.94"/>
</g>
<!-- INT_MINDOTS -->
<g id="node8" class="node">
<title>INT_MINDOTS</title>
<text text-anchor="middle" x="108.5" y="-379.23" font-family="Times,serif" font-size="14.00">...</text>
</g>
<!-- INT_TOP&#45;&gt;INT_MINDOTS -->
<g id="edge6" class="edge">
<title>INT_TOP&#45;&gt;INT_MINDOTS</title>
<path fill="none" stroke="black" d="M298.89,-587.15C253.17,-538.11 163.09,-441.48 125.55,-401.21"/>
</g>
<!-- INT_MINUS -->
<g id="node9" class="node">
<title>INT_MINUS</title>
<ellipse fill="lightblue" stroke="black" cx="197.5" cy="-382.93" rx="19.5" ry="19.5"/>
<text text-anchor="middle" x="197.5" y="-379.23" font-family="Times,serif" font-size="14.00">&#45;1</text>
</g>
<!-- INT_TOP&#45;&gt;INT_MINUS -->
<g id="edge7" class="edge">
<title>INT_TOP&#45;&gt;INT_MINUS</title>
<path fill="none" stroke="black" d="M306.91,-581.25C278.78,-530.27 228.05,-438.3 207.02,-400.19"/>
</g>
<!-- INT_ZERO -->
<g id="node10" class="node">
<title>INT_ZERO</title>
<ellipse fill="lightblue" stroke="black" cx="281.5" cy="-382.93" rx="18" ry="18"/>
<text text-anchor="middle" x="281.5" y="-379.23" font-family="Times,serif" font-size="14.00">0</text>
</g>
<!-- INT_TOP&#45;&gt;INT_ZERO -->
<g id="edge8" class="edge">
<title>INT_TOP&#45;&gt;INT_ZERO</title>
<path fill="none" stroke="black" d="M318.86,-577.09C308.96,-525.63 292.1,-438 284.91,-400.65"/>
</g>
<!-- INT_PLUS -->
<g id="node11" class="node">
<title>INT_PLUS</title>
<ellipse fill="lightblue" stroke="black" cx="360.5" cy="-382.93" rx="18" ry="18"/>
<text text-anchor="middle" x="360.5" y="-379.23" font-family="Times,serif" font-size="14.00">1</text>
</g>
<!-- INT_TOP&#45;&gt;INT_PLUS -->
<g id="edge9" class="edge">
<title>INT_TOP&#45;&gt;INT_PLUS</title>
<path fill="none" stroke="black" d="M332.3,-576.83C339.78,-525.44 352.44,-438.31 357.89,-400.89"/>
</g>
<!-- INT_MAXDOTS -->
<g id="node12" class="node">
<title>INT_MAXDOTS</title>
<text text-anchor="middle" x="448.5" y="-379.23" font-family="Times,serif" font-size="14.00">...</text>
</g>
<!-- INT_TOP&#45;&gt;INT_MAXDOTS -->
<g id="edge10" class="edge">
<title>INT_TOP&#45;&gt;INT_MAXDOTS</title>
<path fill="none" stroke="black" d="M345.16,-580.99C371.59,-530.33 418.96,-439.55 439.06,-401.02"/>
</g>
<!-- INT_MAX -->
<g id="node13" class="node">
<title>INT_MAX</title>
<ellipse fill="lightblue" stroke="black" cx="543.5" cy="-382.93" rx="24.9" ry="24.9"/>
<text text-anchor="middle" x="543.5" y="-379.23" font-family="Times,serif" font-size="14.00">+n</text>
</g>
<!-- INT_TOP&#45;&gt;INT_MAX -->
<g id="edge11" class="edge">
<title>INT_TOP&#45;&gt;INT_MAX</title>
<path fill="none" stroke="black" d="M353.98,-587.15C399.49,-538.11 489.16,-441.48 526.53,-401.21"/>
</g>
<!-- INT_BOT -->
<g id="node6" class="node">
<title>INT_BOT</title>
<ellipse fill="lightblue" stroke="black" cx="326.5" cy="-138.69" rx="40.09" ry="40.09"/>
<text text-anchor="middle" x="326.5" y="-134.99" font-family="Times,serif" font-size="14.00">IntBot</text>
</g>
<!-- INT_BOT&#45;&gt;BOT -->
<g id="edge19" class="edge">
<title>INT_BOT&#45;&gt;BOT</title>
<path fill="none" stroke="black" d="M364.92,-126.03C446.54,-101.25 634.59,-44.15 694.09,-26.09"/>
</g>
<!-- INT_MIN&#45;&gt;INT_BOT -->
<g id="edge12" class="edge">
<title>INT_MIN&#45;&gt;INT_BOT</title>
<path fill="none" stroke="black" d="M35.14,-370.48C83.29,-332.18 229.87,-215.56 294.88,-163.85"/>
</g>
<!-- INT_MIN&#45;&gt;INT_MINDOTS -->
<!-- INT_MINDOTS&#45;&gt;INT_BOT -->
<g id="edge13" class="edge">
<title>INT_MINDOTS&#45;&gt;INT_BOT</title>
<path fill="none" stroke="black" d="M124.88,-364.57C162.21,-322.75 253.88,-220.05 299.63,-168.8"/>
</g>
<!-- INT_MINDOTS&#45;&gt;INT_MINUS -->
<!-- INT_MINUS&#45;&gt;INT_BOT -->
<g id="edge14" class="edge">
<title>INT_MINUS&#45;&gt;INT_BOT</title>
<path fill="none" stroke="black" d="M206.78,-365.36C227.8,-325.55 279.44,-227.78 307.54,-174.58"/>
</g>
<!-- INT_MINUS&#45;&gt;INT_ZERO -->
<!-- INT_ZERO&#45;&gt;INT_BOT -->
<g id="edge15" class="edge">
<title>INT_ZERO&#45;&gt;INT_BOT</title>
<path fill="none" stroke="black" d="M284.81,-364.97C292.01,-325.86 309.27,-232.2 319.17,-178.44"/>
</g>
<!-- INT_ZERO&#45;&gt;INT_PLUS -->
<!-- INT_PLUS&#45;&gt;INT_BOT -->
<g id="edge16" class="edge">
<title>INT_PLUS&#45;&gt;INT_BOT</title>
<path fill="none" stroke="black" d="M358,-364.97C352.57,-325.97 339.59,-232.73 332.1,-178.9"/>
</g>
<!-- INT_PLUS&#45;&gt;INT_MAXDOTS -->
<!-- INT_MAXDOTS&#45;&gt;INT_BOT -->
<g id="edge17" class="edge">
<title>INT_MAXDOTS&#45;&gt;INT_BOT</title>
<path fill="none" stroke="black" d="M439.33,-364.57C419.27,-324.41 371.17,-228.12 344.71,-175.15"/>
</g>
<!-- INT_MAXDOTS&#45;&gt;INT_MAX -->
<!-- INT_MAX&#45;&gt;INT_BOT -->
<g id="edge18" class="edge">
<title>INT_MAX&#45;&gt;INT_BOT</title>
<path fill="none" stroke="black" d="M526.83,-364.17C489.51,-322.17 398.97,-220.25 353.49,-169.08"/>
</g>
<!-- TUPLE&#45;&gt;BOT -->
<g id="edge27" class="edge">
<title>TUPLE&#45;&gt;BOT</title>
<path fill="none" stroke="black" d="M661.38,-339.81C674.01,-260.65 700.43,-95.1 709.43,-38.76"/>
</g>
<!-- STRUCT_S1 -->
<g id="node16" class="node">
<title>STRUCT_S1</title>
<ellipse fill="lightblue" stroke="black" cx="763.5" cy="-382.93" rx="23" ry="23"/>
<text text-anchor="middle" x="763.5" y="-379.23" font-family="Times,serif" font-size="14.00">S1</text>
</g>
<!-- STRUCT_TOP&#45;&gt;STRUCT_S1 -->
<g id="edge29" class="edge">
<title>STRUCT_TOP&#45;&gt;STRUCT_S1</title>
<path fill="none" stroke="black" d="M763.5,-580.22C763.5,-531.41 763.5,-446.38 763.5,-405.77"/>
</g>
<!-- STRUCT_S2 -->
<g id="node17" class="node">
<title>STRUCT_S2</title>
<ellipse fill="lightblue" stroke="black" cx="851.5" cy="-382.93" rx="23" ry="23"/>
<text text-anchor="middle" x="851.5" y="-379.23" font-family="Times,serif" font-size="14.00">S2</text>
</g>
<!-- STRUCT_TOP&#45;&gt;STRUCT_S2 -->
<g id="edge30" class="edge">
<title>STRUCT_TOP&#45;&gt;STRUCT_S2</title>
<path fill="none" stroke="black" d="M776.48,-582.26C794.94,-533.22 828.2,-444.83 843.46,-404.29"/>
</g>
<!-- STRUCT_BOT -->
<g id="node18" class="node">
<title>STRUCT_BOT</title>
<ellipse fill="lightblue" stroke="black" cx="763.5" cy="-138.69" rx="36.29" ry="36.29"/>
<text text-anchor="middle" x="763.5" y="-134.99" font-family="Times,serif" font-size="14.00">$BOT</text>
</g>
<!-- STRUCT_S1&#45;&gt;STRUCT_BOT -->
<g id="edge31" class="edge">
<title>STRUCT_S1&#45;&gt;STRUCT_BOT</title>
<path fill="none" stroke="black" d="M763.5,-359.95C763.5,-317.44 763.5,-226.2 763.5,-175.16"/>
</g>
<!-- STRUCT_S2&#45;&gt;STRUCT_BOT -->
<g id="edge32" class="edge">
<title>STRUCT_S2&#45;&gt;STRUCT_BOT</title>
<path fill="none" stroke="black" d="M843.69,-361.25C828.38,-318.76 794.31,-224.19 775.89,-173.08"/>
</g>
<!-- STRUCT_BOT&#45;&gt;BOT -->
<g id="edge33" class="edge">
<title>STRUCT_BOT&#45;&gt;BOT</title>
<path fill="none" stroke="black" d="M749.29,-105.05C739.8,-83.24 727.7,-55.42 720.02,-37.78"/>
</g>
<!-- PTR_NULL -->
<g id="node20" class="node">
<title>PTR_NULL</title>
<ellipse fill="lightblue" stroke="black" cx="1231.5" cy="-382.93" rx="28.7" ry="28.7"/>
<text text-anchor="middle" x="1231.5" y="-379.23" font-family="Times,serif" font-size="14.00">null</text>
</g>
<!-- PTR_TOP&#45;&gt;PTR_NULL -->
<g id="edge37" class="edge">
<title>PTR_TOP&#45;&gt;PTR_NULL</title>
<path fill="none" stroke="black" d="M1065.39,-585.23C1104.8,-537.23 1178.86,-447.03 1213.18,-405.23"/>
</g>
<!-- PTR_VOIDPTR -->
<g id="node21" class="node">
<title>PTR_VOIDPTR</title>
<ellipse fill="lightblue" stroke="black" cx="951.5" cy="-382.93" rx="34.39" ry="34.39"/>
<text text-anchor="middle" x="951.5" y="-379.23" font-family="Times,serif" font-size="14.00">*void</text>
</g>
<!-- PTR_TOP&#45;&gt;PTR_VOIDPTR -->
<g id="edge38" class="edge">
<title>PTR_TOP&#45;&gt;PTR_VOIDPTR</title>
<path fill="none" stroke="black" d="M1025.26,-578.93C1008.19,-533.56 979.86,-458.28 963.73,-415.42"/>
</g>
<!-- PTR_S1 -->
<g id="node22" class="node">
<title>PTR_S1</title>
<ellipse fill="lightblue" stroke="black" cx="1137.5" cy="-489.77" rx="27.1" ry="27.1"/>
<text text-anchor="middle" x="1137.5" y="-486.07" font-family="Times,serif" font-size="14.00">*S1</text>
</g>
<!-- PTR_TOP&#45;&gt;PTR_S1 -->
<g id="edge35" class="edge">
<title>PTR_TOP&#45;&gt;PTR_S1</title>
<path fill="none" stroke="black" d="M1063.98,-584.54C1081.78,-561.84 1105.4,-531.71 1121,-511.81"/>
</g>
<!-- PTR_S2 -->
<g id="node23" class="node">
<title>PTR_S2</title>
<ellipse fill="lightblue" stroke="black" cx="1039.5" cy="-489.77" rx="27.1" ry="27.1"/>
<text text-anchor="middle" x="1039.5" y="-486.07" font-family="Times,serif" font-size="14.00">*S2</text>
</g>
<!-- PTR_TOP&#45;&gt;PTR_S2 -->
<g id="edge36" class="edge">
<title>PTR_TOP&#45;&gt;PTR_S2</title>
<path fill="none" stroke="black" d="M1039.5,-576.21C1039.5,-557.05 1039.5,-534.53 1039.5,-517.43"/>
</g>
<!-- PTR_S1OPT -->
<g id="node24" class="node">
<title>PTR_S1OPT</title>
<ellipse fill="lightblue" stroke="black" cx="1150.5" cy="-270.88" rx="32.49" ry="32.49"/>
<text text-anchor="middle" x="1150.5" y="-267.18" font-family="Times,serif" font-size="14.00">*S1?</text>
</g>
<!-- PTR_NULL&#45;&gt;PTR_S1OPT -->
<g id="edge40" class="edge">
<title>PTR_NULL&#45;&gt;PTR_S1OPT</title>
<path fill="none" stroke="black" d="M1214.91,-359.39C1201.67,-341.41 1183.13,-316.21 1169.33,-297.47"/>
</g>
<!-- PTR_S2OPT -->
<g id="node25" class="node">
<title>PTR_S2OPT</title>
<ellipse fill="lightblue" stroke="black" cx="1042.5" cy="-270.88" rx="32.49" ry="32.49"/>
<text text-anchor="middle" x="1042.5" y="-267.18" font-family="Times,serif" font-size="14.00">*S2?</text>
</g>
<!-- PTR_NULL&#45;&gt;PTR_S2OPT -->
<g id="edge41" class="edge">
<title>PTR_NULL&#45;&gt;PTR_S2OPT</title>
<path fill="none" stroke="black" d="M1207.18,-367.76C1172.08,-347.33 1107.41,-309.67 1070.41,-288.13"/>
</g>
<!-- PTR_BOT -->
<g id="node26" class="node">
<title>PTR_BOT</title>
<ellipse fill="lightblue" stroke="black" cx="1042.5" cy="-138.69" rx="46.29" ry="46.29"/>
<text text-anchor="middle" x="1042.5" y="-134.99" font-family="Times,serif" font-size="14.00">*$BOT?</text>
</g>
<!-- PTR_NULL&#45;&gt;PTR_BOT -->
<g id="edge39" class="edge">
<title>PTR_NULL&#45;&gt;PTR_BOT</title>
<path fill="none" stroke="black" d="M1213.72,-359.95C1180.91,-317.56 1110.61,-226.71 1071.05,-175.59"/>
</g>
<!-- PTR_VOIDPTR&#45;&gt;PTR_BOT -->
<g id="edge46" class="edge">
<title>PTR_VOIDPTR&#45;&gt;PTR_BOT</title>
<path fill="none" stroke="black" d="M963.58,-350.49C979.73,-307.15 1008.39,-230.23 1026.37,-181.97"/>
</g>
<!-- PTR_S1&#45;&gt;PTR_VOIDPTR -->
<g id="edge43" class="edge">
<title>PTR_S1&#45;&gt;PTR_VOIDPTR</title>
<path fill="none" stroke="black" d="M1113.94,-475.49C1080.22,-456.48 1018.18,-421.52 981.31,-400.73"/>
</g>
<!-- PTR_S1&#45;&gt;PTR_S1OPT -->
<g id="edge42" class="edge">
<title>PTR_S1&#45;&gt;PTR_S1OPT</title>
<path fill="none" stroke="black" d="M1139.12,-462.49C1141.51,-422.15 1145.99,-346.71 1148.56,-303.5"/>
</g>
<!-- PTR_S2&#45;&gt;PTR_VOIDPTR -->
<g id="edge45" class="edge">
<title>PTR_S2&#45;&gt;PTR_VOIDPTR</title>
<path fill="none" stroke="black" d="M1022.32,-468.31C1008.32,-451.62 988.45,-427.95 973.32,-409.92"/>
</g>
<!-- PTR_S2&#45;&gt;PTR_S2OPT -->
<g id="edge44" class="edge">
<title>PTR_S2&#45;&gt;PTR_S2OPT</title>
<path fill="none" stroke="black" d="M1039.88,-462.05C1040.43,-421.67 1041.46,-346.81 1042.05,-303.72"/>
</g>
<!-- PTR_S1OPT&#45;&gt;PTR_BOT -->
<g id="edge47" class="edge">
<title>PTR_S1OPT&#45;&gt;PTR_BOT</title>
<path fill="none" stroke="black" d="M1130.18,-245.39C1113.69,-225.51 1090.2,-197.2 1071.69,-174.88"/>
</g>
<!-- PTR_S2OPT&#45;&gt;PTR_BOT -->
<g id="edge48" class="edge">
<title>PTR_S2OPT&#45;&gt;PTR_BOT</title>
<path fill="none" stroke="black" d="M1042.5,-238.37C1042.5,-222.41 1042.5,-202.75 1042.5,-185.19"/>
</g>
<!-- PTR_BOT&#45;&gt;BOT -->
<g id="edge49" class="edge">
<title>PTR_BOT&#45;&gt;BOT</title>
<path fill="none" stroke="black" d="M999.02,-122.25C926.03,-96.33 781.88,-45.14 730.89,-27.03"/>
</g>
<!-- MEM_ALIAS1 -->
<g id="node28" class="node">
<title>MEM_ALIAS1</title>
<ellipse fill="lightblue" stroke="black" cx="1327.5" cy="-382.93" rx="24.9" ry="24.9"/>
<text text-anchor="middle" x="1327.5" y="-379.23" font-family="Times,serif" font-size="14.00">#1</text>
</g>
<!-- MEM_TOP&#45;&gt;MEM_ALIAS1 -->
<g id="edge51" class="edge">
<title>MEM_TOP&#45;&gt;MEM_ALIAS1</title>
<path fill="none" stroke="black" d="M1396.16,-557.45C1376.84,-508.34 1350.4,-441.14 1336.65,-406.19"/>
</g>
<!-- MEM_ALIAS2 -->
<g id="node29" class="node">
<title>MEM_ALIAS2</title>
<ellipse fill="lightblue" stroke="black" cx="1419.5" cy="-382.93" rx="24.9" ry="24.9"/>
<text text-anchor="middle" x="1419.5" y="-379.23" font-family="Times,serif" font-size="14.00">#2</text>
</g>
<!-- MEM_TOP&#45;&gt;MEM_ALIAS2 -->
<g id="edge52" class="edge">
<title>MEM_TOP&#45;&gt;MEM_ALIAS2</title>
<path fill="none" stroke="black" d="M1419.5,-552.86C1419.5,-505 1419.5,-442.08 1419.5,-407.81"/>
</g>
<!-- MEM_ALIASDOTS -->
<g id="node30" class="node">
<title>MEM_ALIASDOTS</title>
<text text-anchor="middle" x="1514.5" y="-379.23" font-family="Times,serif" font-size="14.00">...</text>
</g>
<!-- MEM_TOP&#45;&gt;MEM_ALIASDOTS -->
<g id="edge53" class="edge">
<title>MEM_TOP&#45;&gt;MEM_ALIASDOTS</title>
<path fill="none" stroke="black" d="M1443.59,-557.45C1464.59,-505.77 1493.73,-434.05 1507.17,-400.97"/>
</g>
<!-- MEM_ALIASN -->
<g id="node31" class="node">
<title>MEM_ALIASN</title>
<ellipse fill="lightblue" stroke="black" cx="1609.5" cy="-382.93" rx="24.9" ry="24.9"/>
<text text-anchor="middle" x="1609.5" y="-379.23" font-family="Times,serif" font-size="14.00">#n</text>
</g>
<!-- MEM_TOP&#45;&gt;MEM_ALIASN -->
<g id="edge54" class="edge">
<title>MEM_TOP&#45;&gt;MEM_ALIASN</title>
<path fill="none" stroke="black" d="M1459.79,-567.17C1501.51,-515.82 1564.59,-438.2 1593.72,-402.34"/>
</g>
<!-- MEM_ALIAS1&#45;&gt;MEM_ALIAS2 -->
<!-- MEM_BOT -->
<g id="node32" class="node">
<title>MEM_BOT</title>
<ellipse fill="lightblue" stroke="black" cx="1421.5" cy="-138.69" rx="63.89" ry="63.89"/>
<text text-anchor="middle" x="1421.5" y="-134.99" font-family="Times,serif" font-size="14.00">MEM#BOT</text>
</g>
<!-- MEM_ALIAS1&#45;&gt;MEM_BOT -->
<g id="edge55" class="edge">
<title>MEM_ALIAS1&#45;&gt;MEM_BOT</title>
<path fill="none" stroke="black" d="M1336.51,-359.51C1350.69,-322.67 1378.64,-250.06 1398.61,-198.16"/>
</g>
<!-- MEM_ALIAS2&#45;&gt;MEM_ALIASDOTS -->
<!-- MEM_ALIAS2&#45;&gt;MEM_BOT -->
<g id="edge56" class="edge">
<title>MEM_ALIAS2&#45;&gt;MEM_BOT</title>
<path fill="none" stroke="black" d="M1419.7,-358.16C1420,-321.96 1420.56,-253.37 1420.98,-202.47"/>
</g>
<!-- MEM_ALIASDOTS&#45;&gt;MEM_ALIASN -->
<!-- MEM_ALIASDOTS&#45;&gt;MEM_BOT -->
<g id="edge57" class="edge">
<title>MEM_ALIASDOTS&#45;&gt;MEM_BOT</title>
<path fill="none" stroke="black" d="M1507.51,-364.57C1494.24,-329.73 1464.9,-252.67 1444.19,-198.28"/>
</g>
<!-- MEM_ALIASN&#45;&gt;MEM_BOT -->
<g id="edge58" class="edge">
<title>MEM_ALIASN&#45;&gt;MEM_BOT</title>
<path fill="none" stroke="black" d="M1594.43,-363.35C1565.68,-326 1502.15,-243.47 1460.62,-189.51"/>
</g>
<!-- MEM_BOT&#45;&gt;BOT -->
<g id="edge59" class="edge">
<title>MEM_BOT&#45;&gt;BOT</title>
<path fill="none" stroke="black" d="M1358.58,-127.29C1205.9,-102.05 821.71,-38.55 731.62,-23.66"/>
</g>
</g>
</svg>
