<?xml version="1.0" encoding="UTF-8" standalone="no"?>
<!DOCTYPE svg PUBLIC "-//W3C//DTD SVG 1.1//EN"
 "http://www.w3.org/Graphics/SVG/1.1/DTD/svg11.dtd">
<!-- Generated by graphviz version 2.43.0 (0)
 -->
<!-- Title: Lattice Pages: 1 -->
<svg width="1512pt" height="745pt"
 viewBox="0.00 0.00 1512.20 745.25" xmlns="http://www.w3.org/2000/svg" xmlns:xlink="http://www.w3.org/1999/xlink">
<g id="graph0" class="graph" transform="scale(1 1) rotate(0) translate(4 741.25)">
<title>Lattice</title>
<polygon fill="white" stroke="transparent" points="-4,4 -4,-741.25 1508.2,-741.25 1508.2,4 -4,4"/>
<!-- TOP -->
<g id="node1" class="node">
<title>TOP</title>
<ellipse fill="lightblue" stroke="black" cx="677.5" cy="-717.76" rx="19.5" ry="19.5"/>
<text text-anchor="middle" x="677.5" y="-714.06" font-family="Times,serif" font-size="14.00">⊤</text>
</g>
<!-- CTRL -->
<g id="node3" class="node">
<title>CTRL</title>
<ellipse fill="lightblue" stroke="black" cx="53.5" cy="-598.56" rx="28.7" ry="28.7"/>
<text text-anchor="middle" x="53.5" y="-594.86" font-family="Times,serif" font-size="14.00">Ctrl</text>
</g>
<!-- TOP&#45;&gt;CTRL -->
<g id="edge1" class="edge">
<title>TOP&#45;&gt;CTRL</title>
<path fill="none" stroke="black" d="M658.48,-713.18C568.82,-696.34 188.15,-624.85 81.42,-604.81"/>
</g>
<!-- INT_TOP -->
<g id="node5" class="node">
<title>INT_TOP</title>
<ellipse fill="lightblue" stroke="black" cx="326.5" cy="-598.56" rx="40.09" ry="40.09"/>
<text text-anchor="middle" x="326.5" y="-594.86" font-family="Times,serif" font-size="14.00">IntTop</text>
</g>
<!-- TOP&#45;&gt;INT_TOP -->
<g id="edge4" class="edge">
<title>TOP&#45;&gt;INT_TOP</title>
<path fill="none" stroke="black" d="M659.12,-710.62C604.04,-692.23 439.49,-637.29 364.5,-612.25"/>
</g>
<!-- STRUCT_TOP -->
<g id="node14" class="node">
<title>STRUCT_TOP</title>
<ellipse fill="lightblue" stroke="black" cx="677.5" cy="-598.56" rx="36.29" ry="36.29"/>
<text text-anchor="middle" x="677.5" y="-594.86" font-family="Times,serif" font-size="14.00">$TOP</text>
</g>
<!-- TOP&#45;&gt;STRUCT_TOP -->
<g id="edge26" class="edge">
<title>TOP&#45;&gt;STRUCT_TOP</title>
<path fill="none" stroke="black" d="M677.5,-698.19C677.5,-681.28 677.5,-655.85 677.5,-635.05"/>
</g>
<!-- PTR_TOP -->
<g id="node18" class="node">
<title>PTR_TOP</title>
<ellipse fill="lightblue" stroke="black" cx="909.5" cy="-598.56" rx="40.09" ry="40.09"/>
<text text-anchor="middle" x="909.5" y="-594.86" font-family="Times,serif" font-size="14.00">*$TOP</text>
</g>
<!-- TOP&#45;&gt;PTR_TOP -->
<g id="edge32" class="edge">
<title>TOP&#45;&gt;PTR_TOP</title>
<path fill="none" stroke="black" d="M694.56,-708.14C732.23,-689.11 823.19,-643.16 873.88,-617.56"/>
</g>
<!-- MEM_TOP -->
<g id="node26" class="node">
<title>MEM_TOP</title>
<ellipse fill="lightblue" stroke="black" cx="1289.5" cy="-598.56" rx="63.89" ry="63.89"/>
<text text-anchor="middle" x="1289.5" y="-594.86" font-family="Times,serif" font-size="14.00">MEM#TOP</text>
</g>
<!-- TOP&#45;&gt;MEM_TOP -->
<g id="edge48" class="edge">
<title>TOP&#45;&gt;MEM_TOP</title>
<path fill="none" stroke="black" d="M696.49,-713.12C776.94,-697.71 1091.76,-637.43 1227.1,-611.51"/>
</g>
<!-- BOT -->
<g id="node2" class="node">
<title>BOT</title>
<ellipse fill="lightblue" stroke="black" cx="676.5" cy="-19.5" rx="19.5" ry="19.5"/>
<text text-anchor="middle" x="676.5" y="-15.8" font-family="Times,serif" font-size="14.00">⊥</text>
</g>
<!-- XCTRL -->
<g id="node4" class="node">
<title>XCTRL</title>
<ellipse fill="lightblue" stroke="black" cx="49.5" cy="-138.69" rx="36.29" ry="36.29"/>
<text text-anchor="middle" x="49.5" y="-134.99" font-family="Times,serif" font-size="14.00">~Ctrl</text>
</g>
<!-- CTRL&#45;&gt;XCTRL -->
<g id="edge2" class="edge">
<title>CTRL&#45;&gt;XCTRL</title>
<path fill="none" stroke="black" d="M53.25,-569.8C52.55,-489.67 50.59,-264 49.82,-175.22"/>
</g>
<!-- XCTRL&#45;&gt;BOT -->
<g id="edge3" class="edge">
<title>XCTRL&#45;&gt;BOT</title>
<path fill="none" stroke="black" d="M85.46,-130.97C202.43,-109.11 569.57,-40.49 657.46,-24.06"/>
</g>
<!-- INT_MIN -->
<g id="node7" class="node">
<title>INT_MIN</title>
<ellipse fill="lightblue" stroke="black" cx="19.5" cy="-373.83" rx="19.5" ry="19.5"/>
<text text-anchor="middle" x="19.5" y="-370.13" font-family="Times,serif" font-size="14.00">&#45;n</text>
</g>
<!-- INT_TOP&#45;&gt;INT_MIN -->
<g id="edge5" class="edge">
<title>INT_TOP&#45;&gt;INT_MIN</title>
<path fill="none" stroke="black" d="M293.93,-574.72C228.5,-526.83 83.24,-420.49 35.23,-385.35"/>
</g>
<!-- INT_MINDOTS -->
<g id="node8" class="node">
<title>INT_MINDOTS</title>
<text text-anchor="middle" x="108.5" y="-370.13" font-family="Times,serif" font-size="14.00">...</text>
</g>
<!-- INT_TOP&#45;&gt;INT_MINDOTS -->
<g id="edge6" class="edge">
<title>INT_TOP&#45;&gt;INT_MINDOTS</title>
<path fill="none" stroke="black" d="M298,-569.18C252.29,-522.07 163.93,-430.97 126.23,-392.11"/>
</g>
<!-- INT_MINUS -->
<g id="node9" class="node">
<title>INT_MINUS</title>
<ellipse fill="lightblue" stroke="black" cx="197.5" cy="-373.83" rx="19.5" ry="19.5"/>
<text text-anchor="middle" x="197.5" y="-370.13" font-family="Times,serif" font-size="14.00">&#45;1</text>
</g>
<!-- INT_TOP&#45;&gt;INT_MINUS -->
<g id="edge7" class="edge">
<title>INT_TOP&#45;&gt;INT_MINUS</title>
<path fill="none" stroke="black" d="M306.34,-563.45C278.21,-514.44 228.26,-427.43 207.25,-390.81"/>
</g>
<!-- INT_ZERO -->
<g id="node10" class="node">
<title>INT_ZERO</title>
<ellipse fill="lightblue" stroke="black" cx="281.5" cy="-373.83" rx="18" ry="18"/>
<text text-anchor="middle" x="281.5" y="-370.13" font-family="Times,serif" font-size="14.00">0</text>
</g>
<!-- INT_TOP&#45;&gt;INT_ZERO -->
<g id="edge8" class="edge">
<title>INT_TOP&#45;&gt;INT_ZERO</title>
<path fill="none" stroke="black" d="M318.56,-558.9C308.69,-509.63 292.28,-427.68 285.08,-391.7"/>
</g>
<!-- INT_PLUS -->
<g id="node11" class="node">
<title>INT_PLUS</title>
<ellipse fill="lightblue" stroke="black" cx="360.5" cy="-373.83" rx="18" ry="18"/>
<text text-anchor="middle" x="360.5" y="-370.13" font-family="Times,serif" font-size="14.00">1</text>
</g>
<!-- INT_TOP&#45;&gt;INT_PLUS -->
<g id="edge9" class="edge">
<title>INT_TOP&#45;&gt;INT_PLUS</title>
<path fill="none" stroke="black" d="M332.54,-558.64C340,-509.33 352.37,-427.55 357.8,-391.65"/>
</g>
<!-- INT_MAXDOTS -->
<g id="node12" class="node">
<title>INT_MAXDOTS</title>
<text text-anchor="middle" x="448.5" y="-370.13" font-family="Times,serif" font-size="14.00">...</text>
</g>
<!-- INT_TOP&#45;&gt;INT_MAXDOTS -->
<g id="edge10" class="edge">
<title>INT_TOP&#45;&gt;INT_MAXDOTS</title>
<path fill="none" stroke="black" d="M345.83,-562.95C372.23,-514.31 418.59,-428.91 438.72,-391.84"/>
</g>
<!-- INT_MAX -->
<g id="node13" class="node">
<title>INT_MAX</title>
<ellipse fill="lightblue" stroke="black" cx="543.5" cy="-373.83" rx="24.9" ry="24.9"/>
<text text-anchor="middle" x="543.5" y="-370.13" font-family="Times,serif" font-size="14.00">+n</text>
</g>
<!-- INT_TOP&#45;&gt;INT_MAX -->
<g id="edge11" class="edge">
<title>INT_TOP&#45;&gt;INT_MAX</title>
<path fill="none" stroke="black" d="M354.87,-569.18C400.48,-521.95 488.77,-430.51 526.13,-391.82"/>
</g>
<!-- INT_BOT -->
<g id="node6" class="node">
<title>INT_BOT</title>
<ellipse fill="lightblue" stroke="black" cx="326.5" cy="-138.69" rx="40.09" ry="40.09"/>
<text text-anchor="middle" x="326.5" y="-134.99" font-family="Times,serif" font-size="14.00">IntBot</text>
</g>
<!-- INT_BOT&#45;&gt;BOT -->
<g id="edge19" class="edge">
<title>INT_BOT&#45;&gt;BOT</title>
<path fill="none" stroke="black" d="M364.62,-124.93C439.56,-99.83 603.55,-44.92 658.3,-26.59"/>
</g>
<!-- INT_MIN&#45;&gt;INT_BOT -->
<g id="edge12" class="edge">
<title>INT_MIN&#45;&gt;INT_BOT</title>
<path fill="none" stroke="black" d="M35.14,-361.84C83.16,-325.06 229.13,-213.27 294.38,-163.29"/>
</g>
<!-- INT_MIN&#45;&gt;INT_MINDOTS -->
<!-- INT_MINDOTS&#45;&gt;INT_BOT -->
<g id="edge13" class="edge">
<title>INT_MINDOTS&#45;&gt;INT_BOT</title>
<path fill="none" stroke="black" d="M125.24,-355.77C162.63,-315.44 253.21,-217.74 299.01,-168.34"/>
</g>
<!-- INT_MINDOTS&#45;&gt;INT_MINUS -->
<!-- INT_MINUS&#45;&gt;INT_BOT -->
<g id="edge14" class="edge">
<title>INT_MINUS&#45;&gt;INT_BOT</title>
<path fill="none" stroke="black" d="M206.98,-356.54C227.99,-318.25 278.79,-225.65 306.93,-174.37"/>
</g>
<!-- INT_MINUS&#45;&gt;INT_ZERO -->
<!-- INT_ZERO&#45;&gt;INT_BOT -->
<g id="edge15" class="edge">
<title>INT_ZERO&#45;&gt;INT_BOT</title>
<path fill="none" stroke="black" d="M284.95,-355.77C292.18,-318.02 309.02,-230.01 318.9,-178.39"/>
</g>
<!-- INT_ZERO&#45;&gt;INT_PLUS -->
<!-- INT_PLUS&#45;&gt;INT_BOT -->
<g id="edge16" class="edge">
<title>INT_PLUS&#45;&gt;INT_BOT</title>
<path fill="none" stroke="black" d="M357.89,-355.77C352.44,-318.13 339.77,-230.51 332.3,-178.83"/>
</g>
<!-- INT_PLUS&#45;&gt;INT_MAXDOTS -->
<!-- INT_MAXDOTS&#45;&gt;INT_BOT -->
<g id="edge17" class="edge">
<title>INT_MAXDOTS&#45;&gt;INT_BOT</title>
<path fill="none" stroke="black" d="M439.13,-355.77C419.04,-317.05 371.52,-225.46 345.07,-174.49"/>
</g>
<!-- INT_MAXDOTS&#45;&gt;INT_MAX -->
<!-- INT_MAX&#45;&gt;INT_BOT -->
<g id="edge18" class="edge">
<title>INT_MAX&#45;&gt;INT_BOT</title>
<path fill="none" stroke="black" d="M526.47,-355.38C489.1,-314.89 399.62,-217.93 354.11,-168.61"/>
</g>
<!-- STRUCT_S1 -->
<g id="node15" class="node">
<title>STRUCT_S1</title>
<ellipse fill="lightblue" stroke="black" cx="633.5" cy="-373.83" rx="23" ry="23"/>
<text text-anchor="middle" x="633.5" y="-370.13" font-family="Times,serif" font-size="14.00">S1</text>
</g>
<!-- STRUCT_TOP&#45;&gt;STRUCT_S1 -->
<g id="edge27" class="edge">
<title>STRUCT_TOP&#45;&gt;STRUCT_S1</title>
<path fill="none" stroke="black" d="M670.43,-562.46C661.25,-515.55 645.49,-435.09 637.88,-396.19"/>
</g>
<!-- STRUCT_S2 -->
<g id="node16" class="node">
<title>STRUCT_S2</title>
<ellipse fill="lightblue" stroke="black" cx="721.5" cy="-373.83" rx="23" ry="23"/>
<text text-anchor="middle" x="721.5" y="-370.13" font-family="Times,serif" font-size="14.00">S2</text>
</g>
<!-- STRUCT_TOP&#45;&gt;STRUCT_S2 -->
<g id="edge28" class="edge">
<title>STRUCT_TOP&#45;&gt;STRUCT_S2</title>
<path fill="none" stroke="black" d="M684.57,-562.46C693.75,-515.55 709.5,-435.09 717.12,-396.19"/>
</g>
<!-- STRUCT_BOT -->
<g id="node17" class="node">
<title>STRUCT_BOT</title>
<ellipse fill="lightblue" stroke="black" cx="676.5" cy="-138.69" rx="36.29" ry="36.29"/>
<text text-anchor="middle" x="676.5" y="-134.99" font-family="Times,serif" font-size="14.00">$BOT</text>
</g>
<!-- STRUCT_S1&#45;&gt;STRUCT_BOT -->
<g id="edge29" class="edge">
<title>STRUCT_S1&#45;&gt;STRUCT_BOT</title>
<path fill="none" stroke="black" d="M637.62,-351.28C645.08,-310.47 660.89,-224.05 669.88,-174.89"/>
</g>
<!-- STRUCT_S2&#45;&gt;STRUCT_BOT -->
<g id="edge30" class="edge">
<title>STRUCT_S2&#45;&gt;STRUCT_BOT</title>
<path fill="none" stroke="black" d="M717.18,-351.28C709.35,-310.36 692.74,-223.57 683.35,-174.47"/>
</g>
<!-- STRUCT_BOT&#45;&gt;BOT -->
<g id="edge31" class="edge">
<title>STRUCT_BOT&#45;&gt;BOT</title>
<path fill="none" stroke="black" d="M676.5,-102.21C676.5,-81.46 676.5,-56.11 676.5,-39.2"/>
</g>
<!-- PTR_NULL -->
<g id="node19" class="node">
<title>PTR_NULL</title>
<ellipse fill="lightblue" stroke="black" cx="815.5" cy="-373.83" rx="28.7" ry="28.7"/>
<text text-anchor="middle" x="815.5" y="-370.13" font-family="Times,serif" font-size="14.00">null</text>
</g>
<!-- PTR_TOP&#45;&gt;PTR_NULL -->
<g id="edge35" class="edge">
<title>PTR_TOP&#45;&gt;PTR_NULL</title>
<path fill="none" stroke="black" d="M893.87,-561.2C874.87,-515.77 843.27,-440.23 826.59,-400.36"/>
</g>
<!-- PTR_VOIDPTR -->
<g id="node20" class="node">
<title>PTR_VOIDPTR</title>
<ellipse fill="lightblue" stroke="black" cx="1008.5" cy="-373.83" rx="34.39" ry="34.39"/>
<text text-anchor="middle" x="1008.5" y="-370.13" font-family="Times,serif" font-size="14.00">*void</text>
</g>
<!-- PTR_TOP&#45;&gt;PTR_VOIDPTR -->
<g id="edge36" class="edge">
<title>PTR_TOP&#45;&gt;PTR_VOIDPTR</title>
<path fill="none" stroke="black" d="M925.85,-561.45C945.01,-517.94 976.45,-446.57 994.53,-405.54"/>
</g>
<!-- PTR_S1 -->
<g id="node21" class="node">
<title>PTR_S1</title>
<ellipse fill="lightblue" stroke="black" cx="909.5" cy="-471.57" rx="27.1" ry="27.1"/>
<text text-anchor="middle" x="909.5" y="-467.87" font-family="Times,serif" font-size="14.00">*S1</text>
</g>
<!-- PTR_TOP&#45;&gt;PTR_S1 -->
<g id="edge33" class="edge">
<title>PTR_TOP&#45;&gt;PTR_S1</title>
<path fill="none" stroke="black" d="M909.5,-558.01C909.5,-538.85 909.5,-516.34 909.5,-499.23"/>
</g>
<!-- PTR_S2 -->
<g id="node22" class="node">
<title>PTR_S2</title>
<ellipse fill="lightblue" stroke="black" cx="1093.5" cy="-471.57" rx="27.1" ry="27.1"/>
<text text-anchor="middle" x="1093.5" y="-467.87" font-family="Times,serif" font-size="14.00">*S2</text>
</g>
<!-- PTR_TOP&#45;&gt;PTR_S2 -->
<g id="edge34" class="edge">
<title>PTR_TOP&#45;&gt;PTR_S2</title>
<path fill="none" stroke="black" d="M942.39,-575.22C979.61,-549.94 1039.19,-509.46 1071.29,-487.66"/>
</g>
<!-- PTR_S1OPT -->
<g id="node23" class="node">
<title>PTR_S1OPT</title>
<ellipse fill="lightblue" stroke="black" cx="904.5" cy="-270.88" rx="32.49" ry="32.49"/>
<text text-anchor="middle" x="904.5" y="-267.18" font-family="Times,serif" font-size="14.00">*S1?</text>
</g>
<!-- PTR_NULL&#45;&gt;PTR_S1OPT -->
<g id="edge38" class="edge">
<title>PTR_NULL&#45;&gt;PTR_S1OPT</title>
<path fill="none" stroke="black" d="M833.94,-351.91C848.3,-335.63 868.24,-313 883.27,-295.96"/>
</g>
<!-- PTR_S2OPT -->
<g id="node24" class="node">
<title>PTR_S2OPT</title>
<ellipse fill="lightblue" stroke="black" cx="1012.5" cy="-270.88" rx="32.49" ry="32.49"/>
<text text-anchor="middle" x="1012.5" y="-267.18" font-family="Times,serif" font-size="14.00">*S2?</text>
</g>
<!-- PTR_NULL&#45;&gt;PTR_S2OPT -->
<g id="edge39" class="edge">
<title>PTR_NULL&#45;&gt;PTR_S2OPT</title>
<path fill="none" stroke="black" d="M840.85,-359.84C877.53,-341.04 945.23,-306.35 983.73,-286.62"/>
</g>
<!-- PTR_BOT -->
<g id="node25" class="node">
<title>PTR_BOT</title>
<ellipse fill="lightblue" stroke="black" cx="904.5" cy="-138.69" rx="46.29" ry="46.29"/>
<text text-anchor="middle" x="904.5" y="-134.99" font-family="Times,serif" font-size="14.00">*$BOT?</text>
</g>
<!-- PTR_NULL&#45;&gt;PTR_BOT -->
<g id="edge37" class="edge">
<title>PTR_NULL&#45;&gt;PTR_BOT</title>
<path fill="none" stroke="black" d="M825.71,-346.85C840.96,-306.56 869.84,-230.25 888.08,-182.07"/>
</g>
<!-- PTR_VOIDPTR&#45;&gt;PTR_BOT -->
<g id="edge44" class="edge">
<title>PTR_VOIDPTR&#45;&gt;PTR_BOT</title>
<path fill="none" stroke="black" d="M994.47,-342.11C976.06,-300.5 943.7,-227.32 923.22,-181.01"/>
</g>
<!-- PTR_S1&#45;&gt;PTR_VOIDPTR -->
<g id="edge41" class="edge">
<title>PTR_S1&#45;&gt;PTR_VOIDPTR</title>
<path fill="none" stroke="black" d="M929.06,-451.65C944.84,-436.4 967.12,-414.85 984.07,-398.46"/>
</g>
<!-- PTR_S1&#45;&gt;PTR_S1OPT -->
<g id="edge40" class="edge">
<title>PTR_S1&#45;&gt;PTR_S1OPT</title>
<path fill="none" stroke="black" d="M908.81,-444.09C907.9,-407.48 906.29,-342.81 905.32,-303.69"/>
</g>
<!-- PTR_S2&#45;&gt;PTR_VOIDPTR -->
<g id="edge43" class="edge">
<title>PTR_S2&#45;&gt;PTR_VOIDPTR</title>
<path fill="none" stroke="black" d="M1075.47,-450.27C1062.51,-435.66 1044.94,-415.87 1031.05,-400.22"/>
</g>
<!-- PTR_S2&#45;&gt;PTR_S2OPT -->
<g id="edge42" class="edge">
<title>PTR_S2&#45;&gt;PTR_S2OPT</title>
<path fill="none" stroke="black" d="M1083.24,-446.15C1068.34,-409.24 1040.75,-340.89 1024.79,-301.33"/>
</g>
<!-- PTR_S1OPT&#45;&gt;PTR_BOT -->
<g id="edge45" class="edge">
<title>PTR_S1OPT&#45;&gt;PTR_BOT</title>
<path fill="none" stroke="black" d="M904.5,-238.37C904.5,-222.41 904.5,-202.75 904.5,-185.19"/>
</g>
<!-- PTR_S2OPT&#45;&gt;PTR_BOT -->
<g id="edge46" class="edge">
<title>PTR_S2OPT&#45;&gt;PTR_BOT</title>
<path fill="none" stroke="black" d="M992.18,-245.39C975.69,-225.51 952.2,-197.2 933.69,-174.88"/>
</g>
<!-- PTR_BOT&#45;&gt;BOT -->
<g id="edge47" class="edge">
<title>PTR_BOT&#45;&gt;BOT</title>
<path fill="none" stroke="black" d="M863.74,-116.74C813.14,-90.73 729.17,-47.57 693.44,-29.2"/>
</g>
<!-- MEM_ALIAS1 -->
<g id="node27" class="node">
<title>MEM_ALIAS1</title>
<ellipse fill="lightblue" stroke="black" cx="1197.5" cy="-373.83" rx="24.9" ry="24.9"/>
<text text-anchor="middle" x="1197.5" y="-370.13" font-family="Times,serif" font-size="14.00">#1</text>
</g>
<!-- MEM_TOP&#45;&gt;MEM_ALIAS1 -->
<g id="edge49" class="edge">
<title>MEM_TOP&#45;&gt;MEM_ALIAS1</title>
<path fill="none" stroke="black" d="M1265.33,-539.52C1246.21,-492.83 1220.56,-430.15 1206.93,-396.86"/>
</g>
<!-- MEM_ALIAS2 -->
<g id="node28" class="node">
<title>MEM_ALIAS2</title>
<ellipse fill="lightblue" stroke="black" cx="1289.5" cy="-373.83" rx="24.9" ry="24.9"/>
<text text-anchor="middle" x="1289.5" y="-370.13" font-family="Times,serif" font-size="14.00">#2</text>
</g>
<!-- MEM_TOP&#45;&gt;MEM_ALIAS2 -->
<g id="edge50" class="edge">
<title>MEM_TOP&#45;&gt;MEM_ALIAS2</title>
<path fill="none" stroke="black" d="M1289.5,-534.76C1289.5,-489.47 1289.5,-431.15 1289.5,-398.6"/>
</g>
<!-- MEM_ALIASDOTS -->
<g id="node29" class="node">
<title>MEM_ALIASDOTS</title>
<text text-anchor="middle" x="1384.5" y="-370.13" font-family="Times,serif" font-size="14.00">...</text>
</g>
<!-- MEM_TOP&#45;&gt;MEM_ALIASDOTS -->
<g id="edge51" class="edge">
<title>MEM_TOP&#45;&gt;MEM_ALIASDOTS</title>
<path fill="none" stroke="black" d="M1314.33,-539.81C1335.12,-490.65 1363.46,-423.61 1376.87,-391.88"/>
</g>
<!-- MEM_ALIASN -->
<g id="node30" class="node">
<title>MEM_ALIASN</title>
<ellipse fill="lightblue" stroke="black" cx="1479.5" cy="-373.83" rx="24.9" ry="24.9"/>
<text text-anchor="middle" x="1479.5" y="-370.13" font-family="Times,serif" font-size="14.00">#n</text>
</g>
<!-- MEM_TOP&#45;&gt;MEM_ALIASN -->
<g id="edge52" class="edge">
<title>MEM_TOP&#45;&gt;MEM_ALIASN</title>
<path fill="none" stroke="black" d="M1330.73,-549.8C1372.31,-500.61 1434.39,-427.19 1463.43,-392.83"/>
</g>
<!-- MEM_ALIAS1&#45;&gt;MEM_ALIAS2 -->
<!-- MEM_BOT -->
<g id="node31" class="node">
<title>MEM_BOT</title>
<ellipse fill="lightblue" stroke="black" cx="1289.5" cy="-138.69" rx="63.89" ry="63.89"/>
<text text-anchor="middle" x="1289.5" y="-134.99" font-family="Times,serif" font-size="14.00">MEM#BOT</text>
</g>
<!-- MEM_ALIAS1&#45;&gt;MEM_BOT -->
<g id="edge53" class="edge">
<title>MEM_ALIAS1&#45;&gt;MEM_BOT</title>
<path fill="none" stroke="black" d="M1206.66,-350.42C1220.43,-315.22 1246.91,-247.53 1266.24,-198.13"/>
</g>
<!-- MEM_ALIAS2&#45;&gt;MEM_ALIASDOTS -->
<!-- MEM_ALIAS2&#45;&gt;MEM_BOT -->
<g id="edge54" class="edge">
<title>MEM_ALIAS2&#45;&gt;MEM_BOT</title>
<path fill="none" stroke="black" d="M1289.5,-349.11C1289.5,-314.68 1289.5,-251.08 1289.5,-202.78"/>
</g>
<!-- MEM_ALIASDOTS&#45;&gt;MEM_ALIASN -->
<!-- MEM_ALIASDOTS&#45;&gt;MEM_BOT -->
<g id="edge55" class="edge">
<title>MEM_ALIASDOTS&#45;&gt;MEM_BOT</title>
<path fill="none" stroke="black" d="M1377.2,-355.77C1363.73,-322.43 1334.42,-249.88 1313.39,-197.83"/>
</g>
<!-- MEM_ALIASN&#45;&gt;MEM_BOT -->
<g id="edge56" class="edge">
<title>MEM_ALIASN&#45;&gt;MEM_BOT</title>
<path fill="none" stroke="black" d="M1463.95,-354.58C1434.88,-318.61 1371.46,-240.12 1329.63,-188.36"/>
</g>
<!-- MEM_BOT&#45;&gt;BOT -->
<g id="edge57" class="edge">
<title>MEM_BOT&#45;&gt;BOT</title>
<path fill="none" stroke="black" d="M1227.06,-125.75C1091.6,-99.86 776.38,-39.59 695.62,-24.15"/>
</g>
</g>
</svg>
