<?xml version="1.0" encoding="UTF-8" standalone="no"?>
<!DOCTYPE svg PUBLIC "-//W3C//DTD SVG 1.1//EN" "http://www.w3.org/Graphics/SVG/1.1/DTD/svg11.dtd">
<!-- Generated by graphviz version 2.40.1 (20161225.0304)
 -->
<!-- Title: chapter02 Pages: 1 -->
<svg width="258pt" height="220pt" viewBox="0.00 0.00 258.00 220.00" xmlns="http://www.w3.org/2000/svg" xmlns:xlink="http://www.w3.org/1999/xlink">
<g id="graph0" class="graph" transform="scale(1 1) rotate(0) translate(4 216)">
<title>chapter02</title>
<polygon fill="#ffffff" stroke="transparent" points="-4,4 -4,-216 254,-216 254,4 -4,4"/>
<g id="clust1" class="cluster">
<title>cluster_Nodes</title>
<polygon fill="none" stroke="#000000" points="8,-8 8,-204 242,-204 242,-8 8,-8"/>
</g>
<!-- Start1 -->
<g id="node1" class="node">
<title>Start1</title>
<polygon fill="#ffff00" stroke="#000000" points="165,-196 111,-196 111,-160 165,-160 165,-196"/>
<text text-anchor="middle" x="138" y="-173.8" font-family="Times,serif" font-size="14.00" fill="#000000">Start</text>
</g>
<!-- Con_2 -->
<g id="node2" class="node">
<title>Con_2</title>
<ellipse fill="none" stroke="#000000" cx="43" cy="-106" rx="27" ry="18"/>
<text text-anchor="middle" x="43" y="-101.8" font-family="Times,serif" font-size="14.00" fill="#000000">#1</text>
</g>
<!-- Con_2&#45;&gt;Start1 -->
<g id="edge1" class="edge">
<title>Con_2-&gt;Start1</title>
<path fill="none" stroke="#000000" stroke-dasharray="1,5" d="M60.8688,-119.5426C73.5668,-129.1664 90.9688,-142.3553 106.03,-153.7701"/>
<polygon fill="#000000" stroke="#000000" points="104.028,-156.6444 114.1118,-159.8953 108.2562,-151.0656 104.028,-156.6444"/>
<text text-anchor="middle" x="58.6452" y="-121.9426" font-family="Helvetica,sans-Serif" font-size="8.00" fill="#000000">0</text>
</g>
<!-- Con_3 -->
<g id="node3" class="node">
<title>Con_3</title>
<ellipse fill="none" stroke="#000000" cx="115" cy="-106" rx="27" ry="18"/>
<text text-anchor="middle" x="115" y="-101.8" font-family="Times,serif" font-size="14.00" fill="#000000">#2</text>
</g>
<!-- Con_3&#45;&gt;Start1 -->
<g id="edge2" class="edge">
<title>Con_3-&gt;Start1</title>
<path fill="none" stroke="#000000" stroke-dasharray="1,5" d="M120.6854,-123.7978C123.237,-131.7854 126.3069,-141.3955 129.1486,-150.2913"/>
<polygon fill="#000000" stroke="#000000" points="125.8432,-151.4462 132.2203,-159.9069 132.5113,-149.316 125.8432,-151.4462"/>
<text text-anchor="middle" x="118.4618" y="-126.1978" font-family="Helvetica,sans-Serif" font-size="8.00" fill="#000000">0</text>
</g>
<!-- Add4 -->
<g id="node4" class="node">
<title>Add4</title>
<ellipse fill="none" stroke="#000000" cx="89" cy="-34" rx="27" ry="18"/>
<text text-anchor="middle" x="89" y="-29.8" font-family="Times,serif" font-size="14.00" fill="#000000">+</text>
</g>
<!-- Add4&#45;&gt;Con_2 -->
<g id="edge3" class="edge">
<title>Add4-&gt;Con_2</title>
<path fill="none" stroke="#000000" d="M78.3311,-50.6992C72.6414,-59.6048 65.5223,-70.7476 59.1684,-80.693"/>
<polygon fill="#000000" stroke="#000000" points="56.0456,-79.08 53.6111,-89.3913 61.9445,-82.8487 56.0456,-79.08"/>
<text text-anchor="middle" x="80.5547" y="-53.0992" font-family="Helvetica,sans-Serif" font-size="8.00" fill="#000000">1</text>
</g>
<!-- Add4&#45;&gt;Con_3 -->
<g id="edge4" class="edge">
<title>Add4-&gt;Con_3</title>
<path fill="none" stroke="#000000" d="M95.427,-51.7978C98.3866,-59.9936 101.963,-69.8976 105.2447,-78.9855"/>
<polygon fill="#000000" stroke="#000000" points="101.9585,-80.1902 108.647,-88.407 108.5424,-77.8126 101.9585,-80.1902"/>
<text text-anchor="middle" x="93.2034" y="-54.1978" font-family="Helvetica,sans-Serif" font-size="8.00" fill="#000000">2</text>
</g>
<!-- Con_5 -->
<g id="node5" class="node">
<title>Con_5</title>
<ellipse fill="none" stroke="#000000" cx="207" cy="-106" rx="27" ry="18"/>
<text text-anchor="middle" x="207" y="-101.8" font-family="Times,serif" font-size="14.00" fill="#000000">#3</text>
</g>
<!-- Con_5&#45;&gt;Start1 -->
<g id="edge5" class="edge">
<title>Con_5-&gt;Start1</title>
<path fill="none" stroke="#000000" stroke-dasharray="1,5" d="M192.3669,-121.2693C183.6447,-130.3708 172.3525,-142.1539 162.3214,-152.6212"/>
<polygon fill="#000000" stroke="#000000" points="159.6869,-150.3117 155.2947,-159.9533 164.7408,-155.1551 159.6869,-150.3117"/>
<text text-anchor="middle" x="194.5905" y="-123.6693" font-family="Helvetica,sans-Serif" font-size="8.00" fill="#000000">0</text>
</g>
<!-- Return6 -->
<g id="node6" class="node">
<title>Return6</title>
<polygon fill="#ffff00" stroke="#000000" points="211.1025,-52 156.8975,-52 156.8975,-16 211.1025,-16 211.1025,-52"/>
<text text-anchor="middle" x="184" y="-29.8" font-family="Times,serif" font-size="14.00" fill="#000000">Return</text>
</g>
<!-- Return6&#45;&gt;Start1 -->
<g id="edge6" class="edge">
<title>Return6-&gt;Start1</title>
<path fill="none" stroke="#ff0000" d="M178.1741,-52.2377C170.2935,-76.9072 156.1635,-121.1402 146.9358,-150.0269"/>
<polygon fill="#ff0000" stroke="#ff0000" points="143.4876,-149.3195 143.7786,-159.9104 150.1557,-151.4497 143.4876,-149.3195"/>
<text text-anchor="middle" x="175.9505" y="-54.6377" font-family="Helvetica,sans-Serif" font-size="8.00" fill="#000000">0</text>
</g>
<!-- Return6&#45;&gt;Con_5 -->
<g id="edge7" class="edge">
<title>Return6-&gt;Con_5</title>
<path fill="none" stroke="#000000" d="M189.8039,-52.1686C192.3565,-60.1594 195.41,-69.7181 198.2308,-78.5486"/>
<polygon fill="#000000" stroke="#000000" points="194.9006,-79.6259 201.2777,-88.0866 201.5687,-77.4957 194.9006,-79.6259"/>
<text text-anchor="middle" x="187.5803" y="-54.5686" font-family="Helvetica,sans-Serif" font-size="8.00" fill="#000000">1</text>
</g>
</g>
</svg>