<?xml version="1.0" encoding="UTF-8" standalone="no"?>
<!DOCTYPE svg PUBLIC "-//W3C//DTD SVG 1.1//EN" "http://www.w3.org/Graphics/SVG/1.1/DTD/svg11.dtd">
<!-- Generated by graphviz version 2.40.1 (20161225.0304)
 -->
<!-- Title: chapter02 Pages: 1 -->
<svg width="114pt" height="220pt" viewBox="0.00 0.00 114.00 220.00" xmlns="http://www.w3.org/2000/svg" xmlns:xlink="http://www.w3.org/1999/xlink">
<g id="graph0" class="graph" transform="scale(1 1) rotate(0) translate(4 216)">
<title>chapter02</title>
<polygon fill="#ffffff" stroke="transparent" points="-4,4 -4,-216 110,-216 110,4 -4,4"/>
<g id="clust1" class="cluster">
<title>cluster_Nodes</title>
<polygon fill="none" stroke="#000000" points="8,-8 8,-204 98,-204 98,-8 8,-8"/>
</g>
<!-- Start1 -->
<g id="node1" class="node">
<title>Start1</title>
<polygon fill="#ffff00" stroke="#000000" points="80,-196 26,-196 26,-160 80,-160 80,-196"/>
<text text-anchor="middle" x="53" y="-173.8" font-family="Times,serif" font-size="14.00" fill="#000000">Start</text>
</g>
<!-- Con_5 -->
<g id="node2" class="node">
<title>Con_5</title>
<ellipse fill="none" stroke="#000000" cx="43" cy="-106" rx="27" ry="18"/>
<text text-anchor="middle" x="43" y="-101.8" font-family="Times,serif" font-size="14.00" fill="#000000">#3</text>
</g>
<!-- Con_5&#45;&gt;Start1 -->
<g id="edge1" class="edge">
<title>Con_5-&gt;Start1</title>
<path fill="none" stroke="#000000" stroke-dasharray="1,5" d="M45.5234,-124.1686C46.5929,-131.869 47.8647,-141.0257 49.0532,-149.5834"/>
<polygon fill="#000000" stroke="#000000" points="45.6001,-150.1633 50.4426,-159.5867 52.5336,-149.2003 45.6001,-150.1633"/>
<text text-anchor="middle" x="43.2998" y="-126.5686" font-family="Helvetica,sans-Serif" font-size="8.00" fill="#000000">0</text>
</g>
<!-- Return6 -->
<g id="node3" class="node">
<title>Return6</title>
<polygon fill="#ffff00" stroke="#000000" points="80.1025,-52 25.8975,-52 25.8975,-16 80.1025,-16 80.1025,-52"/>
<text text-anchor="middle" x="53" y="-29.8" font-family="Times,serif" font-size="14.00" fill="#000000">Return</text>
</g>
<!-- Return6&#45;&gt;Start1 -->
<g id="edge2" class="edge">
<title>Return6-&gt;Start1</title>
<path fill="none" stroke="#ff0000" d="M64.3196,-52.2322C69.9396,-62.3585 76.1294,-75.4211 79,-88 82.5597,-103.599 82.5597,-108.401 79,-124 76.9144,-133.1394 73.0765,-142.534 68.9781,-150.8724"/>
<polygon fill="#ff0000" stroke="#ff0000" points="65.8583,-149.2853 64.3196,-159.7678 72.0595,-152.5328 65.8583,-149.2853"/>
<text text-anchor="middle" x="62.096" y="-54.6322" font-family="Helvetica,sans-Serif" font-size="8.00" fill="#000000">0</text>
</g>
<!-- Return6&#45;&gt;Con_5 -->
<g id="edge3" class="edge">
<title>Return6-&gt;Con_5</title>
<path fill="none" stroke="#000000" d="M50.4766,-52.1686C49.4071,-59.869 48.1353,-69.0257 46.9468,-77.5834"/>
<polygon fill="#000000" stroke="#000000" points="43.4664,-77.2003 45.5574,-87.5867 50.3999,-78.1633 43.4664,-77.2003"/>
<text text-anchor="middle" x="48.253" y="-54.5686" font-family="Helvetica,sans-Serif" font-size="8.00" fill="#000000">1</text>
</g>
</g>
</svg>