<?xml version="1.0" encoding="UTF-8" standalone="no"?>
<!DOCTYPE svg PUBLIC "-//W3C//DTD SVG 1.1//EN"
 "http://www.w3.org/Graphics/SVG/1.1/DTD/svg11.dtd">
<!-- Generated by graphviz version 2.43.0 (0)
 -->
<!-- Title: chapter02 Pages: 1 -->
<svg width="114pt" height="220pt"
 viewBox="0.00 0.00 114.00 220.00" xmlns="http://www.w3.org/2000/svg" xmlns:xlink="http://www.w3.org/1999/xlink">
<g id="graph0" class="graph" transform="scale(1 1) rotate(0) translate(4 216)">
<title>chapter02</title>
<polygon fill="white" stroke="transparent" points="-4,4 -4,-216 110,-216 110,4 -4,4"/>
<g id="clust1" class="cluster">
<title>cluster_Nodes</title>
<polygon fill="none" stroke="black" points="8,-8 8,-204 98,-204 98,-8 8,-8"/>
</g>
<!-- Start1 -->
<g id="node1" class="node">
<title>Start1</title>
<polygon fill="yellow" stroke="black" points="80,-196 26,-196 26,-160 80,-160 80,-196"/>
<text text-anchor="middle" x="53" y="-174.3" font-family="Times,serif" font-size="14.00">Start</text>
</g>
<!-- Con_13 -->
<g id="node2" class="node">
<title>Con_13</title>
<ellipse fill="none" stroke="black" cx="43" cy="-106" rx="27" ry="18"/>
<text text-anchor="middle" x="43" y="-102.3" font-family="Times,serif" font-size="14.00">#2</text>
</g>
<!-- Con_13&#45;&gt;Start1 -->
<g id="edge1" class="edge">
<title>Con_13&#45;&gt;Start1</title>
<path fill="none" stroke="black" stroke-dasharray="1,5" d="M45.42,-123.95C46.52,-131.65 47.85,-140.97 49.09,-149.64"/>
<polygon fill="black" stroke="black" points="45.65,-150.32 50.53,-159.72 52.58,-149.33 45.65,-150.32"/>
<text text-anchor="middle" x="42.42" y="-126.55" font-family="Helvetica,sans-Serif" font-size="8.00">0</text>
</g>
<!-- Return14 -->
<g id="node3" class="node">
<title>Return14</title>
<polygon fill="yellow" stroke="black" points="86,-52 20,-52 20,-16 86,-16 86,-52"/>
<text text-anchor="middle" x="53" y="-30.3" font-family="Times,serif" font-size="14.00">Return</text>
</g>
<!-- Return14&#45;&gt;Start1 -->
<g id="edge2" class="edge">
<title>Return14&#45;&gt;Start1</title>
<path fill="none" stroke="red" d="M64.05,-52.39C69.74,-62.38 76.08,-75.42 79,-88 82.62,-103.59 82.62,-108.41 79,-124 76.9,-133.04 73.03,-142.32 68.91,-150.53"/>
<polygon fill="red" stroke="red" points="65.69,-149.14 64.05,-159.61 71.86,-152.45 65.69,-149.14"/>
<text text-anchor="middle" x="61.05" y="-54.99" font-family="Helvetica,sans-Serif" font-size="8.00">0</text>
</g>
<!-- Return14&#45;&gt;Con_13 -->
<g id="edge3" class="edge">
<title>Return14&#45;&gt;Con_13</title>
<path fill="none" stroke="black" d="M50.53,-52.3C49.43,-60.02 48.1,-69.29 46.87,-77.89"/>
<polygon fill="black" stroke="black" points="43.39,-77.5 45.44,-87.9 50.32,-78.49 43.39,-77.5"/>
<text text-anchor="middle" x="47.53" y="-54.9" font-family="Helvetica,sans-Serif" font-size="8.00">1</text>
</g>
</g>
</svg>
