<?xml version="1.0" encoding="UTF-8" standalone="no"?>
<!DOCTYPE svg PUBLIC "-//W3C//DTD SVG 1.1//EN"
 "http://www.w3.org/Graphics/SVG/1.1/DTD/svg11.dtd">
<!-- Generated by graphviz version 12.2.0 (20241103.1931)
 -->
<!-- Title: Lattice Pages: 1 -->
<svg width="564pt" height="194pt"
 viewBox="0.00 0.00 563.75 194.31" xmlns="http://www.w3.org/2000/svg" xmlns:xlink="http://www.w3.org/1999/xlink">
<g id="graph0" class="graph" transform="scale(1 1) rotate(0) translate(4 190.31)">
<title>Lattice</title>
<polygon fill="white" stroke="none" points="-4,4 -4,-190.31 559.75,-190.31 559.75,4 -4,4"/>
<!-- INT_TOP -->
<g id="node1" class="node">
<title>INT_TOP</title>
<ellipse fill="lightblue" stroke="black" cx="276.6" cy="-168.31" rx="33.95" ry="18"/>
<text text-anchor="start" x="259.72" y="-164.26" font-family="Times New Roman,serif" font-weight="bold" font-size="14.00">⊤</text>
<text text-anchor="start" x="275.47" y="-164.26" font-family="Times New Roman,serif" font-size="14.00">:int</text>
</g>
<!-- INT_MIN -->
<g id="node3" class="node">
<title>INT_MIN</title>
<ellipse fill="lightblue" stroke="black" cx="18.6" cy="-93.15" rx="18.6" ry="18.6"/>
<text text-anchor="middle" x="18.6" y="-88.1" font-family="Times New Roman,serif" font-size="14.00">&#45;n</text>
</g>
<!-- INT_TOP&#45;&gt;INT_MIN -->
<g id="edge1" class="edge">
<title>INT_TOP&#45;&gt;INT_MIN</title>
<path fill="none" stroke="black" d="M247,-158.92C197.13,-144.78 96.96,-116.37 47.53,-102.36"/>
<polygon fill="black" stroke="black" points="48.71,-99.06 38.13,-99.69 46.8,-105.79 48.71,-99.06"/>
</g>
<!-- INT_MINDOTS -->
<g id="node4" class="node">
<title>INT_MINDOTS</title>
<ellipse fill="lightblue" stroke="black" cx="107.6" cy="-93.15" rx="27" ry="18"/>
<text text-anchor="middle" x="107.6" y="-88.1" font-family="Times New Roman,serif" font-size="14.00">...</text>
</g>
<!-- INT_TOP&#45;&gt;INT_MINDOTS -->
<g id="edge2" class="edge">
<title>INT_TOP&#45;&gt;INT_MINDOTS</title>
<path fill="none" stroke="black" d="M250.93,-156.2C221.31,-143.38 172.55,-122.27 140.26,-108.29"/>
<polygon fill="black" stroke="black" points="141.94,-105.21 131.38,-104.45 139.16,-111.63 141.94,-105.21"/>
</g>
<!-- INT_MINUS -->
<g id="node5" class="node">
<title>INT_MINUS</title>
<ellipse fill="lightblue" stroke="black" cx="196.6" cy="-93.15" rx="18.6" ry="18.6"/>
<text text-anchor="middle" x="196.6" y="-88.1" font-family="Times New Roman,serif" font-size="14.00">&#45;1</text>
</g>
<!-- INT_TOP&#45;&gt;INT_MINUS -->
<g id="edge3" class="edge">
<title>INT_TOP&#45;&gt;INT_MINUS</title>
<path fill="none" stroke="black" d="M260.02,-152.15C247.97,-141.13 231.55,-126.11 218.43,-114.12"/>
<polygon fill="black" stroke="black" points="220.83,-111.57 211.09,-107.41 216.11,-116.74 220.83,-111.57"/>
</g>
<!-- INT_ZERO -->
<g id="node6" class="node">
<title>INT_ZERO</title>
<ellipse fill="lightblue" stroke="black" cx="276.6" cy="-93.15" rx="18" ry="18"/>
<text text-anchor="middle" x="276.6" y="-88.1" font-family="Times New Roman,serif" font-size="14.00">0</text>
</g>
<!-- INT_TOP&#45;&gt;INT_ZERO -->
<g id="edge4" class="edge">
<title>INT_TOP&#45;&gt;INT_ZERO</title>
<path fill="none" stroke="black" d="M276.6,-149.97C276.6,-141.92 276.6,-132.14 276.6,-123.02"/>
<polygon fill="black" stroke="black" points="280.1,-123.13 276.6,-113.13 273.1,-123.13 280.1,-123.13"/>
</g>
<!-- INT_PLUS -->
<g id="node7" class="node">
<title>INT_PLUS</title>
<ellipse fill="lightblue" stroke="black" cx="355.6" cy="-93.15" rx="18" ry="18"/>
<text text-anchor="middle" x="355.6" y="-88.1" font-family="Times New Roman,serif" font-size="14.00">1</text>
</g>
<!-- INT_TOP&#45;&gt;INT_PLUS -->
<g id="edge5" class="edge">
<title>INT_TOP&#45;&gt;INT_PLUS</title>
<path fill="none" stroke="black" d="M292.96,-152.15C305.01,-141 321.48,-125.74 334.51,-113.68"/>
<polygon fill="black" stroke="black" points="336.82,-116.31 341.78,-106.95 332.06,-111.18 336.82,-116.31"/>
</g>
<!-- INT_MAXDOTS -->
<g id="node8" class="node">
<title>INT_MAXDOTS</title>
<ellipse fill="lightblue" stroke="black" cx="443.6" cy="-93.15" rx="27" ry="18"/>
<text text-anchor="middle" x="443.6" y="-88.1" font-family="Times New Roman,serif" font-size="14.00">...</text>
</g>
<!-- INT_TOP&#45;&gt;INT_MAXDOTS -->
<g id="edge6" class="edge">
<title>INT_TOP&#45;&gt;INT_MAXDOTS</title>
<path fill="none" stroke="black" d="M302.32,-156.04C331.46,-143.28 379,-122.45 410.79,-108.53"/>
<polygon fill="black" stroke="black" points="412.17,-111.74 419.93,-104.52 409.36,-105.33 412.17,-111.74"/>
</g>
<!-- INT_MAX -->
<g id="node9" class="node">
<title>INT_MAX</title>
<ellipse fill="lightblue" stroke="black" cx="534.6" cy="-93.15" rx="21.15" ry="21.15"/>
<text text-anchor="middle" x="534.6" y="-88.1" font-family="Times New Roman,serif" font-size="14.00">+n</text>
</g>
<!-- INT_TOP&#45;&gt;INT_MAX -->
<g id="edge7" class="edge">
<title>INT_TOP&#45;&gt;INT_MAX</title>
<path fill="none" stroke="black" d="M306.19,-158.92C355.31,-144.99 453.21,-117.23 503.38,-103.01"/>
<polygon fill="black" stroke="black" points="504.07,-106.45 512.73,-100.35 502.16,-99.71 504.07,-106.45"/>
</g>
<!-- INT_BOT -->
<g id="node2" class="node">
<title>INT_BOT</title>
<ellipse fill="lightblue" stroke="black" cx="276.6" cy="-18" rx="33.95" ry="18"/>
<text text-anchor="start" x="259.72" y="-13.95" font-family="Times New Roman,serif" font-weight="bold" font-size="14.00">⊥</text>
<text text-anchor="start" x="275.47" y="-13.95" font-family="Times New Roman,serif" font-size="14.00">:int</text>
</g>
<!-- INT_MIN&#45;&gt;INT_BOT -->
<g id="edge8" class="edge">
<title>INT_MIN&#45;&gt;INT_BOT</title>
<path fill="none" stroke="black" d="M36.33,-87.13C77.31,-75.51 179.45,-46.55 236.48,-30.38"/>
<polygon fill="black" stroke="black" points="237.13,-33.83 245.79,-27.73 235.22,-27.09 237.13,-33.83"/>
</g>
<!-- INT_MIN&#45;&gt;INT_MINDOTS -->
<!-- INT_MINDOTS&#45;&gt;INT_BOT -->
<g id="edge9" class="edge">
<title>INT_MINDOTS&#45;&gt;INT_BOT</title>
<path fill="none" stroke="black" d="M129.69,-82.59C157.87,-70.39 206.96,-49.14 240.58,-34.59"/>
<polygon fill="black" stroke="black" points="241.73,-37.91 249.51,-30.72 238.95,-31.48 241.73,-37.91"/>
</g>
<!-- INT_MINDOTS&#45;&gt;INT_MINUS -->
<!-- INT_MINUS&#45;&gt;INT_BOT -->
<g id="edge10" class="edge">
<title>INT_MINUS&#45;&gt;INT_BOT</title>
<path fill="none" stroke="black" d="M210.17,-79.75C221.61,-69.28 238.28,-54.04 252.06,-41.44"/>
<polygon fill="black" stroke="black" points="254.05,-44.36 259.07,-35.03 249.33,-39.19 254.05,-44.36"/>
</g>
<!-- INT_MINUS&#45;&gt;INT_ZERO -->
<!-- INT_ZERO&#45;&gt;INT_BOT -->
<g id="edge11" class="edge">
<title>INT_ZERO&#45;&gt;INT_BOT</title>
<path fill="none" stroke="black" d="M276.6,-74.82C276.6,-66.77 276.6,-56.98 276.6,-47.86"/>
<polygon fill="black" stroke="black" points="280.1,-47.98 276.6,-37.98 273.1,-47.98 280.1,-47.98"/>
</g>
<!-- INT_ZERO&#45;&gt;INT_PLUS -->
<!-- INT_PLUS&#45;&gt;INT_BOT -->
<g id="edge12" class="edge">
<title>INT_PLUS&#45;&gt;INT_BOT</title>
<path fill="none" stroke="black" d="M342.55,-80.07C331.3,-69.66 314.75,-54.33 301.04,-41.64"/>
<polygon fill="black" stroke="black" points="303.78,-39.4 294.06,-35.17 299.02,-44.53 303.78,-39.4"/>
</g>
<!-- INT_PLUS&#45;&gt;INT_MAXDOTS -->
<!-- INT_MAXDOTS&#45;&gt;INT_BOT -->
<g id="edge13" class="edge">
<title>INT_MAXDOTS&#45;&gt;INT_BOT</title>
<path fill="none" stroke="black" d="M421.42,-82.44C393.56,-70.24 345.4,-49.14 312.32,-34.65"/>
<polygon fill="black" stroke="black" points="314.1,-31.61 303.54,-30.8 311.29,-38.02 314.1,-31.61"/>
</g>
<!-- INT_MAXDOTS&#45;&gt;INT_MAX -->
<!-- INT_MAX&#45;&gt;INT_BOT -->
<g id="edge14" class="edge">
<title>INT_MAX&#45;&gt;INT_BOT</title>
<path fill="none" stroke="black" d="M514.35,-86.41C471.9,-74.38 372.87,-46.3 316.93,-30.44"/>
<polygon fill="black" stroke="black" points="318.05,-27.12 307.47,-27.76 316.14,-33.85 318.05,-27.12"/>
</g>
</g>
</svg>
