<?xml version="1.0" encoding="UTF-8" standalone="no"?>
<!DOCTYPE svg PUBLIC "-//W3C//DTD SVG 1.1//EN"
 "http://www.w3.org/Graphics/SVG/1.1/DTD/svg11.dtd">
<!-- Generated by graphviz version 2.43.0 (0)
 -->
<!-- Title: chapter08 Pages: 1 -->
<svg width="334pt" height="764pt"
 viewBox="0.00 0.00 334.00 764.00" xmlns="http://www.w3.org/2000/svg" xmlns:xlink="http://www.w3.org/1999/xlink">
<g id="graph0" class="graph" transform="scale(1 1) rotate(0) translate(4 760)">
<title>chapter08</title>
<polygon fill="white" stroke="transparent" points="-4,4 -4,-760 330,-760 330,4 -4,4"/>
<g id="clust1" class="cluster">
<title>cluster_Nodes</title>
<polygon fill="none" stroke="black" points="8,-8 8,-748 318,-748 318,-8 8,-8"/>
</g>
<!-- Start2 -->
<g id="node1" class="node">
<title>Start2</title>
<polygon fill="yellow" stroke="transparent" points="80,-711 80,-736 161,-736 161,-711 80,-711"/>
<polygon fill="none" stroke="black" points="80,-711 80,-736 161,-736 161,-711 80,-711"/>
<text text-anchor="start" x="102" y="-719.8" font-family="Times,serif" font-size="14.00">Start</text>
<polygon fill="none" stroke="black" points="80,-680 80,-711 161,-711 161,-680 80,-680"/>
<polygon fill="yellow" stroke="transparent" points="85,-685 85,-706 125,-706 125,-685 85,-685"/>
<polygon fill="none" stroke="black" points="85,-685 85,-706 125,-706 125,-685 85,-685"/>
<text text-anchor="start" x="88" y="-691.8" font-family="Times,serif" font-size="14.00">$ctrl</text>
<polygon fill="none" stroke="black" points="125,-685 125,-706 156,-706 156,-685 125,-685"/>
<text text-anchor="start" x="128" y="-691.8" font-family="Times,serif" font-size="14.00">arg</text>
</g>
<!-- Stop3 -->
<g id="node2" class="node">
<title>Stop3</title>
<polygon fill="yellow" stroke="black" points="130,-52 76,-52 76,-16 130,-16 130,-52"/>
<text text-anchor="middle" x="103" y="-30.3" font-family="Times,serif" font-size="14.00">Stop</text>
</g>
<!-- Return40 -->
<g id="node19" class="node">
<title>Return40</title>
<polygon fill="yellow" stroke="black" points="136,-124 70,-124 70,-88 136,-88 136,-124"/>
<text text-anchor="middle" x="103" y="-102.3" font-family="Times,serif" font-size="14.00">Return</text>
</g>
<!-- Stop3&#45;&gt;Return40 -->
<g id="edge1" class="edge">
<title>Stop3&#45;&gt;Return40</title>
<path fill="none" stroke="red" d="M103,-52.3C103,-60.02 103,-69.29 103,-77.89"/>
<polygon fill="red" stroke="red" points="99.5,-77.9 103,-87.9 106.5,-77.9 99.5,-77.9"/>
<text text-anchor="middle" x="100" y="-54.9" font-family="Helvetica,sans-Serif" font-size="8.00">0</text>
</g>
<!-- Loop6 -->
<g id="node3" class="node">
<title>Loop6</title>
<polygon fill="yellow" stroke="black" points="70,-640 16,-640 16,-604 70,-604 70,-640"/>
<text text-anchor="middle" x="43" y="-618.3" font-family="Times,serif" font-size="14.00">Loop</text>
</g>
<!-- Loop6&#45;&gt;Start2 -->
<g id="edge2" class="edge">
<title>Loop6&#45;&gt;Start2:p0</title>
<path fill="none" stroke="red" d="M45.16,-640.06C48.35,-658.19 56.02,-685.28 73.77,-692.93"/>
<polygon fill="red" stroke="red" points="73.5,-696.44 84,-695 74.89,-689.58 73.5,-696.44"/>
<text text-anchor="middle" x="42.16" y="-642.66" font-family="Helvetica,sans-Serif" font-size="8.00">1</text>
</g>
<!-- Region39 -->
<g id="node18" class="node">
<title>Region39</title>
<polygon fill="yellow" stroke="black" points="268,-196 202,-196 202,-160 268,-160 268,-196"/>
<text text-anchor="middle" x="235" y="-174.3" font-family="Times,serif" font-size="14.00">Region</text>
</g>
<!-- Loop6&#45;&gt;Region39 -->
<g id="edge3" class="edge">
<title>Loop6&#45;&gt;Region39</title>
<path fill="none" stroke="red" d="M34.42,-603.81C18.87,-570.32 -10.82,-494.13 7,-432 35.9,-331.24 54.86,-302.97 132,-232 141.73,-223.05 168.66,-209.3 192.54,-198.05"/>
<polygon fill="red" stroke="red" points="194.25,-201.11 201.84,-193.72 191.3,-194.77 194.25,-201.11"/>
<text text-anchor="middle" x="31.42" y="-597.41" font-family="Helvetica,sans-Serif" font-size="8.00">2</text>
</g>
<!-- Phi_arg8 -->
<g id="node4" class="node">
<title>Phi_arg8</title>
<ellipse fill="lightyellow" stroke="black" cx="197" cy="-622" rx="37.09" ry="18"/>
<text text-anchor="middle" x="197" y="-618.3" font-family="Times,serif" font-size="14.00">φ_arg</text>
</g>
<!-- Phi_arg8&#45;&gt;Start2 -->
<g id="edge5" class="edge">
<title>Phi_arg8&#45;&gt;Start2:p1</title>
<path fill="none" stroke="black" d="M195.04,-640.06C192.05,-658.19 184.71,-685.28 167.15,-692.93"/>
<polygon fill="black" stroke="black" points="166.1,-689.57 157,-695 167.5,-696.43 166.1,-689.57"/>
<text text-anchor="middle" x="192.04" y="-642.66" font-family="Helvetica,sans-Serif" font-size="8.00">1</text>
</g>
<!-- Phi_arg8&#45;&gt;Loop6 -->
<g id="edge4" class="edge">
<title>Phi_arg8&#45;&gt;Loop6</title>
<path fill="none" stroke="black" stroke-dasharray="1,5" d="M178.53,-606.01C168.46,-598.34 155.34,-589.98 142,-586 119,-579.14 110.65,-578.06 88,-586 80.86,-588.5 74.01,-592.67 67.91,-597.3"/>
<polygon fill="black" stroke="black" points="65.55,-594.71 60.08,-603.78 70.01,-600.1 65.55,-594.71"/>
<text text-anchor="middle" x="175.53" y="-599.61" font-family="Helvetica,sans-Serif" font-size="8.00">0</text>
</g>
<!-- Add16 -->
<g id="node9" class="node">
<title>Add16</title>
<ellipse fill="none" stroke="black" cx="197" cy="-550" rx="27" ry="18"/>
<text text-anchor="middle" x="197" y="-546.3" font-family="Times,serif" font-size="14.00">+</text>
</g>
<!-- Con_9 -->
<g id="node5" class="node">
<title>Con_9</title>
<ellipse fill="none" stroke="black" cx="115" cy="-622" rx="27" ry="18"/>
<text text-anchor="middle" x="115" y="-618.3" font-family="Times,serif" font-size="14.00">10</text>
</g>
<!-- LT10 -->
<g id="node6" class="node">
<title>LT10</title>
<ellipse fill="none" stroke="black" cx="99" cy="-550" rx="27" ry="18"/>
<text text-anchor="middle" x="99" y="-546.3" font-family="Times,serif" font-size="14.00">&lt;</text>
</g>
<!-- LT10&#45;&gt;Phi_arg8 -->
<g id="edge7" class="edge">
<title>LT10&#45;&gt;Phi_arg8</title>
<path fill="none" stroke="black" d="M116.97,-563.84C131.47,-574.19 152.11,-588.94 168.8,-600.86"/>
<polygon fill="black" stroke="black" points="166.94,-603.83 177.12,-606.8 171.01,-598.14 166.94,-603.83"/>
<text text-anchor="middle" x="113.97" y="-566.44" font-family="Helvetica,sans-Serif" font-size="8.00">1</text>
</g>
<!-- LT10&#45;&gt;Con_9 -->
<g id="edge8" class="edge">
<title>LT10&#45;&gt;Con_9</title>
<path fill="none" stroke="black" d="M102.87,-567.95C104.65,-575.74 106.81,-585.18 108.81,-593.92"/>
<polygon fill="black" stroke="black" points="105.41,-594.76 111.05,-603.72 112.24,-593.2 105.41,-594.76"/>
<text text-anchor="middle" x="99.87" y="-570.55" font-family="Helvetica,sans-Serif" font-size="8.00">2</text>
</g>
<!-- If11 -->
<g id="node7" class="node">
<title>If11</title>
<polygon fill="yellow" stroke="transparent" points="24,-467 24,-492 118,-492 118,-467 24,-467"/>
<polygon fill="none" stroke="black" points="24,-467 24,-492 118,-492 118,-467 24,-467"/>
<text text-anchor="start" x="65.5" y="-475.8" font-family="Times,serif" font-size="14.00">If</text>
<polygon fill="none" stroke="black" points="24,-436 24,-467 118,-467 118,-436 24,-436"/>
<polygon fill="yellow" stroke="transparent" points="29,-441 29,-462 69,-462 69,-441 29,-441"/>
<polygon fill="none" stroke="black" points="29,-441 29,-462 69,-462 69,-441 29,-441"/>
<text text-anchor="start" x="32" y="-447.8" font-family="Times,serif" font-size="14.00">True</text>
<polygon fill="yellow" stroke="transparent" points="69,-441 69,-462 113,-462 113,-441 69,-441"/>
<polygon fill="none" stroke="black" points="69,-441 69,-462 113,-462 113,-441 69,-441"/>
<text text-anchor="start" x="72" y="-447.8" font-family="Times,serif" font-size="14.00">False</text>
</g>
<!-- If11&#45;&gt;Loop6 -->
<g id="edge9" class="edge">
<title>If11&#45;&gt;Loop6</title>
<path fill="none" stroke="red" d="M65.4,-496.19C60.27,-524.77 52.76,-566.64 47.87,-593.86"/>
<polygon fill="red" stroke="red" points="44.4,-593.4 46.08,-603.86 51.29,-594.63 44.4,-593.4"/>
<text text-anchor="middle" x="62.4" y="-498.79" font-family="Helvetica,sans-Serif" font-size="8.00">0</text>
</g>
<!-- If11&#45;&gt;LT10 -->
<g id="edge10" class="edge">
<title>If11&#45;&gt;LT10</title>
<path fill="none" stroke="black" d="M81.43,-496.28C84.3,-504.9 87.39,-514.17 90.16,-522.49"/>
<polygon fill="black" stroke="black" points="86.87,-523.69 93.36,-532.07 93.51,-521.48 86.87,-523.69"/>
<text text-anchor="middle" x="78.43" y="-498.88" font-family="Helvetica,sans-Serif" font-size="8.00">1</text>
</g>
<!-- Con_15 -->
<g id="node8" class="node">
<title>Con_15</title>
<ellipse fill="none" stroke="black" cx="279" cy="-622" rx="27" ry="18"/>
<text text-anchor="middle" x="279" y="-618.3" font-family="Times,serif" font-size="14.00">1</text>
</g>
<!-- Add16&#45;&gt;Phi_arg8 -->
<g id="edge11" class="edge">
<title>Add16&#45;&gt;Phi_arg8</title>
<path fill="none" stroke="black" d="M197,-578.33C197,-583.31 197,-588.51 197,-593.49"/>
<polygon fill="black" stroke="black" points="200.5,-578.3 197,-568.3 193.5,-578.3 200.5,-578.3"/>
<polygon fill="black" stroke="black" points="193.5,-593.9 197,-603.9 200.5,-593.9 193.5,-593.9"/>
<text text-anchor="middle" x="194" y="-570.9" font-family="Helvetica,sans-Serif" font-size="8.00">1</text>
</g>
<!-- Add16&#45;&gt;Con_15 -->
<g id="edge12" class="edge">
<title>Add16&#45;&gt;Con_15</title>
<path fill="none" stroke="black" d="M213.2,-564.83C225.18,-575.06 241.69,-589.15 255.18,-600.66"/>
<polygon fill="black" stroke="black" points="253.23,-603.61 263.11,-607.44 257.78,-598.28 253.23,-603.61"/>
<text text-anchor="middle" x="210.2" y="-567.43" font-family="Helvetica,sans-Serif" font-size="8.00">2</text>
</g>
<!-- Con_17 -->
<g id="node10" class="node">
<title>Con_17</title>
<ellipse fill="none" stroke="black" cx="269" cy="-550" rx="27" ry="18"/>
<text text-anchor="middle" x="269" y="-546.3" font-family="Times,serif" font-size="14.00">5</text>
</g>
<!-- EQ18 -->
<g id="node11" class="node">
<title>EQ18</title>
<ellipse fill="none" stroke="black" cx="211" cy="-464" rx="27" ry="18"/>
<text text-anchor="middle" x="211" y="-460.3" font-family="Times,serif" font-size="14.00">==</text>
</g>
<!-- EQ18&#45;&gt;Add16 -->
<g id="edge13" class="edge">
<title>EQ18&#45;&gt;Add16</title>
<path fill="none" stroke="black" d="M208.17,-482C206.25,-493.5 203.68,-508.93 201.49,-522.08"/>
<polygon fill="black" stroke="black" points="198.02,-521.59 199.83,-532.03 204.93,-522.74 198.02,-521.59"/>
<text text-anchor="middle" x="205.17" y="-484.6" font-family="Helvetica,sans-Serif" font-size="8.00">1</text>
</g>
<!-- EQ18&#45;&gt;Con_17 -->
<g id="edge14" class="edge">
<title>EQ18&#45;&gt;Con_17</title>
<path fill="none" stroke="black" d="M221.91,-480.8C230.5,-493.24 242.61,-510.78 252.4,-524.95"/>
<polygon fill="black" stroke="black" points="249.58,-527.03 258.14,-533.27 255.34,-523.05 249.58,-527.03"/>
<text text-anchor="middle" x="218.91" y="-483.4" font-family="Helvetica,sans-Serif" font-size="8.00">2</text>
</g>
<!-- If19 -->
<g id="node12" class="node">
<title>If19</title>
<polygon fill="yellow" stroke="transparent" points="116,-367 116,-392 210,-392 210,-367 116,-367"/>
<polygon fill="none" stroke="black" points="116,-367 116,-392 210,-392 210,-367 116,-367"/>
<text text-anchor="start" x="157.5" y="-375.8" font-family="Times,serif" font-size="14.00">If</text>
<polygon fill="none" stroke="black" points="116,-336 116,-367 210,-367 210,-336 116,-336"/>
<polygon fill="yellow" stroke="transparent" points="121,-341 121,-362 161,-362 161,-341 121,-341"/>
<polygon fill="none" stroke="black" points="121,-341 121,-362 161,-362 161,-341 121,-341"/>
<text text-anchor="start" x="124" y="-347.8" font-family="Times,serif" font-size="14.00">True</text>
<polygon fill="yellow" stroke="transparent" points="161,-341 161,-362 205,-362 205,-341 161,-341"/>
<polygon fill="none" stroke="black" points="161,-341 161,-362 205,-362 205,-341 161,-341"/>
<text text-anchor="start" x="164" y="-347.8" font-family="Times,serif" font-size="14.00">False</text>
</g>
<!-- If19&#45;&gt;If11 -->
<g id="edge15" class="edge">
<title>If19&#45;&gt;If11:p0</title>
<path fill="none" stroke="red" d="M107.67,-379.11C81.91,-388.94 55.7,-404.9 50.1,-429.95"/>
<polygon fill="red" stroke="red" points="46.61,-429.68 49,-440 53.56,-430.44 46.61,-429.68"/>
<text text-anchor="middle" x="104.67" y="-372.71" font-family="Helvetica,sans-Serif" font-size="8.00">0</text>
</g>
<!-- If19&#45;&gt;EQ18 -->
<g id="edge16" class="edge">
<title>If19&#45;&gt;EQ18</title>
<path fill="none" stroke="black" d="M178.19,-396.01C184.75,-409.41 192.34,-424.91 198.57,-437.61"/>
<polygon fill="black" stroke="black" points="195.48,-439.27 203.02,-446.71 201.76,-436.19 195.48,-439.27"/>
<text text-anchor="middle" x="175.19" y="-398.61" font-family="Helvetica,sans-Serif" font-size="8.00">1</text>
</g>
<!-- Con_26 -->
<g id="node13" class="node">
<title>Con_26</title>
<ellipse fill="none" stroke="black" cx="283" cy="-464" rx="27" ry="18"/>
<text text-anchor="middle" x="283" y="-460.3" font-family="Times,serif" font-size="14.00">6</text>
</g>
<!-- EQ27 -->
<g id="node14" class="node">
<title>EQ27</title>
<ellipse fill="none" stroke="black" cx="263" cy="-364" rx="27" ry="18"/>
<text text-anchor="middle" x="263" y="-360.3" font-family="Times,serif" font-size="14.00">==</text>
</g>
<!-- EQ27&#45;&gt;Add16 -->
<g id="edge17" class="edge">
<title>EQ27&#45;&gt;Add16</title>
<path fill="none" stroke="black" d="M247.53,-378.95C241.28,-384.42 233.92,-390.65 227,-396 204.76,-413.19 191.76,-409.43 175,-432 166.37,-443.62 168.75,-449.02 165,-463"/>
<path fill="none" stroke="black" d="M165,-465C159.41,-485.86 169.21,-508.71 179.4,-525.31"/>
<polygon fill="black" stroke="black" points="176.59,-527.4 185,-533.83 182.43,-523.55 176.59,-527.4"/>
<text text-anchor="middle" x="244.53" y="-381.55" font-family="Helvetica,sans-Serif" font-size="8.00">1</text>
</g>
<!-- EQ27&#45;&gt;Con_26 -->
<g id="edge18" class="edge">
<title>EQ27&#45;&gt;Con_26</title>
<path fill="none" stroke="black" d="M266.48,-382.07C269.52,-396.97 273.99,-418.83 277.51,-436.08"/>
<polygon fill="black" stroke="black" points="274.13,-437.03 279.56,-446.13 280.99,-435.63 274.13,-437.03"/>
<text text-anchor="middle" x="263.48" y="-384.67" font-family="Helvetica,sans-Serif" font-size="8.00">2</text>
</g>
<!-- If28 -->
<g id="node15" class="node">
<title>If28</title>
<polygon fill="yellow" stroke="transparent" points="168,-267 168,-292 262,-292 262,-267 168,-267"/>
<polygon fill="none" stroke="black" points="168,-267 168,-292 262,-292 262,-267 168,-267"/>
<text text-anchor="start" x="209.5" y="-275.8" font-family="Times,serif" font-size="14.00">If</text>
<polygon fill="none" stroke="black" points="168,-236 168,-267 262,-267 262,-236 168,-236"/>
<polygon fill="yellow" stroke="transparent" points="173,-241 173,-262 213,-262 213,-241 173,-241"/>
<polygon fill="none" stroke="black" points="173,-241 173,-262 213,-262 213,-241 173,-241"/>
<text text-anchor="start" x="176" y="-247.8" font-family="Times,serif" font-size="14.00">True</text>
<polygon fill="yellow" stroke="transparent" points="213,-241 213,-262 257,-262 257,-241 213,-241"/>
<polygon fill="none" stroke="black" points="213,-241 213,-262 257,-262 257,-241 213,-241"/>
<text text-anchor="start" x="216" y="-247.8" font-family="Times,serif" font-size="14.00">False</text>
</g>
<!-- If28&#45;&gt;If19 -->
<g id="edge19" class="edge">
<title>If28&#45;&gt;If19:p1</title>
<path fill="none" stroke="red" d="M195.1,-296.25C190.01,-306.42 185.49,-318.16 183.75,-330.03"/>
<polygon fill="red" stroke="red" points="180.26,-329.76 183,-340 187.24,-330.29 180.26,-329.76"/>
<text text-anchor="middle" x="192.1" y="-298.85" font-family="Helvetica,sans-Serif" font-size="8.00">0</text>
</g>
<!-- If28&#45;&gt;EQ27 -->
<g id="edge20" class="edge">
<title>If28&#45;&gt;EQ27</title>
<path fill="none" stroke="black" d="M230.19,-296.01C236.75,-309.41 244.34,-324.91 250.57,-337.61"/>
<polygon fill="black" stroke="black" points="247.48,-339.27 255.02,-346.71 253.76,-336.19 247.48,-339.27"/>
<text text-anchor="middle" x="227.19" y="-298.61" font-family="Helvetica,sans-Serif" font-size="8.00">1</text>
</g>
<!-- Region34 -->
<g id="node16" class="node">
<title>Region34</title>
<polygon fill="yellow" stroke="black" points="92,-196 26,-196 26,-160 92,-160 92,-196"/>
<text text-anchor="middle" x="59" y="-174.3" font-family="Times,serif" font-size="14.00">Region</text>
</g>
<!-- Region34&#45;&gt;If11 -->
<g id="edge21" class="edge">
<title>Region34&#45;&gt;If11:p1</title>
<path fill="none" stroke="red" d="M60.73,-196.19C64.47,-232.93 73.83,-321.8 84,-396 86.16,-411.79 89.38,-417.84 90.55,-429.91"/>
<polygon fill="red" stroke="red" points="87.06,-430.17 91,-440 94.05,-429.85 87.06,-430.17"/>
<text text-anchor="middle" x="57.73" y="-198.79" font-family="Helvetica,sans-Serif" font-size="8.00">1</text>
</g>
<!-- Region34&#45;&gt;If28 -->
<g id="edge22" class="edge">
<title>Region34&#45;&gt;If28:p0</title>
<path fill="none" stroke="red" d="M73.55,-196.06C91.73,-215.52 124.92,-245.31 161.58,-250.28"/>
<polygon fill="red" stroke="red" points="161.78,-253.81 172,-251 162.26,-246.82 161.78,-253.81"/>
<text text-anchor="middle" x="70.55" y="-198.66" font-family="Helvetica,sans-Serif" font-size="8.00">2</text>
</g>
<!-- Phi_arg35 -->
<g id="node17" class="node">
<title>Phi_arg35</title>
<ellipse fill="lightyellow" stroke="black" cx="147" cy="-178" rx="37.09" ry="18"/>
<text text-anchor="middle" x="147" y="-174.3" font-family="Times,serif" font-size="14.00">φ_arg</text>
</g>
<!-- Phi_arg35&#45;&gt;Phi_arg8 -->
<g id="edge24" class="edge">
<title>Phi_arg35&#45;&gt;Phi_arg8</title>
<path fill="none" stroke="black" d="M136.87,-195.37C115.38,-232.36 69.47,-324.71 99,-396 107.66,-416.91 124.41,-412 135,-432 163.81,-486.38 137.45,-511.15 161,-568 165.15,-578.02 171.36,-588.09 177.46,-596.73"/>
<polygon fill="black" stroke="black" points="174.69,-598.87 183.44,-604.83 180.32,-594.71 174.69,-598.87"/>
<text text-anchor="middle" x="133.87" y="-197.97" font-family="Helvetica,sans-Serif" font-size="8.00">1</text>
</g>
<!-- Phi_arg35&#45;&gt;Add16 -->
<g id="edge25" class="edge">
<title>Phi_arg35&#45;&gt;Add16</title>
<path fill="none" stroke="black" d="M175.64,-189.71C213.39,-203.94 275.5,-227.79 279,-232 307.96,-266.86 294.53,-286.9 299,-332 301.8,-360.31 316.08,-373.26 299,-396 264.54,-441.89 216.17,-392.02 175,-432 164.61,-442.08 168.75,-449.02 165,-463"/>
<text text-anchor="middle" x="172.64" y="-192.31" font-family="Helvetica,sans-Serif" font-size="8.00">2</text>
</g>
<!-- Phi_arg35&#45;&gt;Region34 -->
<g id="edge23" class="edge">
<title>Phi_arg35&#45;&gt;Region34</title>
<path fill="none" stroke="black" stroke-dasharray="1,5" d="M109.85,-178C107.39,-178 104.93,-178 102.47,-178"/>
<polygon fill="black" stroke="black" points="102.34,-174.5 92.34,-178 102.34,-181.5 102.34,-174.5"/>
<text text-anchor="middle" x="106.85" y="-171.6" font-family="Helvetica,sans-Serif" font-size="8.00">0</text>
</g>
<!-- Region39&#45;&gt;If19 -->
<g id="edge26" class="edge">
<title>Region39&#45;&gt;If19:p0</title>
<path fill="none" stroke="red" d="M201.88,-195.94C181.14,-207.25 157.22,-221.86 151,-232 127.62,-270.12 139.01,-288.97 140.78,-329.99"/>
<polygon fill="red" stroke="red" points="137.28,-330.08 141,-340 144.28,-329.93 137.28,-330.08"/>
<text text-anchor="middle" x="198.88" y="-189.54" font-family="Helvetica,sans-Serif" font-size="8.00">1</text>
</g>
<!-- Region39&#45;&gt;If28 -->
<g id="edge27" class="edge">
<title>Region39&#45;&gt;If28:p1</title>
<path fill="none" stroke="red" d="M235,-196.09C235,-205.55 235,-217.77 235,-229.69"/>
<polygon fill="red" stroke="red" points="231.5,-230 235,-240 238.5,-230 231.5,-230"/>
<text text-anchor="middle" x="232" y="-198.69" font-family="Helvetica,sans-Serif" font-size="8.00">2</text>
</g>
<!-- Return40&#45;&gt;Region34 -->
<g id="edge28" class="edge">
<title>Return40&#45;&gt;Region34</title>
<path fill="none" stroke="red" d="M92.12,-124.3C87.01,-132.44 80.8,-142.31 75.16,-151.3"/>
<polygon fill="red" stroke="red" points="72.11,-149.57 69.75,-159.9 78.04,-153.29 72.11,-149.57"/>
<text text-anchor="middle" x="89.12" y="-126.9" font-family="Helvetica,sans-Serif" font-size="8.00">0</text>
</g>
<!-- Return40&#45;&gt;Phi_arg35 -->
<g id="edge29" class="edge">
<title>Return40&#45;&gt;Phi_arg35</title>
<path fill="none" stroke="black" d="M113.88,-124.3C119.07,-132.56 125.38,-142.61 131.1,-151.7"/>
<polygon fill="black" stroke="black" points="128.27,-153.77 136.55,-160.38 134.19,-150.05 128.27,-153.77"/>
<text text-anchor="middle" x="110.88" y="-126.9" font-family="Helvetica,sans-Serif" font-size="8.00">1</text>
</g>
</g>
</svg>
