<?xml version="1.0" encoding="UTF-8" standalone="no"?>
<!DOCTYPE svg PUBLIC "-//W3C//DTD SVG 1.1//EN" "http://www.w3.org/Graphics/SVG/1.1/DTD/svg11.dtd">
<!-- Generated by graphviz version 2.40.1 (20161225.0304)
 -->
<!-- Title: chapter04 Pages: 1 -->
<svg width="308pt" height="186pt" viewBox="0.00 0.00 308.00 186.00" xmlns="http://www.w3.org/2000/svg" xmlns:xlink="http://www.w3.org/1999/xlink">
<g id="graph0" class="graph" transform="scale(1 1) rotate(0) translate(4 182)">
<title>chapter04</title>
<polygon fill="#ffffff" stroke="transparent" points="-4,4 -4,-182 304,-182 304,4 -4,4"/>
<g id="clust1" class="cluster">
<title>cluster_Nodes</title>
<polygon fill="none" stroke="#000000" points="8,-16 8,-170 104,-170 104,-16 8,-16"/>
</g>
<g id="clust2" class="cluster">
<title>cluster_Scope1_0</title>
<polygon fill="none" stroke="#000000" points="112,-8 112,-76 292,-76 292,-8 112,-8"/>
</g>
<g id="clust3" class="cluster">
<title>cluster_Scope1_1</title>
<polygon fill="none" stroke="#000000" points="214,-16 214,-68 284,-68 284,-16 214,-16"/>
</g>
<!-- Start2 -->
<g id="node1" class="node">
<title>Start2</title>
<polygon fill="#ffff00" stroke="transparent" points="24,-132 24,-158 88,-158 88,-132 24,-132"/>
<polygon fill="none" stroke="#000000" points="24,-132 24,-158 88,-158 88,-132 24,-132"/>
<text text-anchor="start" x="42.7805" y="-140.4" font-family="Times,serif" font-size="14.00" fill="#000000">Start</text>
<polygon fill="none" stroke="#000000" points="24,-100 24,-132 88,-132 88,-100 24,-100"/>
<polygon fill="#ffff00" stroke="transparent" points="29,-105 29,-127 60,-127 60,-105 29,-105"/>
<polygon fill="none" stroke="#000000" points="29,-105 29,-127 60,-127 60,-105 29,-105"/>
<text text-anchor="start" x="31.6718" y="-111.4" font-family="Times,serif" font-size="14.00" fill="#000000">$ctrl</text>
<polygon fill="none" stroke="#000000" points="60,-105 60,-127 83,-127 83,-105 60,-105"/>
<text text-anchor="start" x="62.5624" y="-111.4" font-family="Times,serif" font-size="14.00" fill="#000000">arg</text>
</g>
<!-- Return5 -->
<g id="node2" class="node">
<title>Return5</title>
<polygon fill="#ffff00" stroke="#000000" points="83.1025,-60 28.8975,-60 28.8975,-24 83.1025,-24 83.1025,-60"/>
<text text-anchor="middle" x="56" y="-37.8" font-family="Times,serif" font-size="14.00" fill="#000000">Return</text>
</g>
<!-- Return5&#45;&gt;Start2 -->
<g id="edge1" class="edge">
<title>Return5-&gt;Start2:p0</title>
<path fill="none" stroke="#ff0000" d="M50.7017,-60.0225C48.1903,-69.7926 45.5126,-82.3709 44.4612,-94.733"/>
<polygon fill="#ff0000" stroke="#ff0000" points="40.9524,-94.853 44,-105 47.9454,-95.1672 40.9524,-94.853"/>
<text text-anchor="middle" x="48.4781" y="-62.4225" font-family="Helvetica,sans-Serif" font-size="8.00" fill="#000000">0</text>
</g>
<!-- Return5&#45;&gt;Start2 -->
<g id="edge2" class="edge">
<title>Return5-&gt;Start2:p1</title>
<path fill="none" stroke="#000000" d="M63.1576,-60.1614C66.4858,-69.8668 70.0107,-82.3387 71.3935,-94.7027"/>
<polygon fill="#000000" stroke="#000000" points="67.918,-95.2231 72,-105 74.9059,-94.8115 67.918,-95.2231"/>
<text text-anchor="middle" x="60.934" y="-62.5614" font-family="Helvetica,sans-Serif" font-size="8.00" fill="#000000">1</text>
</g>
<!-- Scope1_0 -->
<g id="node3" class="node">
<title>Scope1_0</title>
<polygon fill="#00ffff" stroke="transparent" points="129,-31 129,-53 142,-53 142,-31 129,-31"/>
<polygon fill="none" stroke="#000000" points="129,-31 129,-53 142,-53 142,-31 129,-31"/>
<text text-anchor="start" x="132" y="-37.4" font-family="Times,serif" font-size="14.00" fill="#000000">0</text>
<polygon fill="none" stroke="#000000" points="142,-31 142,-53 173,-53 173,-31 142,-31"/>
<text text-anchor="start" x="144.6718" y="-37.4" font-family="Times,serif" font-size="14.00" fill="#000000">$ctrl</text>
<polygon fill="none" stroke="#000000" points="173,-31 173,-53 196,-53 196,-31 173,-31"/>
<text text-anchor="start" x="175.5624" y="-37.4" font-family="Times,serif" font-size="14.00" fill="#000000">arg</text>
</g>
<!-- Scope1_0&#45;&gt;Start2 -->
<g id="edge3" class="edge">
<title>Scope1_0:Scope1_0_arg-&gt;Start2:p1</title>
<path fill="none" stroke="#6495ed" stroke-dasharray="5,2" d="M185,-53C185,-102.849 142.3608,-114.5665 93.2341,-115.8698"/>
<polygon fill="#6495ed" stroke="#6495ed" points="92.9546,-112.373 83,-116 93.0437,-119.3724 92.9546,-112.373"/>
</g>
<!-- Scope1_1 -->
<g id="node4" class="node">
<title>Scope1_1</title>
<polygon fill="#00ffff" stroke="transparent" points="243,-31 243,-53 256,-53 256,-31 243,-31"/>
<polygon fill="none" stroke="#000000" points="243,-31 243,-53 256,-53 256,-31 243,-31"/>
<text text-anchor="start" x="246" y="-37.4" font-family="Times,serif" font-size="14.00" fill="#000000">1</text>
</g>
</g>
</svg>