<?xml version="1.0" encoding="UTF-8" standalone="no"?>
<!DOCTYPE svg PUBLIC "-//W3C//DTD SVG 1.1//EN"
 "http://www.w3.org/Graphics/SVG/1.1/DTD/svg11.dtd">
<!-- Generated by graphviz version 2.43.0 (0)
 -->
<!-- Title: chapter04 Pages: 1 -->
<svg width="417pt" height="248pt"
 viewBox="0.00 0.00 417.00 248.00" xmlns="http://www.w3.org/2000/svg" xmlns:xlink="http://www.w3.org/1999/xlink">
<g id="graph0" class="graph" transform="scale(1 1) rotate(0) translate(4 244)">
<title>chapter04</title>
<polygon fill="white" stroke="transparent" points="-4,4 -4,-244 413,-244 413,4 -4,4"/>
<g id="clust1" class="cluster">
<title>cluster_Nodes</title>
<polygon fill="none" stroke="black" points="8,-8 8,-232 193,-232 193,-8 8,-8"/>
</g>
<g id="clust2" class="cluster">
<title>cluster_Scope1_0</title>
<polygon fill="none" stroke="black" points="201,-72 201,-140 401,-140 401,-72 201,-72"/>
</g>
<g id="clust3" class="cluster">
<title>cluster_Scope1_1</title>
<polygon fill="none" stroke="black" points="323,-80 323,-132 393,-132 393,-80 323,-80"/>
</g>
<!-- Start2 -->
<g id="node1" class="node">
<title>Start2</title>
<polygon fill="yellow" stroke="transparent" points="97,-195 97,-220 178,-220 178,-195 97,-195"/>
<polygon fill="none" stroke="black" points="97,-195 97,-220 178,-220 178,-195 97,-195"/>
<text text-anchor="start" x="119" y="-203.8" font-family="Times,serif" font-size="14.00">Start</text>
<polygon fill="none" stroke="black" points="97,-164 97,-195 178,-195 178,-164 97,-164"/>
<polygon fill="yellow" stroke="transparent" points="102,-169 102,-190 142,-190 142,-169 102,-169"/>
<polygon fill="none" stroke="black" points="102,-169 102,-190 142,-190 142,-169 102,-169"/>
<text text-anchor="start" x="105" y="-175.8" font-family="Times,serif" font-size="14.00">$ctrl</text>
<polygon fill="none" stroke="black" points="142,-169 142,-190 173,-190 173,-169 142,-169"/>
<text text-anchor="start" x="145" y="-175.8" font-family="Times,serif" font-size="14.00">arg</text>
</g>
<!-- Con_10 -->
<g id="node2" class="node">
<title>Con_10</title>
<ellipse fill="none" stroke="black" cx="43" cy="-192" rx="27" ry="18"/>
<text text-anchor="middle" x="43" y="-188.3" font-family="Times,serif" font-size="14.00">#3</text>
</g>
<!-- Add11 -->
<g id="node3" class="node">
<title>Add11</title>
<ellipse fill="none" stroke="black" cx="158" cy="-106" rx="27" ry="18"/>
<text text-anchor="middle" x="158" y="-102.3" font-family="Times,serif" font-size="14.00">+</text>
</g>
<!-- Add11&#45;&gt;Start2 -->
<g id="edge1" class="edge">
<title>Add11&#45;&gt;Start2:p1</title>
<path fill="none" stroke="black" d="M158,-124.09C158,-133.55 158,-145.77 158,-157.69"/>
<polygon fill="black" stroke="black" points="154.5,-158 158,-168 161.5,-158 154.5,-158"/>
<text text-anchor="middle" x="155" y="-126.69" font-family="Helvetica,sans-Serif" font-size="8.00">1</text>
</g>
<!-- Add11&#45;&gt;Con_10 -->
<g id="edge2" class="edge">
<title>Add11&#45;&gt;Con_10</title>
<path fill="none" stroke="black" d="M139.03,-119.12C123,-129.54 99.59,-145.19 80,-160 75.68,-163.26 71.19,-166.85 66.88,-170.4"/>
<polygon fill="black" stroke="black" points="64.34,-167.96 58.92,-177.06 68.84,-173.32 64.34,-167.96"/>
<text text-anchor="middle" x="136.03" y="-121.72" font-family="Helvetica,sans-Serif" font-size="8.00">2</text>
</g>
<!-- Return12 -->
<g id="node4" class="node">
<title>Return12</title>
<polygon fill="yellow" stroke="black" points="165,-52 99,-52 99,-16 165,-16 165,-52"/>
<text text-anchor="middle" x="132" y="-30.3" font-family="Times,serif" font-size="14.00">Return</text>
</g>
<!-- Return12&#45;&gt;Start2 -->
<g id="edge3" class="edge">
<title>Return12&#45;&gt;Start2:p0</title>
<path fill="none" stroke="red" d="M126.36,-52.13C124.59,-58.32 122.88,-65.4 122,-72 116.87,-110.66 121.12,-123.21 121.89,-157.66"/>
<polygon fill="red" stroke="red" points="118.39,-158.04 122,-168 125.39,-157.96 118.39,-158.04"/>
<text text-anchor="middle" x="123.36" y="-54.73" font-family="Helvetica,sans-Serif" font-size="8.00">0</text>
</g>
<!-- Return12&#45;&gt;Add11 -->
<g id="edge4" class="edge">
<title>Return12&#45;&gt;Add11</title>
<path fill="none" stroke="black" d="M138.43,-52.3C141.4,-60.3 144.99,-69.98 148.29,-78.85"/>
<polygon fill="black" stroke="black" points="145.06,-80.22 151.83,-88.38 151.63,-77.78 145.06,-80.22"/>
<text text-anchor="middle" x="135.43" y="-54.9" font-family="Helvetica,sans-Serif" font-size="8.00">1</text>
</g>
<!-- Scope1_0 -->
<g id="node5" class="node">
<title>Scope1_0</title>
<polygon fill="cyan" stroke="transparent" points="218,-95 218,-116 234,-116 234,-95 218,-95"/>
<polygon fill="none" stroke="black" points="218,-95 218,-116 234,-116 234,-95 218,-95"/>
<text text-anchor="start" x="221" y="-101.8" font-family="Times,serif" font-size="14.00">0</text>
<polygon fill="none" stroke="black" points="234,-95 234,-116 274,-116 274,-95 234,-95"/>
<text text-anchor="start" x="237" y="-101.8" font-family="Times,serif" font-size="14.00">$ctrl</text>
<polygon fill="none" stroke="black" points="274,-95 274,-116 305,-116 305,-95 274,-95"/>
<text text-anchor="start" x="277" y="-101.8" font-family="Times,serif" font-size="14.00">arg</text>
</g>
<!-- Scope1_0&#45;&gt;Start2 -->
<g id="edge5" class="edge">
<title>Scope1_0:Scope1_0_arg&#45;&gt;Start2:p1</title>
<path fill="none" stroke="cornflowerblue" stroke-dasharray="5,2" d="M290,-117C290,-172.03 239,-178.4 184.25,-178.95"/>
<polygon fill="cornflowerblue" stroke="cornflowerblue" points="183.98,-175.45 174,-179 184.02,-182.45 183.98,-175.45"/>
</g>
<!-- Scope1_1 -->
<g id="node6" class="node">
<title>Scope1_1</title>
<polygon fill="cyan" stroke="transparent" points="350,-95 350,-116 366,-116 366,-95 350,-95"/>
<polygon fill="none" stroke="black" points="350,-95 350,-116 366,-116 366,-95 350,-95"/>
<text text-anchor="start" x="353" y="-101.8" font-family="Times,serif" font-size="14.00">1</text>
</g>
</g>
</svg>
