<?xml version="1.0" encoding="UTF-8" standalone="no"?>
<!DOCTYPE svg PUBLIC "-//W3C//DTD SVG 1.1//EN"
 "http://www.w3.org/Graphics/SVG/1.1/DTD/svg11.dtd">
<!-- Generated by graphviz version 2.43.0 (0)
 -->
<!-- Title: chapter04 Pages: 1 -->
<svg width="412pt" height="300pt"
 viewBox="0.00 0.00 412.00 300.00" xmlns="http://www.w3.org/2000/svg" xmlns:xlink="http://www.w3.org/1999/xlink">
<g id="graph0" class="graph" transform="scale(1 1) rotate(0) translate(4 296)">
<title>chapter04</title>
<polygon fill="white" stroke="transparent" points="-4,4 -4,-296 408,-296 408,4 -4,4"/>
<g id="clust1" class="cluster">
<title>cluster_Nodes</title>
<polygon fill="none" stroke="black" points="8,-16 8,-284 188,-284 188,-16 8,-16"/>
</g>
<g id="clust2" class="cluster">
<title>cluster_0</title>
<polygon fill="none" stroke="black" points="196,-8 196,-76 396,-76 396,-8 196,-8"/>
</g>
<g id="clust3" class="cluster">
<title>cluster_1</title>
<polygon fill="none" stroke="black" points="318,-16 318,-68 388,-68 388,-16 318,-16"/>
</g>
<!-- Start1 -->
<g id="node1" class="node">
<title>Start1</title>
<polygon fill="yellow" stroke="black" points="151,-276 97,-276 97,-240 151,-240 151,-276"/>
<text text-anchor="middle" x="124" y="-254.3" font-family="Times,serif" font-size="14.00">Start</text>
</g>
<!-- Proj02 -->
<g id="node2" class="node">
<title>Proj02</title>
<ellipse fill="none" stroke="black" cx="144" cy="-114" rx="36" ry="18"/>
<text text-anchor="middle" x="144" y="-110.3" font-family="Times,serif" font-size="14.00">Proj0</text>
</g>
<!-- Proj02&#45;&gt;Start1 -->
<g id="edge1" class="edge">
<title>Proj02&#45;&gt;Start1</title>
<path fill="none" stroke="red" d="M154.69,-131.32C165.11,-149.36 178.13,-179.14 169,-204 165.22,-214.3 158.44,-223.98 151.28,-232.16"/>
<polygon fill="red" stroke="red" points="148.66,-229.84 144.38,-239.53 153.77,-234.62 148.66,-229.84"/>
</g>
<!-- Proj13 -->
<g id="node3" class="node">
<title>Proj13</title>
<ellipse fill="none" stroke="black" cx="124" cy="-186" rx="36" ry="18"/>
<text text-anchor="middle" x="124" y="-182.3" font-family="Times,serif" font-size="14.00">Proj1</text>
</g>
<!-- Proj13&#45;&gt;Start1 -->
<g id="edge2" class="edge">
<title>Proj13&#45;&gt;Start1</title>
<path fill="none" stroke="black" d="M124,-204.3C124,-212.02 124,-221.29 124,-229.89"/>
<polygon fill="black" stroke="black" points="120.5,-229.9 124,-239.9 127.5,-229.9 120.5,-229.9"/>
</g>
<!-- Con_8 -->
<g id="node4" class="node">
<title>Con_8</title>
<ellipse fill="none" stroke="black" cx="43" cy="-186" rx="27" ry="18"/>
<text text-anchor="middle" x="43" y="-182.3" font-family="Times,serif" font-size="14.00">#3</text>
</g>
<!-- Con_8&#45;&gt;Start1 -->
<g id="edge3" class="edge">
<title>Con_8&#45;&gt;Start1</title>
<path fill="none" stroke="black" stroke-dasharray="1,5" d="M59,-200.83C69.67,-210.05 83.96,-222.4 96.43,-233.18"/>
<polygon fill="black" stroke="black" points="94.45,-236.09 104.31,-239.98 99.03,-230.79 94.45,-236.09"/>
</g>
<!-- Add9 -->
<g id="node5" class="node">
<title>Add9</title>
<ellipse fill="none" stroke="black" cx="62" cy="-114" rx="28.7" ry="18"/>
<text text-anchor="middle" x="62" y="-110.3" font-family="Times,serif" font-size="14.00">Add</text>
</g>
<!-- Add9&#45;&gt;Proj13 -->
<g id="edge4" class="edge">
<title>Add9&#45;&gt;Proj13</title>
<path fill="none" stroke="black" d="M75.45,-130.19C83.63,-139.42 94.23,-151.39 103.44,-161.78"/>
<polygon fill="black" stroke="black" points="100.89,-164.19 110.14,-169.36 106.13,-159.55 100.89,-164.19"/>
</g>
<!-- Add9&#45;&gt;Con_8 -->
<g id="edge5" class="edge">
<title>Add9&#45;&gt;Con_8</title>
<path fill="none" stroke="black" d="M57.4,-131.95C55.25,-139.86 52.65,-149.46 50.24,-158.31"/>
<polygon fill="black" stroke="black" points="46.8,-157.64 47.56,-168.21 53.55,-159.48 46.8,-157.64"/>
</g>
<!-- Return10 -->
<g id="node6" class="node">
<title>Return10</title>
<polygon fill="yellow" stroke="black" points="136,-60 70,-60 70,-24 136,-24 136,-60"/>
<text text-anchor="middle" x="103" y="-38.3" font-family="Times,serif" font-size="14.00">Return</text>
</g>
<!-- Return10&#45;&gt;Proj02 -->
<g id="edge6" class="edge">
<title>Return10&#45;&gt;Proj02</title>
<path fill="none" stroke="red" d="M113.13,-60.3C117.97,-68.56 123.85,-78.61 129.18,-87.7"/>
<polygon fill="red" stroke="red" points="126.19,-89.52 134.26,-96.38 132.23,-85.98 126.19,-89.52"/>
</g>
<!-- Return10&#45;&gt;Add9 -->
<g id="edge7" class="edge">
<title>Return10&#45;&gt;Add9</title>
<path fill="none" stroke="black" d="M92.87,-60.3C87.96,-68.68 81.97,-78.9 76.58,-88.1"/>
<polygon fill="black" stroke="black" points="73.49,-86.46 71.46,-96.86 79.53,-90 73.49,-86.46"/>
</g>
<!-- scope0 -->
<g id="node7" class="node">
<title>scope0</title>
<polygon fill="aqua" stroke="transparent" points="213,-31 213,-52 229,-52 229,-31 213,-31"/>
<polygon fill="none" stroke="black" points="213,-31 213,-52 229,-52 229,-31 213,-31"/>
<text text-anchor="start" x="216" y="-37.8" font-family="Times,serif" font-size="14.00">0</text>
<polygon fill="none" stroke="black" points="229,-31 229,-52 269,-52 269,-31 229,-31"/>
<text text-anchor="start" x="232" y="-37.8" font-family="Times,serif" font-size="14.00">$ctrl</text>
<polygon fill="none" stroke="black" points="269,-31 269,-52 300,-52 300,-31 269,-31"/>
<text text-anchor="start" x="272" y="-37.8" font-family="Times,serif" font-size="14.00">arg</text>
</g>
<!-- scope0&#45;&gt;Proj02 -->
<g id="edge8" class="edge">
<title>scope0:scope0_$ctrl&#45;&gt;Proj02</title>
<path fill="none" stroke="cornflowerblue" stroke-dasharray="5,2" d="M249,-53C249,-82.86 216.59,-98.06 187.78,-105.68"/>
<polygon fill="cornflowerblue" stroke="cornflowerblue" points="186.71,-102.33 177.8,-108.06 188.34,-109.14 186.71,-102.33"/>
</g>
<!-- scope0&#45;&gt;Proj13 -->
<g id="edge9" class="edge">
<title>scope0:scope0_arg&#45;&gt;Proj13</title>
<path fill="none" stroke="cornflowerblue" stroke-dasharray="5,2" d="M285,-53C285,-115.73 211.01,-154.07 163.35,-172.26"/>
<polygon fill="cornflowerblue" stroke="cornflowerblue" points="162.08,-169 153.91,-175.74 164.5,-175.57 162.08,-169"/>
</g>
<!-- scope1 -->
<g id="node8" class="node">
<title>scope1</title>
<polygon fill="aqua" stroke="transparent" points="345,-31 345,-52 361,-52 361,-31 345,-31"/>
<polygon fill="none" stroke="black" points="345,-31 345,-52 361,-52 361,-31 345,-31"/>
<text text-anchor="start" x="348" y="-37.8" font-family="Times,serif" font-size="14.00">1</text>
</g>
</g>
</svg>
