<?xml version="1.0" encoding="UTF-8" standalone="no"?>
<!DOCTYPE svg PUBLIC "-//W3C//DTD SVG 1.1//EN"
 "http://www.w3.org/Graphics/SVG/1.1/DTD/svg11.dtd">
<!-- Generated by graphviz version 2.43.0 (0)
 -->
<!-- Title: chapter03 Pages: 1 -->
<svg width="432pt" height="372pt"
 viewBox="0.00 0.00 432.00 372.00" xmlns="http://www.w3.org/2000/svg" xmlns:xlink="http://www.w3.org/1999/xlink">
<g id="graph0" class="graph" transform="scale(1 1) rotate(0) translate(4 368)">
<title>chapter03</title>
<polygon fill="white" stroke="transparent" points="-4,4 -4,-368 428,-368 428,4 -4,4"/>
<g id="clust1" class="cluster">
<title>cluster_Nodes</title>
<polygon fill="none" stroke="black" points="8,-16 8,-356 208,-356 208,-16 8,-16"/>
</g>
<g id="clust2" class="cluster">
<title>cluster_0</title>
<polygon fill="none" stroke="black" points="216,-8 216,-76 416,-76 416,-8 216,-8"/>
</g>
<g id="clust3" class="cluster">
<title>cluster_1</title>
<polygon fill="none" stroke="black" points="338,-16 338,-68 408,-68 408,-16 338,-16"/>
</g>
<!-- Start1 -->
<g id="node1" class="node">
<title>Start1</title>
<polygon fill="yellow" stroke="black" points="130,-348 76,-348 76,-312 130,-312 130,-348"/>
<text text-anchor="middle" x="103" y="-326.3" font-family="Times,serif" font-size="14.00">Start</text>
</g>
<!-- Proj02 -->
<g id="node2" class="node">
<title>Proj02</title>
<ellipse fill="none" stroke="black" cx="164" cy="-114" rx="36" ry="18"/>
<text text-anchor="middle" x="164" y="-110.3" font-family="Times,serif" font-size="14.00">Proj0</text>
</g>
<!-- Proj02&#45;&gt;Start1 -->
<g id="edge1" class="edge">
<title>Proj02&#45;&gt;Start1</title>
<path fill="none" stroke="red" d="M173.11,-131.74C188.46,-162.42 215.34,-228.83 189,-276 178.37,-295.04 157.78,-308.08 139.41,-316.47"/>
<polygon fill="red" stroke="red" points="137.91,-313.31 130.08,-320.44 140.65,-319.75 137.91,-313.31"/>
</g>
<!-- Proj13 -->
<g id="node3" class="node">
<title>Proj13</title>
<ellipse fill="none" stroke="black" cx="144" cy="-258" rx="36" ry="18"/>
<text text-anchor="middle" x="144" y="-254.3" font-family="Times,serif" font-size="14.00">Proj1</text>
</g>
<!-- Proj13&#45;&gt;Start1 -->
<g id="edge2" class="edge">
<title>Proj13&#45;&gt;Start1</title>
<path fill="none" stroke="black" d="M134.28,-275.59C129.52,-283.72 123.68,-293.69 118.34,-302.82"/>
<polygon fill="black" stroke="black" points="115.25,-301.16 113.22,-311.55 121.29,-304.69 115.25,-301.16"/>
</g>
<!-- Con_4 -->
<g id="node4" class="node">
<title>Con_4</title>
<ellipse fill="none" stroke="black" cx="43" cy="-186" rx="27" ry="18"/>
<text text-anchor="middle" x="43" y="-182.3" font-family="Times,serif" font-size="14.00">#1</text>
</g>
<!-- Con_4&#45;&gt;Start1 -->
<g id="edge3" class="edge">
<title>Con_4&#45;&gt;Start1</title>
<path fill="none" stroke="black" stroke-dasharray="1,5" d="M34.15,-203.36C25.38,-221.96 14.87,-252.76 27,-276 35.5,-292.3 51.56,-304.61 66.73,-313.24"/>
<polygon fill="black" stroke="black" points="65.51,-316.56 75.99,-318.14 68.79,-310.37 65.51,-316.56"/>
</g>
<!-- Con_5 -->
<g id="node5" class="node">
<title>Con_5</title>
<ellipse fill="none" stroke="black" cx="63" cy="-258" rx="27" ry="18"/>
<text text-anchor="middle" x="63" y="-254.3" font-family="Times,serif" font-size="14.00">#2</text>
</g>
<!-- Con_5&#45;&gt;Start1 -->
<g id="edge4" class="edge">
<title>Con_5&#45;&gt;Start1</title>
<path fill="none" stroke="black" stroke-dasharray="1,5" d="M72.28,-275.24C76.99,-283.47 82.82,-293.68 88.13,-302.98"/>
<polygon fill="black" stroke="black" points="85.21,-304.93 93.21,-311.88 91.29,-301.46 85.21,-304.93"/>
</g>
<!-- Add6 -->
<g id="node6" class="node">
<title>Add6</title>
<ellipse fill="none" stroke="black" cx="117" cy="-186" rx="28.7" ry="18"/>
<text text-anchor="middle" x="117" y="-182.3" font-family="Times,serif" font-size="14.00">Add</text>
</g>
<!-- Add6&#45;&gt;Proj13 -->
<g id="edge5" class="edge">
<title>Add6&#45;&gt;Proj13</title>
<path fill="none" stroke="black" d="M123.4,-203.59C126.51,-211.66 130.33,-221.57 133.83,-230.65"/>
<polygon fill="black" stroke="black" points="130.6,-231.97 137.46,-240.04 137.13,-229.45 130.6,-231.97"/>
</g>
<!-- Add6&#45;&gt;Con_5 -->
<g id="edge6" class="edge">
<title>Add6&#45;&gt;Con_5</title>
<path fill="none" stroke="black" d="M105.02,-202.54C98.02,-211.6 89.06,-223.21 81.21,-233.39"/>
<polygon fill="black" stroke="black" points="78.29,-231.45 74.95,-241.51 83.83,-235.73 78.29,-231.45"/>
</g>
<!-- Add7 -->
<g id="node7" class="node">
<title>Add7</title>
<ellipse fill="none" stroke="black" cx="82" cy="-114" rx="28.7" ry="18"/>
<text text-anchor="middle" x="82" y="-110.3" font-family="Times,serif" font-size="14.00">Add</text>
</g>
<!-- Add7&#45;&gt;Con_4 -->
<g id="edge7" class="edge">
<title>Add7&#45;&gt;Con_4</title>
<path fill="none" stroke="black" d="M72.95,-131.24C68.18,-139.81 62.22,-150.51 56.87,-160.1"/>
<polygon fill="black" stroke="black" points="53.81,-158.41 52,-168.85 59.92,-161.82 53.81,-158.41"/>
</g>
<!-- Add7&#45;&gt;Add6 -->
<g id="edge8" class="edge">
<title>Add7&#45;&gt;Add6</title>
<path fill="none" stroke="black" d="M90.29,-131.59C94.44,-139.87 99.54,-150.08 104.17,-159.34"/>
<polygon fill="black" stroke="black" points="101.16,-161.15 108.77,-168.53 107.42,-158.02 101.16,-161.15"/>
</g>
<!-- Return8 -->
<g id="node8" class="node">
<title>Return8</title>
<polygon fill="yellow" stroke="black" points="156,-60 90,-60 90,-24 156,-24 156,-60"/>
<text text-anchor="middle" x="123" y="-38.3" font-family="Times,serif" font-size="14.00">Return</text>
</g>
<!-- Return8&#45;&gt;Proj02 -->
<g id="edge9" class="edge">
<title>Return8&#45;&gt;Proj02</title>
<path fill="none" stroke="red" d="M133.13,-60.3C137.97,-68.56 143.85,-78.61 149.18,-87.7"/>
<polygon fill="red" stroke="red" points="146.19,-89.52 154.26,-96.38 152.23,-85.98 146.19,-89.52"/>
</g>
<!-- Return8&#45;&gt;Add7 -->
<g id="edge10" class="edge">
<title>Return8&#45;&gt;Add7</title>
<path fill="none" stroke="black" d="M112.87,-60.3C107.96,-68.68 101.97,-78.9 96.58,-88.1"/>
<polygon fill="black" stroke="black" points="93.49,-86.46 91.46,-96.86 99.53,-90 93.49,-86.46"/>
</g>
<!-- scope0 -->
<g id="node9" class="node">
<title>scope0</title>
<polygon fill="aqua" stroke="transparent" points="233,-31 233,-52 249,-52 249,-31 233,-31"/>
<polygon fill="none" stroke="black" points="233,-31 233,-52 249,-52 249,-31 233,-31"/>
<text text-anchor="start" x="236" y="-37.8" font-family="Times,serif" font-size="14.00">0</text>
<polygon fill="none" stroke="black" points="249,-31 249,-52 289,-52 289,-31 249,-31"/>
<text text-anchor="start" x="252" y="-37.8" font-family="Times,serif" font-size="14.00">$ctrl</text>
<polygon fill="none" stroke="black" points="289,-31 289,-52 320,-52 320,-31 289,-31"/>
<text text-anchor="start" x="292" y="-37.8" font-family="Times,serif" font-size="14.00">arg</text>
</g>
<!-- scope0&#45;&gt;Proj02 -->
<g id="edge11" class="edge">
<title>scope0:scope0_$ctrl&#45;&gt;Proj02</title>
<path fill="none" stroke="cornflowerblue" stroke-dasharray="5,2" d="M269,-53C269,-82.86 236.59,-98.06 207.78,-105.68"/>
<polygon fill="cornflowerblue" stroke="cornflowerblue" points="206.71,-102.33 197.8,-108.06 208.34,-109.14 206.71,-102.33"/>
</g>
<!-- scope0&#45;&gt;Proj13 -->
<g id="edge12" class="edge">
<title>scope0:scope0_arg&#45;&gt;Proj13</title>
<path fill="none" stroke="cornflowerblue" stroke-dasharray="5,2" d="M305,-53C305,-136.5 220.85,-205.89 174.23,-237.93"/>
<polygon fill="cornflowerblue" stroke="cornflowerblue" points="172.06,-235.17 165.71,-243.65 175.97,-240.98 172.06,-235.17"/>
</g>
<!-- scope1 -->
<g id="node10" class="node">
<title>scope1</title>
<polygon fill="aqua" stroke="transparent" points="365,-31 365,-52 381,-52 381,-31 365,-31"/>
<polygon fill="none" stroke="black" points="365,-31 365,-52 381,-52 381,-31 365,-31"/>
<text text-anchor="start" x="368" y="-37.8" font-family="Times,serif" font-size="14.00">1</text>
</g>
</g>
</svg>
