<?xml version="1.0" encoding="UTF-8" standalone="no"?>
<!DOCTYPE svg PUBLIC "-//W3C//DTD SVG 1.1//EN"
 "http://www.w3.org/Graphics/SVG/1.1/DTD/svg11.dtd">
<!-- Generated by graphviz version 2.43.0 (0)
 -->
<!-- Title: chapter04 Pages: 1 -->
<svg width="417pt" height="248pt"
 viewBox="0.00 0.00 417.00 248.00" xmlns="http://www.w3.org/2000/svg" xmlns:xlink="http://www.w3.org/1999/xlink">
<g id="graph0" class="graph" transform="scale(1 1) rotate(0) translate(4 244)">
<title>chapter04</title>
<polygon fill="white" stroke="transparent" points="-4,4 -4,-244 413,-244 413,4 -4,4"/>
<g id="clust1" class="cluster">
<title>cluster_Nodes</title>
<polygon fill="none" stroke="black" points="8,-8 8,-232 193,-232 193,-8 8,-8"/>
</g>
<g id="clust2" class="cluster">
<title>cluster_0</title>
<polygon fill="none" stroke="black" points="201,-72 201,-140 401,-140 401,-72 201,-72"/>
</g>
<g id="clust3" class="cluster">
<title>cluster_1</title>
<polygon fill="none" stroke="black" points="323,-80 323,-132 393,-132 393,-80 323,-80"/>
</g>
<!-- Start1 -->
<g id="node1" class="node">
<title>Start1</title>
<polygon fill="yellow" stroke="transparent" points="97,-195 97,-220 178,-220 178,-195 97,-195"/>
<polygon fill="none" stroke="black" points="97,-195 97,-220 178,-220 178,-195 97,-195"/>
<text text-anchor="start" x="119" y="-203.8" font-family="Times,serif" font-size="14.00">Start</text>
<polygon fill="none" stroke="black" points="97,-164 97,-195 178,-195 178,-164 97,-164"/>
<polygon fill="yellow" stroke="transparent" points="102,-169 102,-190 142,-190 142,-169 102,-169"/>
<polygon fill="none" stroke="black" points="102,-169 102,-190 142,-190 142,-169 102,-169"/>
<text text-anchor="start" x="105" y="-175.8" font-family="Times,serif" font-size="14.00">$ctrl</text>
<polygon fill="none" stroke="black" points="142,-169 142,-190 173,-190 173,-169 142,-169"/>
<text text-anchor="start" x="145" y="-175.8" font-family="Times,serif" font-size="14.00">arg</text>
</g>
<!-- Con_9 -->
<g id="node2" class="node">
<title>Con_9</title>
<ellipse fill="none" stroke="black" cx="43" cy="-192" rx="27" ry="18"/>
<text text-anchor="middle" x="43" y="-188.3" font-family="Times,serif" font-size="14.00">#3</text>
</g>
<!-- Add10 -->
<g id="node3" class="node">
<title>Add10</title>
<ellipse fill="none" stroke="black" cx="156" cy="-106" rx="28.7" ry="18"/>
<text text-anchor="middle" x="156" y="-102.3" font-family="Times,serif" font-size="14.00">Add</text>
</g>
<!-- Add10&#45;&gt;Start1 -->
<g id="edge1" class="edge">
<title>Add10&#45;&gt;Start1:p1</title>
<path fill="none" stroke="black" d="M156.86,-124.09C157.28,-133.54 157.73,-145.77 157.92,-157.68"/>
<polygon fill="black" stroke="black" points="154.42,-158.03 158,-168 161.42,-157.97 154.42,-158.03"/>
</g>
<!-- Add10&#45;&gt;Con_9 -->
<g id="edge2" class="edge">
<title>Add10&#45;&gt;Con_9</title>
<path fill="none" stroke="black" d="M136.93,-119.61C121.35,-130.08 98.91,-145.53 80,-160 75.7,-163.29 71.22,-166.89 66.91,-170.44"/>
<polygon fill="black" stroke="black" points="64.38,-168 58.96,-177.1 68.87,-173.37 64.38,-168"/>
</g>
<!-- Return11 -->
<g id="node4" class="node">
<title>Return11</title>
<polygon fill="yellow" stroke="black" points="163,-52 97,-52 97,-16 163,-16 163,-52"/>
<text text-anchor="middle" x="130" y="-30.3" font-family="Times,serif" font-size="14.00">Return</text>
</g>
<!-- Return11&#45;&gt;Start1 -->
<g id="edge3" class="edge">
<title>Return11&#45;&gt;Start1:p0</title>
<path fill="none" stroke="red" d="M123.24,-52.04C121.12,-58.23 119.05,-65.33 118,-72 113.28,-101.85 115.86,-109.85 118,-140 118.58,-148.23 120.12,-152.3 121.11,-157.68"/>
<polygon fill="red" stroke="red" points="117.66,-158.34 122,-168 124.63,-157.74 117.66,-158.34"/>
</g>
<!-- Return11&#45;&gt;Add10 -->
<g id="edge4" class="edge">
<title>Return11&#45;&gt;Add10</title>
<path fill="none" stroke="black" d="M136.43,-52.3C139.4,-60.3 142.99,-69.98 146.29,-78.85"/>
<polygon fill="black" stroke="black" points="143.06,-80.22 149.83,-88.38 149.63,-77.78 143.06,-80.22"/>
</g>
<!-- scope0 -->
<g id="node5" class="node">
<title>scope0</title>
<polygon fill="cyan" stroke="transparent" points="218,-95 218,-116 234,-116 234,-95 218,-95"/>
<polygon fill="none" stroke="black" points="218,-95 218,-116 234,-116 234,-95 218,-95"/>
<text text-anchor="start" x="221" y="-101.8" font-family="Times,serif" font-size="14.00">0</text>
<polygon fill="none" stroke="black" points="234,-95 234,-116 274,-116 274,-95 234,-95"/>
<text text-anchor="start" x="237" y="-101.8" font-family="Times,serif" font-size="14.00">$ctrl</text>
<polygon fill="none" stroke="black" points="274,-95 274,-116 305,-116 305,-95 274,-95"/>
<text text-anchor="start" x="277" y="-101.8" font-family="Times,serif" font-size="14.00">arg</text>
</g>
<!-- scope0&#45;&gt;Start1 -->
<g id="edge5" class="edge">
<title>scope0:scope0_$ctrl&#45;&gt;Start1:p0</title>
<path fill="none" stroke="cornflowerblue" stroke-dasharray="5,2" d="M254,-117C254,-176.09 137.5,-113.66 123.39,-158.03"/>
<polygon fill="cornflowerblue" stroke="cornflowerblue" points="119.92,-157.61 122,-168 126.85,-158.58 119.92,-157.61"/>
</g>
<!-- scope0&#45;&gt;Start1 -->
<g id="edge6" class="edge">
<title>scope0:scope0_arg&#45;&gt;Start1:p1</title>
<path fill="none" stroke="cornflowerblue" stroke-dasharray="5,2" d="M290,-117C290,-172.03 239,-178.4 184.25,-178.95"/>
<polygon fill="cornflowerblue" stroke="cornflowerblue" points="183.98,-175.45 174,-179 184.02,-182.45 183.98,-175.45"/>
</g>
<!-- scope1 -->
<g id="node6" class="node">
<title>scope1</title>
<polygon fill="cyan" stroke="transparent" points="350,-95 350,-116 366,-116 366,-95 350,-95"/>
<polygon fill="none" stroke="black" points="350,-95 350,-116 366,-116 366,-95 350,-95"/>
<text text-anchor="start" x="353" y="-101.8" font-family="Times,serif" font-size="14.00">1</text>
</g>
</g>
</svg>
