<?xml version="1.0" encoding="UTF-8" standalone="no"?>
<!DOCTYPE svg PUBLIC "-//W3C//DTD SVG 1.1//EN"
 "http://www.w3.org/Graphics/SVG/1.1/DTD/svg11.dtd">
<!-- Generated by graphviz version 12.2.0 (20241103.1931)
 -->
<!-- Title: Lattice Pages: 1 -->
<svg width="780pt" height="468pt"
 viewBox="0.00 0.00 779.83 467.88" xmlns="http://www.w3.org/2000/svg" xmlns:xlink="http://www.w3.org/1999/xlink">
<g id="graph0" class="graph" transform="scale(1 1) rotate(0) translate(4 463.88)">
<title>Lattice</title>
<polygon fill="white" stroke="none" points="-4,4 -4,-463.88 775.83,-463.88 775.83,4 -4,4"/>
<!-- TOP -->
<g id="node1" class="node">
<title>TOP</title>
<ellipse fill="black" stroke="black" cx="370.25" cy="-438.75" rx="21.12" ry="21.12"/>
<text text-anchor="middle" x="370.25" y="-433.33" font-family="Times New Roman,serif" font-size="14.00" fill="white">⊤</text>
</g>
<!-- CTRL -->
<g id="node3" class="node">
<title>CTRL</title>
<ellipse fill="yellow" stroke="black" cx="25.25" cy="-229.94" rx="25.25" ry="25.25"/>
<text text-anchor="middle" x="25.25" y="-224.89" font-family="Times New Roman,serif" font-size="14.00">Ctrl</text>
</g>
<!-- TOP&#45;&gt;CTRL -->
<g id="edge25" class="edge">
<title>TOP&#45;&gt;CTRL</title>
<path fill="none" stroke="black" d="M352.19,-427.82C293.82,-392.49 110.39,-281.47 47.03,-243.12"/>
</g>
<!-- INT_TOP -->
<g id="node4" class="node">
<title>INT_TOP</title>
<ellipse fill="lightblue" stroke="black" cx="370.25" cy="-343.57" rx="38.06" ry="38.06"/>
<text text-anchor="middle" x="370.25" y="-338.9" font-family="Times New Roman,serif" font-size="14.00">⊤ :Int</text>
</g>
<!-- TOP&#45;&gt;INT_TOP -->
<g id="edge1" class="edge">
<title>TOP&#45;&gt;INT_TOP</title>
<path fill="none" stroke="black" d="M370.25,-417.53C370.25,-407.15 370.25,-394.16 370.25,-382.03"/>
</g>
<!-- TUPLE -->
<g id="node13" class="node">
<title>TUPLE</title>
<ellipse fill="pink" stroke="black" cx="732.25" cy="-229.94" rx="39.58" ry="39.58"/>
<text text-anchor="middle" x="732.25" y="-224.89" font-family="Times New Roman,serif" font-size="14.00">TUPLE</text>
</g>
<!-- TOP&#45;&gt;TUPLE -->
<g id="edge23" class="edge">
<title>TOP&#45;&gt;TUPLE</title>
<path fill="none" stroke="black" d="M388.95,-427.97C446.64,-394.69 622.49,-293.25 697.62,-249.91"/>
</g>
<!-- BOT -->
<g id="node2" class="node">
<title>BOT</title>
<ellipse fill="black" stroke="black" cx="370.25" cy="-21.12" rx="21.12" ry="21.12"/>
<text text-anchor="middle" x="370.25" y="-15.7" font-family="Times New Roman,serif" font-size="14.00" fill="white">⊥</text>
</g>
<!-- CTRL&#45;&gt;BOT -->
<g id="edge26" class="edge">
<title>CTRL&#45;&gt;BOT</title>
<path fill="none" stroke="black" d="M47.09,-216.72C110.49,-178.35 293.71,-67.45 352.13,-32.09"/>
</g>
<!-- INT_MIN -->
<g id="node6" class="node">
<title>INT_MIN</title>
<ellipse fill="lightblue" stroke="black" cx="112.25" cy="-229.94" rx="18.6" ry="18.6"/>
<text text-anchor="middle" x="112.25" y="-224.89" font-family="Times New Roman,serif" font-size="14.00">&#45;n</text>
</g>
<!-- INT_TOP&#45;&gt;INT_MIN -->
<g id="edge2" class="edge">
<title>INT_TOP&#45;&gt;INT_MIN</title>
<path fill="none" stroke="black" d="M335.45,-327.52C279.34,-303.24 170.92,-256.32 129.19,-238.27"/>
</g>
<!-- INT_MINDOTS -->
<g id="node7" class="node">
<title>INT_MINDOTS</title>
<text text-anchor="middle" x="201.25" y="-224.89" font-family="Times New Roman,serif" font-size="14.00">...</text>
</g>
<!-- INT_TOP&#45;&gt;INT_MINDOTS -->
<g id="edge3" class="edge">
<title>INT_TOP&#45;&gt;INT_MINDOTS</title>
<path fill="none" stroke="black" d="M338.86,-321.84C306.59,-300.53 256.96,-267.74 226.95,-247.91"/>
</g>
<!-- INT_MINUS -->
<g id="node8" class="node">
<title>INT_MINUS</title>
<ellipse fill="lightblue" stroke="black" cx="290.25" cy="-229.94" rx="18.6" ry="18.6"/>
<text text-anchor="middle" x="290.25" y="-224.89" font-family="Times New Roman,serif" font-size="14.00">&#45;1</text>
</g>
<!-- INT_TOP&#45;&gt;INT_MINUS -->
<g id="edge4" class="edge">
<title>INT_TOP&#45;&gt;INT_MINUS</title>
<path fill="none" stroke="black" d="M348.39,-312.07C332.94,-290.51 312.9,-262.55 300.84,-245.72"/>
</g>
<!-- INT_ZERO -->
<g id="node9" class="node">
<title>INT_ZERO</title>
<ellipse fill="lightblue" stroke="black" cx="370.25" cy="-229.94" rx="18" ry="18"/>
<text text-anchor="middle" x="370.25" y="-224.89" font-family="Times New Roman,serif" font-size="14.00">0</text>
</g>
<!-- INT_TOP&#45;&gt;INT_ZERO -->
<g id="edge5" class="edge">
<title>INT_TOP&#45;&gt;INT_ZERO</title>
<path fill="none" stroke="black" d="M370.25,-305.09C370.25,-285.83 370.25,-263.3 370.25,-248.18"/>
</g>
<!-- INT_PLUS -->
<g id="node10" class="node">
<title>INT_PLUS</title>
<ellipse fill="lightblue" stroke="black" cx="449.25" cy="-229.94" rx="18" ry="18"/>
<text text-anchor="middle" x="449.25" y="-224.89" font-family="Times New Roman,serif" font-size="14.00">1</text>
</g>
<!-- INT_TOP&#45;&gt;INT_PLUS -->
<g id="edge6" class="edge">
<title>INT_TOP&#45;&gt;INT_PLUS</title>
<path fill="none" stroke="black" d="M392.05,-311.77C407.39,-290.09 427.23,-262.05 439.06,-245.34"/>
</g>
<!-- INT_MAXDOTS -->
<g id="node11" class="node">
<title>INT_MAXDOTS</title>
<text text-anchor="middle" x="537.25" y="-224.89" font-family="Times New Roman,serif" font-size="14.00">...</text>
</g>
<!-- INT_TOP&#45;&gt;INT_MAXDOTS -->
<g id="edge7" class="edge">
<title>INT_TOP&#45;&gt;INT_MAXDOTS</title>
<path fill="none" stroke="black" d="M401.66,-321.58C433.6,-300.23 482.46,-267.57 511.98,-247.83"/>
</g>
<!-- INT_MAX -->
<g id="node12" class="node">
<title>INT_MAX</title>
<ellipse fill="lightblue" stroke="black" cx="628.25" cy="-229.94" rx="21.15" ry="21.15"/>
<text text-anchor="middle" x="628.25" y="-224.89" font-family="Times New Roman,serif" font-size="14.00">+n</text>
</g>
<!-- INT_TOP&#45;&gt;INT_MAX -->
<g id="edge8" class="edge">
<title>INT_TOP&#45;&gt;INT_MAX</title>
<path fill="none" stroke="black" d="M405.04,-327.52C460.06,-303.71 565.35,-258.16 608.78,-239.36"/>
</g>
<!-- INT_BOT -->
<g id="node5" class="node">
<title>INT_BOT</title>
<ellipse fill="lightblue" stroke="black" cx="370.25" cy="-116.3" rx="38.06" ry="38.06"/>
<text text-anchor="middle" x="370.25" y="-111.63" font-family="Times New Roman,serif" font-size="14.00">⊥ :Int</text>
</g>
<!-- INT_BOT&#45;&gt;BOT -->
<g id="edge16" class="edge">
<title>INT_BOT&#45;&gt;BOT</title>
<path fill="none" stroke="black" d="M370.25,-77.94C370.25,-65.89 370.25,-52.98 370.25,-42.62"/>
</g>
<!-- INT_MIN&#45;&gt;INT_BOT -->
<g id="edge9" class="edge">
<title>INT_MIN&#45;&gt;INT_BOT</title>
<path fill="none" stroke="black" d="M129.18,-221.61C170.88,-203.57 279.24,-156.68 335.39,-132.39"/>
</g>
<!-- INT_MIN&#45;&gt;INT_MINDOTS -->
<!-- INT_MINDOTS&#45;&gt;INT_BOT -->
<g id="edge10" class="edge">
<title>INT_MINDOTS&#45;&gt;INT_BOT</title>
<path fill="none" stroke="black" d="M226.92,-211.98C256.83,-192.22 306.29,-159.56 338.57,-138.23"/>
</g>
<!-- INT_MINDOTS&#45;&gt;INT_MINUS -->
<!-- INT_MINUS&#45;&gt;INT_BOT -->
<g id="edge11" class="edge">
<title>INT_MINUS&#45;&gt;INT_BOT</title>
<path fill="none" stroke="black" d="M300.71,-214.34C312.74,-197.56 332.82,-169.54 348.32,-147.91"/>
</g>
<!-- INT_MINUS&#45;&gt;INT_ZERO -->
<!-- INT_ZERO&#45;&gt;INT_BOT -->
<g id="edge12" class="edge">
<title>INT_ZERO&#45;&gt;INT_BOT</title>
<path fill="none" stroke="black" d="M370.25,-211.5C370.25,-196.29 370.25,-173.71 370.25,-154.48"/>
</g>
<!-- INT_ZERO&#45;&gt;INT_PLUS -->
<!-- INT_PLUS&#45;&gt;INT_BOT -->
<g id="edge13" class="edge">
<title>INT_PLUS&#45;&gt;INT_BOT</title>
<path fill="none" stroke="black" d="M439.24,-214.8C427.37,-198.02 407.23,-169.57 391.77,-147.71"/>
</g>
<!-- INT_PLUS&#45;&gt;INT_MAXDOTS -->
<!-- INT_MAXDOTS&#45;&gt;INT_BOT -->
<g id="edge14" class="edge">
<title>INT_MAXDOTS&#45;&gt;INT_BOT</title>
<path fill="none" stroke="black" d="M511.89,-211.98C482.32,-192.22 433.46,-159.56 401.56,-138.23"/>
</g>
<!-- INT_MAXDOTS&#45;&gt;INT_MAX -->
<!-- INT_MAX&#45;&gt;INT_BOT -->
<g id="edge15" class="edge">
<title>INT_MAX&#45;&gt;INT_BOT</title>
<path fill="none" stroke="black" d="M608.86,-220.55C565.5,-201.79 460.2,-156.22 405.12,-132.39"/>
</g>
<!-- TUPLE&#45;&gt;BOT -->
<g id="edge24" class="edge">
<title>TUPLE&#45;&gt;BOT</title>
<path fill="none" stroke="black" d="M697.54,-209.92C622.33,-166.53 446.47,-65.09 388.87,-31.87"/>
</g>
</g>
</svg>
