<?xml version="1.0" encoding="UTF-8" standalone="no"?>
<!DOCTYPE svg PUBLIC "-//W3C//DTD SVG 1.1//EN"
 "http://www.w3.org/Graphics/SVG/1.1/DTD/svg11.dtd">
<!-- Generated by graphviz version 2.43.0 (0)
 -->
<!-- Title: chapter11 Pages: 1 -->
<svg width="170pt" height="420pt"
 viewBox="0.00 0.00 170.00 420.00" xmlns="http://www.w3.org/2000/svg" xmlns:xlink="http://www.w3.org/1999/xlink">
<g id="graph0" class="graph" transform="scale(1 1) rotate(0) translate(4 416)">
<title>chapter11</title>
<polygon fill="white" stroke="transparent" points="-4,4 -4,-416 166,-416 166,4 -4,4"/>
<g id="clust1" class="cluster">
<title>cluster_Nodes</title>
<polygon fill="none" stroke="black" points="8,-8 8,-404 154,-404 154,-8 8,-8"/>
</g>
<!-- Never18 -->
<g id="node1" class="node">
<title>Never18</title>
<polygon fill="yellow" stroke="transparent" points="24,-195 24,-220 118,-220 118,-195 24,-195"/>
<polygon fill="none" stroke="black" points="24,-195 24,-220 118,-220 118,-195 24,-195"/>
<text text-anchor="start" x="49" y="-203.8" font-family="Times,serif" font-size="14.00">Never</text>
<polygon fill="none" stroke="black" points="24,-164 24,-195 118,-195 118,-164 24,-164"/>
<polygon fill="yellow" stroke="transparent" points="29,-169 29,-190 69,-190 69,-169 29,-169"/>
<polygon fill="none" stroke="black" points="29,-169 29,-190 69,-190 69,-169 29,-169"/>
<text text-anchor="start" x="32" y="-175.8" font-family="Times,serif" font-size="14.00">True</text>
<polygon fill="yellow" stroke="transparent" points="69,-169 69,-190 113,-190 113,-169 69,-169"/>
<polygon fill="none" stroke="black" points="69,-169 69,-190 113,-190 113,-169 69,-169"/>
<text text-anchor="start" x="72" y="-175.8" font-family="Times,serif" font-size="14.00">False</text>
</g>
<!-- Con_4 -->
<g id="node4" class="node">
<title>Con_4</title>
<ellipse fill="none" stroke="black" cx="119" cy="-278" rx="27" ry="18"/>
<text text-anchor="middle" x="119" y="-274.3" font-family="Times,serif" font-size="14.00">#0</text>
</g>
<!-- Never18&#45;&gt;Con_4 -->
<g id="edge2" class="edge">
<title>Never18&#45;&gt;Con_4</title>
<path fill="none" stroke="black" d="M88.87,-224.28C94.12,-233.46 99.78,-243.37 104.77,-252.1"/>
<polygon fill="black" stroke="black" points="101.86,-254.06 109.86,-261.01 107.94,-250.59 101.86,-254.06"/>
<text text-anchor="middle" x="85.87" y="-226.88" font-family="Helvetica,sans-Serif" font-size="8.00">1</text>
</g>
<!-- Loop8 -->
<g id="node6" class="node">
<title>Loop8</title>
<polygon fill="yellow" stroke="black" points="74,-296 20,-296 20,-260 74,-260 74,-296"/>
<text text-anchor="middle" x="47" y="-274.3" font-family="Times,serif" font-size="14.00">Loop</text>
</g>
<!-- Never18&#45;&gt;Loop8 -->
<g id="edge1" class="edge">
<title>Never18&#45;&gt;Loop8</title>
<path fill="none" stroke="red" d="M62.06,-224.28C59.66,-232.67 57.09,-241.68 54.76,-249.84"/>
<polygon fill="red" stroke="red" points="51.35,-249.02 51.97,-259.6 58.09,-250.94 51.35,-249.02"/>
<text text-anchor="middle" x="59.06" y="-226.88" font-family="Helvetica,sans-Serif" font-size="8.00">0</text>
</g>
<!-- Start2 -->
<g id="node2" class="node">
<title>Start2</title>
<polygon fill="yellow" stroke="transparent" points="24,-367 24,-392 74,-392 74,-367 24,-367"/>
<polygon fill="none" stroke="black" points="24,-367 24,-392 74,-392 74,-367 24,-367"/>
<text text-anchor="start" x="30.5" y="-375.8" font-family="Times,serif" font-size="14.00">Start</text>
<polygon fill="none" stroke="black" points="24,-336 24,-367 74,-367 74,-336 24,-336"/>
<polygon fill="yellow" stroke="transparent" points="29,-341 29,-362 69,-362 69,-341 29,-341"/>
<polygon fill="none" stroke="black" points="29,-341 29,-362 69,-362 69,-341 29,-341"/>
<text text-anchor="start" x="32" y="-347.8" font-family="Times,serif" font-size="14.00">$ctrl</text>
</g>
<!-- Stop3 -->
<g id="node3" class="node">
<title>Stop3</title>
<polygon fill="yellow" stroke="black" points="108,-52 54,-52 54,-16 108,-16 108,-52"/>
<text text-anchor="middle" x="81" y="-30.3" font-family="Times,serif" font-size="14.00">Stop</text>
</g>
<!-- Return21 -->
<g id="node5" class="node">
<title>Return21</title>
<polygon fill="yellow" stroke="black" points="114,-124 48,-124 48,-88 114,-88 114,-124"/>
<text text-anchor="middle" x="81" y="-102.3" font-family="Times,serif" font-size="14.00">Return</text>
</g>
<!-- Stop3&#45;&gt;Return21 -->
<g id="edge3" class="edge">
<title>Stop3&#45;&gt;Return21</title>
<path fill="none" stroke="red" d="M81,-52.3C81,-60.02 81,-69.29 81,-77.89"/>
<polygon fill="red" stroke="red" points="77.5,-77.9 81,-87.9 84.5,-77.9 77.5,-77.9"/>
<text text-anchor="middle" x="78" y="-54.9" font-family="Helvetica,sans-Serif" font-size="8.00">0</text>
</g>
<!-- Return21&#45;&gt;Never18 -->
<g id="edge4" class="edge">
<title>Return21&#45;&gt;Never18:p0</title>
<path fill="none" stroke="red" d="M66.31,-124.18C59.67,-133.33 52.73,-145.27 50.1,-157.83"/>
<polygon fill="red" stroke="red" points="46.6,-157.68 49,-168 53.56,-158.43 46.6,-157.68"/>
<text text-anchor="middle" x="63.31" y="-126.78" font-family="Helvetica,sans-Serif" font-size="8.00">0</text>
</g>
<!-- Return21&#45;&gt;Con_4 -->
<g id="edge5" class="edge">
<title>Return21&#45;&gt;Con_4</title>
<path fill="none" stroke="black" d="M105.93,-124.14C117.06,-133.33 129,-145.71 135,-160 147.36,-189.44 138.76,-226.37 130.12,-250.77"/>
<polygon fill="black" stroke="black" points="126.74,-249.81 126.48,-260.41 133.29,-252.29 126.74,-249.81"/>
<text text-anchor="middle" x="102.93" y="-126.74" font-family="Helvetica,sans-Serif" font-size="8.00">1</text>
</g>
<!-- Loop8&#45;&gt;Never18 -->
<g id="edge7" class="edge">
<title>Loop8&#45;&gt;Never18:p1</title>
<path fill="none" stroke="red" d="M74.25,-262.42C94.74,-250.81 120.25,-234.78 126,-224 137.5,-202.43 143.04,-186.53 126,-169 118.29,-161.07 103.85,-156.04 96.15,-159.39"/>
<polygon fill="red" stroke="red" points="93.13,-157.62 91,-168 99.14,-161.22 93.13,-157.62"/>
<text text-anchor="middle" x="77.25" y="-256.02" font-family="Helvetica,sans-Serif" font-size="8.00">2</text>
</g>
<!-- Loop8&#45;&gt;Start2 -->
<g id="edge6" class="edge">
<title>Loop8&#45;&gt;Start2:p0</title>
<path fill="none" stroke="red" d="M47.86,-296.09C48.28,-305.54 48.73,-317.77 48.92,-329.68"/>
<polygon fill="red" stroke="red" points="45.42,-330.03 49,-340 52.42,-329.97 45.42,-330.03"/>
<text text-anchor="middle" x="44.86" y="-298.69" font-family="Helvetica,sans-Serif" font-size="8.00">1</text>
</g>
</g>
</svg>
