<?xml version="1.0" encoding="UTF-8" standalone="no"?>
<!DOCTYPE svg PUBLIC "-//W3C//DTD SVG 1.1//EN"
 "http://www.w3.org/Graphics/SVG/1.1/DTD/svg11.dtd">
<!-- Generated by graphviz version 12.2.0 (20241103.1931)
 -->
<!-- Title: chapter11 Pages: 1 -->
<svg width="358pt" height="714pt"
 viewBox="0.00 0.00 358.12 714.00" xmlns="http://www.w3.org/2000/svg" xmlns:xlink="http://www.w3.org/1999/xlink">
<g id="graph0" class="graph" transform="scale(1 1) rotate(0) translate(4 710)">
<title>chapter11</title>
<polygon fill="white" stroke="none" points="-4,4 -4,-710 354.12,-710 354.12,4 -4,4"/>
<g id="clust1" class="cluster">
<title>cluster_Nodes</title>
<polygon fill="none" stroke="black" points="10.12,-8 10.12,-698 342.12,-698 342.12,-8 10.12,-8"/>
</g>
<!-- Start2 -->
<g id="node1" class="node">
<title>Start2</title>
<polygon fill="yellow" stroke="none" points="178.5,-659.5 178.5,-686 283.75,-686 283.75,-659.5 178.5,-659.5"/>
<polygon fill="none" stroke="black" points="178.5,-659.5 178.5,-686 283.75,-686 283.75,-659.5 178.5,-659.5"/>
<text text-anchor="start" x="218.37" y="-667.7" font-family="Times New Roman,serif" font-size="14.00">Start</text>
<polygon fill="none" stroke="black" points="178.5,-627 178.5,-659.5 283.75,-659.5 283.75,-627 178.5,-627"/>
<polygon fill="yellow" stroke="none" points="183.5,-632 183.5,-654.5 214.25,-654.5 214.25,-632 183.5,-632"/>
<polygon fill="none" stroke="black" points="183.5,-632 183.5,-654.5 214.25,-654.5 214.25,-632 183.5,-632"/>
<text text-anchor="start" x="186.5" y="-638.2" font-family="Times New Roman,serif" font-size="14.00">$ctrl</text>
<polygon fill="none" stroke="black" points="214.25,-632 214.25,-654.5 255.5,-654.5 255.5,-632 214.25,-632"/>
<text text-anchor="start" x="217.25" y="-638.2" font-family="Times New Roman,serif" font-size="14.00">$mem</text>
<polygon fill="none" stroke="black" points="255.5,-632 255.5,-654.5 278.75,-654.5 278.75,-632 255.5,-632"/>
<text text-anchor="start" x="258.5" y="-638.2" font-family="Times New Roman,serif" font-size="14.00">arg</text>
</g>
<!-- MemMerge -->
<g id="node2" class="node">
<title>MemMerge</title>
<polygon fill="none" stroke="black" points="235.12,-196 153.12,-196 153.12,-160 235.12,-160 235.12,-196"/>
<text text-anchor="middle" x="194.12" y="-172.95" font-family="Times New Roman,serif" font-size="14.00">MemMerge</text>
</g>
<!-- MemMerge&#45;&gt;Start2 -->
<g id="edge29" class="edge">
<title>MemMerge&#45;&gt;Start2:p1</title>
<path fill="none" stroke="blue" d="M230.64,-196.45C271.82,-218.98 333.12,-262.35 333.12,-321 333.12,-321 333.12,-321 333.12,-498 333.12,-542.32 315.79,-552.37 288.12,-587 271.8,-607.42 244.66,-602.71 236.96,-619.82"/>
<polygon fill="blue" stroke="blue" points="233.55,-619.04 235.15,-629.51 240.43,-620.33 233.55,-619.04"/>
<text text-anchor="middle" x="228.39" y="-198.6" font-family="Helvetica,sans-Serif" font-size="8.00">1</text>
</g>
<!-- Region23 -->
<g id="node14" class="node">
<title>Region23</title>
<polygon fill="yellow" stroke="black" points="270.62,-268 215.62,-268 215.62,-232 270.62,-232 270.62,-268"/>
<text text-anchor="middle" x="243.12" y="-244.95" font-family="Times New Roman,serif" font-size="14.00">Region</text>
</g>
<!-- MemMerge&#45;&gt;Region23 -->
<g id="edge31" class="edge">
<title>MemMerge&#45;&gt;Region23</title>
<path fill="none" stroke="green" d="M206.23,-196.3C211.81,-204.27 218.55,-213.9 224.74,-222.74"/>
<polygon fill="green" stroke="green" points="221.68,-224.47 230.28,-230.66 227.41,-220.46 221.68,-224.47"/>
<text text-anchor="middle" x="203.98" y="-198.45" font-family="Helvetica,sans-Serif" font-size="8.00">0</text>
</g>
<!-- Phi_224 -->
<g id="node15" class="node">
<title>Phi_224</title>
<ellipse fill="lightyellow" stroke="black" cx="145.12" cy="-250" rx="52.89" ry="18"/>
<text text-anchor="middle" x="145.12" y="-244.95" font-family="Times New Roman,serif" font-size="14.00">MemPhi_2</text>
</g>
<!-- MemMerge&#45;&gt;Phi_224 -->
<g id="edge30" class="edge">
<title>MemMerge&#45;&gt;Phi_224</title>
<path fill="none" stroke="blue" d="M182.01,-196.3C176.35,-204.39 169.49,-214.19 163.23,-223.13"/>
<polygon fill="blue" stroke="blue" points="160.49,-220.94 157.62,-231.14 166.23,-224.95 160.49,-220.94"/>
<text text-anchor="middle" x="179.76" y="-198.45" font-family="Helvetica,sans-Serif" font-size="8.00">2</text>
</g>
<!-- Stop3 -->
<g id="node3" class="node">
<title>Stop3</title>
<polygon fill="yellow" stroke="black" points="136.12,-52 82.12,-52 82.12,-16 136.12,-16 136.12,-52"/>
<text text-anchor="middle" x="109.12" y="-28.95" font-family="Times New Roman,serif" font-size="14.00">Stop</text>
</g>
<!-- Return25 -->
<g id="node16" class="node">
<title>Return25</title>
<polygon fill="yellow" stroke="black" points="136.12,-124 82.12,-124 82.12,-88 136.12,-88 136.12,-124"/>
<text text-anchor="middle" x="109.12" y="-100.95" font-family="Times New Roman,serif" font-size="14.00">Return</text>
</g>
<!-- Stop3&#45;&gt;Return25 -->
<g id="edge1" class="edge">
<title>Stop3&#45;&gt;Return25</title>
<path fill="none" stroke="red" d="M109.12,-52.3C109.12,-59.59 109.12,-68.27 109.12,-76.46"/>
<polygon fill="red" stroke="red" points="105.62,-76.38 109.12,-86.38 112.62,-76.38 105.62,-76.38"/>
<text text-anchor="middle" x="106.87" y="-54.45" font-family="Helvetica,sans-Serif" font-size="8.00">0</text>
</g>
<!-- Con_4 -->
<g id="node4" class="node">
<title>Con_4</title>
<ellipse fill="none" stroke="black" cx="85.12" cy="-497" rx="27" ry="18"/>
<text text-anchor="middle" x="85.12" y="-491.95" font-family="Times New Roman,serif" font-size="14.00">#0</text>
</g>
<!-- new9 -->
<g id="node5" class="node">
<title>new9</title>
<ellipse fill="none" stroke="black" cx="158.12" cy="-569" rx="33.95" ry="18"/>
<text text-anchor="middle" x="158.12" y="-563.95" font-family="Times New Roman,serif" font-size="14.00">new S</text>
</g>
<!-- new9&#45;&gt;Start2 -->
<g id="edge2" class="edge">
<title>new9&#45;&gt;Start2:p0</title>
<path fill="none" stroke="green" d="M175.17,-584.76C183.98,-593.73 193.64,-606.07 197.33,-619.77"/>
<polygon fill="green" stroke="green" points="193.84,-620.07 198.66,-629.5 200.77,-619.12 193.84,-620.07"/>
<text text-anchor="middle" x="177.42" y="-586.91" font-family="Helvetica,sans-Serif" font-size="8.00">0</text>
</g>
<!-- Con_11 -->
<g id="node6" class="node">
<title>Con_11</title>
<ellipse fill="none" stroke="black" cx="237.12" cy="-569" rx="27" ry="18"/>
<text text-anchor="middle" x="237.12" y="-563.95" font-family="Times New Roman,serif" font-size="14.00">#2</text>
</g>
<!-- Store12 -->
<g id="node7" class="node">
<title>Store12</title>
<ellipse fill="none" stroke="black" cx="200.12" cy="-497" rx="27" ry="18"/>
<text text-anchor="middle" x="200.12" y="-491.95" font-family="Times New Roman,serif" font-size="14.00">.f =</text>
</g>
<!-- Store12&#45;&gt;Start2 -->
<g id="edge3" class="edge">
<title>Store12&#45;&gt;Start2:p0</title>
<path fill="none" stroke="red" d="M283.12,-570C284.3,-608.41 225.3,-593.17 205.36,-613.49"/>
<polygon fill="red" stroke="red" points="202.48,-611.47 200.58,-621.89 208.57,-614.92 202.48,-611.47"/>
<path fill="none" stroke="red" d="M223.33,-506.27C247.55,-516.58 282.16,-536.72 283.12,-568"/>
<text text-anchor="middle" x="280.87" y="-562.4" font-family="Helvetica,sans-Serif" font-size="8.00">0</text>
</g>
<!-- Store12&#45;&gt;new9 -->
<g id="edge5" class="edge">
<title>Store12&#45;&gt;new9</title>
<path fill="none" stroke="black" d="M190.38,-514.24C185.52,-522.33 179.52,-532.34 174.02,-541.51"/>
<polygon fill="black" stroke="black" points="171.02,-539.69 168.88,-550.07 177.03,-543.29 171.02,-539.69"/>
<text text-anchor="middle" x="188.13" y="-516.39" font-family="Helvetica,sans-Serif" font-size="8.00">2</text>
</g>
<!-- Store12&#45;&gt;Con_11 -->
<g id="edge6" class="edge">
<title>Store12&#45;&gt;Con_11</title>
<path fill="none" stroke="black" d="M208.7,-514.24C213.05,-522.45 218.42,-532.63 223.33,-541.91"/>
<polygon fill="black" stroke="black" points="220.11,-543.31 227.88,-550.51 226.3,-540.04 220.11,-543.31"/>
<text text-anchor="middle" x="206.45" y="-516.39" font-family="Helvetica,sans-Serif" font-size="8.00">3</text>
</g>
<!-- new13 -->
<g id="node8" class="node">
<title>new13</title>
<ellipse fill="none" stroke="black" cx="72.12" cy="-569" rx="33.95" ry="18"/>
<text text-anchor="middle" x="72.12" y="-563.95" font-family="Times New Roman,serif" font-size="14.00">new S</text>
</g>
<!-- new13&#45;&gt;Start2 -->
<g id="edge7" class="edge">
<title>new13&#45;&gt;Start2:p0</title>
<path fill="none" stroke="green" d="M84.9,-585.89C102,-605.42 134.45,-636.66 171.03,-642.35"/>
<polygon fill="green" stroke="green" points="170.74,-645.84 180.99,-643.13 171.29,-638.86 170.74,-645.84"/>
<text text-anchor="middle" x="82.65" y="-588.04" font-family="Helvetica,sans-Serif" font-size="8.00">0</text>
</g>
<!-- Store14 -->
<g id="node9" class="node">
<title>Store14</title>
<ellipse fill="none" stroke="black" cx="65.12" cy="-409.5" rx="27" ry="18"/>
<text text-anchor="middle" x="65.12" y="-404.45" font-family="Times New Roman,serif" font-size="14.00">.f =</text>
</g>
<!-- Store14&#45;&gt;Start2 -->
<g id="edge8" class="edge">
<title>Store14&#45;&gt;Start2:p0</title>
<path fill="none" stroke="red" d="M39.12,-498C35.91,-530.2 3.02,-539.93 19.12,-568"/>
<path fill="none" stroke="red" d="M57.93,-427.13C51.12,-444.08 41.58,-471.3 39.12,-496"/>
<text text-anchor="middle" x="36.87" y="-490.4" font-family="Helvetica,sans-Serif" font-size="8.00">0</text>
</g>
<!-- Store14&#45;&gt;Con_4 -->
<g id="edge11" class="edge">
<title>Store14&#45;&gt;Con_4</title>
<path fill="none" stroke="black" d="M69.07,-427.39C71.77,-438.91 75.4,-454.44 78.53,-467.81"/>
<polygon fill="black" stroke="black" points="75.08,-468.44 80.76,-477.38 81.89,-466.84 75.08,-468.44"/>
<text text-anchor="middle" x="66.82" y="-429.54" font-family="Helvetica,sans-Serif" font-size="8.00">3</text>
</g>
<!-- Store14&#45;&gt;Store12 -->
<g id="edge9" class="edge">
<title>Store14&#45;&gt;Store12</title>
<path fill="none" stroke="blue" d="M84.18,-422.57C106.99,-437.02 145.41,-461.35 171.73,-478.02"/>
<polygon fill="blue" stroke="blue" points="169.56,-480.79 179.88,-483.18 173.31,-474.88 169.56,-480.79"/>
<text text-anchor="middle" x="86.43" y="-424.72" font-family="Helvetica,sans-Serif" font-size="8.00">1</text>
</g>
<!-- Store14&#45;&gt;new13 -->
<g id="edge10" class="edge">
<title>Store14&#45;&gt;new13</title>
<path fill="none" stroke="black" d="M39.12,-498C37.54,-513.82 44.48,-529.98 52.39,-542.78"/>
<polygon fill="black" stroke="black" points="49.45,-544.68 57.96,-551 55.25,-540.75 49.45,-544.68"/>
<text text-anchor="middle" x="36.87" y="-500.15" font-family="Helvetica,sans-Serif" font-size="8.00">2</text>
</g>
<!-- Load16 -->
<g id="node10" class="node">
<title>Load16</title>
<ellipse fill="none" stroke="black" cx="45.12" cy="-322" rx="27" ry="18"/>
<text text-anchor="middle" x="45.12" y="-316.95" font-family="Times New Roman,serif" font-size="14.00">.f</text>
</g>
<!-- Load16&#45;&gt;Start2 -->
<g id="edge12" class="edge">
<title>Load16&#45;&gt;Start2:p0</title>
<path fill="none" stroke="red" d="M37.1,-339.54C18.2,-381.13 -24.39,-492.12 19.12,-568"/>
<path fill="none" stroke="red" d="M19.12,-570C23.95,-577.31 22.39,-581.38 29.12,-587 78.43,-628.14 103.69,-640.51 159.1,-642.82"/>
<polygon fill="red" stroke="red" points="158.99,-646.32 169.09,-643.11 159.19,-639.32 158.99,-646.32"/>
<text text-anchor="middle" x="34.85" y="-341.69" font-family="Helvetica,sans-Serif" font-size="8.00">0</text>
</g>
<!-- Load16&#45;&gt;new9 -->
<g id="edge14" class="edge">
<title>Load16&#45;&gt;new9</title>
<path fill="none" stroke="black" d="M63.11,-335.98C75.41,-345.72 91.23,-360.08 101.12,-376 109.09,-388.84 106.98,-393.97 111.12,-408.5"/>
<path fill="none" stroke="black" d="M111.12,-410.5C124.08,-456.01 139.97,-508.64 149.56,-540.08"/>
<polygon fill="black" stroke="black" points="146.19,-541.04 152.46,-549.58 152.89,-538.99 146.19,-541.04"/>
<text text-anchor="middle" x="60.86" y="-338.13" font-family="Helvetica,sans-Serif" font-size="8.00">2</text>
</g>
<!-- Load16&#45;&gt;Store14 -->
<g id="edge13" class="edge">
<title>Load16&#45;&gt;Store14</title>
<path fill="none" stroke="blue" d="M49.07,-339.89C51.77,-351.41 55.4,-366.94 58.53,-380.31"/>
<polygon fill="blue" stroke="blue" points="55.08,-380.94 60.76,-389.88 61.89,-379.34 55.08,-380.94"/>
<text text-anchor="middle" x="46.82" y="-342.04" font-family="Helvetica,sans-Serif" font-size="8.00">1</text>
</g>
<!-- If17 -->
<g id="node11" class="node">
<title>If17</title>
<polygon fill="yellow" stroke="none" points="230.12,-412.5 230.12,-439 306.12,-439 306.12,-412.5 230.12,-412.5"/>
<polygon fill="none" stroke="black" points="230.12,-412.5 230.12,-439 306.12,-439 306.12,-412.5 230.12,-412.5"/>
<text text-anchor="start" x="263.62" y="-420.7" font-family="Times New Roman,serif" font-size="14.00">If</text>
<polygon fill="none" stroke="black" points="230.12,-380 230.12,-412.5 306.12,-412.5 306.12,-380 230.12,-380"/>
<polygon fill="yellow" stroke="none" points="235.12,-385 235.12,-407.5 266.62,-407.5 266.62,-385 235.12,-385"/>
<polygon fill="none" stroke="black" points="235.12,-385 235.12,-407.5 266.62,-407.5 266.62,-385 235.12,-385"/>
<text text-anchor="start" x="238.12" y="-391.2" font-family="Times New Roman,serif" font-size="14.00">True</text>
<polygon fill="yellow" stroke="none" points="266.62,-385 266.62,-407.5 301.12,-407.5 301.12,-385 266.62,-385"/>
<polygon fill="none" stroke="black" points="266.62,-385 266.62,-407.5 301.12,-407.5 301.12,-385 266.62,-385"/>
<text text-anchor="start" x="269.62" y="-391.2" font-family="Times New Roman,serif" font-size="14.00">False</text>
</g>
<!-- If17&#45;&gt;Start2 -->
<g id="edge15" class="edge">
<title>If17&#45;&gt;Start2:p0</title>
<path fill="none" stroke="red" d="M263.95,-442.76C262.88,-459.03 263.19,-478.88 268.12,-496"/>
<text text-anchor="middle" x="261.7" y="-444.91" font-family="Helvetica,sans-Serif" font-size="8.00">0</text>
</g>
<!-- Con_21 -->
<g id="node12" class="node">
<title>Con_21</title>
<ellipse fill="none" stroke="black" cx="157.12" cy="-409.5" rx="27" ry="18"/>
<text text-anchor="middle" x="157.12" y="-404.45" font-family="Times New Roman,serif" font-size="14.00">#1</text>
</g>
<!-- Store22 -->
<g id="node13" class="node">
<title>Store22</title>
<ellipse fill="none" stroke="black" cx="117.12" cy="-322" rx="27" ry="18"/>
<text text-anchor="middle" x="117.12" y="-316.95" font-family="Times New Roman,serif" font-size="14.00">.f =</text>
</g>
<!-- Store22&#45;&gt;Start2 -->
<g id="edge17" class="edge">
<title>Store22&#45;&gt;Start2:p0</title>
<path fill="none" stroke="red" d="M138.84,-333.04C155.95,-342.01 179.17,-356.71 193.12,-376 211.33,-401.18 196.96,-416.46 213.12,-443 230.78,-471.99 258.72,-463.38 268.12,-496"/>
<path fill="none" stroke="red" d="M268.12,-498C276.93,-528.57 282.14,-536.2 283.12,-568"/>
<text text-anchor="middle" x="136.59" y="-335.19" font-family="Helvetica,sans-Serif" font-size="8.00">0</text>
</g>
<!-- Store22&#45;&gt;new9 -->
<g id="edge19" class="edge">
<title>Store22&#45;&gt;new9</title>
<path fill="none" stroke="black" d="M112.54,-340.07C108.62,-357.58 104.56,-385.46 111.12,-408.5"/>
<text text-anchor="middle" x="110.29" y="-342.22" font-family="Helvetica,sans-Serif" font-size="8.00">2</text>
</g>
<!-- Store22&#45;&gt;Store14 -->
<g id="edge18" class="edge">
<title>Store22&#45;&gt;Store14</title>
<path fill="none" stroke="blue" d="M107.34,-339.08C99.86,-351.38 89.4,-368.59 80.76,-382.79"/>
<polygon fill="blue" stroke="blue" points="77.85,-380.83 75.64,-391.2 83.83,-384.47 77.85,-380.83"/>
<text text-anchor="middle" x="105.09" y="-341.23" font-family="Helvetica,sans-Serif" font-size="8.00">1</text>
</g>
<!-- Store22&#45;&gt;Con_21 -->
<g id="edge20" class="edge">
<title>Store22&#45;&gt;Con_21</title>
<path fill="none" stroke="black" d="M124.83,-339.49C130.39,-351.36 138,-367.64 144.44,-381.4"/>
<polygon fill="black" stroke="black" points="141.25,-382.83 148.65,-390.4 147.59,-379.86 141.25,-382.83"/>
<text text-anchor="middle" x="122.58" y="-341.64" font-family="Helvetica,sans-Serif" font-size="8.00">3</text>
</g>
<!-- Region23&#45;&gt;If17 -->
<g id="edge21" class="edge">
<title>Region23&#45;&gt;If17:p0</title>
<path fill="none" stroke="red" d="M244.76,-268.2C246.83,-291.25 250.19,-333.78 250.78,-372.63"/>
<polygon fill="red" stroke="red" points="247.28,-372.51 250.86,-382.49 254.28,-372.46 247.28,-372.51"/>
<text text-anchor="middle" x="242.51" y="-270.35" font-family="Helvetica,sans-Serif" font-size="8.00">1</text>
</g>
<!-- Region23&#45;&gt;If17 -->
<g id="edge22" class="edge">
<title>Region23&#45;&gt;If17:p1</title>
<path fill="none" stroke="red" d="M252.57,-268.22C257.8,-278.38 264.05,-291.63 268.12,-304 278.15,-334.53 282.78,-345.32 283.7,-372.64"/>
<polygon fill="red" stroke="red" points="280.19,-372.54 283.85,-382.49 287.19,-372.43 280.19,-372.54"/>
<text text-anchor="middle" x="250.32" y="-270.37" font-family="Helvetica,sans-Serif" font-size="8.00">2</text>
</g>
<!-- Phi_224&#45;&gt;Store14 -->
<g id="edge25" class="edge">
<title>Phi_224&#45;&gt;Store14</title>
<path fill="none" stroke="blue" d="M151.73,-268.04C157.85,-286.71 164.45,-317.05 153.12,-340 141.47,-363.59 126.88,-359.83 106.12,-376 101.11,-379.91 95.77,-384.11 90.66,-388.15"/>
<polygon fill="blue" stroke="blue" points="88.67,-385.26 83.01,-394.21 93.02,-390.74 88.67,-385.26"/>
<text text-anchor="middle" x="149.48" y="-270.19" font-family="Helvetica,sans-Serif" font-size="8.00">2</text>
</g>
<!-- Phi_224&#45;&gt;Store22 -->
<g id="edge24" class="edge">
<title>Phi_224&#45;&gt;Store22</title>
<path fill="none" stroke="blue" d="M138.2,-268.3C135.14,-275.96 131.46,-285.15 128.04,-293.7"/>
<polygon fill="blue" stroke="blue" points="124.8,-292.39 124.33,-302.97 131.3,-294.99 124.8,-292.39"/>
<text text-anchor="middle" x="135.95" y="-270.45" font-family="Helvetica,sans-Serif" font-size="8.00">1</text>
</g>
<!-- Phi_224&#45;&gt;Region23 -->
<g id="edge23" class="edge">
<title>Phi_224&#45;&gt;Region23</title>
<path fill="none" stroke="black" stroke-dasharray="1,5" d="M198.33,-250C200.17,-250 202.01,-250 203.84,-250"/>
<polygon fill="black" stroke="black" points="203.61,-253.5 213.61,-250 203.61,-246.5 203.61,-253.5"/>
<text text-anchor="middle" x="200.58" y="-242.4" font-family="Helvetica,sans-Serif" font-size="8.00">0</text>
</g>
<!-- Return25&#45;&gt;MemMerge -->
<g id="edge28" class="edge">
<title>Return25&#45;&gt;MemMerge</title>
<path fill="none" stroke="blue" d="M130.13,-124.3C140.45,-132.8 153.06,-143.19 164.35,-152.49"/>
<polygon fill="blue" stroke="blue" points="161.94,-155.04 171.89,-158.69 166.39,-149.63 161.94,-155.04"/>
<text text-anchor="middle" x="127.88" y="-126.45" font-family="Helvetica,sans-Serif" font-size="8.00">1</text>
</g>
<!-- Return25&#45;&gt;Load16 -->
<g id="edge27" class="edge">
<title>Return25&#45;&gt;Load16</title>
<path fill="none" stroke="black" d="M73.12,-179C81.32,-218.99 67.84,-265.4 56.89,-293.98"/>
<polygon fill="black" stroke="black" points="53.76,-292.38 53.29,-302.96 60.26,-294.99 53.76,-292.38"/>
<path fill="none" stroke="black" d="M92.26,-124.39C81.14,-137.97 69.27,-157.7 73.12,-177"/>
<text text-anchor="middle" x="70.87" y="-171.4" font-family="Helvetica,sans-Serif" font-size="8.00">2</text>
</g>
<!-- Return25&#45;&gt;Region23 -->
<g id="edge26" class="edge">
<title>Return25&#45;&gt;Region23</title>
<path fill="none" stroke="red" d="M73.12,-179C85.3,-238.43 141.92,-209.98 204.75,-231.55"/>
<polygon fill="red" stroke="red" points="203.29,-234.74 213.88,-235.09 205.83,-228.21 203.29,-234.74"/>
<text text-anchor="middle" x="70.87" y="-181.15" font-family="Helvetica,sans-Serif" font-size="8.00">0</text>
</g>
</g>
</svg>
