<?xml version="1.0" encoding="UTF-8" standalone="no"?>
<!DOCTYPE svg PUBLIC "-//W3C//DTD SVG 1.1//EN"
 "http://www.w3.org/Graphics/SVG/1.1/DTD/svg11.dtd">
<!-- Generated by graphviz version 2.43.0 (0)
 -->
<!-- Title: chapter11 Pages: 1 -->
<svg width="454pt" height="680pt"
 viewBox="0.00 0.00 454.00 680.14" xmlns="http://www.w3.org/2000/svg" xmlns:xlink="http://www.w3.org/1999/xlink">
<g id="graph0" class="graph" transform="scale(1 1) rotate(0) translate(4 676.14)">
<title>chapter11</title>
<polygon fill="white" stroke="transparent" points="-4,4 -4,-676.14 450,-676.14 450,4 -4,4"/>
<g id="clust1" class="cluster">
<title>cluster_Nodes</title>
<polygon fill="none" stroke="black" points="8,-24.14 8,-664.14 438,-664.14 438,-24.14 8,-24.14"/>
</g>
<!-- Start2 -->
<g id="node1" class="node">
<title>Start2</title>
<polygon fill="yellow" stroke="transparent" points="129,-627.14 129,-652.14 235,-652.14 235,-627.14 129,-627.14"/>
<polygon fill="none" stroke="black" points="129,-627.14 129,-652.14 235,-652.14 235,-627.14 129,-627.14"/>
<text text-anchor="start" x="163.5" y="-635.94" font-family="Times,serif" font-size="14.00">Start</text>
<polygon fill="none" stroke="black" points="129,-596.14 129,-627.14 235,-627.14 235,-596.14 129,-596.14"/>
<polygon fill="yellow" stroke="transparent" points="134,-601.14 134,-622.14 174,-622.14 174,-601.14 134,-601.14"/>
<polygon fill="none" stroke="black" points="134,-601.14 134,-622.14 174,-622.14 174,-601.14 134,-601.14"/>
<text text-anchor="start" x="137" y="-607.94" font-family="Times,serif" font-size="14.00">$ctrl</text>
<polygon fill="none" stroke="black" points="174,-601.14 174,-622.14 205,-622.14 205,-601.14 174,-601.14"/>
<text text-anchor="start" x="177" y="-607.94" font-family="Times,serif" font-size="14.00">arg</text>
<polygon fill="none" stroke="black" points="205,-601.14 205,-622.14 230,-622.14 230,-601.14 205,-601.14"/>
<text text-anchor="start" x="208" y="-607.94" font-family="Times,serif" font-size="14.00">$2</text>
</g>
<!-- Stop3 -->
<g id="node2" class="node">
<title>Stop3</title>
<polygon fill="yellow" stroke="black" points="189,-68.14 135,-68.14 135,-32.14 189,-32.14 189,-68.14"/>
<text text-anchor="middle" x="162" y="-46.44" font-family="Times,serif" font-size="14.00">Stop</text>
</g>
<!-- Return37 -->
<g id="node21" class="node">
<title>Return37</title>
<polygon fill="yellow" stroke="black" points="193,-154.14 127,-154.14 127,-118.14 193,-118.14 193,-154.14"/>
<text text-anchor="middle" x="160" y="-132.44" font-family="Times,serif" font-size="14.00">Return</text>
</g>
<!-- Stop3&#45;&gt;Return37 -->
<g id="edge1" class="edge">
<title>Stop3&#45;&gt;Return37</title>
<path fill="none" stroke="red" d="M161.59,-68.55C161.32,-79.89 160.96,-94.92 160.65,-107.83"/>
<polygon fill="red" stroke="red" points="157.15,-107.97 160.41,-118.05 164.14,-108.13 157.15,-107.97"/>
<text text-anchor="middle" x="158.59" y="-71.15" font-family="Helvetica,sans-Serif" font-size="8.00">0</text>
</g>
<!-- Con_4 -->
<g id="node3" class="node">
<title>Con_4</title>
<ellipse fill="none" stroke="black" cx="264" cy="-538.14" rx="27" ry="18"/>
<text text-anchor="middle" x="264" y="-534.44" font-family="Times,serif" font-size="14.00">#0</text>
</g>
<!-- new9 -->
<g id="node4" class="node">
<title>new9</title>
<ellipse fill="none" stroke="black" cx="55" cy="-538.14" rx="38.99" ry="18"/>
<text text-anchor="middle" x="55" y="-534.44" font-family="Times,serif" font-size="14.00">new S</text>
</g>
<!-- new9&#45;&gt;Start2 -->
<g id="edge2" class="edge">
<title>new9&#45;&gt;Start2:p0</title>
<path fill="none" stroke="green" d="M63.59,-555.84C74.57,-574.87 95.49,-604.11 123,-610.06"/>
<polygon fill="green" stroke="green" points="122.68,-613.55 133,-611.14 123.43,-606.59 122.68,-613.55"/>
<text text-anchor="middle" x="60.59" y="-558.44" font-family="Helvetica,sans-Serif" font-size="8.00">0</text>
</g>
<!-- Store10 -->
<g id="node5" class="node">
<title>Store10</title>
<ellipse fill="none" stroke="black" cx="218" cy="-466.14" rx="27.9" ry="18"/>
<text text-anchor="middle" x="218" y="-462.44" font-family="Times,serif" font-size="14.00">.f =</text>
</g>
<!-- Store10&#45;&gt;Start2 -->
<g id="edge3" class="edge">
<title>Store10&#45;&gt;Start2:p2</title>
<path fill="none" stroke="blue" d="M218,-484.36C218,-507.63 218,-550.72 218,-589.78"/>
<polygon fill="blue" stroke="blue" points="214.5,-590.14 218,-600.14 221.5,-590.14 214.5,-590.14"/>
<text text-anchor="middle" x="215" y="-486.96" font-family="Helvetica,sans-Serif" font-size="8.00">1</text>
</g>
<!-- Store10&#45;&gt;Con_4 -->
<g id="edge5" class="edge">
<title>Store10&#45;&gt;Con_4</title>
<path fill="none" stroke="black" d="M228.44,-483.03C234.2,-491.8 241.48,-502.88 247.96,-512.73"/>
<polygon fill="black" stroke="black" points="245.19,-514.89 253.6,-521.32 251.04,-511.04 245.19,-514.89"/>
<text text-anchor="middle" x="225.44" y="-485.63" font-family="Helvetica,sans-Serif" font-size="8.00">3</text>
</g>
<!-- Store10&#45;&gt;new9 -->
<g id="edge4" class="edge">
<title>Store10&#45;&gt;new9</title>
<path fill="none" stroke="black" d="M195.75,-477.51C190.9,-479.73 185.79,-482.04 181,-484.14 151.47,-497.13 117.77,-511.27 92.65,-521.68"/>
<polygon fill="black" stroke="black" points="91.04,-518.56 83.14,-525.61 93.72,-525.03 91.04,-518.56"/>
<text text-anchor="middle" x="192.75" y="-480.11" font-family="Helvetica,sans-Serif" font-size="8.00">2</text>
</g>
<!-- Loop11 -->
<g id="node6" class="node">
<title>Loop11</title>
<polygon fill="yellow" stroke="black" points="430,-412.14 376,-412.14 376,-376.14 430,-376.14 430,-412.14"/>
<text text-anchor="middle" x="403" y="-390.44" font-family="Times,serif" font-size="14.00">Loop</text>
</g>
<!-- Loop11&#45;&gt;Start2 -->
<g id="edge6" class="edge">
<title>Loop11&#45;&gt;Start2:p0</title>
<path fill="none" stroke="red" d="M398.43,-412.15C388.69,-445.12 362.68,-517.81 314,-556.14 259,-599.46 164.25,-533.74 154.77,-590.03"/>
<polygon fill="red" stroke="red" points="151.27,-589.91 154,-600.14 158.25,-590.44 151.27,-589.91"/>
<text text-anchor="middle" x="395.43" y="-414.75" font-family="Helvetica,sans-Serif" font-size="8.00">1</text>
</g>
<!-- Region32 -->
<g id="node17" class="node">
<title>Region32</title>
<polygon fill="yellow" stroke="black" points="278,-68.14 212,-68.14 212,-32.14 278,-32.14 278,-68.14"/>
<text text-anchor="middle" x="245" y="-46.44" font-family="Times,serif" font-size="14.00">Region</text>
</g>
<!-- Loop11&#45;&gt;Region32 -->
<g id="edge7" class="edge">
<title>Loop11&#45;&gt;Region32</title>
<path fill="none" stroke="red" d="M375.77,-379.43C372.85,-378.21 369.89,-377.09 367,-376.14 287.4,-350.06 245.88,-394.32 182,-340.14 148.1,-311.39 72.96,-171.74 118,-104.14 120.57,-100.29 166.66,-81.64 202.59,-67.55"/>
<polygon fill="red" stroke="red" points="203.9,-70.79 211.94,-63.89 201.35,-64.27 203.9,-70.79"/>
<text text-anchor="middle" x="372.77" y="-373.03" font-family="Helvetica,sans-Serif" font-size="8.00">2</text>
</g>
<!-- Phi_arg13 -->
<g id="node7" class="node">
<title>Phi_arg13</title>
<ellipse fill="lightyellow" stroke="black" cx="321" cy="-394.14" rx="37.09" ry="18"/>
<text text-anchor="middle" x="321" y="-390.44" font-family="Times,serif" font-size="14.00">φ_arg</text>
</g>
<!-- Phi_arg13&#45;&gt;Start2 -->
<g id="edge9" class="edge">
<title>Phi_arg13&#45;&gt;Start2:p1</title>
<path fill="none" stroke="black" d="M323.94,-412.28C328.4,-444.2 333.18,-513.39 300,-556.14 270.11,-594.65 201.29,-554.44 191.23,-590.04"/>
<polygon fill="black" stroke="black" points="187.74,-589.79 190,-600.14 194.69,-590.64 187.74,-589.79"/>
<text text-anchor="middle" x="320.94" y="-414.88" font-family="Helvetica,sans-Serif" font-size="8.00">1</text>
</g>
<!-- Phi_arg13&#45;&gt;Loop11 -->
<g id="edge8" class="edge">
<title>Phi_arg13&#45;&gt;Loop11</title>
<path fill="none" stroke="black" stroke-dasharray="1,5" d="M358.16,-394.14C360.62,-394.14 363.08,-394.14 365.55,-394.14"/>
<polygon fill="black" stroke="black" points="365.67,-397.64 375.67,-394.14 365.67,-390.64 365.67,-397.64"/>
<text text-anchor="middle" x="361.16" y="-387.74" font-family="Helvetica,sans-Serif" font-size="8.00">0</text>
</g>
<!-- Sub35 -->
<g id="node19" class="node">
<title>Sub35</title>
<ellipse fill="none" stroke="black" cx="218" cy="-322.14" rx="27" ry="18"/>
<text text-anchor="middle" x="218" y="-318.44" font-family="Times,serif" font-size="14.00">&#45;</text>
</g>
<!-- LT14 -->
<g id="node8" class="node">
<title>LT14</title>
<ellipse fill="none" stroke="black" cx="290" cy="-322.14" rx="27" ry="18"/>
<text text-anchor="middle" x="290" y="-318.44" font-family="Times,serif" font-size="14.00">&lt;</text>
</g>
<!-- LT14&#45;&gt;Con_4 -->
<g id="edge11" class="edge">
<title>LT14&#45;&gt;Con_4</title>
<path fill="none" stroke="black" d="M284.22,-340.12C280.96,-350.42 277.13,-363.89 275,-376.14 266.94,-422.56 264.72,-477.47 264.15,-509.69"/>
<polygon fill="black" stroke="black" points="260.64,-510.04 264.01,-520.08 267.64,-510.13 260.64,-510.04"/>
<text text-anchor="middle" x="281.22" y="-342.72" font-family="Helvetica,sans-Serif" font-size="8.00">1</text>
</g>
<!-- LT14&#45;&gt;Phi_arg13 -->
<g id="edge12" class="edge">
<title>LT14&#45;&gt;Phi_arg13</title>
<path fill="none" stroke="black" d="M297.35,-339.73C300.92,-347.81 305.31,-357.71 309.33,-366.79"/>
<polygon fill="black" stroke="black" points="306.24,-368.46 313.49,-376.19 312.64,-365.63 306.24,-368.46"/>
<text text-anchor="middle" x="294.35" y="-342.33" font-family="Helvetica,sans-Serif" font-size="8.00">2</text>
</g>
<!-- If16 -->
<g id="node9" class="node">
<title>If16</title>
<polygon fill="yellow" stroke="transparent" points="242,-239.14 242,-264.14 336,-264.14 336,-239.14 242,-239.14"/>
<polygon fill="none" stroke="black" points="242,-239.14 242,-264.14 336,-264.14 336,-239.14 242,-239.14"/>
<text text-anchor="start" x="283.5" y="-247.94" font-family="Times,serif" font-size="14.00">If</text>
<polygon fill="none" stroke="black" points="242,-208.14 242,-239.14 336,-239.14 336,-208.14 242,-208.14"/>
<polygon fill="yellow" stroke="transparent" points="247,-213.14 247,-234.14 287,-234.14 287,-213.14 247,-213.14"/>
<polygon fill="none" stroke="black" points="247,-213.14 247,-234.14 287,-234.14 287,-213.14 247,-213.14"/>
<text text-anchor="start" x="250" y="-219.94" font-family="Times,serif" font-size="14.00">True</text>
<polygon fill="yellow" stroke="transparent" points="287,-213.14 287,-234.14 331,-234.14 331,-213.14 287,-213.14"/>
<polygon fill="none" stroke="black" points="287,-213.14 287,-234.14 331,-234.14 331,-213.14 287,-213.14"/>
<text text-anchor="start" x="290" y="-219.94" font-family="Times,serif" font-size="14.00">False</text>
</g>
<!-- If16&#45;&gt;Loop11 -->
<g id="edge13" class="edge">
<title>If16&#45;&gt;Loop11</title>
<path fill="none" stroke="red" d="M311.8,-268.34C333.14,-297.54 364.63,-340.64 384.47,-367.78"/>
<polygon fill="red" stroke="red" points="381.75,-369.99 390.47,-376 387.4,-365.86 381.75,-369.99"/>
<text text-anchor="middle" x="308.8" y="-270.94" font-family="Helvetica,sans-Serif" font-size="8.00">0</text>
</g>
<!-- If16&#45;&gt;LT14 -->
<g id="edge14" class="edge">
<title>If16&#45;&gt;LT14</title>
<path fill="none" stroke="black" d="M289.37,-268.42C289.47,-276.72 289.58,-285.63 289.67,-293.71"/>
<polygon fill="black" stroke="black" points="286.17,-293.78 289.79,-303.74 293.17,-293.7 286.17,-293.78"/>
<text text-anchor="middle" x="286.37" y="-271.02" font-family="Helvetica,sans-Serif" font-size="8.00">1</text>
</g>
<!-- Div21 -->
<g id="node10" class="node">
<title>Div21</title>
<ellipse fill="none" stroke="black" cx="63" cy="-394.14" rx="27" ry="18"/>
<text text-anchor="middle" x="63" y="-390.44" font-family="Times,serif" font-size="14.00">//</text>
</g>
<!-- Div21&#45;&gt;Start2 -->
<g id="edge15" class="edge">
<title>Div21&#45;&gt;Start2:p1</title>
<path fill="none" stroke="black" d="M70.68,-411.57C79.34,-429.71 94.16,-459.58 109,-484.14 139.67,-534.92 184.56,-537.17 189.54,-590.05"/>
<polygon fill="black" stroke="black" points="186.05,-590.31 190,-600.14 193.05,-590 186.05,-590.31"/>
<text text-anchor="middle" x="67.68" y="-414.17" font-family="Helvetica,sans-Serif" font-size="8.00">1</text>
</g>
<!-- Con_22 -->
<g id="node11" class="node">
<title>Con_22</title>
<ellipse fill="none" stroke="black" cx="145" cy="-466.14" rx="27" ry="18"/>
<text text-anchor="middle" x="145" y="-462.44" font-family="Times,serif" font-size="14.00">#3</text>
</g>
<!-- Div21&#45;&gt;Con_22 -->
<g id="edge16" class="edge">
<title>Div21&#45;&gt;Con_22</title>
<path fill="none" stroke="black" d="M79.2,-408.97C91.18,-419.2 107.69,-433.29 121.18,-444.8"/>
<polygon fill="black" stroke="black" points="119.23,-447.75 129.11,-451.58 123.78,-442.43 119.23,-447.75"/>
<text text-anchor="middle" x="76.2" y="-411.57" font-family="Helvetica,sans-Serif" font-size="8.00">2</text>
</g>
<!-- EQ23 -->
<g id="node12" class="node">
<title>EQ23</title>
<ellipse fill="none" stroke="black" cx="389" cy="-236.14" rx="27" ry="18"/>
<text text-anchor="middle" x="389" y="-232.44" font-family="Times,serif" font-size="14.00">==</text>
</g>
<!-- EQ23&#45;&gt;Phi_arg13 -->
<g id="edge17" class="edge">
<title>EQ23&#45;&gt;Phi_arg13</title>
<path fill="none" stroke="black" d="M381.85,-253.54C370.11,-280.48 346.63,-334.34 332.52,-366.71"/>
<polygon fill="black" stroke="black" points="329.25,-365.45 328.46,-376.02 335.67,-368.25 329.25,-365.45"/>
<text text-anchor="middle" x="378.85" y="-256.14" font-family="Helvetica,sans-Serif" font-size="8.00">1</text>
</g>
<!-- Con_24 -->
<g id="node13" class="node">
<title>Con_24</title>
<ellipse fill="none" stroke="black" cx="402" cy="-322.14" rx="27" ry="18"/>
<text text-anchor="middle" x="402" y="-318.44" font-family="Times,serif" font-size="14.00">#5</text>
</g>
<!-- EQ23&#45;&gt;Con_24 -->
<g id="edge18" class="edge">
<title>EQ23&#45;&gt;Con_24</title>
<path fill="none" stroke="black" d="M391.63,-254.14C393.41,-265.64 395.8,-281.07 397.83,-294.23"/>
<polygon fill="black" stroke="black" points="394.38,-294.82 399.37,-304.17 401.3,-293.75 394.38,-294.82"/>
<text text-anchor="middle" x="388.63" y="-256.74" font-family="Helvetica,sans-Serif" font-size="8.00">2</text>
</g>
<!-- If25 -->
<g id="node14" class="node">
<title>If25</title>
<polygon fill="yellow" stroke="transparent" points="220,-139.14 220,-164.14 314,-164.14 314,-139.14 220,-139.14"/>
<polygon fill="none" stroke="black" points="220,-139.14 220,-164.14 314,-164.14 314,-139.14 220,-139.14"/>
<text text-anchor="start" x="261.5" y="-147.94" font-family="Times,serif" font-size="14.00">If</text>
<polygon fill="none" stroke="black" points="220,-108.14 220,-139.14 314,-139.14 314,-108.14 220,-108.14"/>
<polygon fill="yellow" stroke="transparent" points="225,-113.14 225,-134.14 265,-134.14 265,-113.14 225,-113.14"/>
<polygon fill="none" stroke="black" points="225,-113.14 225,-134.14 265,-134.14 265,-113.14 225,-113.14"/>
<text text-anchor="start" x="228" y="-119.94" font-family="Times,serif" font-size="14.00">True</text>
<polygon fill="yellow" stroke="transparent" points="265,-113.14 265,-134.14 309,-134.14 309,-113.14 265,-113.14"/>
<polygon fill="none" stroke="black" points="265,-113.14 265,-134.14 309,-134.14 309,-113.14 265,-113.14"/>
<text text-anchor="start" x="268" y="-119.94" font-family="Times,serif" font-size="14.00">False</text>
</g>
<!-- If25&#45;&gt;If16 -->
<g id="edge19" class="edge">
<title>If25&#45;&gt;If16:p0</title>
<path fill="none" stroke="red" d="M267,-168.16C267,-178.61 267,-190.56 267,-202.13"/>
<polygon fill="red" stroke="red" points="263.5,-202.14 267,-212.14 270.5,-202.14 263.5,-202.14"/>
<text text-anchor="middle" x="264" y="-170.76" font-family="Helvetica,sans-Serif" font-size="8.00">0</text>
</g>
<!-- If25&#45;&gt;EQ23 -->
<g id="edge20" class="edge">
<title>If25&#45;&gt;EQ23</title>
<path fill="none" stroke="black" d="M308.01,-168.43C322.36,-179.56 338.51,-192.27 353,-204.14 357.12,-207.52 361.45,-211.17 365.63,-214.73"/>
<polygon fill="black" stroke="black" points="363.51,-217.52 373.37,-221.39 368.08,-212.22 363.51,-217.52"/>
<text text-anchor="middle" x="305.01" y="-171.03" font-family="Helvetica,sans-Serif" font-size="8.00">1</text>
</g>
<!-- Phi_230 -->
<g id="node15" class="node">
<title>Phi_230</title>
<ellipse fill="lightyellow" stroke="black" cx="141" cy="-394.14" rx="33.29" ry="18"/>
<text text-anchor="middle" x="141" y="-390.44" font-family="Times,serif" font-size="14.00">φ_$2</text>
</g>
<!-- Phi_230&#45;&gt;Store10 -->
<g id="edge22" class="edge">
<title>Phi_230&#45;&gt;Store10</title>
<path fill="none" stroke="blue" d="M157.33,-409.99C168.27,-419.93 182.82,-433.16 194.94,-444.18"/>
<polygon fill="blue" stroke="blue" points="192.73,-446.9 202.48,-451.04 197.44,-441.72 192.73,-446.9"/>
<text text-anchor="middle" x="154.33" y="-412.59" font-family="Helvetica,sans-Serif" font-size="8.00">1</text>
</g>
<!-- Phi_230&#45;&gt;Loop11 -->
<g id="edge21" class="edge">
<title>Phi_230&#45;&gt;Loop11</title>
<path fill="none" stroke="black" stroke-dasharray="1,5" d="M157.93,-378.17C167.22,-370.51 179.4,-362.14 192,-358.14 262.32,-335.82 288.38,-333.72 358,-358.14 365.14,-360.65 371.99,-364.81 378.09,-369.44"/>
<polygon fill="black" stroke="black" points="375.99,-372.24 385.92,-375.93 380.45,-366.85 375.99,-372.24"/>
<text text-anchor="middle" x="154.93" y="-371.77" font-family="Helvetica,sans-Serif" font-size="8.00">0</text>
</g>
<!-- Phi_233 -->
<g id="node18" class="node">
<title>Phi_233</title>
<ellipse fill="lightyellow" stroke="black" cx="84" cy="-50.14" rx="33.29" ry="18"/>
<text text-anchor="middle" x="84" y="-46.44" font-family="Times,serif" font-size="14.00">φ_$2</text>
</g>
<!-- Store31 -->
<g id="node16" class="node">
<title>Store31</title>
<ellipse fill="none" stroke="black" cx="84" cy="-322.14" rx="27.9" ry="18"/>
<text text-anchor="middle" x="84" y="-318.44" font-family="Times,serif" font-size="14.00">.f =</text>
</g>
<!-- Store31&#45;&gt;new9 -->
<g id="edge25" class="edge">
<title>Store31&#45;&gt;new9</title>
<path fill="none" stroke="black" d="M64.25,-334.88C46.61,-346.87 22.71,-367.36 17,-393.14"/>
<text text-anchor="middle" x="61.25" y="-337.48" font-family="Helvetica,sans-Serif" font-size="8.00">2</text>
</g>
<!-- Store31&#45;&gt;Div21 -->
<g id="edge26" class="edge">
<title>Store31&#45;&gt;Div21</title>
<path fill="none" stroke="black" d="M78.92,-340.09C76.52,-348.08 73.6,-357.81 70.92,-366.74"/>
<polygon fill="black" stroke="black" points="67.56,-365.77 68.04,-376.35 74.26,-367.78 67.56,-365.77"/>
<text text-anchor="middle" x="75.92" y="-342.69" font-family="Helvetica,sans-Serif" font-size="8.00">3</text>
</g>
<!-- Store31&#45;&gt;Phi_230 -->
<g id="edge24" class="edge">
<title>Store31&#45;&gt;Phi_230</title>
<path fill="none" stroke="blue" d="M96.37,-338.33C103.81,-347.47 113.44,-359.29 121.84,-369.62"/>
<polygon fill="blue" stroke="blue" points="119.23,-371.95 128.26,-377.5 124.66,-367.53 119.23,-371.95"/>
<text text-anchor="middle" x="93.37" y="-340.93" font-family="Helvetica,sans-Serif" font-size="8.00">1</text>
</g>
<!-- Region32&#45;&gt;If25 -->
<g id="edge27" class="edge">
<title>Region32&#45;&gt;If25:p0</title>
<path fill="none" stroke="red" d="M245,-68.23C245,-77.69 245,-89.92 245,-101.83"/>
<polygon fill="red" stroke="red" points="241.5,-102.14 245,-112.14 248.5,-102.14 241.5,-102.14"/>
<text text-anchor="middle" x="242" y="-70.83" font-family="Helvetica,sans-Serif" font-size="8.00">1</text>
</g>
<!-- Region32&#45;&gt;If25 -->
<g id="edge28" class="edge">
<title>Region32&#45;&gt;If25:p1</title>
<path fill="none" stroke="red" d="M265.02,-68.27C273.64,-77.2 282.48,-88.98 285.71,-101.99"/>
<polygon fill="red" stroke="red" points="282.27,-102.66 287,-112.14 289.22,-101.78 282.27,-102.66"/>
<text text-anchor="middle" x="262.02" y="-70.87" font-family="Helvetica,sans-Serif" font-size="8.00">2</text>
</g>
<!-- Phi_233&#45;&gt;Phi_230 -->
<g id="edge31" class="edge">
<title>Phi_233&#45;&gt;Phi_230</title>
<path fill="none" stroke="blue" d="M70.91,-76.61C45.62,-129.65 -3.2,-254.21 47,-340.14 53.76,-351.71 82.3,-366.89 106.18,-378.04"/>
<polygon fill="blue" stroke="blue" points="74.08,-78.08 75.32,-67.56 67.79,-75.01 74.08,-78.08"/>
<polygon fill="blue" stroke="blue" points="104.83,-381.28 115.38,-382.25 107.74,-374.91 104.83,-381.28"/>
<text text-anchor="middle" x="72.32" y="-70.16" font-family="Helvetica,sans-Serif" font-size="8.00">2</text>
</g>
<!-- Phi_233&#45;&gt;Store31 -->
<g id="edge30" class="edge">
<title>Phi_233&#45;&gt;Store31</title>
<path fill="none" stroke="blue" d="M84,-68.44C84,-114.16 84,-238.47 84,-293.87"/>
<polygon fill="blue" stroke="blue" points="80.5,-293.99 84,-303.99 87.5,-293.99 80.5,-293.99"/>
<text text-anchor="middle" x="81" y="-71.04" font-family="Helvetica,sans-Serif" font-size="8.00">1</text>
</g>
<!-- Phi_233&#45;&gt;Region32 -->
<g id="edge29" class="edge">
<title>Phi_233&#45;&gt;Region32</title>
<path fill="none" stroke="black" stroke-dasharray="1,5" d="M97.7,-33.41C107.03,-23.4 120.31,-11.6 135,-6.14 157.5,2.22 166.32,1.7 189,-6.14 200.57,-10.14 211.56,-17.63 220.7,-25.31"/>
<polygon fill="black" stroke="black" points="218.43,-27.97 228.22,-32.02 223.09,-22.75 218.43,-27.97"/>
<text text-anchor="middle" x="94.7" y="-27.01" font-family="Helvetica,sans-Serif" font-size="8.00">0</text>
</g>
<!-- Sub35&#45;&gt;Phi_arg13 -->
<g id="edge32" class="edge">
<title>Sub35&#45;&gt;Phi_arg13</title>
<path fill="none" stroke="black" d="M244.96,-341.46C259.41,-351.29 277.23,-363.39 291.98,-373.42"/>
<polygon fill="black" stroke="black" points="246.65,-338.38 236.41,-335.66 242.72,-344.17 246.65,-338.38"/>
<polygon fill="black" stroke="black" points="290.03,-376.33 300.27,-379.05 293.96,-370.54 290.03,-376.33"/>
<text text-anchor="middle" x="233.41" y="-338.26" font-family="Helvetica,sans-Serif" font-size="8.00">1</text>
</g>
<!-- Con_36 -->
<g id="node20" class="node">
<title>Con_36</title>
<ellipse fill="none" stroke="black" cx="219" cy="-394.14" rx="27" ry="18"/>
<text text-anchor="middle" x="219" y="-390.44" font-family="Times,serif" font-size="14.00">#1</text>
</g>
<!-- Sub35&#45;&gt;Con_36 -->
<g id="edge33" class="edge">
<title>Sub35&#45;&gt;Con_36</title>
<path fill="none" stroke="black" d="M218.25,-340.45C218.36,-348.16 218.49,-357.43 218.61,-366.03"/>
<polygon fill="black" stroke="black" points="215.11,-366.09 218.76,-376.04 222.11,-365.99 215.11,-366.09"/>
<text text-anchor="middle" x="215.25" y="-343.05" font-family="Helvetica,sans-Serif" font-size="8.00">2</text>
</g>
<!-- Return37&#45;&gt;new9 -->
<g id="edge35" class="edge">
<title>Return37&#45;&gt;new9</title>
<path fill="none" stroke="black" d="M146.13,-154.21C122.96,-183.41 76.06,-245.48 47,-304.14 28.47,-341.55 26.02,-352.39 17,-393.14"/>
<path fill="none" stroke="black" d="M17,-395.14C5.47,-435.72 24.68,-483.11 39.73,-511.59"/>
<polygon fill="black" stroke="black" points="36.74,-513.41 44.63,-520.48 42.87,-510.03 36.74,-513.41"/>
<text text-anchor="middle" x="143.13" y="-156.81" font-family="Helvetica,sans-Serif" font-size="8.00">1</text>
</g>
<!-- Return37&#45;&gt;If16 -->
<g id="edge34" class="edge">
<title>Return37&#45;&gt;If16:p1</title>
<path fill="none" stroke="red" d="M181.67,-154.25C188.31,-159.08 195.77,-164.11 203,-168.14 244.24,-191.16 299.97,-165.55 308.02,-202.1"/>
<polygon fill="red" stroke="red" points="304.54,-202.53 309,-212.14 311.51,-201.85 304.54,-202.53"/>
<text text-anchor="middle" x="178.67" y="-156.85" font-family="Helvetica,sans-Serif" font-size="8.00">0</text>
</g>
<!-- Return37&#45;&gt;Phi_230 -->
<g id="edge36" class="edge">
<title>Return37&#45;&gt;Phi_230</title>
<path fill="none" stroke="blue" d="M158.72,-154.34C155.49,-197.97 146.93,-313.25 143.01,-366.05"/>
<polygon fill="blue" stroke="blue" points="139.52,-365.79 142.27,-376.02 146.5,-366.31 139.52,-365.79"/>
<text text-anchor="middle" x="155.72" y="-156.94" font-family="Helvetica,sans-Serif" font-size="8.00">2</text>
</g>
</g>
</svg>
