<?xml version="1.0" encoding="UTF-8" standalone="no"?>
<!DOCTYPE svg PUBLIC "-//W3C//DTD SVG 1.1//EN"
 "http://www.w3.org/Graphics/SVG/1.1/DTD/svg11.dtd">
<!-- Generated by graphviz version 2.43.0 (0)
 -->
<!-- Title: chapter11 Pages: 1 -->
<svg width="184pt" height="176pt"
 viewBox="0.00 0.00 184.00 176.00" xmlns="http://www.w3.org/2000/svg" xmlns:xlink="http://www.w3.org/1999/xlink">
<g id="graph0" class="graph" transform="scale(1 1) rotate(0) translate(4 172)">
<title>chapter11</title>
<polygon fill="white" stroke="transparent" points="-4,4 -4,-172 180,-172 180,4 -4,4"/>
<g id="clust1" class="cluster">
<title>cluster_Nodes</title>
<polygon fill="none" stroke="black" points="8,-8 8,-160 168,-160 168,-8 8,-8"/>
</g>
<!-- Start2 -->
<g id="node1" class="node">
<title>Start2</title>
<polygon fill="yellow" stroke="transparent" points="24,-123 24,-148 74,-148 74,-123 24,-123"/>
<polygon fill="none" stroke="black" points="24,-123 24,-148 74,-148 74,-123 24,-123"/>
<text text-anchor="start" x="30.5" y="-131.8" font-family="Times,serif" font-size="14.00">Start</text>
<polygon fill="none" stroke="black" points="24,-92 24,-123 74,-123 74,-92 24,-92"/>
<polygon fill="yellow" stroke="transparent" points="29,-97 29,-118 69,-118 69,-97 29,-97"/>
<polygon fill="none" stroke="black" points="29,-97 29,-118 69,-118 69,-97 29,-97"/>
<text text-anchor="start" x="32" y="-103.8" font-family="Times,serif" font-size="14.00">$ctrl</text>
</g>
<!-- Con_4 -->
<g id="node2" class="node">
<title>Con_4</title>
<ellipse fill="none" stroke="black" cx="133" cy="-34" rx="27" ry="18"/>
<text text-anchor="middle" x="133" y="-30.3" font-family="Times,serif" font-size="14.00">#0</text>
</g>
<!-- Loop8 -->
<g id="node3" class="node">
<title>Loop8</title>
<polygon fill="yellow" stroke="black" points="70,-52 16,-52 16,-16 70,-16 70,-52"/>
<text text-anchor="middle" x="43" y="-30.3" font-family="Times,serif" font-size="14.00">Loop</text>
</g>
<!-- Loop8&#45;&gt;Start2 -->
<g id="edge1" class="edge">
<title>Loop8&#45;&gt;Start2:p0</title>
<path fill="none" stroke="red" d="M45.58,-52.05C46.84,-61.49 48.2,-73.71 48.75,-85.65"/>
<polygon fill="red" stroke="red" points="45.26,-86.09 49,-96 52.25,-85.92 45.26,-86.09"/>
<text text-anchor="middle" x="42.58" y="-54.65" font-family="Helvetica,sans-Serif" font-size="8.00">1</text>
</g>
<!-- Loop8&#45;&gt;Loop8 -->
<g id="edge2" class="edge">
<title>Loop8&#45;&gt;Loop8</title>
<path fill="none" stroke="red" d="M70.24,-17.89C80.02,-17.54 88,-22.91 88,-34 88,-40.93 84.88,-45.62 80.16,-48.09"/>
<polygon fill="red" stroke="red" points="79.34,-44.68 70.24,-50.11 80.74,-51.54 79.34,-44.68"/>
<text text-anchor="middle" x="73.24" y="-11.49" font-family="Helvetica,sans-Serif" font-size="8.00">2</text>
</g>
</g>
</svg>
