<?xml version="1.0" encoding="UTF-8" standalone="no"?>
<!DOCTYPE svg PUBLIC "-//W3C//DTD SVG 1.1//EN"
 "http://www.w3.org/Graphics/SVG/1.1/DTD/svg11.dtd">
<!-- Generated by graphviz version 2.43.0 (0)
 -->
<!-- Title: chapter09 Pages: 1 -->
<svg width="178pt" height="248pt"
 viewBox="0.00 0.00 178.00 248.00" xmlns="http://www.w3.org/2000/svg" xmlns:xlink="http://www.w3.org/1999/xlink">
<g id="graph0" class="graph" transform="scale(1 1) rotate(0) translate(4 244)">
<title>chapter09</title>
<polygon fill="white" stroke="transparent" points="-4,4 -4,-244 174,-244 174,4 -4,4"/>
<g id="clust1" class="cluster">
<title>cluster_Nodes</title>
<polygon fill="none" stroke="black" points="8,-8 8,-232 162,-232 162,-8 8,-8"/>
</g>
<!-- Start2 -->
<g id="node1" class="node">
<title>Start2</title>
<polygon fill="yellow" stroke="transparent" points="24,-195 24,-220 74,-220 74,-195 24,-195"/>
<polygon fill="none" stroke="black" points="24,-195 24,-220 74,-220 74,-195 24,-195"/>
<text text-anchor="start" x="30.5" y="-203.8" font-family="Times,serif" font-size="14.00">Start</text>
<polygon fill="none" stroke="black" points="24,-164 24,-195 74,-195 74,-164 24,-164"/>
<polygon fill="yellow" stroke="transparent" points="29,-169 29,-190 69,-190 69,-169 29,-169"/>
<polygon fill="none" stroke="black" points="29,-169 29,-190 69,-190 69,-169 29,-169"/>
<text text-anchor="start" x="32" y="-175.8" font-family="Times,serif" font-size="14.00">$ctrl</text>
</g>
<!-- Stop3 -->
<g id="node2" class="node">
<title>Stop3</title>
<polygon fill="yellow" stroke="black" points="112,-52 58,-52 58,-16 112,-16 112,-52"/>
<text text-anchor="middle" x="85" y="-30.3" font-family="Times,serif" font-size="14.00">Stop</text>
</g>
<!-- Return10 -->
<g id="node4" class="node">
<title>Return10</title>
<polygon fill="yellow" stroke="black" points="118,-124 52,-124 52,-88 118,-88 118,-124"/>
<text text-anchor="middle" x="85" y="-102.3" font-family="Times,serif" font-size="14.00">Return</text>
</g>
<!-- Stop3&#45;&gt;Return10 -->
<g id="edge1" class="edge">
<title>Stop3&#45;&gt;Return10</title>
<path fill="none" stroke="red" d="M85,-52.3C85,-60.02 85,-69.29 85,-77.89"/>
<polygon fill="red" stroke="red" points="81.5,-77.9 85,-87.9 88.5,-77.9 81.5,-77.9"/>
<text text-anchor="middle" x="82" y="-54.9" font-family="Helvetica,sans-Serif" font-size="8.00">0</text>
</g>
<!-- Con_9 -->
<g id="node3" class="node">
<title>Con_9</title>
<ellipse fill="none" stroke="black" cx="127" cy="-192" rx="27" ry="18"/>
<text text-anchor="middle" x="127" y="-188.3" font-family="Times,serif" font-size="14.00">#0</text>
</g>
<!-- Return10&#45;&gt;Start2 -->
<g id="edge2" class="edge">
<title>Return10&#45;&gt;Start2:p0</title>
<path fill="none" stroke="red" d="M68.26,-124.13C60.77,-133.26 52.99,-145.23 50.13,-158.06"/>
<polygon fill="red" stroke="red" points="46.66,-157.67 49,-168 53.61,-158.46 46.66,-157.67"/>
<text text-anchor="middle" x="65.26" y="-126.73" font-family="Helvetica,sans-Serif" font-size="8.00">0</text>
</g>
<!-- Return10&#45;&gt;Con_9 -->
<g id="edge3" class="edge">
<title>Return10&#45;&gt;Con_9</title>
<path fill="none" stroke="black" d="M93.7,-124.4C99.66,-136.31 107.65,-152.3 114.31,-165.62"/>
<polygon fill="black" stroke="black" points="111.28,-167.38 118.88,-174.76 117.54,-164.25 111.28,-167.38"/>
<text text-anchor="middle" x="90.7" y="-127" font-family="Helvetica,sans-Serif" font-size="8.00">1</text>
</g>
</g>
</svg>
