<?xml version="1.0" encoding="UTF-8" standalone="no"?>
<!DOCTYPE svg PUBLIC "-//W3C//DTD SVG 1.1//EN"
 "http://www.w3.org/Graphics/SVG/1.1/DTD/svg11.dtd">
<!-- Generated by graphviz version 2.43.0 (0)
 -->
<!-- Title: chapter09 Pages: 1 -->
<svg width="289pt" height="420pt"
 viewBox="0.00 0.00 289.00 420.00" xmlns="http://www.w3.org/2000/svg" xmlns:xlink="http://www.w3.org/1999/xlink">
<g id="graph0" class="graph" transform="scale(1 1) rotate(0) translate(4 416)">
<title>chapter09</title>
<polygon fill="white" stroke="transparent" points="-4,4 -4,-416 285,-416 285,4 -4,4"/>
<g id="clust1" class="cluster">
<title>cluster_Nodes</title>
<polygon fill="none" stroke="black" points="8,-8 8,-404 273,-404 273,-8 8,-8"/>
</g>
<!-- Start2 -->
<g id="node1" class="node">
<title>Start2</title>
<polygon fill="yellow" stroke="transparent" points="97,-367 97,-392 178,-392 178,-367 97,-367"/>
<polygon fill="none" stroke="black" points="97,-367 97,-392 178,-392 178,-367 97,-367"/>
<text text-anchor="start" x="119" y="-375.8" font-family="Times,serif" font-size="14.00">Start</text>
<polygon fill="none" stroke="black" points="97,-336 97,-367 178,-367 178,-336 97,-336"/>
<polygon fill="yellow" stroke="transparent" points="102,-341 102,-362 142,-362 142,-341 102,-341"/>
<polygon fill="none" stroke="black" points="102,-341 102,-362 142,-362 142,-341 102,-341"/>
<text text-anchor="start" x="105" y="-347.8" font-family="Times,serif" font-size="14.00">$ctrl</text>
<polygon fill="none" stroke="black" points="142,-341 142,-362 173,-362 173,-341 142,-341"/>
<text text-anchor="start" x="145" y="-347.8" font-family="Times,serif" font-size="14.00">arg</text>
</g>
<!-- Stop3 -->
<g id="node2" class="node">
<title>Stop3</title>
<polygon fill="yellow" stroke="black" points="164,-52 110,-52 110,-16 164,-16 164,-52"/>
<text text-anchor="middle" x="137" y="-30.3" font-family="Times,serif" font-size="14.00">Stop</text>
</g>
<!-- Return18 -->
<g id="node8" class="node">
<title>Return18</title>
<polygon fill="yellow" stroke="black" points="128,-124 62,-124 62,-88 128,-88 128,-124"/>
<text text-anchor="middle" x="95" y="-102.3" font-family="Times,serif" font-size="14.00">Return</text>
</g>
<!-- Stop3&#45;&gt;Return18 -->
<g id="edge1" class="edge">
<title>Stop3&#45;&gt;Return18</title>
<path fill="none" stroke="red" d="M126.62,-52.3C121.74,-60.44 115.81,-70.31 110.42,-79.3"/>
<polygon fill="red" stroke="red" points="107.41,-77.52 105.26,-87.9 113.41,-81.12 107.41,-77.52"/>
<text text-anchor="middle" x="123.62" y="-54.9" font-family="Helvetica,sans-Serif" font-size="8.00">0</text>
</g>
<!-- Return24 -->
<g id="node11" class="node">
<title>Return24</title>
<polygon fill="yellow" stroke="black" points="212,-124 146,-124 146,-88 212,-88 212,-124"/>
<text text-anchor="middle" x="179" y="-102.3" font-family="Times,serif" font-size="14.00">Return</text>
</g>
<!-- Stop3&#45;&gt;Return24 -->
<g id="edge2" class="edge">
<title>Stop3&#45;&gt;Return24</title>
<path fill="none" stroke="red" d="M147.38,-52.3C152.26,-60.44 158.19,-70.31 163.58,-79.3"/>
<polygon fill="red" stroke="red" points="160.59,-81.12 168.74,-87.9 166.59,-77.52 160.59,-81.12"/>
<text text-anchor="middle" x="144.38" y="-54.9" font-family="Helvetica,sans-Serif" font-size="8.00">1</text>
</g>
<!-- Con_7 -->
<g id="node3" class="node">
<title>Con_7</title>
<ellipse fill="none" stroke="black" cx="43" cy="-364" rx="27" ry="18"/>
<text text-anchor="middle" x="43" y="-360.3" font-family="Times,serif" font-size="14.00">#2</text>
</g>
<!-- Mul8 -->
<g id="node4" class="node">
<title>Mul8</title>
<ellipse fill="none" stroke="black" cx="94" cy="-278" rx="27" ry="18"/>
<text text-anchor="middle" x="94" y="-274.3" font-family="Times,serif" font-size="14.00">*</text>
</g>
<!-- Mul8&#45;&gt;Start2 -->
<g id="edge3" class="edge">
<title>Mul8&#45;&gt;Start2:p1</title>
<path fill="none" stroke="black" d="M116.03,-288.88C131.86,-297.42 151.32,-311.35 156.62,-330.09"/>
<polygon fill="black" stroke="black" points="153.15,-330.58 158,-340 160.08,-329.61 153.15,-330.58"/>
<text text-anchor="middle" x="119.03" y="-291.48" font-family="Helvetica,sans-Serif" font-size="8.00">1</text>
</g>
<!-- Mul8&#45;&gt;Con_7 -->
<g id="edge4" class="edge">
<title>Mul8&#45;&gt;Con_7</title>
<path fill="none" stroke="black" d="M84.17,-295.2C76.71,-307.48 66.34,-324.56 57.87,-338.51"/>
<polygon fill="black" stroke="black" points="54.83,-336.77 52.63,-347.14 60.81,-340.41 54.83,-336.77"/>
<text text-anchor="middle" x="81.17" y="-297.8" font-family="Helvetica,sans-Serif" font-size="8.00">2</text>
</g>
<!-- LT9 -->
<g id="node5" class="node">
<title>LT9</title>
<ellipse fill="none" stroke="black" cx="166" cy="-278" rx="27" ry="18"/>
<text text-anchor="middle" x="166" y="-274.3" font-family="Times,serif" font-size="14.00">&lt;</text>
</g>
<!-- LT9&#45;&gt;Start2 -->
<g id="edge5" class="edge">
<title>LT9&#45;&gt;Start2:p1</title>
<path fill="none" stroke="black" d="M162.56,-296.01C160.87,-305.54 159.04,-317.9 158.32,-329.98"/>
<polygon fill="black" stroke="black" points="154.82,-329.89 158,-340 161.81,-330.12 154.82,-329.89"/>
<text text-anchor="middle" x="159.56" y="-298.61" font-family="Helvetica,sans-Serif" font-size="8.00">1</text>
</g>
<!-- Con_10 -->
<g id="node6" class="node">
<title>Con_10</title>
<ellipse fill="none" stroke="black" cx="234" cy="-364" rx="30.59" ry="18"/>
<text text-anchor="middle" x="234" y="-360.3" font-family="Times,serif" font-size="14.00">#10</text>
</g>
<!-- LT9&#45;&gt;Con_10 -->
<g id="edge6" class="edge">
<title>LT9&#45;&gt;Con_10</title>
<path fill="none" stroke="black" d="M178.47,-294.41C188.66,-307 203.24,-325 214.9,-339.41"/>
<polygon fill="black" stroke="black" points="212.36,-341.84 221.38,-347.41 217.8,-337.43 212.36,-341.84"/>
<text text-anchor="middle" x="175.47" y="-297.01" font-family="Helvetica,sans-Serif" font-size="8.00">2</text>
</g>
<!-- If11 -->
<g id="node7" class="node">
<title>If11</title>
<polygon fill="yellow" stroke="transparent" points="91,-195 91,-220 185,-220 185,-195 91,-195"/>
<polygon fill="none" stroke="black" points="91,-195 91,-220 185,-220 185,-195 91,-195"/>
<text text-anchor="start" x="132.5" y="-203.8" font-family="Times,serif" font-size="14.00">If</text>
<polygon fill="none" stroke="black" points="91,-164 91,-195 185,-195 185,-164 91,-164"/>
<polygon fill="yellow" stroke="transparent" points="96,-169 96,-190 136,-190 136,-169 96,-169"/>
<polygon fill="none" stroke="black" points="96,-169 96,-190 136,-190 136,-169 96,-169"/>
<text text-anchor="start" x="99" y="-175.8" font-family="Times,serif" font-size="14.00">True</text>
<polygon fill="yellow" stroke="transparent" points="136,-169 136,-190 180,-190 180,-169 136,-169"/>
<polygon fill="none" stroke="black" points="136,-169 136,-190 180,-190 180,-169 136,-169"/>
<text text-anchor="start" x="139" y="-175.8" font-family="Times,serif" font-size="14.00">False</text>
</g>
<!-- If11&#45;&gt;Start2 -->
<g id="edge7" class="edge">
<title>If11&#45;&gt;Start2:p0</title>
<path fill="none" stroke="red" d="M87.32,-224.07C75.52,-233.97 64.51,-246.05 58,-260 51.23,-274.5 52.79,-280.87 58,-296 59.97,-301.73 80.37,-332.08 92.9,-345.08"/>
<polygon fill="red" stroke="red" points="90.86,-347.92 101,-351 94.99,-342.27 90.86,-347.92"/>
<text text-anchor="middle" x="84.32" y="-226.67" font-family="Helvetica,sans-Serif" font-size="8.00">0</text>
</g>
<!-- If11&#45;&gt;LT9 -->
<g id="edge8" class="edge">
<title>If11&#45;&gt;LT9</title>
<path fill="none" stroke="black" d="M148.43,-224.28C151.3,-232.9 154.39,-242.17 157.16,-250.49"/>
<polygon fill="black" stroke="black" points="153.87,-251.69 160.36,-260.07 160.51,-249.48 153.87,-251.69"/>
<text text-anchor="middle" x="145.43" y="-226.88" font-family="Helvetica,sans-Serif" font-size="8.00">1</text>
</g>
<!-- Return18&#45;&gt;Mul8 -->
<g id="edge10" class="edge">
<title>Return18&#45;&gt;Mul8</title>
<path fill="none" stroke="black" d="M86.28,-124.17C81.63,-134.31 76.38,-147.56 74,-160 68.67,-187.94 68.9,-196.02 74,-224 75.67,-233.18 78.85,-242.83 82.19,-251.35"/>
<polygon fill="black" stroke="black" points="79.03,-252.85 86.11,-260.73 85.49,-250.15 79.03,-252.85"/>
<text text-anchor="middle" x="83.28" y="-126.77" font-family="Helvetica,sans-Serif" font-size="8.00">1</text>
</g>
<!-- Return18&#45;&gt;If11 -->
<g id="edge9" class="edge">
<title>Return18&#45;&gt;If11:p0</title>
<path fill="none" stroke="red" d="M104.27,-124.08C108.67,-133.41 113.35,-145.54 115.19,-157.76"/>
<polygon fill="red" stroke="red" points="111.72,-158.31 116,-168 118.7,-157.76 111.72,-158.31"/>
<text text-anchor="middle" x="101.27" y="-126.68" font-family="Helvetica,sans-Serif" font-size="8.00">0</text>
</g>
<!-- Add20 -->
<g id="node9" class="node">
<title>Add20</title>
<ellipse fill="none" stroke="black" cx="238" cy="-192" rx="27" ry="18"/>
<text text-anchor="middle" x="238" y="-188.3" font-family="Times,serif" font-size="14.00">+</text>
</g>
<!-- Add20&#45;&gt;Mul8 -->
<g id="edge11" class="edge">
<title>Add20&#45;&gt;Mul8</title>
<path fill="none" stroke="black" d="M223.27,-207.18C217,-212.81 209.43,-219.09 202,-224 194.96,-228.65 153.81,-248.53 124.4,-262.57"/>
<polygon fill="black" stroke="black" points="122.84,-259.44 115.32,-266.9 125.85,-265.75 122.84,-259.44"/>
<text text-anchor="middle" x="220.27" y="-209.78" font-family="Helvetica,sans-Serif" font-size="8.00">1</text>
</g>
<!-- Con_21 -->
<g id="node10" class="node">
<title>Con_21</title>
<ellipse fill="none" stroke="black" cx="238" cy="-278" rx="27" ry="18"/>
<text text-anchor="middle" x="238" y="-274.3" font-family="Times,serif" font-size="14.00">#1</text>
</g>
<!-- Add20&#45;&gt;Con_21 -->
<g id="edge12" class="edge">
<title>Add20&#45;&gt;Con_21</title>
<path fill="none" stroke="black" d="M238,-210.4C238,-221.74 238,-236.77 238,-249.68"/>
<polygon fill="black" stroke="black" points="234.5,-249.9 238,-259.9 241.5,-249.9 234.5,-249.9"/>
<text text-anchor="middle" x="235" y="-213" font-family="Helvetica,sans-Serif" font-size="8.00">2</text>
</g>
<!-- Return24&#45;&gt;If11 -->
<g id="edge13" class="edge">
<title>Return24&#45;&gt;If11:p1</title>
<path fill="none" stroke="red" d="M169.73,-124.08C165.33,-133.41 160.65,-145.54 158.81,-157.76"/>
<polygon fill="red" stroke="red" points="155.3,-157.76 158,-168 162.28,-158.31 155.3,-157.76"/>
<text text-anchor="middle" x="166.73" y="-126.68" font-family="Helvetica,sans-Serif" font-size="8.00">0</text>
</g>
<!-- Return24&#45;&gt;Add20 -->
<g id="edge14" class="edge">
<title>Return24&#45;&gt;Add20</title>
<path fill="none" stroke="black" d="M191.22,-124.4C199.86,-136.7 211.55,-153.35 221.09,-166.92"/>
<polygon fill="black" stroke="black" points="218.37,-169.15 226.98,-175.32 224.1,-165.12 218.37,-169.15"/>
<text text-anchor="middle" x="188.22" y="-127" font-family="Helvetica,sans-Serif" font-size="8.00">1</text>
</g>
</g>
</svg>
