<?xml version="1.0" encoding="UTF-8" standalone="no"?>
<!DOCTYPE svg PUBLIC "-//W3C//DTD SVG 1.1//EN"
 "http://www.w3.org/Graphics/SVG/1.1/DTD/svg11.dtd">
<!-- Generated by graphviz version 12.2.0 (20241103.1931)
 -->
<!-- Title: Lattice Pages: 1 -->
<svg width="478pt" height="501pt"
 viewBox="0.00 0.00 477.96 500.90" xmlns="http://www.w3.org/2000/svg" xmlns:xlink="http://www.w3.org/1999/xlink">
<g id="graph0" class="graph" transform="scale(1 1) rotate(0) translate(4 496.9)">
<title>Lattice</title>
<polygon fill="white" stroke="none" points="-4,4 -4,-496.9 473.96,-496.9 473.96,4 -4,4"/>
<!-- TOP -->
<g id="node1" class="node">
<title>TOP</title>
<ellipse fill="black" stroke="black" cx="240.13" cy="-463.91" rx="59.04" ry="28.99"/>
<text text-anchor="middle" x="240.13" y="-467.11" font-family="Times New Roman,serif" font-size="14.00" fill="white">~scalar</text>
<text text-anchor="middle" x="240.13" y="-450.61" font-family="Times New Roman,serif" font-size="14.00" fill="white">+int+tmp+0</text>
</g>
<!-- PTRHQ -->
<g id="node2" class="node">
<title>PTRHQ</title>
<ellipse fill="green" stroke="black" cx="43.13" cy="-376.92" rx="43.13" ry="28.99"/>
<text text-anchor="middle" x="43.13" y="-380.12" font-family="Times New Roman,serif" font-size="14.00" fill="white">~tmp</text>
<text text-anchor="middle" x="43.13" y="-363.62" font-family="Times New Roman,serif" font-size="14.00" fill="white">+tmp+0</text>
</g>
<!-- TOP&#45;&gt;PTRHQ -->
<g id="edge1" class="edge">
<title>TOP&#45;&gt;PTRHQ</title>
<path fill="none" stroke="black" d="M196.41,-444.04C164.74,-430.38 121.99,-411.94 89.68,-398"/>
<polygon fill="black" stroke="black" points="91.11,-394.81 80.55,-394.06 88.34,-401.24 91.11,-394.81"/>
</g>
<!-- VALH_ -->
<g id="node3" class="node">
<title>VALH_</title>
<ellipse fill="white" stroke="black" cx="240.13" cy="-376.92" rx="48.44" ry="28.99"/>
<text text-anchor="middle" x="240.13" y="-380.12" font-family="Times New Roman,serif" font-size="14.00">~nscalar</text>
<text text-anchor="middle" x="240.13" y="-363.62" font-family="Times New Roman,serif" font-size="14.00">+int+tmp</text>
</g>
<!-- TOP&#45;&gt;VALH_ -->
<g id="edge2" class="edge">
<title>TOP&#45;&gt;VALH_</title>
<path fill="none" stroke="black" d="M235.15,-434.61C234.93,-429.02 234.85,-423.06 234.9,-417.18"/>
<polygon fill="black" stroke="black" points="238.39,-417.69 235.12,-407.61 231.39,-417.52 238.39,-417.69"/>
</g>
<!-- TOP&#45;&gt;VALH_ -->
<!-- INTHQ -->
<g id="node4" class="node">
<title>INTHQ</title>
<ellipse fill="lightblue" stroke="black" cx="432.13" cy="-376.92" rx="37.83" ry="28.99"/>
<text text-anchor="middle" x="432.13" y="-380.12" font-family="Times New Roman,serif" font-size="14.00">~int</text>
<text text-anchor="middle" x="432.13" y="-363.62" font-family="Times New Roman,serif" font-size="14.00">+int+0</text>
</g>
<!-- TOP&#45;&gt;INTHQ -->
<g id="edge3" class="edge">
<title>TOP&#45;&gt;INTHQ</title>
<path fill="none" stroke="black" d="M283.22,-443.83C314.91,-429.81 357.78,-410.83 389.39,-396.84"/>
<polygon fill="black" stroke="black" points="390.53,-400.16 398.26,-392.92 387.7,-393.76 390.53,-400.16"/>
</g>
<!-- LEFTHI -->
<!-- PTRHQ&#45;&gt;LEFTHI -->
<!-- PTRH_ -->
<g id="node6" class="node">
<title>PTRH_</title>
<ellipse fill="green" stroke="black" cx="43.13" cy="-289.94" rx="36.77" ry="28.99"/>
<text text-anchor="middle" x="43.13" y="-293.14" font-family="Times New Roman,serif" font-size="14.00" fill="white">~ntmp</text>
<text text-anchor="middle" x="43.13" y="-276.64" font-family="Times New Roman,serif" font-size="14.00" fill="white">+tmp</text>
</g>
<!-- PTRHQ&#45;&gt;PTRH_ -->
<g id="edge8" class="edge">
<title>PTRHQ&#45;&gt;PTRH_</title>
<path fill="none" stroke="black" d="M38.15,-347.62C37.93,-342.03 37.85,-336.07 37.9,-330.2"/>
<polygon fill="black" stroke="black" points="41.39,-330.71 38.12,-320.63 34.39,-330.54 41.39,-330.71"/>
</g>
<!-- PTRHQ&#45;&gt;PTRH_ -->
<!-- NILX_ -->
<g id="node8" class="node">
<title>NILX_</title>
<ellipse fill="aqua" stroke="black" cx="150.13" cy="-289.94" rx="56.39" ry="28.99"/>
<text text-anchor="middle" x="150.13" y="-293.14" font-family="Times New Roman,serif" font-size="14.00">~nil</text>
<text text-anchor="middle" x="150.13" y="-276.64" font-family="Times New Roman,serif" font-size="14.00">[int,tmp]+0</text>
</g>
<!-- PTRHQ&#45;&gt;NILX_ -->
<g id="edge12" class="edge">
<title>PTRHQ&#45;&gt;NILX_</title>
<path fill="none" stroke="black" d="M70.41,-354.26C82.91,-344.33 97.94,-332.4 111.56,-321.58"/>
<polygon fill="black" stroke="black" points="113.43,-324.56 119.09,-315.6 109.08,-319.08 113.43,-324.56"/>
</g>
<!-- VALH_&#45;&gt;INTHQ -->
<!-- VALH_&#45;&gt;PTRH_ -->
<g id="edge7" class="edge">
<title>VALH_&#45;&gt;PTRH_</title>
<path fill="none" stroke="black" d="M201.21,-359.13C167.78,-344.71 119.68,-323.96 85.33,-309.14"/>
<polygon fill="black" stroke="black" points="87.1,-306.09 76.53,-305.35 84.33,-312.52 87.1,-306.09"/>
</g>
<!-- INTH_ -->
<g id="node7" class="node">
<title>INTH_</title>
<ellipse fill="lightblue" stroke="black" cx="432.13" cy="-289.94" rx="31.47" ry="28.99"/>
<text text-anchor="middle" x="432.13" y="-293.14" font-family="Times New Roman,serif" font-size="14.00">~nint</text>
<text text-anchor="middle" x="432.13" y="-276.64" font-family="Times New Roman,serif" font-size="14.00">+int</text>
</g>
<!-- VALH_&#45;&gt;INTH_ -->
<g id="edge9" class="edge">
<title>VALH_&#45;&gt;INTH_</title>
<path fill="none" stroke="black" d="M278.53,-358.93C311.9,-344.16 360.02,-322.86 393.48,-308.05"/>
<polygon fill="black" stroke="black" points="394.67,-311.35 402.4,-304.1 391.84,-304.95 394.67,-311.35"/>
</g>
<!-- NIL__ -->
<g id="node9" class="node">
<title>NIL__</title>
<ellipse fill="pink" stroke="black" cx="324.13" cy="-289.94" rx="62.23" ry="28.99"/>
<text text-anchor="middle" x="324.13" y="-293.14" font-family="Times New Roman,serif" font-size="14.00">nil</text>
<text text-anchor="middle" x="324.13" y="-276.64" font-family="Times New Roman,serif" font-size="14.00">[+int+tmp],0</text>
</g>
<!-- VALH_&#45;&gt;NIL__ -->
<g id="edge13" class="edge">
<title>VALH_&#45;&gt;NIL__</title>
<path fill="none" stroke="black" d="M264.43,-351.34C272.67,-343.01 282.01,-333.55 290.83,-324.64"/>
<polygon fill="black" stroke="black" points="293.12,-327.3 297.66,-317.72 288.14,-322.38 293.12,-327.3"/>
</g>
<!-- VALL_ -->
<g id="node13" class="node">
<title>VALL_</title>
<ellipse fill="white" stroke="black" cx="240.13" cy="-115.97" rx="39.42" ry="28.99"/>
<text text-anchor="middle" x="240.13" y="-119.17" font-family="Times New Roman,serif" font-size="14.00">nscalar</text>
<text text-anchor="middle" x="240.13" y="-102.67" font-family="Times New Roman,serif" font-size="14.00">int,tmp</text>
</g>
<!-- VALH_&#45;&gt;VALL_ -->
<!-- INTHQ&#45;&gt;INTH_ -->
<g id="edge10" class="edge">
<title>INTHQ&#45;&gt;INTH_</title>
<path fill="none" stroke="black" d="M427.17,-348.1C426.94,-342.37 426.85,-336.25 426.9,-330.21"/>
<polygon fill="black" stroke="black" points="430.39,-330.42 427.13,-320.34 423.39,-330.26 430.39,-330.42"/>
</g>
<!-- INTHQ&#45;&gt;INTH_ -->
<!-- INTHQ&#45;&gt;NILX_ -->
<g id="edge11" class="edge">
<title>INTHQ&#45;&gt;NILX_</title>
<path fill="none" stroke="black" d="M396.99,-365.33C350,-351.17 266.03,-325.87 209.23,-308.75"/>
<polygon fill="black" stroke="black" points="210.28,-305.41 199.69,-305.88 208.26,-312.11 210.28,-305.41"/>
</g>
<!-- LEFTHI&#45;&gt;VALH_ -->
<!-- LEFTHI&#45;&gt;NILX_ -->
<!-- PTRL_ -->
<g id="node10" class="node">
<title>PTRL_</title>
<ellipse fill="green" stroke="black" cx="43.13" cy="-202.96" rx="31.47" ry="28.99"/>
<text text-anchor="middle" x="43.13" y="-206.16" font-family="Times New Roman,serif" font-size="14.00" fill="white">ntmp</text>
<text text-anchor="middle" x="43.13" y="-189.66" font-family="Times New Roman,serif" font-size="14.00" fill="white">tmp</text>
</g>
<!-- PTRH_&#45;&gt;PTRL_ -->
<g id="edge15" class="edge">
<title>PTRH_&#45;&gt;PTRL_</title>
<path fill="none" stroke="black" d="M38.17,-261.11C37.94,-255.39 37.85,-249.26 37.9,-243.22"/>
<polygon fill="black" stroke="black" points="41.39,-243.44 38.13,-233.36 34.39,-243.27 41.39,-243.44"/>
</g>
<!-- PTRH_&#45;&gt;PTRL_ -->
<!-- INTL_ -->
<g id="node11" class="node">
<title>INTL_</title>
<ellipse fill="lightblue" stroke="black" cx="432.13" cy="-202.96" rx="27" ry="28.99"/>
<text text-anchor="middle" x="432.13" y="-206.16" font-family="Times New Roman,serif" font-size="14.00">nint</text>
<text text-anchor="middle" x="432.13" y="-189.66" font-family="Times New Roman,serif" font-size="14.00">int</text>
</g>
<!-- INTH_&#45;&gt;INTL_ -->
<g id="edge16" class="edge">
<title>INTH_&#45;&gt;INTL_</title>
<path fill="none" stroke="black" d="M427.17,-261.11C426.94,-255.39 426.85,-249.26 426.9,-243.22"/>
<polygon fill="black" stroke="black" points="430.39,-243.44 427.13,-233.36 423.39,-243.27 430.39,-243.44"/>
</g>
<!-- INTH_&#45;&gt;INTL_ -->
<!-- NILX_&#45;&gt;NIL__ -->
<!-- NILX_&#45;&gt;VALL_ -->
<g id="edge21" class="edge">
<title>NILX_&#45;&gt;VALL_</title>
<path fill="none" stroke="black" d="M164.79,-261.6C180.03,-232.15 203.95,-185.91 220.74,-153.45"/>
<polygon fill="black" stroke="black" points="223.74,-155.27 225.23,-144.78 217.53,-152.06 223.74,-155.27"/>
</g>
<!-- PTRL0 -->
<g id="node12" class="node">
<title>PTRL0</title>
<ellipse fill="green" stroke="black" cx="43.13" cy="-115.97" rx="34.12" ry="28.99"/>
<text text-anchor="middle" x="43.13" y="-119.17" font-family="Times New Roman,serif" font-size="14.00" fill="white">tmp</text>
<text text-anchor="middle" x="43.13" y="-102.67" font-family="Times New Roman,serif" font-size="14.00" fill="white">tmp,0</text>
</g>
<!-- NIL__&#45;&gt;PTRL0 -->
<g id="edge18" class="edge">
<title>NIL__&#45;&gt;PTRL0</title>
<path fill="none" stroke="black" d="M286.24,-266.48C232.36,-233.13 134.24,-172.38 80.6,-139.17"/>
<polygon fill="black" stroke="black" points="82.76,-136.39 72.41,-134.1 79.07,-142.34 82.76,-136.39"/>
</g>
<!-- INTL0 -->
<g id="node14" class="node">
<title>INTL0</title>
<ellipse fill="lightblue" stroke="black" cx="432.13" cy="-115.97" rx="28.81" ry="28.99"/>
<text text-anchor="middle" x="432.13" y="-119.17" font-family="Times New Roman,serif" font-size="14.00">int</text>
<text text-anchor="middle" x="432.13" y="-102.67" font-family="Times New Roman,serif" font-size="14.00">int,0</text>
</g>
<!-- NIL__&#45;&gt;INTL0 -->
<g id="edge23" class="edge">
<title>NIL__&#45;&gt;INTL0</title>
<path fill="none" stroke="black" d="M341.49,-261.99C360.34,-231.61 390.49,-183.05 410.79,-150.35"/>
<polygon fill="black" stroke="black" points="413.65,-152.38 415.95,-142.04 407.7,-148.69 413.65,-152.38"/>
</g>
<!-- PTRL_&#45;&gt;PTRL0 -->
<g id="edge17" class="edge">
<title>PTRL_&#45;&gt;PTRL0</title>
<path fill="none" stroke="black" d="M38.17,-174.13C37.94,-168.47 37.85,-162.41 37.9,-156.43"/>
<polygon fill="black" stroke="black" points="41.39,-156.75 38.12,-146.67 34.39,-156.58 41.39,-156.75"/>
</g>
<!-- PTRL_&#45;&gt;PTRL0 -->
<!-- PTRL_&#45;&gt;VALL_ -->
<g id="edge19" class="edge">
<title>PTRL_&#45;&gt;VALL_</title>
<path fill="none" stroke="black" d="M71.36,-189.78C103.94,-175.73 157.92,-152.44 196.04,-135.99"/>
<polygon fill="black" stroke="black" points="197.16,-139.32 204.96,-132.15 194.39,-132.9 197.16,-139.32"/>
</g>
<!-- INTL_&#45;&gt;VALL_ -->
<g id="edge20" class="edge">
<title>INTL_&#45;&gt;VALL_</title>
<path fill="none" stroke="black" d="M407.43,-191.02C376.23,-177.21 322.01,-153.22 283.77,-136.29"/>
<polygon fill="black" stroke="black" points="285.39,-133.18 274.83,-132.33 282.55,-139.58 285.39,-133.18"/>
</g>
<!-- INTL_&#45;&gt;INTL0 -->
<g id="edge22" class="edge">
<title>INTL_&#45;&gt;INTL0</title>
<path fill="none" stroke="black" d="M427.17,-174.13C426.94,-168.41 426.85,-162.28 426.9,-156.24"/>
<polygon fill="black" stroke="black" points="430.39,-156.46 427.13,-146.38 423.39,-156.29 430.39,-156.46"/>
</g>
<!-- INTL_&#45;&gt;INTL0 -->
<!-- PTRL0&#45;&gt;VALL_ -->
<!-- BOT -->
<g id="node15" class="node">
<title>BOT</title>
<ellipse fill="black" stroke="black" cx="240.13" cy="-28.99" rx="46.85" ry="28.99"/>
<text text-anchor="middle" x="240.13" y="-32.19" font-family="Times New Roman,serif" font-size="14.00" fill="white">scalar</text>
<text text-anchor="middle" x="240.13" y="-15.69" font-family="Times New Roman,serif" font-size="14.00" fill="white">int,tmp,0</text>
</g>
<!-- PTRL0&#45;&gt;BOT -->
<g id="edge26" class="edge">
<title>PTRL0&#45;&gt;BOT</title>
<path fill="none" stroke="black" d="M73.48,-101.88C105.02,-88.28 154.83,-66.79 191.79,-50.85"/>
<polygon fill="black" stroke="black" points="193.14,-54.08 200.94,-46.9 190.37,-47.65 193.14,-54.08"/>
</g>
<!-- VALL_&#45;&gt;INTL0 -->
<!-- VALL_&#45;&gt;BOT -->
<g id="edge28" class="edge">
<title>VALL_&#45;&gt;BOT</title>
<path fill="none" stroke="black" d="M235.17,-87.15C234.94,-81.48 234.85,-75.42 234.9,-69.44"/>
<polygon fill="black" stroke="black" points="238.39,-69.76 235.12,-59.68 231.39,-69.6 238.39,-69.76"/>
</g>
<!-- VALL_&#45;&gt;BOT -->
<!-- INTL0&#45;&gt;BOT -->
<g id="edge27" class="edge">
<title>INTL0&#45;&gt;BOT</title>
<path fill="none" stroke="black" d="M405.84,-103.34C375.52,-89.91 325.06,-67.58 287.78,-51.08"/>
<polygon fill="black" stroke="black" points="289.59,-48.05 279.03,-47.21 286.75,-54.45 289.59,-48.05"/>
</g>
</g>
</svg>
