<?xml version="1.0" encoding="UTF-8" standalone="no"?>
<!DOCTYPE svg PUBLIC "-//W3C//DTD SVG 1.1//EN"
 "http://www.w3.org/Graphics/SVG/1.1/DTD/svg11.dtd">
<!-- Generated by graphviz version 12.2.0 (20241103.1931)
 -->
<!-- Title: Lattice Pages: 1 -->
<svg width="1330pt" height="584pt"
 viewBox="0.00 0.00 1329.51 583.54" xmlns="http://www.w3.org/2000/svg" xmlns:xlink="http://www.w3.org/1999/xlink">
<g id="graph0" class="graph" transform="scale(1 1) rotate(0) translate(4 579.54)">
<title>Lattice</title>
<polygon fill="white" stroke="none" points="-4,4 -4,-579.54 1325.51,-579.54 1325.51,4 -4,4"/>
<!-- TOP -->
<g id="node1" class="node">
<title>TOP</title>
<ellipse fill="black" stroke="black" cx="641.51" cy="-554.42" rx="21.12" ry="21.12"/>
<text text-anchor="start" x="633.63" y="-549.99" font-family="Times New Roman,serif" font-weight="bold" font-size="14.00" fill="white">⊤</text>
</g>
<!-- XCTRL -->
<g id="node3" class="node">
<title>XCTRL</title>
<ellipse fill="yellow" stroke="black" cx="36.51" cy="-492.79" rx="36.51" ry="18"/>
<text text-anchor="start" x="17.76" y="-488.74" font-family="Times New Roman,serif" font-weight="bold" font-size="14.00">⊤</text>
<text text-anchor="start" x="33.51" y="-488.74" font-family="Times New Roman,serif" font-size="14.00">:ctrl</text>
</g>
<!-- TOP&#45;&gt;XCTRL -->
<g id="edge1" class="edge">
<title>TOP&#45;&gt;XCTRL</title>
<path fill="none" stroke="black" d="M620.33,-551.33C533.82,-542.8 206.01,-510.5 83.28,-498.4"/>
<polygon fill="black" stroke="black" points="83.86,-494.94 73.56,-497.44 83.17,-501.91 83.86,-494.94"/>
</g>
<!-- INT_TOP -->
<g id="node5" class="node">
<title>INT_TOP</title>
<ellipse fill="lightblue" stroke="black" cx="316.51" cy="-492.79" rx="33.95" ry="18"/>
<text text-anchor="start" x="299.63" y="-488.74" font-family="Times New Roman,serif" font-weight="bold" font-size="14.00">⊤</text>
<text text-anchor="start" x="315.38" y="-488.74" font-family="Times New Roman,serif" font-size="14.00">:int</text>
</g>
<!-- TOP&#45;&gt;INT_TOP -->
<g id="edge4" class="edge">
<title>TOP&#45;&gt;INT_TOP</title>
<path fill="none" stroke="black" d="M620.68,-549.6C568.33,-539.99 430.36,-514.68 359.64,-501.71"/>
<polygon fill="black" stroke="black" points="360.44,-498.29 349.97,-499.93 359.18,-505.18 360.44,-498.29"/>
</g>
<!-- FLT_TOP -->
<g id="node14" class="node">
<title>FLT_TOP</title>
<ellipse fill="aqua" stroke="black" cx="494.51" cy="-492.79" rx="32.41" ry="18"/>
<text text-anchor="start" x="478.76" y="-488.74" font-family="Times New Roman,serif" font-weight="bold" font-size="14.00">⊤</text>
<text text-anchor="start" x="494.51" y="-488.74" font-family="Times New Roman,serif" font-size="14.00">:flt</text>
</g>
<!-- TOP&#45;&gt;FLT_TOP -->
<g id="edge18" class="edge">
<title>TOP&#45;&gt;FLT_TOP</title>
<path fill="none" stroke="black" d="M621.99,-545.5C598.79,-536.09 559.6,-520.19 530.78,-508.5"/>
<polygon fill="black" stroke="black" points="532.29,-505.34 521.7,-504.82 529.65,-511.82 532.29,-505.34"/>
</g>
<!-- PTR -->
<g id="node22" class="node">
<title>PTR</title>
<polygon fill="none" stroke="none" points="668.51,-519.29 614.51,-519.29 614.51,-466.29 668.51,-466.29 668.51,-519.29"/>
<polygon fill="green" stroke="none" points="623.51,-492.79 623.51,-515.29 659.51,-515.29 659.51,-492.79 623.51,-492.79"/>
<polygon fill="none" stroke="black" points="623.51,-492.79 623.51,-515.29 659.51,-515.29 659.51,-492.79 623.51,-492.79"/>
<text text-anchor="start" x="630.63" y="-498.99" font-family="Times New Roman,serif" font-size="14.00" fill="white">*ptr</text>
<polygon fill="lightgreen" stroke="none" points="623.51,-470.29 623.51,-492.79 659.51,-492.79 659.51,-470.29 623.51,-470.29"/>
<polygon fill="none" stroke="black" points="623.51,-470.29 623.51,-492.79 659.51,-492.79 659.51,-470.29 623.51,-470.29"/>
<text text-anchor="start" x="626.51" y="-476.49" font-family="Times New Roman,serif" font-size="14.00">struct</text>
</g>
<!-- TOP&#45;&gt;PTR -->
<g id="edge33" class="edge">
<title>TOP&#45;&gt;PTR</title>
<path fill="none" stroke="black" d="M641.51,-532.9C641.51,-532.06 641.51,-531.22 641.51,-530.37"/>
<polygon fill="black" stroke="black" points="645.01,-530.61 641.51,-520.61 638.01,-530.61 645.01,-530.61"/>
</g>
<!-- STRUCT_TOP -->
<g id="node24" class="node">
<title>STRUCT_TOP</title>
<ellipse fill="lightgreen" stroke="black" cx="746.51" cy="-492.79" rx="44.7" ry="18"/>
<text text-anchor="start" x="721.76" y="-488.74" font-family="Times New Roman,serif" font-weight="bold" font-size="14.00">⊤</text>
<text text-anchor="start" x="737.51" y="-488.74" font-family="Times New Roman,serif" font-size="14.00">:struct</text>
</g>
<!-- TOP&#45;&gt;STRUCT_TOP -->
<g id="edge36" class="edge">
<title>TOP&#45;&gt;STRUCT_TOP</title>
<path fill="none" stroke="black" d="M659.8,-543.03C674.04,-534.94 694.24,-523.47 711.55,-513.64"/>
<polygon fill="black" stroke="black" points="713.07,-516.81 720.03,-508.83 709.61,-510.72 713.07,-516.81"/>
</g>
<!-- MEM_TOP -->
<g id="node29" class="node">
<title>MEM_TOP</title>
<ellipse fill="blue" stroke="black" cx="998.51" cy="-492.79" rx="43.67" ry="18"/>
<text text-anchor="start" x="974.51" y="-488.74" font-family="Times New Roman,serif" font-weight="bold" font-size="14.00" fill="white">⊤</text>
<text text-anchor="start" x="990.26" y="-488.74" font-family="Times New Roman,serif" font-size="14.00" fill="white">:mem</text>
</g>
<!-- TOP&#45;&gt;MEM_TOP -->
<g id="edge46" class="edge">
<title>TOP&#45;&gt;MEM_TOP</title>
<path fill="none" stroke="black" d="M662.51,-549.91C717.64,-540.7 867.72,-515.64 947.33,-502.34"/>
<polygon fill="black" stroke="black" points="947.77,-505.82 957.06,-500.72 946.62,-498.91 947.77,-505.82"/>
</g>
<!-- TUPLE_TOP -->
<g id="node34" class="node">
<title>TUPLE_TOP</title>
<ellipse fill="pink" stroke="black" cx="1182.51" cy="-492.79" rx="42.65" ry="18"/>
<text text-anchor="start" x="1159.26" y="-488.74" font-family="Times New Roman,serif" font-weight="bold" font-size="14.00">⊤</text>
<text text-anchor="start" x="1175.01" y="-488.74" font-family="Times New Roman,serif" font-size="14.00">:tuple</text>
</g>
<!-- TOP&#45;&gt;TUPLE_TOP -->
<g id="edge56" class="edge">
<title>TOP&#45;&gt;TUPLE_TOP</title>
<path fill="none" stroke="black" d="M662.72,-551.08C740.91,-542.46 1014.51,-512.31 1130.21,-499.56"/>
<polygon fill="black" stroke="black" points="1130.5,-503.05 1140.05,-498.47 1129.73,-496.09 1130.5,-503.05"/>
</g>
<!-- BOT -->
<g id="node2" class="node">
<title>BOT</title>
<ellipse fill="black" stroke="black" cx="641.51" cy="-21.12" rx="21.12" ry="21.12"/>
<text text-anchor="start" x="633.63" y="-16.7" font-family="Times New Roman,serif" font-weight="bold" font-size="14.00" fill="white">⊥</text>
</g>
<!-- CTRL -->
<g id="node4" class="node">
<title>CTRL</title>
<ellipse fill="yellow" stroke="black" cx="49.51" cy="-82.75" rx="36.51" ry="18"/>
<text text-anchor="start" x="30.76" y="-78.7" font-family="Times New Roman,serif" font-weight="bold" font-size="14.00">⊥</text>
<text text-anchor="start" x="46.51" y="-78.7" font-family="Times New Roman,serif" font-size="14.00">:ctrl</text>
</g>
<!-- XCTRL&#45;&gt;CTRL -->
<g id="edge2" class="edge">
<title>XCTRL&#45;&gt;CTRL</title>
<path fill="none" stroke="black" d="M37.09,-474.38C39.15,-409.6 46.05,-191.88 48.57,-112.25"/>
<polygon fill="black" stroke="black" points="52.06,-112.73 48.88,-102.63 45.06,-112.51 52.06,-112.73"/>
</g>
<!-- CTRL&#45;&gt;BOT -->
<g id="edge3" class="edge">
<title>CTRL&#45;&gt;BOT</title>
<path fill="none" stroke="black" d="M85.21,-78.15C191.74,-67.42 506.36,-35.74 608.84,-25.41"/>
<polygon fill="black" stroke="black" points="609.15,-28.9 618.75,-24.42 608.45,-21.94 609.15,-28.9"/>
</g>
<!-- INT_HI -->
<g id="node7" class="node">
<title>INT_HI</title>
<ellipse fill="lightblue" stroke="black" cx="174.51" cy="-434.29" rx="53.91" ry="18"/>
<text text-anchor="middle" x="174.51" y="-429.24" font-family="Times New Roman,serif" font-size="14.00">[min&gt;max]</text>
</g>
<!-- INT_TOP&#45;&gt;INT_HI -->
<g id="edge5" class="edge">
<title>INT_TOP&#45;&gt;INT_HI</title>
<path fill="none" stroke="black" d="M289.8,-481.17C269.89,-473.25 242.26,-462.25 219.03,-453.01"/>
<polygon fill="black" stroke="black" points="220.37,-449.77 209.78,-449.33 217.78,-456.28 220.37,-449.77"/>
</g>
<!-- INT_BOT -->
<g id="node6" class="node">
<title>INT_BOT</title>
<ellipse fill="lightblue" stroke="black" cx="329.51" cy="-82.75" rx="33.95" ry="18"/>
<text text-anchor="start" x="312.63" y="-78.7" font-family="Times New Roman,serif" font-weight="bold" font-size="14.00">⊥</text>
<text text-anchor="start" x="328.38" y="-78.7" font-family="Times New Roman,serif" font-size="14.00">:int</text>
</g>
<!-- INT_BOT&#45;&gt;BOT -->
<g id="edge15" class="edge">
<title>INT_BOT&#45;&gt;BOT</title>
<path fill="none" stroke="black" d="M361.14,-75.7C420.84,-64.3 549.47,-39.71 609.47,-28.25"/>
<polygon fill="black" stroke="black" points="609.86,-31.73 619.03,-26.42 608.55,-24.86 609.86,-31.73"/>
</g>
<!-- INT_XBOOL -->
<g id="node8" class="node">
<title>INT_XBOOL</title>
<ellipse fill="lightblue" stroke="black" cx="97.51" cy="-373.97" rx="33.95" ry="18"/>
<text text-anchor="middle" x="97.51" y="-368.92" font-family="Times New Roman,serif" font-size="14.00">[1...0]</text>
</g>
<!-- INT_HI&#45;&gt;INT_XBOOL -->
<g id="edge6" class="edge">
<title>INT_HI&#45;&gt;INT_XBOOL</title>
<path fill="none" stroke="black" d="M153.47,-417.36C144.79,-410.78 134.6,-403.06 125.31,-396.03"/>
<polygon fill="black" stroke="black" points="127.71,-393.46 117.63,-390.21 123.48,-399.04 127.71,-393.46"/>
</g>
<!-- INT_CON -->
<g id="node9" class="node">
<title>INT_CON</title>
<ellipse fill="lightblue" stroke="black" cx="174.51" cy="-282.65" rx="45.21" ry="18"/>
<text text-anchor="middle" x="174.51" y="-277.6" font-family="Times New Roman,serif" font-size="14.00">constants</text>
</g>
<!-- INT_HI&#45;&gt;INT_CON -->
<g id="edge9" class="edge">
<title>INT_HI&#45;&gt;INT_CON</title>
<path fill="none" stroke="black" d="M174.51,-416C174.51,-390.27 174.51,-343.1 174.51,-312.31"/>
<polygon fill="black" stroke="black" points="178.01,-312.52 174.51,-302.52 171.01,-312.52 178.01,-312.52"/>
</g>
<!-- INT_CON0 -->
<g id="node10" class="node">
<title>INT_CON0</title>
<ellipse fill="lightblue" stroke="black" cx="47.51" cy="-282.65" rx="18" ry="18"/>
<text text-anchor="middle" x="47.51" y="-277.6" font-family="Times New Roman,serif" font-size="14.00">0</text>
</g>
<!-- INT_XBOOL&#45;&gt;INT_CON0 -->
<g id="edge7" class="edge">
<title>INT_XBOOL&#45;&gt;INT_CON0</title>
<path fill="none" stroke="black" d="M88.34,-356.59C80.82,-343.17 70.07,-323.96 61.49,-308.62"/>
<polygon fill="black" stroke="black" points="64.63,-307.08 56.69,-300.06 58.53,-310.5 64.63,-307.08"/>
</g>
<!-- INT_CON1 -->
<g id="node11" class="node">
<title>INT_CON1</title>
<ellipse fill="lightblue" stroke="black" cx="97.51" cy="-282.65" rx="18" ry="18"/>
<text text-anchor="middle" x="97.51" y="-277.6" font-family="Times New Roman,serif" font-size="14.00">1</text>
</g>
<!-- INT_XBOOL&#45;&gt;INT_CON1 -->
<g id="edge8" class="edge">
<title>INT_XBOOL&#45;&gt;INT_CON1</title>
<path fill="none" stroke="black" d="M97.51,-355.75C97.51,-343.47 97.51,-326.68 97.51,-312.39"/>
<polygon fill="black" stroke="black" points="101.01,-312.64 97.51,-302.64 94.01,-312.64 101.01,-312.64"/>
</g>
<!-- INT_LO -->
<g id="node13" class="node">
<title>INT_LO</title>
<ellipse fill="lightblue" stroke="black" cx="174.51" cy="-141.25" rx="53.91" ry="18"/>
<text text-anchor="middle" x="174.51" y="-136.2" font-family="Times New Roman,serif" font-size="14.00">[min&lt;max]</text>
</g>
<!-- INT_CON&#45;&gt;INT_LO -->
<g id="edge13" class="edge">
<title>INT_CON&#45;&gt;INT_LO</title>
<path fill="none" stroke="black" d="M174.51,-264.17C174.51,-240.45 174.51,-199.04 174.51,-170.9"/>
<polygon fill="black" stroke="black" points="178.01,-171.25 174.51,-161.25 171.01,-171.25 178.01,-171.25"/>
</g>
<!-- INT_CON0&#45;&gt;INT_CON1 -->
<!-- INT_BOOL -->
<g id="node12" class="node">
<title>INT_BOOL</title>
<ellipse fill="lightblue" stroke="black" cx="97.51" cy="-196.45" rx="33.95" ry="18"/>
<text text-anchor="middle" x="97.51" y="-191.4" font-family="Times New Roman,serif" font-size="14.00">[0...1]</text>
</g>
<!-- INT_CON0&#45;&gt;INT_BOOL -->
<g id="edge10" class="edge">
<title>INT_CON0&#45;&gt;INT_BOOL</title>
<path fill="none" stroke="black" d="M56.45,-266.6C63.5,-254.72 73.51,-237.87 81.88,-223.77"/>
<polygon fill="black" stroke="black" points="84.75,-225.79 86.85,-215.41 78.73,-222.22 84.75,-225.79"/>
</g>
<!-- INT_CON1&#45;&gt;INT_CON -->
<!-- INT_CON1&#45;&gt;INT_BOOL -->
<g id="edge11" class="edge">
<title>INT_CON1&#45;&gt;INT_BOOL</title>
<path fill="none" stroke="black" d="M97.51,-264.21C97.51,-253.25 97.51,-238.87 97.51,-226.25"/>
<polygon fill="black" stroke="black" points="101.01,-226.39 97.51,-216.39 94.01,-226.39 101.01,-226.39"/>
</g>
<!-- INT_BOOL&#45;&gt;INT_LO -->
<g id="edge12" class="edge">
<title>INT_BOOL&#45;&gt;INT_LO</title>
<path fill="none" stroke="black" d="M117.34,-181.75C124.98,-176.47 133.91,-170.3 142.42,-164.42"/>
<polygon fill="black" stroke="black" points="144.27,-167.4 150.5,-158.83 140.29,-161.64 144.27,-167.4"/>
</g>
<!-- INT_LO&#45;&gt;INT_BOT -->
<g id="edge14" class="edge">
<title>INT_LO&#45;&gt;INT_BOT</title>
<path fill="none" stroke="black" d="M210.07,-127.29C234.52,-118.37 266.93,-106.56 291.82,-97.49"/>
<polygon fill="black" stroke="black" points="292.71,-100.89 300.91,-94.17 290.31,-94.31 292.71,-100.89"/>
</g>
<!-- FLT_CON64 -->
<g id="node16" class="node">
<title>FLT_CON64</title>
<ellipse fill="aqua" stroke="black" cx="564.51" cy="-282.65" rx="55.33" ry="40.66"/>
<text text-anchor="middle" x="564.51" y="-294.1" font-family="Times New Roman,serif" font-size="14.00">64b consts</text>
<text text-anchor="middle" x="564.51" y="-277.6" font-family="Times New Roman,serif" font-size="14.00">[excludes</text>
<text text-anchor="middle" x="564.51" y="-261.1" font-family="Times New Roman,serif" font-size="14.00">32b consts]</text>
</g>
<!-- FLT_TOP&#45;&gt;FLT_CON64 -->
<g id="edge19" class="edge">
<title>FLT_TOP&#45;&gt;FLT_CON64</title>
<path fill="none" stroke="black" d="M500.48,-474.88C510.8,-443.88 532.35,-379.2 547.59,-333.44"/>
<polygon fill="black" stroke="black" points="550.9,-334.57 550.74,-323.98 544.26,-332.36 550.9,-334.57"/>
</g>
<!-- FLT_CONPI -->
<g id="node18" class="node">
<title>FLT_CONPI</title>
<ellipse fill="aqua" stroke="black" cx="446.51" cy="-282.65" rx="48.79" ry="18"/>
<text text-anchor="middle" x="446.51" y="-277.6" font-family="Times New Roman,serif" font-size="14.00">3.14159...</text>
</g>
<!-- FLT_TOP&#45;&gt;FLT_CONPI -->
<g id="edge20" class="edge">
<title>FLT_TOP&#45;&gt;FLT_CONPI</title>
<path fill="none" stroke="black" d="M490.33,-474.51C482.02,-438.11 463.32,-356.27 453.25,-312.16"/>
<polygon fill="black" stroke="black" points="456.69,-311.49 451.05,-302.52 449.86,-313.04 456.69,-311.49"/>
</g>
<!-- FLT_X32 -->
<g id="node19" class="node">
<title>FLT_X32</title>
<ellipse fill="aqua" stroke="black" cx="333.51" cy="-373.97" rx="28.32" ry="28.32"/>
<text text-anchor="middle" x="333.51" y="-368.92" font-family="Times New Roman,serif" font-size="14.00">~f32</text>
</g>
<!-- FLT_TOP&#45;&gt;FLT_X32 -->
<g id="edge23" class="edge">
<title>FLT_TOP&#45;&gt;FLT_X32</title>
<path fill="none" stroke="black" d="M474.77,-478.22C447.56,-458.14 398.22,-421.73 365.65,-397.69"/>
<polygon fill="black" stroke="black" points="367.88,-394.99 357.75,-391.86 363.72,-400.62 367.88,-394.99"/>
</g>
<!-- FLT_BOT -->
<g id="node15" class="node">
<title>FLT_BOT</title>
<ellipse fill="aqua" stroke="black" cx="507.51" cy="-82.75" rx="32.41" ry="18"/>
<text text-anchor="start" x="491.76" y="-78.7" font-family="Times New Roman,serif" font-weight="bold" font-size="14.00">⊥</text>
<text text-anchor="start" x="507.51" y="-78.7" font-family="Times New Roman,serif" font-size="14.00">:flt</text>
</g>
<!-- FLT_BOT&#45;&gt;BOT -->
<g id="edge29" class="edge">
<title>FLT_BOT&#45;&gt;BOT</title>
<path fill="none" stroke="black" d="M532.4,-70.67C554.98,-60.63 588.29,-45.81 612.16,-35.19"/>
<polygon fill="black" stroke="black" points="613.29,-38.51 621,-31.25 610.44,-32.12 613.29,-38.51"/>
</g>
<!-- FLT_CON64&#45;&gt;FLT_BOT -->
<g id="edge21" class="edge">
<title>FLT_CON64&#45;&gt;FLT_BOT</title>
<path fill="none" stroke="black" d="M553.11,-242.68C542.05,-203.88 525.53,-145.95 515.71,-111.5"/>
<polygon fill="black" stroke="black" points="519.17,-110.89 513.06,-102.23 512.44,-112.81 519.17,-110.89"/>
</g>
<!-- FLT_CON32 -->
<g id="node17" class="node">
<title>FLT_CON32</title>
<ellipse fill="aqua" stroke="black" cx="333.51" cy="-282.65" rx="50.33" ry="18"/>
<text text-anchor="middle" x="333.51" y="-277.6" font-family="Times New Roman,serif" font-size="14.00">32b consts</text>
</g>
<!-- FLT_CON32&#45;&gt;FLT_CONPI -->
<!-- FLT_32 -->
<g id="node21" class="node">
<title>FLT_32</title>
<ellipse fill="aqua" stroke="black" cx="333.51" cy="-196.45" rx="23.2" ry="23.2"/>
<text text-anchor="middle" x="333.51" y="-191.4" font-family="Times New Roman,serif" font-size="14.00">f32</text>
</g>
<!-- FLT_CON32&#45;&gt;FLT_32 -->
<g id="edge27" class="edge">
<title>FLT_CON32&#45;&gt;FLT_32</title>
<path fill="none" stroke="black" d="M333.51,-264.21C333.51,-254.7 333.51,-242.59 333.51,-231.31"/>
<polygon fill="black" stroke="black" points="337.01,-231.51 333.51,-221.51 330.01,-231.51 337.01,-231.51"/>
</g>
<!-- FLT_CONPI&#45;&gt;FLT_BOT -->
<g id="edge22" class="edge">
<title>FLT_CONPI&#45;&gt;FLT_BOT</title>
<path fill="none" stroke="black" d="M452.03,-264.56C462.62,-229.86 485.86,-153.69 498.65,-111.79"/>
<polygon fill="black" stroke="black" points="501.94,-112.98 501.51,-102.39 495.25,-110.93 501.94,-112.98"/>
</g>
<!-- FLT_CONPI&#45;&gt;FLT_CON64 -->
<!-- FLT_X32&#45;&gt;FLT_CON32 -->
<g id="edge25" class="edge">
<title>FLT_X32&#45;&gt;FLT_CON32</title>
<path fill="none" stroke="black" d="M333.51,-345.2C333.51,-334.71 333.51,-322.76 333.51,-312.19"/>
<polygon fill="black" stroke="black" points="337.01,-312.52 333.51,-302.52 330.01,-312.53 337.01,-312.52"/>
</g>
<!-- FLT_CON0 -->
<g id="node20" class="node">
<title>FLT_CON0</title>
<ellipse fill="aqua" stroke="black" cx="251.51" cy="-282.65" rx="18.08" ry="18.08"/>
<text text-anchor="middle" x="251.51" y="-277.6" font-family="Times New Roman,serif" font-size="14.00">0.</text>
</g>
<!-- FLT_X32&#45;&gt;FLT_CON0 -->
<g id="edge24" class="edge">
<title>FLT_X32&#45;&gt;FLT_CON0</title>
<path fill="none" stroke="black" d="M314.9,-352.7C301.83,-338.47 284.38,-319.46 271.1,-304.99"/>
<polygon fill="black" stroke="black" points="273.81,-302.77 264.47,-297.77 268.65,-307.5 273.81,-302.77"/>
</g>
<!-- FLT_CON0&#45;&gt;FLT_CON32 -->
<!-- FLT_CON0&#45;&gt;FLT_32 -->
<g id="edge26" class="edge">
<title>FLT_CON0&#45;&gt;FLT_32</title>
<path fill="none" stroke="black" d="M263.96,-268.86C276.06,-256.44 294.74,-237.26 309.69,-221.91"/>
<polygon fill="black" stroke="black" points="312.03,-224.53 316.5,-214.92 307.01,-219.64 312.03,-224.53"/>
</g>
<!-- FLT_32&#45;&gt;FLT_BOT -->
<g id="edge28" class="edge">
<title>FLT_32&#45;&gt;FLT_BOT</title>
<path fill="none" stroke="black" d="M353.13,-183.63C383.19,-163.99 440.9,-126.28 476.61,-102.94"/>
<polygon fill="black" stroke="black" points="478.34,-105.99 484.79,-97.59 474.51,-100.13 478.34,-105.99"/>
</g>
<!-- PTR0 -->
<g id="node23" class="node">
<title>PTR0</title>
<polygon fill="none" stroke="none" points="668.51,-109.25 614.51,-109.25 614.51,-56.25 668.51,-56.25 668.51,-109.25"/>
<polygon fill="green" stroke="none" points="623.51,-82.75 623.51,-105.25 659.51,-105.25 659.51,-82.75 623.51,-82.75"/>
<polygon fill="none" stroke="black" points="623.51,-82.75 623.51,-105.25 659.51,-105.25 659.51,-82.75 623.51,-82.75"/>
<text text-anchor="start" x="627.63" y="-88.95" font-family="Times New Roman,serif" font-size="14.00" fill="white">*ptr?</text>
<polygon fill="lightgreen" stroke="none" points="623.51,-60.25 623.51,-82.75 659.51,-82.75 659.51,-60.25 623.51,-60.25"/>
<polygon fill="none" stroke="black" points="623.51,-60.25 623.51,-82.75 659.51,-82.75 659.51,-60.25 623.51,-60.25"/>
<text text-anchor="start" x="626.51" y="-66.45" font-family="Times New Roman,serif" font-size="14.00">struct</text>
</g>
<!-- PTR&#45;&gt;PTR0 -->
<g id="edge34" class="edge">
<title>PTR&#45;&gt;PTR0</title>
<path fill="none" stroke="black" d="M641.51,-466.52C641.51,-396.01 641.51,-202.44 641.51,-120.34"/>
<polygon fill="black" stroke="black" points="645.01,-120.58 641.51,-110.58 638.01,-120.58 645.01,-120.58"/>
</g>
<!-- PTR0&#45;&gt;BOT -->
<g id="edge35" class="edge">
<title>PTR0&#45;&gt;BOT</title>
<path fill="none" stroke="black" d="M641.51,-56.46C641.51,-55.58 641.51,-54.7 641.51,-53.81"/>
<polygon fill="black" stroke="black" points="645.01,-53.9 641.51,-43.9 638.01,-53.9 645.01,-53.9"/>
</g>
<!-- STRUCT_S1 -->
<g id="node26" class="node">
<title>STRUCT_S1</title>
<polygon fill="none" stroke="none" points="741.38,-300.65 663.63,-300.65 663.63,-264.65 741.38,-264.65 741.38,-300.65"/>
<polygon fill="lightgreen" stroke="none" points="671.63,-273.4 671.63,-291.9 698.38,-291.9 698.38,-273.4 671.63,-273.4"/>
<polygon fill="none" stroke="black" points="671.63,-273.4 671.63,-291.9 698.38,-291.9 698.38,-273.4 671.63,-273.4"/>
<text text-anchor="start" x="672.63" y="-277.6" font-family="Times New Roman,serif" font-size="14.00">field</text>
<defs>
<linearGradient id="l_0" gradientUnits="userSpaceOnUse" x1="703.51" y1="-289.19" x2="728.26" y2="-276.11" >
<stop offset="0" style="stop-color:lightblue;stop-opacity:1.;"/>
<stop offset="1" style="stop-color:green;stop-opacity:1.;"/>
</linearGradient>
</defs>
<polygon fill="url(#l_0)" stroke="none" points="698.38,-273.4 698.38,-291.9 733.38,-291.9 733.38,-273.4 698.38,-273.4"/>
<polygon fill="none" stroke="black" points="698.38,-273.4 698.38,-291.9 733.38,-291.9 733.38,-273.4 698.38,-273.4"/>
<text text-anchor="start" x="699.38" y="-277.6" font-family="Times New Roman,serif" font-size="14.00">int/ptr</text>
</g>
<!-- STRUCT_TOP&#45;&gt;STRUCT_S1 -->
<g id="edge37" class="edge">
<title>STRUCT_TOP&#45;&gt;STRUCT_S1</title>
<path fill="none" stroke="black" d="M742.68,-474.51C735.02,-437.92 717.75,-355.45 708.55,-311.5"/>
<polygon fill="black" stroke="black" points="712.02,-311 706.54,-301.93 705.17,-312.43 712.02,-311"/>
</g>
<!-- STRUCT_S2 -->
<g id="node27" class="node">
<title>STRUCT_S2</title>
<polygon fill="none" stroke="none" points="841.38,-309.15 755.63,-309.15 755.63,-256.15 841.38,-256.15 841.38,-309.15"/>
<polygon fill="lightgreen" stroke="none" points="763.63,-282.65 763.63,-305.15 794.38,-305.15 794.38,-282.65 763.63,-282.65"/>
<polygon fill="none" stroke="black" points="763.63,-282.65 763.63,-305.15 794.38,-305.15 794.38,-282.65 763.63,-282.65"/>
<text text-anchor="start" x="766.63" y="-288.85" font-family="Times New Roman,serif" font-size="14.00">field</text>
<defs>
<linearGradient id="l_1" gradientUnits="userSpaceOnUse" x1="800.1" y1="-301.86" x2="827.67" y2="-285.95" >
<stop offset="0" style="stop-color:lightblue;stop-opacity:1.;"/>
<stop offset="1" style="stop-color:green;stop-opacity:1.;"/>
</linearGradient>
</defs>
<polygon fill="url(#l_1)" stroke="none" points="794.38,-282.65 794.38,-305.15 833.38,-305.15 833.38,-282.65 794.38,-282.65"/>
<polygon fill="none" stroke="black" points="794.38,-282.65 794.38,-305.15 833.38,-305.15 833.38,-282.65 794.38,-282.65"/>
<text text-anchor="start" x="797.38" y="-288.85" font-family="Times New Roman,serif" font-size="14.00">int/ptr</text>
<polygon fill="lightgreen" stroke="none" points="763.63,-260.15 763.63,-282.65 794.38,-282.65 794.38,-260.15 763.63,-260.15"/>
<polygon fill="none" stroke="black" points="763.63,-260.15 763.63,-282.65 794.38,-282.65 794.38,-260.15 763.63,-260.15"/>
<text text-anchor="start" x="766.63" y="-266.35" font-family="Times New Roman,serif" font-size="14.00">field</text>
<defs>
<linearGradient id="l_2" gradientUnits="userSpaceOnUse" x1="800.1" y1="-279.36" x2="827.67" y2="-263.45" >
<stop offset="0" style="stop-color:lightblue;stop-opacity:1.;"/>
<stop offset="1" style="stop-color:green;stop-opacity:1.;"/>
</linearGradient>
</defs>
<polygon fill="url(#l_2)" stroke="none" points="794.38,-260.15 794.38,-282.65 833.38,-282.65 833.38,-260.15 794.38,-260.15"/>
<polygon fill="none" stroke="black" points="794.38,-260.15 794.38,-282.65 833.38,-282.65 833.38,-260.15 794.38,-260.15"/>
<text text-anchor="start" x="797.38" y="-266.35" font-family="Times New Roman,serif" font-size="14.00">int/ptr</text>
</g>
<!-- STRUCT_TOP&#45;&gt;STRUCT_S2 -->
<g id="edge38" class="edge">
<title>STRUCT_TOP&#45;&gt;STRUCT_S2</title>
<path fill="none" stroke="black" d="M751.03,-474.51C759.53,-440.16 778.05,-365.34 789.28,-319.95"/>
<polygon fill="black" stroke="black" points="792.67,-320.83 791.67,-310.28 785.87,-319.15 792.67,-320.83"/>
</g>
<!-- STRUCT_SN -->
<g id="node28" class="node">
<title>STRUCT_SN</title>
<polygon fill="none" stroke="none" points="941.38,-320.4 855.63,-320.4 855.63,-244.9 941.38,-244.9 941.38,-320.4"/>
<polygon fill="lightgreen" stroke="none" points="863.63,-293.9 863.63,-316.4 894.38,-316.4 894.38,-293.9 863.63,-293.9"/>
<polygon fill="none" stroke="black" points="863.63,-293.9 863.63,-316.4 894.38,-316.4 894.38,-293.9 863.63,-293.9"/>
<text text-anchor="start" x="866.63" y="-300.1" font-family="Times New Roman,serif" font-size="14.00">field</text>
<defs>
<linearGradient id="l_3" gradientUnits="userSpaceOnUse" x1="900.1" y1="-313.11" x2="927.67" y2="-297.2" >
<stop offset="0" style="stop-color:lightblue;stop-opacity:1.;"/>
<stop offset="1" style="stop-color:green;stop-opacity:1.;"/>
</linearGradient>
</defs>
<polygon fill="url(#l_3)" stroke="none" points="894.38,-293.9 894.38,-316.4 933.38,-316.4 933.38,-293.9 894.38,-293.9"/>
<polygon fill="none" stroke="black" points="894.38,-293.9 894.38,-316.4 933.38,-316.4 933.38,-293.9 894.38,-293.9"/>
<text text-anchor="start" x="897.38" y="-300.1" font-family="Times New Roman,serif" font-size="14.00">int/ptr</text>
<polygon fill="lightgreen" stroke="none" points="863.63,-271.4 863.63,-293.9 894.38,-293.9 894.38,-271.4 863.63,-271.4"/>
<polygon fill="none" stroke="black" points="863.63,-271.4 863.63,-293.9 894.38,-293.9 894.38,-271.4 863.63,-271.4"/>
<text text-anchor="start" x="869.63" y="-277.6" font-family="Times New Roman,serif" font-size="14.00">... &#160;</text>
<defs>
<linearGradient id="l_4" gradientUnits="userSpaceOnUse" x1="900.1" y1="-290.61" x2="927.67" y2="-274.7" >
<stop offset="0" style="stop-color:lightblue;stop-opacity:1.;"/>
<stop offset="1" style="stop-color:green;stop-opacity:1.;"/>
</linearGradient>
</defs>
<polygon fill="url(#l_4)" stroke="none" points="894.38,-271.4 894.38,-293.9 933.38,-293.9 933.38,-271.4 894.38,-271.4"/>
<polygon fill="none" stroke="black" points="894.38,-271.4 894.38,-293.9 933.38,-293.9 933.38,-271.4 894.38,-271.4"/>
<text text-anchor="start" x="897.38" y="-277.6" font-family="Times New Roman,serif" font-size="14.00">int/ptr</text>
<polygon fill="lightgreen" stroke="none" points="863.63,-248.9 863.63,-271.4 894.38,-271.4 894.38,-248.9 863.63,-248.9"/>
<polygon fill="none" stroke="black" points="863.63,-248.9 863.63,-271.4 894.38,-271.4 894.38,-248.9 863.63,-248.9"/>
<text text-anchor="start" x="866.63" y="-255.1" font-family="Times New Roman,serif" font-size="14.00">field</text>
<defs>
<linearGradient id="l_5" gradientUnits="userSpaceOnUse" x1="900.1" y1="-268.11" x2="927.67" y2="-252.2" >
<stop offset="0" style="stop-color:lightblue;stop-opacity:1.;"/>
<stop offset="1" style="stop-color:green;stop-opacity:1.;"/>
</linearGradient>
</defs>
<polygon fill="url(#l_5)" stroke="none" points="894.38,-248.9 894.38,-271.4 933.38,-271.4 933.38,-248.9 894.38,-248.9"/>
<polygon fill="none" stroke="black" points="894.38,-248.9 894.38,-271.4 933.38,-271.4 933.38,-248.9 894.38,-248.9"/>
<text text-anchor="start" x="897.38" y="-255.1" font-family="Times New Roman,serif" font-size="14.00">int/ptr</text>
</g>
<!-- STRUCT_TOP&#45;&gt;STRUCT_SN -->
<g id="edge39" class="edge">
<title>STRUCT_TOP&#45;&gt;STRUCT_SN</title>
<path fill="none" stroke="black" d="M759.21,-475.24C782.17,-443.49 831.3,-375.56 864.63,-329.48"/>
<polygon fill="black" stroke="black" points="867.37,-331.67 870.4,-321.52 861.7,-327.57 867.37,-331.67"/>
</g>
<!-- STRUCT_BOT -->
<g id="node25" class="node">
<title>STRUCT_BOT</title>
<ellipse fill="lightgreen" stroke="black" cx="751.51" cy="-82.75" rx="44.7" ry="18"/>
<text text-anchor="start" x="726.76" y="-78.7" font-family="Times New Roman,serif" font-weight="bold" font-size="14.00">⊥</text>
<text text-anchor="start" x="742.51" y="-78.7" font-family="Times New Roman,serif" font-size="14.00">:struct</text>
</g>
<!-- STRUCT_BOT&#45;&gt;BOT -->
<g id="edge43" class="edge">
<title>STRUCT_BOT&#45;&gt;BOT</title>
<path fill="none" stroke="black" d="M725.72,-67.77C709,-58.7 687.2,-46.89 669.97,-37.55"/>
<polygon fill="black" stroke="black" points="671.71,-34.51 661.25,-32.82 668.37,-40.67 671.71,-34.51"/>
</g>
<!-- STRUCT_S1&#45;&gt;STRUCT_BOT -->
<g id="edge40" class="edge">
<title>STRUCT_S1&#45;&gt;STRUCT_BOT</title>
<path fill="none" stroke="black" d="M706.86,-264.91C715.3,-230.49 733.97,-154.31 744.29,-112.19"/>
<polygon fill="black" stroke="black" points="747.69,-113.04 746.67,-102.5 740.89,-111.37 747.69,-113.04"/>
</g>
<!-- STRUCT_S1&#45;&gt;STRUCT_S2 -->
<!-- STRUCT_S2&#45;&gt;STRUCT_BOT -->
<g id="edge41" class="edge">
<title>STRUCT_S2&#45;&gt;STRUCT_BOT</title>
<path fill="none" stroke="black" d="M792.36,-256.52C783.62,-219.3 767.61,-151.25 758.45,-112.26"/>
<polygon fill="black" stroke="black" points="761.88,-111.57 756.18,-102.64 755.07,-113.17 761.88,-111.57"/>
</g>
<!-- STRUCT_S2&#45;&gt;STRUCT_SN -->
<!-- STRUCT_SN&#45;&gt;STRUCT_BOT -->
<g id="edge42" class="edge">
<title>STRUCT_SN&#45;&gt;STRUCT_BOT</title>
<path fill="none" stroke="black" d="M870.86,-245.05C841.74,-205.46 796.64,-144.13 771.03,-109.3"/>
<polygon fill="black" stroke="black" points="773.99,-107.42 765.25,-101.44 768.36,-111.57 773.99,-107.42"/>
</g>
<!-- MEM_ALIAS1 -->
<g id="node31" class="node">
<title>MEM_ALIAS1</title>
<ellipse fill="blue" stroke="black" cx="975.51" cy="-282.65" rx="20.13" ry="20.13"/>
<text text-anchor="middle" x="975.51" y="-277.6" font-family="Times New Roman,serif" font-size="14.00" fill="white">#1</text>
</g>
<!-- MEM_TOP&#45;&gt;MEM_ALIAS1 -->
<g id="edge47" class="edge">
<title>MEM_TOP&#45;&gt;MEM_ALIAS1</title>
<path fill="none" stroke="black" d="M996.51,-474.51C992.58,-438.66 983.84,-358.73 978.96,-314.18"/>
<polygon fill="black" stroke="black" points="982.45,-313.94 977.89,-304.38 975.5,-314.7 982.45,-313.94"/>
</g>
<!-- MEM_ALIASDOTS -->
<g id="node32" class="node">
<title>MEM_ALIASDOTS</title>
<ellipse fill="blue" stroke="black" cx="1036.51" cy="-282.65" rx="27" ry="18"/>
<text text-anchor="middle" x="1036.51" y="-277.6" font-family="Times New Roman,serif" font-size="14.00" fill="white">...</text>
</g>
<!-- MEM_TOP&#45;&gt;MEM_ALIASDOTS -->
<g id="edge48" class="edge">
<title>MEM_TOP&#45;&gt;MEM_ALIASDOTS</title>
<path fill="none" stroke="black" d="M1001.81,-474.51C1008.41,-438.02 1023.27,-355.86 1031.23,-311.83"/>
<polygon fill="black" stroke="black" points="1034.63,-312.69 1032.97,-302.23 1027.74,-311.45 1034.63,-312.69"/>
</g>
<!-- MEM_ALIASN -->
<g id="node33" class="node">
<title>MEM_ALIASN</title>
<ellipse fill="blue" stroke="black" cx="1097.51" cy="-282.65" rx="20.13" ry="20.13"/>
<text text-anchor="middle" x="1097.51" y="-277.6" font-family="Times New Roman,serif" font-size="14.00" fill="white">#n</text>
</g>
<!-- MEM_TOP&#45;&gt;MEM_ALIASN -->
<g id="edge49" class="edge">
<title>MEM_TOP&#45;&gt;MEM_ALIASN</title>
<path fill="none" stroke="black" d="M1006.95,-474.88C1024.11,-438.46 1063.18,-355.52 1083.95,-311.44"/>
<polygon fill="black" stroke="black" points="1087.07,-313.03 1088.16,-302.49 1080.73,-310.05 1087.07,-313.03"/>
</g>
<!-- MEM_BOT -->
<g id="node30" class="node">
<title>MEM_BOT</title>
<ellipse fill="blue" stroke="black" cx="998.51" cy="-82.75" rx="43.67" ry="18"/>
<text text-anchor="start" x="974.51" y="-78.7" font-family="Times New Roman,serif" font-weight="bold" font-size="14.00" fill="white">⊥</text>
<text text-anchor="start" x="990.26" y="-78.7" font-family="Times New Roman,serif" font-size="14.00" fill="white">:mem</text>
</g>
<!-- MEM_BOT&#45;&gt;BOT -->
<g id="edge53" class="edge">
<title>MEM_BOT&#45;&gt;BOT</title>
<path fill="none" stroke="black" d="M958.6,-75.08C887.17,-63.15 738.86,-38.38 673.56,-27.48"/>
<polygon fill="black" stroke="black" points="674.3,-24.05 663.86,-25.86 673.15,-30.96 674.3,-24.05"/>
</g>
<!-- MEM_ALIAS1&#45;&gt;MEM_BOT -->
<g id="edge50" class="edge">
<title>MEM_ALIAS1&#45;&gt;MEM_BOT</title>
<path fill="none" stroke="black" d="M977.84,-262.38C981.92,-226.96 990.35,-153.62 995.09,-112.45"/>
<polygon fill="black" stroke="black" points="998.57,-112.87 996.23,-102.53 991.61,-112.07 998.57,-112.87"/>
</g>
<!-- MEM_ALIAS1&#45;&gt;MEM_ALIASDOTS -->
<!-- MEM_ALIASDOTS&#45;&gt;MEM_BOT -->
<g id="edge51" class="edge">
<title>MEM_ALIASDOTS&#45;&gt;MEM_BOT</title>
<path fill="none" stroke="black" d="M1033.07,-264.56C1026.49,-229.93 1012.06,-154.01 1004.08,-112.06"/>
<polygon fill="black" stroke="black" points="1007.56,-111.6 1002.25,-102.43 1000.68,-112.91 1007.56,-111.6"/>
</g>
<!-- MEM_ALIASDOTS&#45;&gt;MEM_ALIASN -->
<!-- MEM_ALIASN&#45;&gt;MEM_BOT -->
<g id="edge52" class="edge">
<title>MEM_ALIASN&#45;&gt;MEM_BOT</title>
<path fill="none" stroke="black" d="M1088.37,-264.2C1070.97,-229.07 1032.98,-152.35 1012.41,-110.82"/>
<polygon fill="black" stroke="black" points="1015.58,-109.34 1008.01,-101.93 1009.31,-112.45 1015.58,-109.34"/>
</g>
<!-- TUPLE1 -->
<g id="node36" class="node">
<title>TUPLE1</title>
<polygon fill="none" stroke="none" points="1185.51,-309.15 1131.51,-309.15 1131.51,-256.15 1185.51,-256.15 1185.51,-309.15"/>
<polygon fill="pink" stroke="none" points="1139.76,-282.65 1139.76,-305.15 1177.26,-305.15 1177.26,-282.65 1139.76,-282.65"/>
<polygon fill="none" stroke="black" points="1139.76,-282.65 1139.76,-305.15 1177.26,-305.15 1177.26,-282.65 1139.76,-282.65"/>
<text text-anchor="start" x="1142.76" y="-288.85" font-family="Times New Roman,serif" font-size="14.00">Tuple</text>
<polygon fill="black" stroke="none" points="1139.76,-260.15 1139.76,-282.65 1177.26,-282.65 1177.26,-260.15 1139.76,-260.15"/>
<polygon fill="none" stroke="black" points="1139.76,-260.15 1139.76,-282.65 1177.26,-282.65 1177.26,-260.15 1139.76,-260.15"/>
<text text-anchor="start" x="1146.88" y="-266.35" font-family="Times New Roman,serif" font-size="14.00" fill="white">type</text>
</g>
<!-- TUPLE_TOP&#45;&gt;TUPLE1 -->
<g id="edge57" class="edge">
<title>TUPLE_TOP&#45;&gt;TUPLE1</title>
<path fill="none" stroke="black" d="M1180.42,-474.51C1176.51,-440.23 1167.99,-365.66 1162.8,-320.24"/>
<polygon fill="black" stroke="black" points="1166.28,-319.86 1161.67,-310.32 1159.33,-320.65 1166.28,-319.86"/>
</g>
<!-- TUPLE2 -->
<g id="node37" class="node">
<title>TUPLE2</title>
<polygon fill="none" stroke="none" points="1253.51,-320.4 1199.51,-320.4 1199.51,-244.9 1253.51,-244.9 1253.51,-320.4"/>
<polygon fill="pink" stroke="none" points="1207.76,-293.9 1207.76,-316.4 1245.26,-316.4 1245.26,-293.9 1207.76,-293.9"/>
<polygon fill="none" stroke="black" points="1207.76,-293.9 1207.76,-316.4 1245.26,-316.4 1245.26,-293.9 1207.76,-293.9"/>
<text text-anchor="start" x="1210.76" y="-300.1" font-family="Times New Roman,serif" font-size="14.00">Tuple</text>
<polygon fill="black" stroke="none" points="1207.76,-271.4 1207.76,-293.9 1245.26,-293.9 1245.26,-271.4 1207.76,-271.4"/>
<polygon fill="none" stroke="black" points="1207.76,-271.4 1207.76,-293.9 1245.26,-293.9 1245.26,-271.4 1207.76,-271.4"/>
<text text-anchor="start" x="1214.88" y="-277.6" font-family="Times New Roman,serif" font-size="14.00" fill="white">type</text>
<polygon fill="black" stroke="none" points="1207.76,-248.9 1207.76,-271.4 1245.26,-271.4 1245.26,-248.9 1207.76,-248.9"/>
<polygon fill="none" stroke="black" points="1207.76,-248.9 1207.76,-271.4 1245.26,-271.4 1245.26,-248.9 1207.76,-248.9"/>
<text text-anchor="start" x="1214.88" y="-255.1" font-family="Times New Roman,serif" font-size="14.00" fill="white">type</text>
</g>
<!-- TUPLE_TOP&#45;&gt;TUPLE2 -->
<g id="edge58" class="edge">
<title>TUPLE_TOP&#45;&gt;TUPLE2</title>
<path fill="none" stroke="black" d="M1186.34,-474.51C1192.95,-442.94 1206.72,-377.19 1216.28,-331.51"/>
<polygon fill="black" stroke="black" points="1219.68,-332.35 1218.3,-321.85 1212.83,-330.92 1219.68,-332.35"/>
</g>
<!-- TUPLEN -->
<g id="node38" class="node">
<title>TUPLEN</title>
<polygon fill="none" stroke="none" points="1321.51,-331.65 1267.51,-331.65 1267.51,-233.65 1321.51,-233.65 1321.51,-331.65"/>
<polygon fill="pink" stroke="none" points="1275.76,-305.15 1275.76,-327.65 1313.26,-327.65 1313.26,-305.15 1275.76,-305.15"/>
<polygon fill="none" stroke="black" points="1275.76,-305.15 1275.76,-327.65 1313.26,-327.65 1313.26,-305.15 1275.76,-305.15"/>
<text text-anchor="start" x="1278.76" y="-311.35" font-family="Times New Roman,serif" font-size="14.00">Tuple</text>
<polygon fill="black" stroke="none" points="1275.76,-282.65 1275.76,-305.15 1313.26,-305.15 1313.26,-282.65 1275.76,-282.65"/>
<polygon fill="none" stroke="black" points="1275.76,-282.65 1275.76,-305.15 1313.26,-305.15 1313.26,-282.65 1275.76,-282.65"/>
<text text-anchor="start" x="1282.88" y="-288.85" font-family="Times New Roman,serif" font-size="14.00" fill="white">type</text>
<polygon fill="black" stroke="none" points="1275.76,-260.15 1275.76,-282.65 1313.26,-282.65 1313.26,-260.15 1275.76,-260.15"/>
<polygon fill="none" stroke="black" points="1275.76,-260.15 1275.76,-282.65 1313.26,-282.65 1313.26,-260.15 1275.76,-260.15"/>
<text text-anchor="start" x="1288.88" y="-266.35" font-family="Times New Roman,serif" font-size="14.00" fill="white">...</text>
<polygon fill="black" stroke="none" points="1275.76,-237.65 1275.76,-260.15 1313.26,-260.15 1313.26,-237.65 1275.76,-237.65"/>
<polygon fill="none" stroke="black" points="1275.76,-237.65 1275.76,-260.15 1313.26,-260.15 1313.26,-237.65 1275.76,-237.65"/>
<text text-anchor="start" x="1282.88" y="-243.85" font-family="Times New Roman,serif" font-size="14.00" fill="white">type</text>
</g>
<!-- TUPLE_TOP&#45;&gt;TUPLEN -->
<g id="edge59" class="edge">
<title>TUPLE_TOP&#45;&gt;TUPLEN</title>
<path fill="none" stroke="black" d="M1192.06,-474.88C1207.65,-445.62 1239.24,-386.36 1263.24,-341.32"/>
<polygon fill="black" stroke="black" points="1266.22,-343.18 1267.83,-332.71 1260.04,-339.88 1266.22,-343.18"/>
</g>
<!-- TUPLE_BOT -->
<g id="node35" class="node">
<title>TUPLE_BOT</title>
<ellipse fill="pink" stroke="black" cx="1192.51" cy="-82.75" rx="42.65" ry="18"/>
<text text-anchor="start" x="1169.26" y="-78.7" font-family="Times New Roman,serif" font-weight="bold" font-size="14.00">⊥</text>
<text text-anchor="start" x="1185.01" y="-78.7" font-family="Times New Roman,serif" font-size="14.00">:tuple</text>
</g>
<!-- TUPLE_BOT&#45;&gt;BOT -->
<g id="edge63" class="edge">
<title>TUPLE_BOT&#45;&gt;BOT</title>
<path fill="none" stroke="black" d="M1151.54,-77.32C1046.53,-65.95 769.32,-35.95 674.14,-25.65"/>
<polygon fill="black" stroke="black" points="674.52,-22.18 664.2,-24.58 673.77,-29.14 674.52,-22.18"/>
</g>
<!-- TUPLE1&#45;&gt;TUPLE_BOT -->
<g id="edge60" class="edge">
<title>TUPLE1&#45;&gt;TUPLE_BOT</title>
<path fill="none" stroke="black" d="M1162.95,-256.52C1169.28,-219.3 1180.86,-151.25 1187.49,-112.26"/>
<polygon fill="black" stroke="black" points="1190.9,-113.1 1189.12,-102.66 1184,-111.93 1190.9,-113.1"/>
</g>
<!-- TUPLE2&#45;&gt;TUPLE_BOT -->
<g id="edge61" class="edge">
<title>TUPLE2&#45;&gt;TUPLE_BOT</title>
<path fill="none" stroke="black" d="M1220.11,-245.05C1213.55,-206.44 1203.46,-147.16 1197.47,-111.94"/>
<polygon fill="black" stroke="black" points="1200.99,-111.74 1195.86,-102.47 1194.09,-112.92 1200.99,-111.74"/>
</g>
<!-- TUPLEN&#45;&gt;TUPLE_BOT -->
<g id="edge62" class="edge">
<title>TUPLEN&#45;&gt;TUPLE_BOT</title>
<path fill="none" stroke="black" d="M1269.56,-233.75C1249.85,-195.12 1223.04,-142.58 1206.8,-110.75"/>
<polygon fill="black" stroke="black" points="1210.07,-109.46 1202.41,-102.15 1203.83,-112.65 1210.07,-109.46"/>
</g>
</g>
</svg>
