<?xml version="1.0" encoding="UTF-8" standalone="no"?>
<!DOCTYPE svg PUBLIC "-//W3C//DTD SVG 1.1//EN" "http://www.w3.org/Graphics/SVG/1.1/DTD/svg11.dtd">
<!-- Generated by graphviz version 2.40.1 (20161225.0304)
 -->
<!-- Title: chapter04 Pages: 1 -->
<svg width="358pt" height="186pt" viewBox="0.00 0.00 358.00 186.00" xmlns="http://www.w3.org/2000/svg" xmlns:xlink="http://www.w3.org/1999/xlink">
<g id="graph0" class="graph" transform="scale(1 1) rotate(0) translate(4 182)">
<title>chapter04</title>
<polygon fill="#ffffff" stroke="transparent" points="-4,4 -4,-182 354,-182 354,4 -4,4"/>
<g id="clust1" class="cluster">
<title>cluster_Nodes</title>
<polygon fill="none" stroke="#000000" points="8,-16 8,-170 154,-170 154,-16 8,-16"/>
</g>
<g id="clust2" class="cluster">
<title>cluster_Scope1_0</title>
<polygon fill="none" stroke="#000000" points="162,-8 162,-76 342,-76 342,-8 162,-8"/>
</g>
<g id="clust3" class="cluster">
<title>cluster_Scope1_1</title>
<polygon fill="none" stroke="#000000" points="264,-16 264,-68 334,-68 334,-16 264,-16"/>
</g>
<!-- Start2 -->
<g id="node1" class="node">
<title>Start2</title>
<polygon fill="#ffff00" stroke="transparent" points="25,-132 25,-158 66,-158 66,-132 25,-132"/>
<polygon fill="none" stroke="#000000" points="25,-132 25,-158 66,-158 66,-132 25,-132"/>
<text text-anchor="start" x="32.2805" y="-140.4" font-family="Times,serif" font-size="14.00" fill="#000000">Start</text>
<polygon fill="none" stroke="#000000" points="25,-100 25,-132 66,-132 66,-100 25,-100"/>
<polygon fill="#ffff00" stroke="transparent" points="30,-105 30,-127 61,-127 61,-105 30,-105"/>
<polygon fill="none" stroke="#000000" points="30,-105 30,-127 61,-127 61,-105 30,-105"/>
<text text-anchor="start" x="32.6718" y="-111.4" font-family="Times,serif" font-size="14.00" fill="#000000">$ctrl</text>
</g>
<!-- Con_5 -->
<g id="node2" class="node">
<title>Con_5</title>
<ellipse fill="none" stroke="#000000" cx="119" cy="-129" rx="27" ry="18"/>
<text text-anchor="middle" x="119" y="-124.8" font-family="Times,serif" font-size="14.00" fill="#000000">2</text>
</g>
<!-- Return6 -->
<g id="node3" class="node">
<title>Return6</title>
<polygon fill="#ffff00" stroke="#000000" points="109.1025,-60 54.8975,-60 54.8975,-24 109.1025,-24 109.1025,-60"/>
<text text-anchor="middle" x="82" y="-37.8" font-family="Times,serif" font-size="14.00" fill="#000000">Return</text>
</g>
<!-- Return6&#45;&gt;Start2 -->
<g id="edge1" class="edge">
<title>Return6-&gt;Start2:p0</title>
<path fill="none" stroke="#ff0000" d="M65.0542,-60.052C57.6135,-69.4899 49.9318,-81.7894 47.1181,-94.8747"/>
<polygon fill="#ff0000" stroke="#ff0000" points="43.6189,-94.6762 46,-105 50.5766,-95.4446 43.6189,-94.6762"/>
<text text-anchor="middle" x="62.8306" y="-62.452" font-family="Helvetica,sans-Serif" font-size="8.00" fill="#000000">0</text>
</g>
<!-- Return6&#45;&gt;Con_5 -->
<g id="edge2" class="edge">
<title>Return6-&gt;Con_5</title>
<path fill="none" stroke="#000000" d="M89.6664,-60.0265C94.8444,-72.2017 101.7707,-88.4878 107.5926,-102.1772"/>
<polygon fill="#000000" stroke="#000000" points="104.4613,-103.7577 111.5959,-111.5903 110.903,-101.0181 104.4613,-103.7577"/>
<text text-anchor="middle" x="87.4428" y="-62.4265" font-family="Helvetica,sans-Serif" font-size="8.00" fill="#000000">1</text>
</g>
<!-- Scope1_0 -->
<g id="node4" class="node">
<title>Scope1_0</title>
<polygon fill="#00ffff" stroke="transparent" points="179,-31 179,-53 192,-53 192,-31 179,-31"/>
<polygon fill="none" stroke="#000000" points="179,-31 179,-53 192,-53 192,-31 179,-31"/>
<text text-anchor="start" x="182" y="-37.4" font-family="Times,serif" font-size="14.00" fill="#000000">0</text>
<polygon fill="none" stroke="#000000" points="192,-31 192,-53 223,-53 223,-31 192,-31"/>
<text text-anchor="start" x="194.6718" y="-37.4" font-family="Times,serif" font-size="14.00" fill="#000000">$ctrl</text>
<polygon fill="none" stroke="#000000" points="223,-31 223,-53 246,-53 246,-31 223,-31"/>
<text text-anchor="start" x="225.5624" y="-37.4" font-family="Times,serif" font-size="14.00" fill="#000000">arg</text>
</g>
<!-- Scope1_0&#45;&gt;Con_5 -->
<g id="edge3" class="edge">
<title>Scope1_0:Scope1_0_arg-&gt;Con_5</title>
<path fill="none" stroke="#6495ed" stroke-dasharray="5,2" d="M235,-53C235,-91.8959 188.8038,-111.9666 154.717,-121.4819"/>
<polygon fill="#6495ed" stroke="#6495ed" points="153.8305,-118.0959 145.0327,-123.9992 155.5916,-124.8708 153.8305,-118.0959"/>
</g>
<!-- Scope1_1 -->
<g id="node5" class="node">
<title>Scope1_1</title>
<polygon fill="#00ffff" stroke="transparent" points="293,-31 293,-53 306,-53 306,-31 293,-31"/>
<polygon fill="none" stroke="#000000" points="293,-31 293,-53 306,-53 306,-31 293,-31"/>
<text text-anchor="start" x="296" y="-37.4" font-family="Times,serif" font-size="14.00" fill="#000000">1</text>
</g>
</g>
</svg>