<?xml version="1.0" encoding="UTF-8" standalone="no"?>
<!DOCTYPE svg PUBLIC "-//W3C//DTD SVG 1.1//EN" "http://www.w3.org/Graphics/SVG/1.1/DTD/svg11.dtd">
<!-- Generated by graphviz version 2.40.1 (20161225.0304)
 -->
<!-- Title: chapter04 Pages: 1 -->
<svg width="114pt" height="250pt" viewBox="0.00 0.00 114.00 250.00" xmlns="http://www.w3.org/2000/svg" xmlns:xlink="http://www.w3.org/1999/xlink">
<g id="graph0" class="graph" transform="scale(1 1) rotate(0) translate(4 246)">
<title>chapter04</title>
<polygon fill="#ffffff" stroke="transparent" points="-4,4 -4,-246 110,-246 110,4 -4,4"/>
<g id="clust1" class="cluster">
<title>cluster_Nodes</title>
<polygon fill="none" stroke="#000000" points="8,-8 8,-234 98,-234 98,-8 8,-8"/>
</g>
<!-- Start2 -->
<g id="node1" class="node">
<title>Start2</title>
<polygon fill="#ffff00" stroke="transparent" points="33,-196 33,-222 74,-222 74,-196 33,-196"/>
<polygon fill="none" stroke="#000000" points="33,-196 33,-222 74,-222 74,-196 33,-196"/>
<text text-anchor="start" x="40.2805" y="-204.4" font-family="Times,serif" font-size="14.00" fill="#000000">Start</text>
<polygon fill="none" stroke="#000000" points="33,-164 33,-196 74,-196 74,-164 33,-164"/>
<polygon fill="#ffff00" stroke="transparent" points="38,-169 38,-191 69,-191 69,-169 38,-169"/>
<polygon fill="none" stroke="#000000" points="38,-169 38,-191 69,-191 69,-169 38,-169"/>
<text text-anchor="start" x="40.6718" y="-175.4" font-family="Times,serif" font-size="14.00" fill="#000000">$ctrl</text>
</g>
<!-- Con_6 -->
<g id="node2" class="node">
<title>Con_6</title>
<ellipse fill="none" stroke="#000000" cx="43" cy="-106" rx="27" ry="18"/>
<text text-anchor="middle" x="43" y="-101.8" font-family="Times,serif" font-size="14.00" fill="#000000">1</text>
</g>
<!-- Con_6&#45;&gt;Start2 -->
<g id="edge1" class="edge">
<title>Con_6-&gt;Start2</title>
<path fill="none" stroke="#ff0000" d="M45.072,-124.0265C45.9366,-131.5481 46.9815,-140.6387 48.0249,-149.7167"/>
<polygon fill="#ff0000" stroke="#ff0000" points="44.5736,-150.3415 49.1927,-159.8764 51.5278,-149.5421 44.5736,-150.3415"/>
<text text-anchor="middle" x="42.8484" y="-126.4265" font-family="Helvetica,sans-Serif" font-size="8.00" fill="#000000">0</text>
</g>
<!-- Return7 -->
<g id="node3" class="node">
<title>Return7</title>
<polygon fill="#ffff00" stroke="#000000" points="80.1025,-52 25.8975,-52 25.8975,-16 80.1025,-16 80.1025,-52"/>
<text text-anchor="middle" x="53" y="-29.8" font-family="Times,serif" font-size="14.00" fill="#000000">Return</text>
</g>
<!-- Return7&#45;&gt;Start2 -->
<g id="edge2" class="edge">
<title>Return7-&gt;Start2:p0</title>
<path fill="none" stroke="#ff0000" d="M64.3196,-52.2322C69.9396,-62.3585 76.1294,-75.4211 79,-88 82.5597,-103.599 83.0135,-108.5115 79,-124 74.2474,-142.3411 60.2215,-145.475 55.5405,-159.004"/>
<polygon fill="#ff0000" stroke="#ff0000" points="52.0641,-158.5835 54,-169 58.9824,-159.6498 52.0641,-158.5835"/>
<text text-anchor="middle" x="62.096" y="-54.6322" font-family="Helvetica,sans-Serif" font-size="8.00" fill="#000000">0</text>
</g>
<!-- Return7&#45;&gt;Con_6 -->
<g id="edge3" class="edge">
<title>Return7-&gt;Con_6</title>
<path fill="none" stroke="#000000" d="M50.4766,-52.1686C49.4071,-59.869 48.1353,-69.0257 46.9468,-77.5834"/>
<polygon fill="#000000" stroke="#000000" points="43.4664,-77.2003 45.5574,-87.5867 50.3999,-78.1633 43.4664,-77.2003"/>
<text text-anchor="middle" x="48.253" y="-54.5686" font-family="Helvetica,sans-Serif" font-size="8.00" fill="#000000">1</text>
</g>
</g>
</svg>