<?xml version="1.0" encoding="UTF-8" standalone="no"?>
<!DOCTYPE svg PUBLIC "-//W3C//DTD SVG 1.1//EN" "http://www.w3.org/Graphics/SVG/1.1/DTD/svg11.dtd">
<!-- Generated by graphviz version 2.40.1 (20161225.0304)
 -->
<!-- Title: chapter04 Pages: 1 -->
<svg width="204pt" height="258pt" viewBox="0.00 0.00 204.00 258.00" xmlns="http://www.w3.org/2000/svg" xmlns:xlink="http://www.w3.org/1999/xlink">
<g id="graph0" class="graph" transform="scale(1 1) rotate(0) translate(4 254)">
<title>chapter04</title>
<polygon fill="#ffffff" stroke="transparent" points="-4,4 -4,-254 200,-254 200,4 -4,4"/>
<g id="clust1" class="cluster">
<title>cluster_Nodes</title>
<polygon fill="none" stroke="#000000" points="19,-88 19,-242 187,-242 187,-88 19,-88"/>
</g>
<g id="clust2" class="cluster">
<title>cluster_Scope1_0</title>
<polygon fill="none" stroke="#000000" points="8,-8 8,-76 188,-76 188,-8 8,-8"/>
</g>
<g id="clust3" class="cluster">
<title>cluster_Scope1_1</title>
<polygon fill="none" stroke="#000000" points="110,-16 110,-68 180,-68 180,-16 110,-16"/>
</g>
<!-- Start2 -->
<g id="node1" class="node">
<title>Start2</title>
<polygon fill="#ffff00" stroke="transparent" points="35,-204 35,-230 99,-230 99,-204 35,-204"/>
<polygon fill="none" stroke="#000000" points="35,-204 35,-230 99,-230 99,-204 35,-204"/>
<text text-anchor="start" x="53.7805" y="-212.4" font-family="Times,serif" font-size="14.00" fill="#000000">Start</text>
<polygon fill="none" stroke="#000000" points="35,-172 35,-204 99,-204 99,-172 35,-172"/>
<polygon fill="#ffff00" stroke="transparent" points="40,-177 40,-199 71,-199 71,-177 40,-177"/>
<polygon fill="none" stroke="#000000" points="40,-177 40,-199 71,-199 71,-177 40,-177"/>
<text text-anchor="start" x="42.6718" y="-183.4" font-family="Times,serif" font-size="14.00" fill="#000000">$ctrl</text>
<polygon fill="none" stroke="#000000" points="71,-177 71,-199 94,-199 94,-177 71,-177"/>
<text text-anchor="start" x="73.5624" y="-183.4" font-family="Times,serif" font-size="14.00" fill="#000000">arg</text>
</g>
<!-- Con_5 -->
<g id="node2" class="node">
<title>Con_5</title>
<ellipse fill="none" stroke="#000000" cx="152" cy="-114" rx="27" ry="18"/>
<text text-anchor="middle" x="152" y="-109.8" font-family="Times,serif" font-size="14.00" fill="#000000">12</text>
</g>
<!-- Con_6 -->
<g id="node3" class="node">
<title>Con_6</title>
<ellipse fill="none" stroke="#000000" cx="152" cy="-201" rx="27" ry="18"/>
<text text-anchor="middle" x="152" y="-196.8" font-family="Times,serif" font-size="14.00" fill="#000000">1</text>
</g>
<!-- Return7 -->
<g id="node4" class="node">
<title>Return7</title>
<polygon fill="#ffff00" stroke="#000000" points="107.1025,-132 52.8975,-132 52.8975,-96 107.1025,-96 107.1025,-132"/>
<text text-anchor="middle" x="80" y="-109.8" font-family="Times,serif" font-size="14.00" fill="#000000">Return</text>
</g>
<!-- Return7&#45;&gt;Start2 -->
<g id="edge1" class="edge">
<title>Return7-&gt;Start2:p0</title>
<path fill="none" stroke="#ff0000" d="M68.6703,-132.0016C63.4509,-141.64 57.957,-154.1206 55.8715,-166.8193"/>
<polygon fill="#ff0000" stroke="#ff0000" points="52.3657,-166.7379 55,-177 59.3402,-167.335 52.3657,-166.7379"/>
<text text-anchor="middle" x="66.4467" y="-134.4016" font-family="Helvetica,sans-Serif" font-size="8.00" fill="#000000">0</text>
</g>
<!-- Return7&#45;&gt;Con_6 -->
<g id="edge2" class="edge">
<title>Return7-&gt;Con_6</title>
<path fill="none" stroke="#000000" d="M94.9184,-132.0265C105.7302,-145.0906 120.4588,-162.8877 132.2466,-177.1313"/>
<polygon fill="#000000" stroke="#000000" points="129.7233,-179.572 138.7954,-185.0444 135.1161,-175.109 129.7233,-179.572"/>
<text text-anchor="middle" x="92.6948" y="-134.4265" font-family="Helvetica,sans-Serif" font-size="8.00" fill="#000000">1</text>
</g>
<!-- Scope1_0 -->
<g id="node5" class="node">
<title>Scope1_0</title>
<polygon fill="#00ffff" stroke="transparent" points="25,-31 25,-53 38,-53 38,-31 25,-31"/>
<polygon fill="none" stroke="#000000" points="25,-31 25,-53 38,-53 38,-31 25,-31"/>
<text text-anchor="start" x="28" y="-37.4" font-family="Times,serif" font-size="14.00" fill="#000000">0</text>
<polygon fill="none" stroke="#000000" points="38,-31 38,-53 69,-53 69,-31 38,-31"/>
<text text-anchor="start" x="40.6718" y="-37.4" font-family="Times,serif" font-size="14.00" fill="#000000">$ctrl</text>
<polygon fill="none" stroke="#000000" points="69,-31 69,-53 92,-53 92,-31 69,-31"/>
<text text-anchor="start" x="71.5624" y="-37.4" font-family="Times,serif" font-size="14.00" fill="#000000">arg</text>
</g>
<!-- Scope1_0&#45;&gt;Start2 -->
<g id="edge3" class="edge">
<title>Scope1_0:Scope1_0_arg-&gt;Start2:p1</title>
<path fill="none" stroke="#6495ed" stroke-dasharray="5,2" d="M81,-53C81,-75.6361 52.952,-67.2092 44,-88 36.2663,-105.9613 37.1652,-113.6777 44,-132 51.8047,-152.9223 74.2036,-151.7329 81.0127,-166.7479"/>
<polygon fill="#6495ed" stroke="#6495ed" points="77.6609,-167.8488 83,-177 84.533,-166.5167 77.6609,-167.8488"/>
</g>
<!-- Scope1_1 -->
<g id="node6" class="node">
<title>Scope1_1</title>
<polygon fill="#00ffff" stroke="transparent" points="133,-31 133,-53 146,-53 146,-31 133,-31"/>
<polygon fill="none" stroke="#000000" points="133,-31 133,-53 146,-53 146,-31 133,-31"/>
<text text-anchor="start" x="136" y="-37.4" font-family="Times,serif" font-size="14.00" fill="#000000">1</text>
<polygon fill="none" stroke="#000000" points="146,-31 146,-53 158,-53 158,-31 146,-31"/>
<text text-anchor="start" x="148.8927" y="-37.4" font-family="Times,serif" font-size="14.00" fill="#000000">a</text>
</g>
<!-- Scope1_1&#45;&gt;Con_5 -->
<g id="edge4" class="edge">
<title>Scope1_1:Scope1_1_a-&gt;Con_5</title>
<path fill="none" stroke="#6495ed" stroke-dasharray="5,2" d="M152,-53C152,-63.6896 152,-75.4328 152,-85.737"/>
<polygon fill="#6495ed" stroke="#6495ed" points="148.5001,-85.8496 152,-95.8497 155.5001,-85.8497 148.5001,-85.8496"/>
</g>
</g>
</svg>