<?xml version="1.0" encoding="UTF-8" standalone="no"?>
<!DOCTYPE svg PUBLIC "-//W3C//DTD SVG 1.1//EN"
 "http://www.w3.org/Graphics/SVG/1.1/DTD/svg11.dtd">
<!-- Generated by graphviz version 2.43.0 (0)
 -->
<!-- Title: chapter04 Pages: 1 -->
<svg width="417pt" height="320pt"
 viewBox="0.00 0.00 417.00 320.00" xmlns="http://www.w3.org/2000/svg" xmlns:xlink="http://www.w3.org/1999/xlink">
<g id="graph0" class="graph" transform="scale(1 1) rotate(0) translate(4 316)">
<title>chapter04</title>
<polygon fill="white" stroke="transparent" points="-4,4 -4,-316 413,-316 413,4 -4,4"/>
<g id="clust1" class="cluster">
<title>cluster_Nodes</title>
<polygon fill="none" stroke="black" points="8,-8 8,-304 193,-304 193,-8 8,-8"/>
</g>
<g id="clust2" class="cluster">
<title>cluster_Scope1_0</title>
<polygon fill="none" stroke="black" points="201,-144 201,-212 401,-212 401,-144 201,-144"/>
</g>
<g id="clust3" class="cluster">
<title>cluster_Scope1_1</title>
<polygon fill="none" stroke="black" points="323,-152 323,-204 393,-204 393,-152 323,-152"/>
</g>
<!-- Start2 -->
<g id="node1" class="node">
<title>Start2</title>
<polygon fill="yellow" stroke="transparent" points="97,-267 97,-292 178,-292 178,-267 97,-267"/>
<polygon fill="none" stroke="black" points="97,-267 97,-292 178,-292 178,-267 97,-267"/>
<text text-anchor="start" x="119" y="-275.8" font-family="Times,serif" font-size="14.00">Start</text>
<polygon fill="none" stroke="black" points="97,-236 97,-267 178,-267 178,-236 97,-236"/>
<polygon fill="yellow" stroke="transparent" points="102,-241 102,-262 142,-262 142,-241 102,-241"/>
<polygon fill="none" stroke="black" points="102,-241 102,-262 142,-262 142,-241 102,-241"/>
<text text-anchor="start" x="105" y="-247.8" font-family="Times,serif" font-size="14.00">$ctrl</text>
<polygon fill="none" stroke="black" points="142,-241 142,-262 173,-262 173,-241 142,-241"/>
<text text-anchor="start" x="145" y="-247.8" font-family="Times,serif" font-size="14.00">arg</text>
</g>
<!-- Con_5 -->
<g id="node2" class="node">
<title>Con_5</title>
<ellipse fill="none" stroke="black" cx="115" cy="-178" rx="27" ry="18"/>
<text text-anchor="middle" x="115" y="-174.3" font-family="Times,serif" font-size="14.00">#1</text>
</g>
<!-- Con_6 -->
<g id="node3" class="node">
<title>Con_6</title>
<ellipse fill="none" stroke="black" cx="43" cy="-264" rx="27" ry="18"/>
<text text-anchor="middle" x="43" y="-260.3" font-family="Times,serif" font-size="14.00">#2</text>
</g>
<!-- Add7 -->
<g id="node4" class="node">
<title>Add7</title>
<ellipse fill="none" stroke="black" cx="43" cy="-178" rx="27" ry="18"/>
<text text-anchor="middle" x="43" y="-174.3" font-family="Times,serif" font-size="14.00">+</text>
</g>
<!-- Add7&#45;&gt;Start2 -->
<g id="edge1" class="edge">
<title>Add7&#45;&gt;Start2:p1</title>
<path fill="none" stroke="black" d="M56.63,-193.93C62.95,-200.18 70.86,-207.11 79,-212 107.43,-229.09 147.88,-208.4 156.39,-229.99"/>
<polygon fill="black" stroke="black" points="152.96,-230.68 158,-240 159.87,-229.57 152.96,-230.68"/>
<text text-anchor="middle" x="53.63" y="-196.53" font-family="Helvetica,sans-Serif" font-size="8.00">1</text>
</g>
<!-- Add7&#45;&gt;Con_6 -->
<g id="edge2" class="edge">
<title>Add7&#45;&gt;Con_6</title>
<path fill="none" stroke="black" d="M43,-196.4C43,-207.74 43,-222.77 43,-235.68"/>
<polygon fill="black" stroke="black" points="39.5,-235.9 43,-245.9 46.5,-235.9 39.5,-235.9"/>
<text text-anchor="middle" x="40" y="-199" font-family="Helvetica,sans-Serif" font-size="8.00">2</text>
</g>
<!-- Add8 -->
<g id="node5" class="node">
<title>Add8</title>
<ellipse fill="none" stroke="black" cx="115" cy="-106" rx="27" ry="18"/>
<text text-anchor="middle" x="115" y="-102.3" font-family="Times,serif" font-size="14.00">+</text>
</g>
<!-- Add8&#45;&gt;Con_5 -->
<g id="edge3" class="edge">
<title>Add8&#45;&gt;Con_5</title>
<path fill="none" stroke="black" d="M115,-124.3C115,-132.02 115,-141.29 115,-149.89"/>
<polygon fill="black" stroke="black" points="111.5,-149.9 115,-159.9 118.5,-149.9 111.5,-149.9"/>
<text text-anchor="middle" x="112" y="-126.9" font-family="Helvetica,sans-Serif" font-size="8.00">1</text>
</g>
<!-- Add8&#45;&gt;Add7 -->
<g id="edge4" class="edge">
<title>Add8&#45;&gt;Add7</title>
<path fill="none" stroke="black" d="M100.43,-121.17C90.25,-131.06 76.48,-144.45 64.97,-155.64"/>
<polygon fill="black" stroke="black" points="62.53,-153.13 57.8,-162.62 67.41,-158.15 62.53,-153.13"/>
<text text-anchor="middle" x="97.43" y="-123.77" font-family="Helvetica,sans-Serif" font-size="8.00">2</text>
</g>
<!-- Return9 -->
<g id="node6" class="node">
<title>Return9</title>
<polygon fill="yellow" stroke="black" points="166,-52 100,-52 100,-16 166,-16 166,-52"/>
<text text-anchor="middle" x="133" y="-30.3" font-family="Times,serif" font-size="14.00">Return</text>
</g>
<!-- Return9&#45;&gt;Start2 -->
<g id="edge5" class="edge">
<title>Return9&#45;&gt;Start2:p0</title>
<path fill="none" stroke="red" d="M140.48,-52.3C144.47,-62.48 148.97,-75.73 151,-88 159.98,-142.37 172.54,-161.27 151,-212 145.75,-224.37 132.06,-223.86 125.55,-230.39"/>
<polygon fill="red" stroke="red" points="122.18,-229.41 122,-240 128.74,-231.83 122.18,-229.41"/>
<text text-anchor="middle" x="137.48" y="-54.9" font-family="Helvetica,sans-Serif" font-size="8.00">0</text>
</g>
<!-- Return9&#45;&gt;Add8 -->
<g id="edge6" class="edge">
<title>Return9&#45;&gt;Add8</title>
<path fill="none" stroke="black" d="M128.55,-52.3C126.55,-60.1 124.13,-69.49 121.9,-78.17"/>
<polygon fill="black" stroke="black" points="118.5,-77.34 119.4,-87.9 125.28,-79.08 118.5,-77.34"/>
<text text-anchor="middle" x="125.55" y="-54.9" font-family="Helvetica,sans-Serif" font-size="8.00">1</text>
</g>
<!-- Scope1_0 -->
<g id="node7" class="node">
<title>Scope1_0</title>
<polygon fill="cyan" stroke="transparent" points="218,-167 218,-188 234,-188 234,-167 218,-167"/>
<polygon fill="none" stroke="black" points="218,-167 218,-188 234,-188 234,-167 218,-167"/>
<text text-anchor="start" x="221" y="-173.8" font-family="Times,serif" font-size="14.00">0</text>
<polygon fill="none" stroke="black" points="234,-167 234,-188 274,-188 274,-167 234,-167"/>
<text text-anchor="start" x="237" y="-173.8" font-family="Times,serif" font-size="14.00">$ctrl</text>
<polygon fill="none" stroke="black" points="274,-167 274,-188 305,-188 305,-167 274,-167"/>
<text text-anchor="start" x="277" y="-173.8" font-family="Times,serif" font-size="14.00">arg</text>
</g>
<!-- Scope1_0&#45;&gt;Start2 -->
<g id="edge7" class="edge">
<title>Scope1_0:Scope1_0_arg&#45;&gt;Start2:p1</title>
<path fill="none" stroke="cornflowerblue" stroke-dasharray="5,2" d="M290,-189C290,-244.03 239,-250.4 184.25,-250.95"/>
<polygon fill="cornflowerblue" stroke="cornflowerblue" points="183.98,-247.45 174,-251 184.02,-254.45 183.98,-247.45"/>
</g>
<!-- Scope1_1 -->
<g id="node8" class="node">
<title>Scope1_1</title>
<polygon fill="cyan" stroke="transparent" points="350,-167 350,-188 366,-188 366,-167 350,-167"/>
<polygon fill="none" stroke="black" points="350,-167 350,-188 366,-188 366,-167 350,-167"/>
<text text-anchor="start" x="353" y="-173.8" font-family="Times,serif" font-size="14.00">1</text>
</g>
</g>
</svg>
