<svg width="744" height="579" viewBox="0 0 558 434.25" xmlns="http://www.w3.org/2000/svg"
>
    <g id="graph0" class="graph" transform="translate(207,293.2249984741211) scale(1)">
        <title>Lattice</title>
        <polygon fill="white" stroke="transparent" points="-4,4 -4,-193.73 308.61,-193.73 308.61,4 -4,4"/>
        <!-- T -->
        <g id="node1" class="node">
            <title>Top</title>
            <ellipse fill="lightblue" stroke="black" cx="148.31" cy="-171.45" rx="18.06" ry="18.06"/>
            <text text-anchor="middle" x="148.31" y="-167.25" font-family="Times,serif" font-size="14.00">⊤</text>
        </g>
        <!-- A -->
        <g id="node3" class="node">
            <title>A</title>
            <ellipse fill="lightblue" stroke="black" cx="22.31" cy="-94.86" rx="22.11" ry="22.11"/>
            <text text-anchor="middle" x="22.31" y="-90.66" font-family="Times,serif" font-size="14.00">C1</text>
        </g>
        <g id="node2" class="node">
            <title>Bottom</title>
            <ellipse fill="lightblue" stroke="black" cx="148.31" cy="-18.28" rx="18.06" ry="18.06"/>
            <text text-anchor="middle" x="148.31" y="-14.08" font-family="Times,serif" font-size="14.00">⊥</text>
        </g>
        <!-- T&#45;&gt;A -->
        <g id="edge1" class="edge">
            <title>Top-&gt;A</title>
            <path fill="none" stroke="black"
                  d="M132.47,-161.93C113.62,-151.68 81.31,-133.78 54.31,-117.17 49.76,-114.37 44.93,-111.24 40.44,-108.26"/>
        </g>
        <!-- C -->
        <g id="node4" class="node">
            <title>C</title>
            <ellipse fill="lightblue" stroke="black" cx="85.31" cy="-94.86" rx="22.11" ry="22.11"/>
            <text text-anchor="middle" x="85.31" y="-90.66" font-family="Times,serif" font-size="14.00">C2</text>
        </g>
        <!-- T&#45;&gt;C -->
        <g id="edge2" class="edge">
            <title>Top-&gt;C</title>
            <path fill="none" stroke="black" d="M136.75,-156.77C126.17,-144.24 110.47,-125.66 99.21,-112.32"/>
        </g>
        <!-- D -->
        <g id="node5" class="node">
            <title>D</title>
            <ellipse fill="lightblue" stroke="black" cx="148.31" cy="-94.86" rx="22.11" ry="22.11"/>
            <text text-anchor="middle" x="148.31" y="-90.66" font-family="Times,serif" font-size="14.00">C3</text>
        </g>
        <!-- T&#45;&gt;D -->
        <g id="edge3" class="edge">
            <title>Top-&gt;D</title>
            <path fill="none" stroke="black" d="M148.31,-153.15C148.31,-142.48 148.31,-128.7 148.31,-117.34"/>
        </g>
        <!-- B -->

        <!-- A&#45;&gt;B -->
        <g id="edge6" class="edge">
            <title>A-&gt;Bottom</title>
            <path fill="none" stroke="black"
                  d="M40.44,-81.47C44.93,-78.49 49.76,-75.36 54.31,-72.56 81.31,-55.95 113.62,-38.05 132.47,-27.8"/>
        </g>
        <g id="edge4" class="edge">
            <title>Top-&gt;E</title>
            <path fill="none" stroke="black" d="M160.28,-157.12C171.35,-144.8 187.85,-126.43 199.89,-113.02"/>
        </g>
        <!-- C&#45;&gt;B -->
        <g id="edge7" class="edge">
            <title>C-&gt;Bottom</title>
            <path fill="none" stroke="black" d="M99.29,-77.31C110.6,-63.92 126.33,-45.3 136.89,-32.8"/>
        </g>
        <!-- D&#45;&gt;B -->
        <!-- D&#45;&gt;Bottom -->
        <g id="edge8" class="edge">
            <title>D-&gt;Bottom</title>
            <path fill="none" stroke="black" d="M148.31,-72.29C148.31,-61.11 148.31,-47.61 148.31,-37.03"/>
        </g>
        <g id="edge5" class="edge">
            <title>Top-&gt;F</title>
            <path fill="none" stroke="black"
                  d="M164.7,-162.75C185.32,-152.9 221.6,-134.97 251.31,-117.17 255.68,-114.55 260.26,-111.55 264.52,-108.65"/>
        </g>
        <!-- E -->
        <g id="node6" class="node">
            <title>E</title>

            <text text-anchor="middle" x="215.31" y="-90.66" font-family="Times,serif" font-size="14.00">...</text>
        </g>

        <!-- E&#45;&gt;A -->
        <g id="edge9" class="edge">
            <title>E-&gt;Bottom</title>
            <path fill="none" stroke="black" d="M199.77,-76.57C187.71,-63.14 171.23,-44.8 160.21,-32.53"/>
        </g>
        <!-- F -->
        <!-- F -->
        <g id="node7" class="node">
            <title>F</title>
            <ellipse fill="lightblue" stroke="black" cx="282.31" cy="-94.86" rx="22.11" ry="22.11"/>
            <text text-anchor="middle" x="282.31" y="-90.66" font-family="Times,serif" font-size="14.00">Cn</text>
        </g>

        <!-- B -->
        <g id="edge10" class="edge">
            <title>F-&gt;Bottom</title>
            <path fill="none" stroke="black"
                  d="M264.52,-81.08C260.26,-78.18 255.68,-75.18 251.31,-72.56 221.6,-54.76 185.32,-36.83 164.7,-26.98"/>
        </g>
    </g>
</svg>