<?xml version="1.0" encoding="UTF-8" standalone="no"?>
<!DOCTYPE svg PUBLIC "-//W3C//DTD SVG 1.1//EN"
        "http://www.w3.org/Graphics/SVG/1.1/DTD/svg11.dtd">
<!-- Generated by graphviz version 2.43.0 (0)
 -->
<!-- Title: chapter02 Pages: 1 -->
<svg width="703pt" height="188pt"
     viewBox="0.00 0.00 703.45 188.00" xmlns="http://www.w3.org/2000/svg">
    <g id="graph0" class="graph" transform="scale(1 1) rotate(0) translate(4 184)">
        <title>chapter02</title>
        <polygon fill="white" stroke="transparent" points="-4,4 -4,-184 699.45,-184 699.45,4 -4,4"/>
        <!-- Start1 -->
        <g id="node1" class="node">
            <title>Start1</title>
            <polygon fill="none" stroke="black" points="409.45,-180 355.45,-180 355.45,-144 409.45,-144 409.45,-180"/>
            <text text-anchor="middle" x="382.45" y="-158.3" font-family="Times,serif" font-size="14.00">Start</text>
        </g>
        <!-- Con12 -->
        <g id="node2" class="node">
            <title>Con12</title>
            <ellipse fill="none" stroke="black" cx="34.45" cy="-90" rx="34.39" ry="18"/>
            <text text-anchor="middle" x="34.45" y="-86.3" font-family="Times,serif" font-size="14.00">Con1</text>
        </g>
        <!-- Start1&#45;&gt;Con12 -->
        <g id="edge1" class="edge">
            <title>Start1&#45;&gt;Con12</title>
            <path fill="none" stroke="black" stroke-dasharray="1,5"
                  d="M355.21,-158.07C301.54,-151.9 178.6,-135.79 78.45,-108 75.8,-107.27 73.09,-106.43 70.39,-105.54"/>
            <polygon fill="black" stroke="black" points="71.28,-102.14 60.69,-102.1 68.95,-108.74 71.28,-102.14"/>
        </g>
        <!-- Con23 -->
        <g id="node3" class="node">
            <title>Con23</title>
            <ellipse fill="none" stroke="black" cx="121.45" cy="-90" rx="34.39" ry="18"/>
            <text text-anchor="middle" x="121.45" y="-86.3" font-family="Times,serif" font-size="14.00">Con2</text>
        </g>
        <!-- Start1&#45;&gt;Con23 -->
        <g id="edge2" class="edge">
            <title>Start1&#45;&gt;Con23</title>
            <path fill="none" stroke="black" stroke-dasharray="1,5"
                  d="M355.41,-155.57C314.06,-147.01 232.79,-129.14 165.45,-108 162.83,-107.18 160.14,-106.28 157.44,-105.34"/>
            <polygon fill="black" stroke="black" points="158.37,-101.95 147.78,-101.81 155.97,-108.53 158.37,-101.95"/>
        </g>
        <!-- Con34 -->
        <g id="node4" class="node">
            <title>Con34</title>
            <ellipse fill="none" stroke="black" cx="208.45" cy="-90" rx="34.39" ry="18"/>
            <text text-anchor="middle" x="208.45" y="-86.3" font-family="Times,serif" font-size="14.00">Con3</text>
        </g>
        <!-- Start1&#45;&gt;Con34 -->
        <g id="edge3" class="edge">
            <title>Start1&#45;&gt;Con34</title>
            <path fill="none" stroke="black" stroke-dasharray="1,5"
                  d="M355.26,-150.06C325.33,-138.02 277.11,-118.62 244.15,-105.36"/>
            <polygon fill="black" stroke="black" points="245.46,-102.12 234.87,-101.63 242.84,-108.61 245.46,-102.12"/>
        </g>
        <!-- Con66 -->
        <g id="node5" class="node">
            <title>Con66</title>
            <ellipse fill="none" stroke="black" cx="295.45" cy="-90" rx="34.39" ry="18"/>
            <text text-anchor="middle" x="295.45" y="-86.3" font-family="Times,serif" font-size="14.00">Con6</text>
        </g>
        <!-- Start1&#45;&gt;Con66 -->
        <g id="edge4" class="edge">
            <title>Start1&#45;&gt;Con66</title>
            <path fill="none" stroke="black" stroke-dasharray="1,5"
                  d="M360.94,-143.7C348.97,-134.07 333.99,-122.01 321.37,-111.86"/>
            <polygon fill="black" stroke="black" points="323.46,-109.05 313.48,-105.51 319.08,-114.5 323.46,-109.05"/>
        </g>
        <!-- Con57 -->
        <g id="node6" class="node">
            <title>Con57</title>
            <ellipse fill="none" stroke="black" cx="382.45" cy="-90" rx="34.39" ry="18"/>
            <text text-anchor="middle" x="382.45" y="-86.3" font-family="Times,serif" font-size="14.00">Con5</text>
        </g>
        <!-- Start1&#45;&gt;Con57 -->
        <g id="edge5" class="edge">
            <title>Start1&#45;&gt;Con57</title>
            <path fill="none" stroke="black" stroke-dasharray="1,5"
                  d="M382.45,-143.7C382.45,-135.98 382.45,-126.71 382.45,-118.11"/>
            <polygon fill="black" stroke="black" points="385.95,-118.1 382.45,-108.1 378.95,-118.1 385.95,-118.1"/>
        </g>
        <!-- Con -->
        <g id="node7" class="node">
            <title>Con</title>
            <ellipse fill="none" stroke="black" cx="463.45" cy="-90" rx="28.7" ry="18"/>
            <text text-anchor="middle" x="463.45" y="-86.3" font-family="Times,serif" font-size="14.00">Con</text>
        </g>
        <!-- Start1&#45;&gt;Con -->
        <g id="edge6" class="edge">
            <title>Start1&#45;&gt;Con</title>
            <path fill="none" stroke="black" d="M402.47,-143.7C413.66,-134.03 427.68,-121.91 439.46,-111.73"/>
            <polygon fill="black" stroke="black" points="441.91,-114.24 447.19,-105.05 437.33,-108.94 441.91,-114.24"/>
        </g>
        <!-- Con111 -->
        <g id="node9" class="node">
            <title>Con111</title>
            <ellipse fill="none" stroke="black" cx="544.45" cy="-90" rx="34.39" ry="18"/>
            <text text-anchor="middle" x="544.45" y="-86.3" font-family="Times,serif" font-size="14.00">Con1</text>
        </g>
        <!-- Start1&#45;&gt;Con111 -->
        <g id="edge7" class="edge">
            <title>Start1&#45;&gt;Con111</title>
            <path fill="none" stroke="black" stroke-dasharray="1,5"
                  d="M409.52,-148.06C412.52,-146.67 415.54,-145.3 418.45,-144 448.48,-130.6 482.93,-116.17 508.21,-105.76"/>
            <polygon fill="black" stroke="black" points="509.84,-108.87 517.76,-101.84 507.18,-102.4 509.84,-108.87"/>
        </g>
        <!-- Con213 -->
        <g id="node10" class="node">
            <title>Con213</title>
            <ellipse fill="none" stroke="black" cx="631.45" cy="-90" rx="34.39" ry="18"/>
            <text text-anchor="middle" x="631.45" y="-86.3" font-family="Times,serif" font-size="14.00">Con2</text>
        </g>
        <!-- Start1&#45;&gt;Con213 -->
        <g id="edge8" class="edge">
            <title>Start1&#45;&gt;Con213</title>
            <path fill="none" stroke="black" stroke-dasharray="1,5"
                  d="M409.69,-147.33C412.61,-146.11 415.57,-144.97 418.45,-144 491.21,-119.44 513.84,-129.91 587.45,-108 590.08,-107.22 592.78,-106.35 595.48,-105.43"/>
            <polygon fill="black" stroke="black" points="596.94,-108.62 605.16,-101.94 594.56,-102.04 596.94,-108.62"/>
        </g>
        <!-- Return14 -->
        <g id="node11" class="node">
            <title>Return14</title>
            <polygon fill="none" stroke="black" points="695.45,-36 629.45,-36 629.45,0 695.45,0 695.45,-36"/>
            <text text-anchor="middle" x="662.45" y="-14.3" font-family="Times,serif" font-size="14.00">Return</text>
        </g>
        <!-- Start1&#45;&gt;Return14 -->
        <g id="edge10" class="edge">
            <title>Start1&#45;&gt;Return14</title>
            <path fill="none" stroke="red"
                  d="M409.63,-147.13C412.56,-145.94 415.53,-144.87 418.45,-144 473.49,-127.55 636.76,-151.36 674.45,-108 689.15,-91.09 683.56,-65.11 675.83,-45.58"/>
            <polygon fill="red" stroke="red" points="679,-44.1 671.82,-36.31 672.58,-46.88 679,-44.1"/>
        </g>
        <!-- &#45;59 -->
        <g id="node8" class="node">
            <title>&#45;59</title>
            <ellipse fill="none" stroke="black" stroke-dasharray="1,5" cx="465.45" cy="-162" rx="37.89" ry="18"/>
            <text text-anchor="middle" x="465.45" y="-158.3" font-family="Times,serif" font-size="14.00">Con&#45;5
            </text>
        </g>
        <!-- Con213&#45;&gt;Return14 -->
        <g id="edge9" class="edge">
            <title>Con213&#45;&gt;Return14</title>
            <path fill="none" stroke="black" d="M638.79,-72.41C642.32,-64.45 646.63,-54.72 650.6,-45.76"/>
            <polygon fill="black" stroke="black" points="653.87,-47.01 654.72,-36.45 647.47,-44.17 653.87,-47.01"/>
        </g>
    </g>
</svg>
