<svg width="744" height="579" viewBox="0 0 558 434.25" xmlns="http://www.w3.org/2000/svg"
>
    <g id="graph0" class="graph" transform="translate(302.58770662708355,294.7212692193297) scale(0.37737779585968123)">
        <title>chapter02</title>
        <polygon fill="white" stroke="transparent" points="-4,4 -4,-184 657.01,-184 657.01,4 -4,4"/>
        <!-- Start1 -->
        <g id="node1" class="node">
            <title>Start1</title>
            <polygon fill="none" stroke="black" points="386.96,-180 332.96,-180 332.96,-144 386.96,-144 386.96,-180"/>
            <text text-anchor="middle" x="359.96" y="-157.8" font-family="Times,serif" font-size="14.00">Start</text>
        </g>
        <!-- Con12 -->
        <g id="node2" class="node">
            <title>Con12</title>
            <ellipse fill="none" stroke="black" cx="31.96" cy="-90" rx="31.93" ry="18"/>
            <text text-anchor="middle" x="31.96" y="-85.8" font-family="Times,serif" font-size="14.00">Con1</text>
        </g>
        <!-- Start1&#45;&gt;Con12 -->
        <g id="edge1" class="edge">
            <title>Start1-&gt;Con12</title>
            <path fill="none" stroke="black" stroke-dasharray="1,5"
                  d="M332.61,-157.9C281.04,-151.62 166.25,-135.62 72.96,-108 70.51,-107.27 68,-106.45 65.49,-105.56"/>
            <polygon fill="black" stroke="black" points="66.53,-102.21 55.94,-101.93 64.04,-108.76 66.53,-102.21"/>
        </g>
        <!-- Con23 -->
        <g id="node3" class="node">
            <title>Con23</title>
            <ellipse fill="none" stroke="black" cx="113.96" cy="-90" rx="31.93" ry="18"/>
            <text text-anchor="middle" x="113.96" y="-85.8" font-family="Times,serif" font-size="14.00">Con2</text>
        </g>
        <!-- Start1&#45;&gt;Con23 -->
        <g id="edge2" class="edge">
            <title>Start1-&gt;Con23</title>
            <path fill="none" stroke="black" stroke-dasharray="1,5"
                  d="M332.75,-155.24C293.15,-146.58 217.54,-128.95 154.96,-108 152.68,-107.24 150.35,-106.41 148.01,-105.54"/>
            <polygon fill="black" stroke="black" points="149.06,-102.19 138.47,-101.82 146.51,-108.71 149.06,-102.19"/>
        </g>
        <!-- Con34 -->
        <g id="node4" class="node">
            <title>Con34</title>
            <ellipse fill="none" stroke="black" cx="195.96" cy="-90" rx="31.93" ry="18"/>
            <text text-anchor="middle" x="195.96" y="-85.8" font-family="Times,serif" font-size="14.00">Con3</text>
        </g>
        <!-- Start1&#45;&gt;Con34 -->
        <g id="edge3" class="edge">
            <title>Start1-&gt;Con34</title>
            <path fill="none" stroke="black" stroke-dasharray="1,5"
                  d="M332.88,-149.44C304.72,-137.42 260.58,-118.58 230.06,-105.55"/>
            <polygon fill="black" stroke="black" points="231.24,-102.25 220.67,-101.54 228.49,-108.69 231.24,-102.25"/>
        </g>
        <!-- Con66 -->
        <g id="node5" class="node">
            <title>Con66</title>
            <ellipse fill="none" stroke="black" cx="277.96" cy="-90" rx="31.93" ry="18"/>
            <text text-anchor="middle" x="277.96" y="-85.8" font-family="Times,serif" font-size="14.00">Con6</text>
        </g>
        <!-- Start1&#45;&gt;Con66 -->
        <g id="edge4" class="edge">
            <title>Start1-&gt;Con66</title>
            <path fill="none" stroke="black" stroke-dasharray="1,5"
                  d="M339.69,-143.7C328.52,-134.16 314.56,-122.24 302.74,-112.15"/>
            <polygon fill="black" stroke="black" points="304.84,-109.34 294.96,-105.51 300.29,-114.66 304.84,-109.34"/>
        </g>
        <!-- Con57 -->
        <g id="node6" class="node">
            <title>Con57</title>
            <ellipse fill="none" stroke="black" cx="359.96" cy="-90" rx="31.93" ry="18"/>
            <text text-anchor="middle" x="359.96" y="-85.8" font-family="Times,serif" font-size="14.00">Con5</text>
        </g>
        <!-- Start1&#45;&gt;Con57 -->
        <g id="edge5" class="edge">
            <title>Start1-&gt;Con57</title>
            <path fill="none" stroke="black" stroke-dasharray="1,5"
                  d="M359.96,-143.7C359.96,-135.98 359.96,-126.71 359.96,-118.11"/>
            <polygon fill="black" stroke="black" points="363.46,-118.1 359.96,-108.1 356.46,-118.1 363.46,-118.1"/>
        </g>
        <!-- Con -->
        <g id="node7" class="node">
            <title>Con</title>
            <ellipse fill="none" stroke="black" cx="436.96" cy="-90" rx="27.27" ry="18"/>
            <text text-anchor="middle" x="436.96" y="-85.8" font-family="Times,serif" font-size="14.00">Con</text>
        </g>
        <!-- Start1&#45;&gt;Con -->
        <g id="edge6" class="edge">
            <title>Start1-&gt;Con</title>
            <path fill="none" stroke="black" d="M379,-143.7C389.46,-134.18 402.53,-122.3 413.61,-112.23"/>
            <polygon fill="black" stroke="black" points="416.21,-114.6 421.26,-105.28 411.5,-109.42 416.21,-114.6"/>
        </g>
        <!-- Con111 -->
        <g id="node9" class="node">
            <title>Con111</title>
            <ellipse fill="none" stroke="black" cx="513.96" cy="-90" rx="31.93" ry="18"/>
            <text text-anchor="middle" x="513.96" y="-85.8" font-family="Times,serif" font-size="14.00">Con1</text>
        </g>
        <!-- Start1&#45;&gt;Con111 -->
        <g id="edge7" class="edge">
            <title>Start1-&gt;Con111</title>
            <path fill="none" stroke="black" stroke-dasharray="1,5"
                  d="M387.06,-148.13C390.06,-146.73 393.08,-145.33 395.96,-144 424.29,-130.95 456.61,-116.46 480.25,-105.94"/>
            <polygon fill="black" stroke="black" points="481.78,-109.09 489.49,-101.83 478.93,-102.69 481.78,-109.09"/>
        </g>
        <!-- Con213 -->
        <g id="node10" class="node">
            <title>Con213</title>
            <ellipse fill="none" stroke="black" cx="595.96" cy="-90" rx="31.93" ry="18"/>
            <text text-anchor="middle" x="595.96" y="-85.8" font-family="Times,serif" font-size="14.00">Con2</text>
        </g>
        <!-- Start1&#45;&gt;Con213 -->
        <g id="edge8" class="edge">
            <title>Start1-&gt;Con213</title>
            <path fill="none" stroke="black" stroke-dasharray="1,5"
                  d="M387.22,-147.37C390.14,-146.14 393.09,-144.99 395.96,-144 464.46,-120.39 485.91,-129.96 554.96,-108 557.26,-107.27 559.6,-106.47 561.95,-105.62"/>
            <polygon fill="black" stroke="black" points="563.42,-108.8 571.5,-101.94 560.91,-102.27 563.42,-108.8"/>
        </g>
        <!-- Return14 -->
        <g id="node11" class="node">
            <title>Return14</title>
            <polygon fill="none" stroke="black" points="653.07,-36 598.86,-36 598.86,0 653.07,0 653.07,-36"/>
            <text text-anchor="middle" x="625.96" y="-13.8" font-family="Times,serif" font-size="14.00">Return</text>
        </g>
        <!-- Start1&#45;&gt;Return14 -->
        <g id="edge10" class="edge">
            <title>Start1-&gt;Return14</title>
            <path fill="none" stroke="red"
                  d="M387.15,-147.15C390.08,-145.97 393.05,-144.88 395.96,-144 447.78,-128.27 601.61,-149.02 636.96,-108 651.57,-91.05 646.31,-65.08 638.88,-45.56"/>
            <polygon fill="red" stroke="red" points="642.1,-44.18 635.02,-36.3 635.64,-46.87 642.1,-44.18"/>
        </g>
        <!-- &#45;59 -->
        <g id="node8" class="node">
            <title>-59</title>
            <ellipse fill="none" stroke="black" stroke-dasharray="1,5" cx="439.96" cy="-162" rx="35.36" ry="18"/>
            <text text-anchor="middle" x="439.96" y="-157.8" font-family="Times,serif" font-size="14.00">Con-5</text>
        </g>
        <!-- Con213&#45;&gt;Return14 -->
        <g id="edge9" class="edge">
            <title>Con213-&gt;Return14</title>
            <path fill="none" stroke="black" d="M603.07,-72.41C606.48,-64.45 610.65,-54.72 614.5,-45.76"/>
            <polygon fill="black" stroke="black" points="617.76,-47.02 618.49,-36.45 611.33,-44.26 617.76,-47.02"/>
        </g>
    </g>
</svg>