<?xml version="1.0" encoding="UTF-8" standalone="no"?>
<!DOCTYPE svg PUBLIC "-//W3C//DTD SVG 1.1//EN"
 "http://www.w3.org/Graphics/SVG/1.1/DTD/svg11.dtd">
<!-- Generated by graphviz version 2.43.0 (0)
 -->
<!-- Title: chapter02 Pages: 1 -->
<svg width="128pt" height="220pt"
 viewBox="0.00 0.00 128.00 220.00" xmlns="http://www.w3.org/2000/svg" xmlns:xlink="http://www.w3.org/1999/xlink">
<g id="graph0" class="graph" transform="scale(1 1) rotate(0) translate(4 216)">
<title>chapter02</title>
<polygon fill="white" stroke="transparent" points="-4,4 -4,-216 124,-216 124,4 -4,4"/>
<g id="clust1" class="cluster">
<title>cluster_Nodes</title>
<polygon fill="none" stroke="black" points="8,-8 8,-204 112,-204 112,-8 8,-8"/>
</g>
<!-- Start1 -->
<g id="node1" class="node">
<title>Start1</title>
<polygon fill="yellow" stroke="black" points="83,-196 29,-196 29,-160 83,-160 83,-196"/>
<text text-anchor="middle" x="56" y="-174.3" font-family="Times,serif" font-size="14.00">Start</text>
</g>
<!-- Con213 -->
<g id="node2" class="node">
<title>Con213</title>
<ellipse fill="none" stroke="black" cx="70" cy="-106" rx="34.39" ry="18"/>
<text text-anchor="middle" x="70" y="-102.3" font-family="Times,serif" font-size="14.00">Con2</text>
</g>
<!-- Con213&#45;&gt;Start1 -->
<g id="edge1" class="edge">
<title>Con213&#45;&gt;Start1</title>
<path fill="none" stroke="black" stroke-dasharray="1,5" d="M66.61,-123.95C65.07,-131.65 63.21,-140.97 61.47,-149.64"/>
<polygon fill="black" stroke="black" points="57.98,-149.23 59.46,-159.72 64.85,-150.61 57.98,-149.23"/>
</g>
<!-- Return14 -->
<g id="node3" class="node">
<title>Return14</title>
<polygon fill="yellow" stroke="black" points="92,-52 26,-52 26,-16 92,-16 92,-52"/>
<text text-anchor="middle" x="59" y="-30.3" font-family="Times,serif" font-size="14.00">Return</text>
</g>
<!-- Return14&#45;&gt;Start1 -->
<g id="edge2" class="edge">
<title>Return14&#45;&gt;Start1</title>
<path fill="none" stroke="red" d="M45.44,-52.03C38.44,-61.91 30.63,-74.95 27,-88 22.71,-103.41 23.04,-108.5 27,-124 29.38,-133.3 33.76,-142.73 38.42,-151"/>
<polygon fill="red" stroke="red" points="35.54,-153.01 43.69,-159.78 41.54,-149.41 35.54,-153.01"/>
</g>
<!-- Return14&#45;&gt;Con213 -->
<g id="edge3" class="edge">
<title>Return14&#45;&gt;Con213</title>
<path fill="none" stroke="black" d="M61.72,-52.3C62.93,-60.02 64.39,-69.29 65.74,-77.89"/>
<polygon fill="black" stroke="black" points="62.3,-78.56 67.31,-87.9 69.22,-77.47 62.3,-78.56"/>
</g>
</g>
</svg>
