<svg width="1696" height="1155" viewBox="0 0 1272 866.25" xmlns="http://www.w3.org/2000/svg"
>
    <g id="graph0" class="graph" transform="translate(61.11500549316406, 415.125)">
        <title>chapter01</title>
        <polygon fill="white" stroke="transparent" points="-4,4 -4,-400 439.77,-400 439.77,4 -4,4"/>
        <!-- Constant2 -->
        <g id="node2" class="node">
            <title>Constant2</title>
            <ellipse fill="none" stroke="black" cx="52.62" cy="-234" rx="52.73" ry="18"/>
            <text text-anchor="middle" x="52.62" y="-229.8" font-family="Times,serif" font-size="14.00">Constant 1
            </text>
        </g>
        <!-- Add6 -->
        <g id="node6" class="node">
            <title>Add6</title>
            <ellipse fill="none" stroke="black" cx="203.62" cy="-162" rx="27.84" ry="18"/>
            <text text-anchor="middle" x="203.62" y="-157.8" font-family="Times,serif" font-size="14.00">Add</text>
        </g>
        <!-- Constant2&#45;&gt;Add6 -->
        <g id="edge6" class="edge">
            <title>Constant2-&gt;Add6</title>
            <path fill="none" stroke="black" d="M82.45,-219.17C108.48,-207.1 146.1,-189.66 172.5,-177.43"/>
            <polygon fill="black" stroke="black" points="174.07,-180.55 181.67,-173.17 171.13,-174.2 174.07,-180.55"/>
        </g>
        <!-- Start1 -->
        <g id="node1" class="node">
            <title>Start1</title>
            <polygon fill="none" stroke="black" points="256.62,-396 202.62,-396 202.62,-360 256.62,-360 256.62,-396"/>
            <text text-anchor="middle" x="229.62" y="-373.8" font-family="Times,serif" font-size="14.00">Start</text>
        </g>
        <!-- Start1&#45;&gt;Constant2 -->
        <g id="edge1" class="edge">
            <title>Start1-&gt;Constant2</title>
            <path fill="none" stroke="black"
                  d="M202.51,-373.25C155.89,-366.17 63.67,-349.28 44.62,-324 31.32,-306.36 35.29,-280.8 41.43,-261.6"
                  stroke-dasharray="1,5"/>
            <polygon fill="black" stroke="black" points="44.81,-262.54 44.87,-251.94 38.22,-260.19 44.81,-262.54"/>
        </g>
        <!-- Constant3 -->
        <g id="node3" class="node">
            <title>Constant3</title>
            <ellipse fill="none" stroke="black" cx="106.62" cy="-306" rx="52.73" ry="18"/>
            <text text-anchor="middle" x="106.62" y="-301.8" font-family="Times,serif" font-size="14.00">Constant 2
            </text>
        </g>
        <!-- Start1&#45;&gt;Constant3 -->
        <g id="edge2" class="edge">
            <title>Start1-&gt;Constant3</title>
            <path fill="none" stroke="black" d="M202.32,-361.46C184.36,-351.24 160.68,-337.77 141.38,-326.78"
                  stroke-dasharray="1,5"/>
            <polygon fill="black" stroke="black" points="143,-323.68 132.57,-321.77 139.53,-329.76 143,-323.68"/>
        </g>
        <!-- Constant4 -->
        <g id="node4" class="node">
            <title>Constant4</title>
            <ellipse fill="none" stroke="black" cx="229.62" cy="-306" rx="52.73" ry="18"/>
            <text text-anchor="middle" x="229.62" y="-301.8" font-family="Times,serif" font-size="14.00">Constant 3
            </text>
        </g>
        <!-- Start1&#45;&gt;Constant4 -->
        <g id="edge3" class="edge">
            <title>Start1-&gt;Constant4</title>
            <path fill="none" stroke="black" d="M229.62,-359.7C229.62,-351.98 229.62,-342.71 229.62,-334.11"
                  stroke-dasharray="1,5"/>
            <polygon fill="black" stroke="black" points="233.12,-334.1 229.62,-324.1 226.12,-334.1 233.12,-334.1"/>
        </g>
        <!-- Constant7 -->
        <g id="node7" class="node">
            <title>Constant7</title>
            <ellipse fill="none" stroke="black" cx="352.62" cy="-306" rx="52.73" ry="18"/>
            <text text-anchor="middle" x="352.62" y="-301.8" font-family="Times,serif" font-size="14.00">Constant 5
            </text>
        </g>
        <!-- Start1&#45;&gt;Constant7 -->
        <g id="edge8" class="edge">
            <title>Start1-&gt;Constant7</title>
            <path fill="none" stroke="black" d="M256.91,-361.46C274.88,-351.24 298.55,-337.77 317.85,-326.78"
                  stroke-dasharray="1,5"/>
            <polygon fill="black" stroke="black" points="319.7,-329.76 326.66,-321.77 316.24,-323.68 319.7,-329.76"/>
        </g>
        <!-- Return10 -->
        <g id="node10" class="node">
            <title>Return10</title>
            <polygon fill="none" stroke="black" points="416.72,-36 362.51,-36 362.51,0 416.72,0 416.72,-36"/>
            <text text-anchor="middle" x="389.62" y="-13.8" font-family="Times,serif" font-size="14.00">Return</text>
        </g>
        <!-- Start1&#45;&gt;Return10 -->
        <g id="edge13" class="edge">
            <title>Start1-&gt;Return10</title>
            <path fill="none" stroke="red"
                  d="M256.65,-377.42C297.12,-376.48 373.12,-368.45 414.62,-324 442.22,-294.43 433.62,-275.45 433.62,-235 433.62,-235 433.62,-235 433.62,-161 433.62,-119.21 416.02,-73.48 403.08,-45.51"/>
            <polygon fill="red" stroke="red" points="406.19,-43.92 398.73,-36.39 399.88,-46.93 406.19,-43.92"/>
        </g>
        <!-- Mul5 -->
        <g id="node5" class="node">
            <title>Mul5</title>
            <ellipse fill="none" stroke="black" cx="203.62" cy="-234" rx="27.27" ry="18"/>
            <text text-anchor="middle" x="203.62" y="-229.8" font-family="Times,serif" font-size="14.00">Mul</text>
        </g>
        <!-- Constant3&#45;&gt;Mul5 -->
        <g id="edge4" class="edge">
            <title>Constant3-&gt;Mul5</title>
            <path fill="none" stroke="black" d="M128.14,-289.46C142.74,-278.93 162.12,-264.94 177.59,-253.78"/>
            <polygon fill="black" stroke="black" points="179.66,-256.6 185.72,-247.91 175.57,-250.93 179.66,-256.6"/>
        </g>
        <!-- Constant4&#45;&gt;Mul5 -->
        <g id="edge5" class="edge">
            <title>Constant4-&gt;Mul5</title>
            <path fill="none" stroke="black" d="M223.32,-288.05C220.35,-280.06 216.74,-270.33 213.42,-261.4"/>
            <polygon fill="black" stroke="black" points="216.61,-259.94 209.85,-251.79 210.05,-262.38 216.61,-259.94"/>
        </g>
        <!-- Mul5&#45;&gt;Add6 -->
        <g id="edge7" class="edge">
            <title>Mul5-&gt;Add6</title>
            <path fill="none" stroke="black" d="M203.62,-215.7C203.62,-207.98 203.62,-198.71 203.62,-190.11"/>
            <polygon fill="black" stroke="black" points="207.12,-190.1 203.62,-180.1 200.12,-190.1 207.12,-190.1"/>
        </g>
        <!-- Add9 -->
        <g id="node9" class="node">
            <title>Add9</title>
            <ellipse fill="none" stroke="black" cx="345.62" cy="-90" rx="27.84" ry="18"/>
            <text text-anchor="middle" x="345.62" y="-85.8" font-family="Times,serif" font-size="14.00">Add</text>
        </g>
        <!-- Add6&#45;&gt;Add9 -->
        <g id="edge10" class="edge">
            <title>Add6-&gt;Add9</title>
            <path fill="none" stroke="black" d="M225.18,-150.37C249.2,-138.53 288.19,-119.31 315.27,-105.96"/>
            <polygon fill="black" stroke="black" points="316.89,-109.06 324.31,-101.5 313.79,-102.78 316.89,-109.06"/>
        </g>
        <!-- UnaryMinus8 -->
        <g id="node8" class="node">
            <title>UnaryMinus8</title>
            <ellipse fill="none" stroke="black" cx="345.62" cy="-162" rx="59.71" ry="18"/>
            <text text-anchor="middle" x="345.62" y="-157.8" font-family="Times,serif" font-size="14.00">UnaryMinus
            </text>
        </g>
        <!-- Constant7&#45;&gt;UnaryMinus8 -->
        <g id="edge9" class="edge">
            <title>Constant7-&gt;UnaryMinus8</title>
            <path fill="none" stroke="black" d="M351.77,-287.87C350.58,-263.67 348.39,-219.21 346.97,-190.39"/>
            <polygon fill="black" stroke="black" points="350.45,-190 346.46,-180.19 343.46,-190.35 350.45,-190"/>
        </g>
        <!-- UnaryMinus8&#45;&gt;Add9 -->
        <g id="edge11" class="edge">
            <title>UnaryMinus8-&gt;Add9</title>
            <path fill="none" stroke="black" d="M345.62,-143.7C345.62,-135.98 345.62,-126.71 345.62,-118.11"/>
            <polygon fill="black" stroke="black" points="349.12,-118.1 345.62,-108.1 342.12,-118.1 349.12,-118.1"/>
        </g>
        <!-- Add9&#45;&gt;Return10 -->
        <g id="edge12" class="edge">
            <title>Add9-&gt;Return10</title>
            <path fill="none" stroke="rgb(0, 0, 0)" d="M355.6,-73.12C360.83,-64.8 367.36,-54.41 373.3,-44.96"/>
            <polygon fill="black" stroke="black" points="376.39,-46.62 378.75,-36.29 370.46,-42.9 376.39,-46.62"/>
        </g>
    </g>
</svg>