<?xml version="1.0" encoding="UTF-8" standalone="no"?>
<!DOCTYPE svg PUBLIC "-//W3C//DTD SVG 1.1//EN"
 "http://www.w3.org/Graphics/SVG/1.1/DTD/svg11.dtd">
<!-- Generated by graphviz version 2.43.0 (0)
 -->
<!-- Title: chapter02 Pages: 1 -->
<svg width="322pt" height="436pt"
 viewBox="0.00 0.00 322.00 436.00" xmlns="http://www.w3.org/2000/svg" xmlns:xlink="http://www.w3.org/1999/xlink">
<g id="graph0" class="graph" transform="scale(1 1) rotate(0) translate(4 432)">
<title>chapter02</title>
<polygon fill="white" stroke="transparent" points="-4,4 -4,-432 318,-432 318,4 -4,4"/>
<g id="clust1" class="cluster">
<title>cluster_Nodes</title>
<polygon fill="none" stroke="black" points="8,-8 8,-420 306,-420 306,-8 8,-8"/>
</g>
<!-- Start1 -->
<g id="node1" class="node">
<title>Start1</title>
<polygon fill="yellow" stroke="black" points="117,-412 63,-412 63,-376 117,-376 117,-412"/>
<text text-anchor="middle" x="90" y="-390.3" font-family="Times,serif" font-size="14.00">Start</text>
</g>
<!-- Con12 -->
<g id="node2" class="node">
<title>Con12</title>
<ellipse fill="none" stroke="black" cx="70" cy="-178" rx="34.39" ry="18"/>
<text text-anchor="middle" x="70" y="-174.3" font-family="Times,serif" font-size="14.00">Con1</text>
</g>
<!-- Con12&#45;&gt;Start1 -->
<g id="edge1" class="edge">
<title>Con12&#45;&gt;Start1</title>
<path fill="none" stroke="black" stroke-dasharray="1,5" d="M62.43,-195.98C50.2,-225.92 29.16,-289.7 47,-340 50.66,-350.32 57.29,-360.1 64.26,-368.39"/>
<polygon fill="black" stroke="black" points="61.67,-370.74 70.96,-375.84 66.87,-366.06 61.67,-370.74"/>
</g>
<!-- Con23 -->
<g id="node3" class="node">
<title>Con23</title>
<ellipse fill="none" stroke="black" cx="90" cy="-322" rx="34.39" ry="18"/>
<text text-anchor="middle" x="90" y="-318.3" font-family="Times,serif" font-size="14.00">Con2</text>
</g>
<!-- Con23&#45;&gt;Start1 -->
<g id="edge2" class="edge">
<title>Con23&#45;&gt;Start1</title>
<path fill="none" stroke="black" stroke-dasharray="1,5" d="M90,-340.3C90,-348.02 90,-357.29 90,-365.89"/>
<polygon fill="black" stroke="black" points="86.5,-365.9 90,-375.9 93.5,-365.9 86.5,-365.9"/>
</g>
<!-- Con34 -->
<g id="node4" class="node">
<title>Con34</title>
<ellipse fill="none" stroke="black" cx="177" cy="-322" rx="34.39" ry="18"/>
<text text-anchor="middle" x="177" y="-318.3" font-family="Times,serif" font-size="14.00">Con3</text>
</g>
<!-- Con34&#45;&gt;Start1 -->
<g id="edge3" class="edge">
<title>Con34&#45;&gt;Start1</title>
<path fill="none" stroke="black" stroke-dasharray="1,5" d="M158.97,-337.5C147.52,-346.72 132.42,-358.87 119.27,-369.45"/>
<polygon fill="black" stroke="black" points="116.98,-366.8 111.38,-375.8 121.37,-372.25 116.98,-366.8"/>
</g>
<!-- Mul5 -->
<g id="node5" class="node">
<title>Mul5</title>
<ellipse fill="none" stroke="black" cx="161" cy="-250" rx="28.7" ry="18"/>
<text text-anchor="middle" x="161" y="-246.3" font-family="Times,serif" font-size="14.00">Mul</text>
</g>
<!-- Mul5&#45;&gt;Con23 -->
<g id="edge4" class="edge">
<title>Mul5&#45;&gt;Con23</title>
<path fill="none" stroke="black" d="M146.29,-265.5C136.65,-275 123.86,-287.62 112.91,-298.42"/>
<polygon fill="black" stroke="black" points="110.34,-296.03 105.68,-305.54 115.26,-301.02 110.34,-296.03"/>
</g>
<!-- Mul5&#45;&gt;Con34 -->
<g id="edge5" class="edge">
<title>Mul5&#45;&gt;Con34</title>
<path fill="none" stroke="black" d="M164.87,-267.95C166.65,-275.74 168.81,-285.18 170.81,-293.92"/>
<polygon fill="black" stroke="black" points="167.41,-294.76 173.05,-303.72 174.24,-293.2 167.41,-294.76"/>
</g>
<!-- Con56 -->
<g id="node6" class="node">
<title>Con56</title>
<ellipse fill="none" stroke="black" cx="264" cy="-322" rx="34.39" ry="18"/>
<text text-anchor="middle" x="264" y="-318.3" font-family="Times,serif" font-size="14.00">Con5</text>
</g>
<!-- Con56&#45;&gt;Start1 -->
<g id="edge6" class="edge">
<title>Con56&#45;&gt;Start1</title>
<path fill="none" stroke="black" stroke-dasharray="1,5" d="M237.57,-333.63C207.98,-345.54 159.83,-364.91 126.62,-378.27"/>
<polygon fill="black" stroke="black" points="125.22,-375.06 117.25,-382.04 127.83,-381.55 125.22,-375.06"/>
</g>
<!-- Minus7 -->
<g id="node7" class="node">
<title>Minus7</title>
<ellipse fill="none" stroke="black" cx="252" cy="-250" rx="39.79" ry="18"/>
<text text-anchor="middle" x="252" y="-246.3" font-family="Times,serif" font-size="14.00">Minus</text>
</g>
<!-- Minus7&#45;&gt;Con56 -->
<g id="edge7" class="edge">
<title>Minus7&#45;&gt;Con56</title>
<path fill="none" stroke="black" d="M254.97,-268.3C256.29,-276.02 257.88,-285.29 259.35,-293.89"/>
<polygon fill="black" stroke="black" points="255.93,-294.63 261.07,-303.9 262.83,-293.45 255.93,-294.63"/>
</g>
<!-- Add8 -->
<g id="node8" class="node">
<title>Add8</title>
<ellipse fill="none" stroke="black" cx="161" cy="-178" rx="28.7" ry="18"/>
<text text-anchor="middle" x="161" y="-174.3" font-family="Times,serif" font-size="14.00">Add</text>
</g>
<!-- Add8&#45;&gt;Mul5 -->
<g id="edge8" class="edge">
<title>Add8&#45;&gt;Mul5</title>
<path fill="none" stroke="black" d="M161,-196.3C161,-204.02 161,-213.29 161,-221.89"/>
<polygon fill="black" stroke="black" points="157.5,-221.9 161,-231.9 164.5,-221.9 157.5,-221.9"/>
</g>
<!-- Add8&#45;&gt;Minus7 -->
<g id="edge9" class="edge">
<title>Add8&#45;&gt;Minus7</title>
<path fill="none" stroke="black" d="M178.55,-192.5C191.62,-202.55 209.72,-216.48 224.68,-227.99"/>
<polygon fill="black" stroke="black" points="222.56,-230.77 232.62,-234.09 226.83,-225.22 222.56,-230.77"/>
</g>
<!-- Add9 -->
<g id="node9" class="node">
<title>Add9</title>
<ellipse fill="none" stroke="black" cx="70" cy="-106" rx="28.7" ry="18"/>
<text text-anchor="middle" x="70" y="-102.3" font-family="Times,serif" font-size="14.00">Add</text>
</g>
<!-- Add9&#45;&gt;Con12 -->
<g id="edge10" class="edge">
<title>Add9&#45;&gt;Con12</title>
<path fill="none" stroke="black" d="M70,-124.3C70,-132.02 70,-141.29 70,-149.89"/>
<polygon fill="black" stroke="black" points="66.5,-149.9 70,-159.9 73.5,-149.9 66.5,-149.9"/>
</g>
<!-- Add9&#45;&gt;Add8 -->
<g id="edge11" class="edge">
<title>Add9&#45;&gt;Add8</title>
<path fill="none" stroke="black" d="M87.55,-120.5C101.14,-130.96 120.18,-145.6 135.46,-157.35"/>
<polygon fill="black" stroke="black" points="133.45,-160.22 143.51,-163.54 137.72,-154.67 133.45,-160.22"/>
</g>
<!-- Return10 -->
<g id="node10" class="node">
<title>Return10</title>
<polygon fill="yellow" stroke="black" points="92,-52 26,-52 26,-16 92,-16 92,-52"/>
<text text-anchor="middle" x="59" y="-30.3" font-family="Times,serif" font-size="14.00">Return</text>
</g>
<!-- Return10&#45;&gt;Start1 -->
<g id="edge12" class="edge">
<title>Return10&#45;&gt;Start1</title>
<path fill="none" stroke="red" d="M48.61,-52.09C42.9,-62.2 36.15,-75.45 32,-88 19.42,-126.09 17,-136.89 17,-177 17,-177 17,-177 17,-251 17,-291.54 17.45,-304.48 37,-340 42.87,-350.67 51.53,-360.62 60.16,-368.95"/>
<polygon fill="red" stroke="red" points="57.93,-371.65 67.66,-375.84 62.66,-366.5 57.93,-371.65"/>
</g>
<!-- Return10&#45;&gt;Add9 -->
<g id="edge13" class="edge">
<title>Return10&#45;&gt;Add9</title>
<path fill="none" stroke="black" d="M61.72,-52.3C62.93,-60.02 64.39,-69.29 65.74,-77.89"/>
<polygon fill="black" stroke="black" points="62.3,-78.56 67.31,-87.9 69.22,-77.47 62.3,-78.56"/>
</g>
</g>
</svg>
