<svg xmlns="http://www.w3.org/2000/svg" xmlns:xlink="http://www.w3.org/1999/xlink" width="564pt" height="195pt" viewBox="0.00 0.00 564.00 195.00">
<g id="graph0" class="graph" transform="scale(1 1) rotate(0) translate(4 190.62)">
<title>Lattice</title>
<polygon fill="white" stroke="none" points="-4,4 -4,-190.62 560.39,-190.62 560.39,4 -4,4"/>
<!-- INT_TOP -->
<g id="node1" class="node">
<title>INT_TOP</title>
<ellipse fill="lightblue" stroke="black" cx="277.08" cy="-168.62" rx="31.16" ry="18"/>
<text xml:space="preserve" text-anchor="start" x="262.5" y="-165.42" font-family="Times,serif" font-weight="bold" font-size="14.00">⊤</text>
<text xml:space="preserve" text-anchor="start" x="273" y="-165.42" font-family="Times,serif" font-size="14.00">:int</text>
</g>
<!-- INT_MIN -->
<g id="node3" class="node">
<title>INT_MIN</title>
<ellipse fill="lightblue" stroke="black" cx="19.08" cy="-93.31" rx="19.08" ry="19.08"/>
<text xml:space="preserve" text-anchor="middle" x="19.08" y="-89.11" font-family="Times,serif" font-size="14.00">-n</text>
</g>
<!-- INT_TOP&#45;&gt;INT_MIN -->
<g id="edge1" class="edge">
<title>INT_TOP-&gt;INT_MIN</title>
<path fill="none" stroke="black" d="M249.47,-159.78C196.56,-144.74 82.19,-112.24 37.5,-99.54"/>
</g>
<!-- INT_MINDOTS -->
<g id="node4" class="node">
<title>INT_MINDOTS</title>
<ellipse fill="lightblue" stroke="black" cx="108.08" cy="-93.31" rx="27" ry="18"/>
<text xml:space="preserve" text-anchor="middle" x="108.08" y="-89.11" font-family="Times,serif" font-size="14.00">...</text>
</g>
<!-- INT_TOP&#45;&gt;INT_MINDOTS -->
<g id="edge2" class="edge">
<title>INT_TOP-&gt;INT_MINDOTS</title>
<path fill="none" stroke="black" d="M252.51,-156.96C219.64,-142.71 161.86,-117.64 130.26,-103.93"/>
</g>
<!-- INT_MINUS -->
<g id="node5" class="node">
<title>INT_MINUS</title>
<ellipse fill="lightblue" stroke="black" cx="197.08" cy="-93.31" rx="19.08" ry="19.08"/>
<text xml:space="preserve" text-anchor="middle" x="197.08" y="-89.11" font-family="Times,serif" font-size="14.00">-1</text>
</g>
<!-- INT_TOP&#45;&gt;INT_MINUS -->
<g id="edge3" class="edge">
<title>INT_TOP-&gt;INT_MINUS</title>
<path fill="none" stroke="black" d="M260.89,-152.79C246.19,-139.31 224.74,-119.66 210.85,-106.93"/>
</g>
<!-- INT_ZERO -->
<g id="node6" class="node">
<title>INT_ZERO</title>
<ellipse fill="lightblue" stroke="black" cx="277.08" cy="-93.31" rx="18" ry="18"/>
<text xml:space="preserve" text-anchor="middle" x="277.08" y="-89.11" font-family="Times,serif" font-size="14.00">0</text>
</g>
<!-- INT_TOP&#45;&gt;INT_ZERO -->
<g id="edge4" class="edge">
<title>INT_TOP-&gt;INT_ZERO</title>
<path fill="none" stroke="black" d="M277.08,-150.25C277.08,-138.56 277.08,-123.22 277.08,-111.56"/>
</g>
<!-- INT_PLUS -->
<g id="node7" class="node">
<title>INT_PLUS</title>
<ellipse fill="lightblue" stroke="black" cx="356.08" cy="-93.31" rx="18" ry="18"/>
<text xml:space="preserve" text-anchor="middle" x="356.08" y="-89.11" font-family="Times,serif" font-size="14.00">1</text>
</g>
<!-- INT_TOP&#45;&gt;INT_PLUS -->
<g id="edge5" class="edge">
<title>INT_TOP-&gt;INT_PLUS</title>
<path fill="none" stroke="black" d="M293.07,-152.79C307.86,-139.06 329.56,-118.92 343.25,-106.22"/>
</g>
<!-- INT_MAXDOTS -->
<g id="node8" class="node">
<title>INT_MAXDOTS</title>
<ellipse fill="lightblue" stroke="black" cx="444.08" cy="-93.31" rx="27" ry="18"/>
<text xml:space="preserve" text-anchor="middle" x="444.08" y="-89.11" font-family="Times,serif" font-size="14.00">...</text>
</g>
<!-- INT_TOP&#45;&gt;INT_MAXDOTS -->
<g id="edge6" class="edge">
<title>INT_TOP-&gt;INT_MAXDOTS</title>
<path fill="none" stroke="black" d="M301.36,-156.96C333.75,-142.75 390.62,-117.78 421.9,-104.05"/>
</g>
<!-- INT_MAX -->
<g id="node9" class="node">
<title>INT_MAX</title>
<ellipse fill="lightblue" stroke="black" cx="535.08" cy="-93.31" rx="21.31" ry="21.31"/>
<text xml:space="preserve" text-anchor="middle" x="535.08" y="-89.11" font-family="Times,serif" font-size="14.00">+n</text>
</g>
<!-- INT_TOP&#45;&gt;INT_MAX -->
<g id="edge7" class="edge">
<title>INT_TOP-&gt;INT_MAX</title>
<path fill="none" stroke="black" d="M304.69,-159.78C356.82,-144.96 468.62,-113.2 514.64,-100.12"/>
</g>
<!-- INT_BOT -->
<g id="node2" class="node">
<title>INT_BOT</title>
<ellipse fill="lightblue" stroke="black" cx="277.08" cy="-18" rx="31.16" ry="18"/>
<text xml:space="preserve" text-anchor="start" x="262.5" y="-14.8" font-family="Times,serif" font-weight="bold" font-size="14.00">⊥</text>
<text xml:space="preserve" text-anchor="start" x="273" y="-14.8" font-family="Times,serif" font-size="14.00">:int</text>
</g>
<!-- INT_MIN&#45;&gt;INT_BOT -->
<g id="edge8" class="edge">
<title>INT_MIN-&gt;INT_BOT</title>
<path fill="none" stroke="black" d="M37.22,-87.16C81.73,-74.51 196.52,-41.89 249.52,-26.83"/>
</g>
<!-- INT_MIN&#45;&gt;INT_MINDOTS -->
<!-- INT_MINDOTS&#45;&gt;INT_BOT -->
<g id="edge9" class="edge">
<title>INT_MINDOTS-&gt;INT_BOT</title>
<path fill="none" stroke="black" d="M130.17,-82.73C161.76,-69.03 219.62,-43.93 252.52,-29.66"/>
</g>
<!-- INT_MINDOTS&#45;&gt;INT_MINUS -->
<!-- INT_MINUS&#45;&gt;INT_BOT -->
<g id="edge10" class="edge">
<title>INT_MINUS-&gt;INT_BOT</title>
<path fill="none" stroke="black" d="M210.65,-79.87C224.56,-67.13 246.19,-47.31 260.96,-33.77"/>
</g>
<!-- INT_MINUS&#45;&gt;INT_ZERO -->
<!-- INT_ZERO&#45;&gt;INT_BOT -->
<g id="edge11" class="edge">
<title>INT_ZERO-&gt;INT_BOT</title>
<path fill="none" stroke="black" d="M277.08,-74.94C277.08,-63.25 277.08,-47.91 277.08,-36.25"/>
</g>
<!-- INT_ZERO&#45;&gt;INT_PLUS -->
<!-- INT_PLUS&#45;&gt;INT_BOT -->
<g id="edge12" class="edge">
<title>INT_PLUS-&gt;INT_BOT</title>
<path fill="none" stroke="black" d="M343.04,-80.21C329.36,-67.52 307.86,-47.56 293.15,-33.91"/>
</g>
<!-- INT_PLUS&#45;&gt;INT_MAXDOTS -->
<!-- INT_MAXDOTS&#45;&gt;INT_BOT -->
<g id="edge13" class="edge">
<title>INT_MAXDOTS-&gt;INT_BOT</title>
<path fill="none" stroke="black" d="M421.9,-82.58C390.67,-68.87 333.93,-43.96 301.52,-29.73"/>
</g>
<!-- INT_MAXDOTS&#45;&gt;INT_MAX -->
<!-- INT_MAX&#45;&gt;INT_BOT -->
<g id="edge14" class="edge">
<title>INT_MAX-&gt;INT_BOT</title>
<path fill="none" stroke="black" d="M514.4,-86.44C468.25,-73.32 356.8,-41.65 304.74,-26.86"/>
</g>
</g>
</svg>