<?xml version="1.0" encoding="UTF-8" standalone="no"?>
<!DOCTYPE svg PUBLIC "-//W3C//DTD SVG 1.1//EN"
 "http://www.w3.org/Graphics/SVG/1.1/DTD/svg11.dtd">
<!-- Generated by graphviz version 12.2.0 (20241103.1931)
 -->
<!-- Title: Lattice Pages: 1 -->
<svg width="788pt" height="709pt"
 viewBox="0.00 0.00 788.33 708.86" xmlns="http://www.w3.org/2000/svg" xmlns:xlink="http://www.w3.org/1999/xlink">
<g id="graph0" class="graph" transform="scale(1 1) rotate(0) translate(4 704.86)">
<title>Lattice</title>
<polygon fill="white" stroke="none" points="-4,4 -4,-704.86 784.33,-704.86 784.33,4 -4,4"/>
<!-- TOP -->
<g id="node1" class="node">
<title>TOP</title>
<ellipse fill="black" stroke="black" cx="389" cy="-679.73" rx="21.12" ry="21.12"/>
<text text-anchor="start" x="381.12" y="-675.31" font-family="Times New Roman,serif" font-weight="bold" font-size="14.00" fill="white">⊤</text>
</g>
<!-- INT_TOP -->
<g id="node3" class="node">
<title>INT_TOP</title>
<ellipse fill="lightblue" stroke="black" cx="335" cy="-604.61" rx="33.95" ry="18"/>
<text text-anchor="start" x="318.12" y="-600.56" font-family="Times New Roman,serif" font-weight="bold" font-size="14.00">⊤</text>
<text text-anchor="start" x="333.88" y="-600.56" font-family="Times New Roman,serif" font-size="14.00">:int</text>
</g>
<!-- TOP&#45;&gt;INT_TOP -->
<g id="edge1" class="edge">
<title>TOP&#45;&gt;INT_TOP</title>
<path fill="none" stroke="black" d="M376.75,-662.14C369.93,-652.91 361.31,-641.24 353.68,-630.9"/>
<polygon fill="black" stroke="black" points="356.67,-629.07 347.92,-623.1 351.04,-633.23 356.67,-629.07"/>
</g>
<!-- FLT_TOP -->
<g id="node12" class="node">
<title>FLT_TOP</title>
<ellipse fill="aqua" stroke="black" cx="502" cy="-604.61" rx="32.41" ry="18"/>
<text text-anchor="start" x="486.25" y="-600.56" font-family="Times New Roman,serif" font-weight="bold" font-size="14.00">⊤</text>
<text text-anchor="start" x="502" y="-600.56" font-family="Times New Roman,serif" font-size="14.00">:flt</text>
</g>
<!-- TOP&#45;&gt;FLT_TOP -->
<g id="edge15" class="edge">
<title>TOP&#45;&gt;FLT_TOP</title>
<path fill="none" stroke="black" d="M406.66,-667.31C424.05,-656.05 450.95,-638.64 471.75,-625.18"/>
<polygon fill="black" stroke="black" points="473.64,-628.13 480.13,-619.76 469.84,-622.25 473.64,-628.13"/>
</g>
<!-- BOT -->
<g id="node2" class="node">
<title>BOT</title>
<ellipse fill="black" stroke="black" cx="394" cy="-21.12" rx="21.12" ry="21.12"/>
<text text-anchor="start" x="386.12" y="-16.7" font-family="Times New Roman,serif" font-weight="bold" font-size="14.00" fill="white">⊥</text>
</g>
<!-- INT_HI -->
<g id="node5" class="node">
<title>INT_HI</title>
<ellipse fill="lightblue" stroke="black" cx="211" cy="-532.61" rx="52.89" ry="18"/>
<text text-anchor="middle" x="211" y="-527.56" font-family="Times New Roman,serif" font-size="14.00">max &lt; min</text>
</g>
<!-- INT_TOP&#45;&gt;INT_HI -->
<g id="edge2" class="edge">
<title>INT_TOP&#45;&gt;INT_HI</title>
<path fill="none" stroke="black" d="M312.26,-590.77C294.11,-580.53 268.34,-565.98 247.34,-554.13"/>
<polygon fill="black" stroke="black" points="249.22,-551.17 238.79,-549.3 245.78,-557.26 249.22,-551.17"/>
</g>
<!-- INT_BOT -->
<g id="node4" class="node">
<title>INT_BOT</title>
<ellipse fill="lightblue" stroke="black" cx="340" cy="-96.25" rx="33.95" ry="18"/>
<text text-anchor="start" x="323.12" y="-92.2" font-family="Times New Roman,serif" font-weight="bold" font-size="14.00">⊥</text>
<text text-anchor="start" x="338.88" y="-92.2" font-family="Times New Roman,serif" font-size="14.00">:int</text>
</g>
<!-- INT_BOT&#45;&gt;BOT -->
<g id="edge12" class="edge">
<title>INT_BOT&#45;&gt;BOT</title>
<path fill="none" stroke="black" d="M351.98,-79.02C358.74,-69.87 367.34,-58.23 374.99,-47.87"/>
<polygon fill="black" stroke="black" points="377.65,-50.16 380.78,-40.03 372.02,-46 377.65,-50.16"/>
</g>
<!-- INT_XBOOL -->
<g id="node6" class="node">
<title>INT_XBOOL</title>
<ellipse fill="lightblue" stroke="black" cx="97" cy="-450.29" rx="27.81" ry="18"/>
<text text-anchor="middle" x="97" y="-445.24" font-family="Times New Roman,serif" font-size="14.00">1...0</text>
</g>
<!-- INT_HI&#45;&gt;INT_XBOOL -->
<g id="edge3" class="edge">
<title>INT_HI&#45;&gt;INT_XBOOL</title>
<path fill="none" stroke="black" d="M188.75,-515.93C170.46,-503.04 144.44,-484.72 124.78,-470.87"/>
<polygon fill="black" stroke="black" points="126.86,-468.05 116.67,-465.15 122.83,-473.77 126.86,-468.05"/>
</g>
<!-- INT_CON -->
<g id="node7" class="node">
<title>INT_CON</title>
<ellipse fill="lightblue" stroke="black" cx="211" cy="-345.31" rx="52.89" ry="18"/>
<text text-anchor="middle" x="211" y="-340.26" font-family="Times New Roman,serif" font-size="14.00">constants...</text>
</g>
<!-- INT_HI&#45;&gt;INT_CON -->
<g id="edge6" class="edge">
<title>INT_HI&#45;&gt;INT_CON</title>
<path fill="none" stroke="black" d="M211,-514.31C211,-481.93 211,-414.27 211,-375.09"/>
<polygon fill="black" stroke="black" points="214.5,-375.2 211,-365.2 207.5,-375.2 214.5,-375.2"/>
</g>
<!-- INT_CON0 -->
<g id="node8" class="node">
<title>INT_CON0</title>
<ellipse fill="lightblue" stroke="black" cx="18" cy="-345.31" rx="18" ry="18"/>
<text text-anchor="middle" x="18" y="-340.26" font-family="Times New Roman,serif" font-size="14.00">0</text>
</g>
<!-- INT_XBOOL&#45;&gt;INT_CON0 -->
<g id="edge4" class="edge">
<title>INT_XBOOL&#45;&gt;INT_CON0</title>
<path fill="none" stroke="black" d="M85,-433.65C71.8,-416.44 50.45,-388.61 35.41,-369"/>
<polygon fill="black" stroke="black" points="38.38,-367.12 29.51,-361.32 32.82,-371.38 38.38,-367.12"/>
</g>
<!-- INT_CON1 -->
<g id="node9" class="node">
<title>INT_CON1</title>
<ellipse fill="lightblue" stroke="black" cx="97" cy="-345.31" rx="18" ry="18"/>
<text text-anchor="middle" x="97" y="-340.26" font-family="Times New Roman,serif" font-size="14.00">1</text>
</g>
<!-- INT_XBOOL&#45;&gt;INT_CON1 -->
<g id="edge5" class="edge">
<title>INT_XBOOL&#45;&gt;INT_CON1</title>
<path fill="none" stroke="black" d="M97,-431.82C97,-416.27 97,-393.22 97,-374.97"/>
<polygon fill="black" stroke="black" points="100.5,-375.04 97,-365.04 93.5,-375.04 100.5,-375.04"/>
</g>
<!-- INT_LO -->
<g id="node11" class="node">
<title>INT_LO</title>
<ellipse fill="lightblue" stroke="black" cx="211" cy="-168.25" rx="52.89" ry="18"/>
<text text-anchor="middle" x="211" y="-163.2" font-family="Times New Roman,serif" font-size="14.00">max &gt; min</text>
</g>
<!-- INT_CON&#45;&gt;INT_LO -->
<g id="edge10" class="edge">
<title>INT_CON&#45;&gt;INT_LO</title>
<path fill="none" stroke="black" d="M211,-327.03C211,-296.55 211,-235.05 211,-198.18"/>
<polygon fill="black" stroke="black" points="214.5,-198.21 211,-188.21 207.5,-198.21 214.5,-198.21"/>
</g>
<!-- INT_CON0&#45;&gt;INT_CON1 -->
<!-- INT_BOOL -->
<g id="node10" class="node">
<title>INT_BOOL</title>
<ellipse fill="lightblue" stroke="black" cx="97" cy="-245.45" rx="27.81" ry="18"/>
<text text-anchor="middle" x="97" y="-240.4" font-family="Times New Roman,serif" font-size="14.00">0...1</text>
</g>
<!-- INT_CON0&#45;&gt;INT_BOOL -->
<g id="edge7" class="edge">
<title>INT_CON0&#45;&gt;INT_BOOL</title>
<path fill="none" stroke="black" d="M28.98,-330.7C41.46,-315.25 62.06,-289.73 77.33,-270.81"/>
<polygon fill="black" stroke="black" points="80.04,-273.03 83.6,-263.05 74.59,-268.64 80.04,-273.03"/>
</g>
<!-- INT_CON1&#45;&gt;INT_CON -->
<!-- INT_CON1&#45;&gt;INT_BOOL -->
<g id="edge8" class="edge">
<title>INT_CON1&#45;&gt;INT_BOOL</title>
<path fill="none" stroke="black" d="M97,-326.82C97,-312.48 97,-291.91 97,-275.16"/>
<polygon fill="black" stroke="black" points="100.5,-275.31 97,-265.31 93.5,-275.31 100.5,-275.31"/>
</g>
<!-- INT_BOOL&#45;&gt;INT_LO -->
<g id="edge9" class="edge">
<title>INT_BOOL&#45;&gt;INT_LO</title>
<path fill="none" stroke="black" d="M116.08,-231.86C132.97,-220.72 157.98,-204.22 178.09,-190.96"/>
<polygon fill="black" stroke="black" points="179.83,-194.01 186.25,-185.58 175.97,-188.16 179.83,-194.01"/>
</g>
<!-- INT_LO&#45;&gt;INT_BOT -->
<g id="edge11" class="edge">
<title>INT_LO&#45;&gt;INT_BOT</title>
<path fill="none" stroke="black" d="M238.36,-152.4C258.44,-141.5 285.81,-126.65 307.09,-115.1"/>
<polygon fill="black" stroke="black" points="308.54,-118.3 315.66,-110.45 305.2,-112.15 308.54,-118.3"/>
</g>
<!-- FLT_CON64 -->
<g id="node14" class="node">
<title>FLT_CON64</title>
<ellipse fill="aqua" stroke="black" cx="725" cy="-345.31" rx="55.33" ry="40.66"/>
<text text-anchor="middle" x="725" y="-356.76" font-family="Times New Roman,serif" font-size="14.00">64b consts</text>
<text text-anchor="middle" x="725" y="-340.26" font-family="Times New Roman,serif" font-size="14.00">[excludes</text>
<text text-anchor="middle" x="725" y="-323.76" font-family="Times New Roman,serif" font-size="14.00">32b consts]</text>
</g>
<!-- FLT_TOP&#45;&gt;FLT_CON64 -->
<g id="edge16" class="edge">
<title>FLT_TOP&#45;&gt;FLT_CON64</title>
<path fill="none" stroke="black" d="M516.29,-587.99C550.39,-548.34 637.45,-447.11 687.7,-388.69"/>
<polygon fill="black" stroke="black" points="690.28,-391.05 694.15,-381.19 684.97,-386.49 690.28,-391.05"/>
</g>
<!-- FLT_CONPI -->
<g id="node16" class="node">
<title>FLT_CONPI</title>
<ellipse fill="aqua" stroke="black" cx="578" cy="-345.31" rx="48.79" ry="18"/>
<text text-anchor="middle" x="578" y="-340.26" font-family="Times New Roman,serif" font-size="14.00">3.14159...</text>
</g>
<!-- FLT_TOP&#45;&gt;FLT_CONPI -->
<g id="edge17" class="edge">
<title>FLT_TOP&#45;&gt;FLT_CONPI</title>
<path fill="none" stroke="black" d="M507.34,-586.38C520.34,-542.02 553.71,-428.19 569.49,-374.35"/>
<polygon fill="black" stroke="black" points="572.78,-375.56 572.24,-364.98 566.06,-373.59 572.78,-375.56"/>
</g>
<!-- FLT_X32 -->
<g id="node17" class="node">
<title>FLT_X32</title>
<ellipse fill="aqua" stroke="black" cx="436" cy="-450.29" rx="28.32" ry="28.32"/>
<text text-anchor="middle" x="436" y="-445.24" font-family="Times New Roman,serif" font-size="14.00">~f32</text>
</g>
<!-- FLT_TOP&#45;&gt;FLT_X32 -->
<g id="edge20" class="edge">
<title>FLT_TOP&#45;&gt;FLT_X32</title>
<path fill="none" stroke="black" d="M494.43,-586.91C484.07,-562.69 465.23,-518.63 451.74,-487.1"/>
<polygon fill="black" stroke="black" points="454.96,-485.73 447.81,-477.91 448.53,-488.48 454.96,-485.73"/>
</g>
<!-- FLT_BOT -->
<g id="node13" class="node">
<title>FLT_BOT</title>
<ellipse fill="aqua" stroke="black" cx="507" cy="-96.25" rx="32.41" ry="18"/>
<text text-anchor="start" x="491.25" y="-92.2" font-family="Times New Roman,serif" font-weight="bold" font-size="14.00">⊥</text>
<text text-anchor="start" x="507" y="-92.2" font-family="Times New Roman,serif" font-size="14.00">:flt</text>
</g>
<!-- FLT_BOT&#45;&gt;BOT -->
<g id="edge26" class="edge">
<title>FLT_BOT&#45;&gt;BOT</title>
<path fill="none" stroke="black" d="M486.54,-82.01C468.15,-70.11 441.01,-52.55 420.88,-39.52"/>
<polygon fill="black" stroke="black" points="422.92,-36.67 412.62,-34.17 419.11,-42.55 422.92,-36.67"/>
</g>
<!-- FLT_CON64&#45;&gt;FLT_BOT -->
<g id="edge18" class="edge">
<title>FLT_CON64&#45;&gt;FLT_BOT</title>
<path fill="none" stroke="black" d="M694.92,-310.94C650.44,-260.13 568.19,-166.15 528.94,-121.32"/>
<polygon fill="black" stroke="black" points="531.69,-119.14 522.47,-113.92 526.42,-123.75 531.69,-119.14"/>
</g>
<!-- FLT_CON32 -->
<g id="node15" class="node">
<title>FLT_CON32</title>
<ellipse fill="aqua" stroke="black" cx="436" cy="-345.31" rx="50.33" ry="18"/>
<text text-anchor="middle" x="436" y="-340.26" font-family="Times New Roman,serif" font-size="14.00">32b consts</text>
</g>
<!-- FLT_CON32&#45;&gt;FLT_CONPI -->
<!-- FLT_32 -->
<g id="node19" class="node">
<title>FLT_32</title>
<ellipse fill="aqua" stroke="black" cx="436" cy="-245.45" rx="23.2" ry="23.2"/>
<text text-anchor="middle" x="436" y="-240.4" font-family="Times New Roman,serif" font-size="14.00">f32</text>
</g>
<!-- FLT_CON32&#45;&gt;FLT_32 -->
<g id="edge24" class="edge">
<title>FLT_CON32&#45;&gt;FLT_32</title>
<path fill="none" stroke="black" d="M436,-326.82C436,-313.94 436,-296.02 436,-280.37"/>
<polygon fill="black" stroke="black" points="439.5,-280.47 436,-270.47 432.5,-280.47 439.5,-280.47"/>
</g>
<!-- FLT_CONPI&#45;&gt;FLT_BOT -->
<g id="edge19" class="edge">
<title>FLT_CONPI&#45;&gt;FLT_BOT</title>
<path fill="none" stroke="black" d="M572.78,-327C560.57,-284.16 530.06,-177.15 515.28,-125.31"/>
<polygon fill="black" stroke="black" points="518.66,-124.37 512.55,-115.71 511.92,-126.29 518.66,-124.37"/>
</g>
<!-- FLT_CONPI&#45;&gt;FLT_CON64 -->
<!-- FLT_X32&#45;&gt;FLT_CON32 -->
<g id="edge22" class="edge">
<title>FLT_X32&#45;&gt;FLT_CON32</title>
<path fill="none" stroke="black" d="M436,-421.69C436,-407.26 436,-389.62 436,-375.03"/>
<polygon fill="black" stroke="black" points="439.5,-375.14 436,-365.14 432.5,-375.14 439.5,-375.14"/>
</g>
<!-- FLT_CON0 -->
<g id="node18" class="node">
<title>FLT_CON0</title>
<ellipse fill="aqua" stroke="black" cx="325" cy="-345.31" rx="18.08" ry="18.08"/>
<text text-anchor="middle" x="325" y="-340.26" font-family="Times New Roman,serif" font-size="14.00">0.</text>
</g>
<!-- FLT_X32&#45;&gt;FLT_CON0 -->
<g id="edge21" class="edge">
<title>FLT_X32&#45;&gt;FLT_CON0</title>
<path fill="none" stroke="black" d="M415.38,-430.16C395.7,-411.9 366.18,-384.51 346.28,-366.05"/>
<polygon fill="black" stroke="black" points="348.7,-363.53 338.99,-359.29 343.94,-368.66 348.7,-363.53"/>
</g>
<!-- FLT_CON0&#45;&gt;FLT_CON32 -->
<!-- FLT_CON0&#45;&gt;FLT_32 -->
<g id="edge23" class="edge">
<title>FLT_CON0&#45;&gt;FLT_32</title>
<path fill="none" stroke="black" d="M338.17,-332.7C355.91,-317.06 387.87,-288.88 410.42,-269"/>
<polygon fill="black" stroke="black" points="412.53,-271.81 417.72,-262.57 407.9,-266.56 412.53,-271.81"/>
</g>
<!-- FLT_32&#45;&gt;FLT_BOT -->
<g id="edge25" class="edge">
<title>FLT_32&#45;&gt;FLT_BOT</title>
<path fill="none" stroke="black" d="M446.17,-224.07C458.68,-197.78 479.96,-153.08 493.74,-124.12"/>
<polygon fill="black" stroke="black" points="496.83,-125.76 497.97,-115.22 490.51,-122.75 496.83,-125.76"/>
</g>
</g>
</svg>
