<?xml version="1.0" encoding="UTF-8" standalone="no"?>
<!DOCTYPE svg PUBLIC "-//W3C//DTD SVG 1.1//EN"
 "http://www.w3.org/Graphics/SVG/1.1/DTD/svg11.dtd">
<!-- Generated by graphviz version 2.43.0 (0)
 -->
<!-- Title: chapter03 Pages: 1 -->
<svg width="554pt" height="220pt"
 viewBox="0.00 0.00 554.00 220.00" xmlns="http://www.w3.org/2000/svg" xmlns:xlink="http://www.w3.org/1999/xlink">
<g id="graph0" class="graph" transform="scale(1 1) rotate(0) translate(4 216)">
<title>chapter03</title>
<polygon fill="white" stroke="transparent" points="-4,4 -4,-216 550,-216 550,4 -4,4"/>
<g id="clust1" class="cluster">
<title>cluster_Nodes</title>
<polygon fill="none" stroke="black" points="8,-8 8,-204 386,-204 386,-8 8,-8"/>
</g>
<g id="clust2" class="cluster">
<title>cluster_0</title>
<polygon fill="none" stroke="black" points="394,-8 394,-60 538,-60 538,-8 394,-8"/>
</g>
<!-- Start1 -->
<g id="node1" class="node">
<title>Start1</title>
<polygon fill="yellow" stroke="black" points="198,-196 144,-196 144,-160 198,-160 198,-196"/>
<text text-anchor="middle" x="171" y="-174.3" font-family="Times,serif" font-size="14.00">Start</text>
</g>
<!-- Con_2 -->
<g id="node2" class="node">
<title>Con_2</title>
<ellipse fill="none" stroke="black" cx="207" cy="-106" rx="27" ry="18"/>
<text text-anchor="middle" x="207" y="-102.3" font-family="Times,serif" font-size="14.00">#1</text>
</g>
<!-- Con_2&#45;&gt;Start1 -->
<g id="edge1" class="edge">
<title>Con_2&#45;&gt;Start1</title>
<path fill="none" stroke="black" stroke-dasharray="1,5" d="M198.65,-123.24C194.46,-131.39 189.27,-141.47 184.53,-150.69"/>
<polygon fill="black" stroke="black" points="181.27,-149.38 179.81,-159.88 187.49,-152.58 181.27,-149.38"/>
</g>
<!-- Con_3 -->
<g id="node3" class="node">
<title>Con_3</title>
<ellipse fill="none" stroke="black" cx="135" cy="-106" rx="27" ry="18"/>
<text text-anchor="middle" x="135" y="-102.3" font-family="Times,serif" font-size="14.00">#2</text>
</g>
<!-- Con_3&#45;&gt;Start1 -->
<g id="edge2" class="edge">
<title>Con_3&#45;&gt;Start1</title>
<path fill="none" stroke="black" stroke-dasharray="1,5" d="M143.35,-123.24C147.54,-131.39 152.73,-141.47 157.47,-150.69"/>
<polygon fill="black" stroke="black" points="154.51,-152.58 162.19,-159.88 160.73,-149.38 154.51,-152.58"/>
</g>
<!-- Con_19 -->
<g id="node4" class="node">
<title>Con_19</title>
<ellipse fill="none" stroke="black" cx="43" cy="-106" rx="27" ry="18"/>
<text text-anchor="middle" x="43" y="-102.3" font-family="Times,serif" font-size="14.00">#8</text>
</g>
<!-- Con_19&#45;&gt;Start1 -->
<g id="edge3" class="edge">
<title>Con_19&#45;&gt;Start1</title>
<path fill="none" stroke="black" stroke-dasharray="1,5" d="M63.28,-118.09C82.45,-128.57 111.64,-144.54 134.8,-157.2"/>
<polygon fill="black" stroke="black" points="133.21,-160.32 143.67,-162.05 136.57,-154.18 133.21,-160.32"/>
</g>
<!-- Con_4 -->
<g id="node5" class="node">
<title>Con_4</title>
<ellipse fill="none" stroke="black" cx="351" cy="-106" rx="27" ry="18"/>
<text text-anchor="middle" x="351" y="-102.3" font-family="Times,serif" font-size="14.00">#3</text>
</g>
<!-- Con_4&#45;&gt;Start1 -->
<g id="edge4" class="edge">
<title>Con_4&#45;&gt;Start1</title>
<path fill="none" stroke="black" stroke-dasharray="1,5" d="M329.82,-117.38C324.99,-119.65 319.84,-121.97 315,-124 279.07,-139.06 237.19,-154.21 207.89,-164.43"/>
<polygon fill="black" stroke="black" points="206.38,-161.25 198.08,-167.84 208.68,-167.87 206.38,-161.25"/>
</g>
<!-- Return20 -->
<g id="node6" class="node">
<title>Return20</title>
<polygon fill="yellow" stroke="black" points="102,-52 36,-52 36,-16 102,-16 102,-52"/>
<text text-anchor="middle" x="69" y="-30.3" font-family="Times,serif" font-size="14.00">Return</text>
</g>
<!-- Return20&#45;&gt;Start1 -->
<g id="edge5" class="edge">
<title>Return20&#45;&gt;Start1</title>
<path fill="none" stroke="red" d="M71.6,-52.16C75.16,-71.21 83.04,-102.14 99,-124 108.52,-137.04 122.19,-148.23 135.06,-156.92"/>
<polygon fill="red" stroke="red" points="133.48,-160.07 143.79,-162.53 137.27,-154.18 133.48,-160.07"/>
</g>
<!-- Return20&#45;&gt;Con_19 -->
<g id="edge6" class="edge">
<title>Return20&#45;&gt;Con_19</title>
<path fill="none" stroke="black" d="M62.57,-52.3C59.6,-60.3 56.01,-69.98 52.71,-78.85"/>
<polygon fill="black" stroke="black" points="49.37,-77.78 49.17,-88.38 55.94,-80.22 49.37,-77.78"/>
</g>
<!-- Con_5 -->
<g id="node7" class="node">
<title>Con_5</title>
<ellipse fill="none" stroke="black" cx="279" cy="-106" rx="27" ry="18"/>
<text text-anchor="middle" x="279" y="-102.3" font-family="Times,serif" font-size="14.00">#4</text>
</g>
<!-- Con_5&#45;&gt;Start1 -->
<g id="edge7" class="edge">
<title>Con_5&#45;&gt;Start1</title>
<path fill="none" stroke="black" stroke-dasharray="1,5" d="M260.19,-119.19C245.23,-128.89 223.89,-142.72 205.84,-154.42"/>
<polygon fill="black" stroke="black" points="203.77,-151.59 197.28,-159.97 207.58,-157.46 203.77,-151.59"/>
</g>
<!-- scope0 -->
<g id="node8" class="node">
<title>scope0</title>
<polygon fill="cyan" stroke="transparent" points="410,-23 410,-44 426,-44 426,-23 410,-23"/>
<polygon fill="none" stroke="black" points="410,-23 410,-44 426,-44 426,-23 410,-23"/>
<text text-anchor="start" x="413" y="-29.8" font-family="Times,serif" font-size="14.00">0</text>
<polygon fill="none" stroke="black" points="426,-23 426,-44 450,-44 450,-23 426,-23"/>
<text text-anchor="start" x="429" y="-29.8" font-family="Times,serif" font-size="14.00">y0</text>
<polygon fill="none" stroke="black" points="450,-23 450,-44 474,-44 474,-23 450,-23"/>
<text text-anchor="start" x="453" y="-29.8" font-family="Times,serif" font-size="14.00">x0</text>
<polygon fill="none" stroke="black" points="474,-23 474,-44 498,-44 498,-23 474,-23"/>
<text text-anchor="start" x="477" y="-29.8" font-family="Times,serif" font-size="14.00">y1</text>
<polygon fill="none" stroke="black" points="498,-23 498,-44 522,-44 522,-23 498,-23"/>
<text text-anchor="start" x="501" y="-29.8" font-family="Times,serif" font-size="14.00">x1</text>
</g>
<!-- scope0&#45;&gt;Con_2 -->
<g id="edge9" class="edge">
<title>scope0:scope0_x0&#45;&gt;Con_2</title>
<path fill="none" stroke="cornflowerblue" stroke-dasharray="5,2" d="M462,-45C462,-94.6 290.16,-72.65 243,-88 241.08,-88.63 239.12,-89.33 237.17,-90.09"/>
<polygon fill="cornflowerblue" stroke="cornflowerblue" points="235.39,-87.04 227.58,-94.19 238.15,-93.48 235.39,-87.04"/>
</g>
<!-- scope0&#45;&gt;Con_3 -->
<g id="edge8" class="edge">
<title>scope0:scope0_y0&#45;&gt;Con_3</title>
<path fill="none" stroke="cornflowerblue" stroke-dasharray="5,2" d="M438,-45C438,-67.35 411.84,-55.23 390,-60 294.13,-80.94 265.19,-60.49 171,-88 169.06,-88.57 167.09,-89.23 165.13,-89.95"/>
<polygon fill="cornflowerblue" stroke="cornflowerblue" points="163.39,-86.88 155.5,-93.97 166.08,-93.34 163.39,-86.88"/>
</g>
<!-- scope0&#45;&gt;Con_4 -->
<g id="edge11" class="edge">
<title>scope0:scope0_x1&#45;&gt;Con_4</title>
<path fill="none" stroke="cornflowerblue" stroke-dasharray="5,2" d="M510,-45C510,-71.13 433.9,-89.82 387,-98.86"/>
<polygon fill="cornflowerblue" stroke="cornflowerblue" points="386.09,-95.47 376.9,-100.75 387.37,-102.35 386.09,-95.47"/>
</g>
<!-- scope0&#45;&gt;Con_5 -->
<g id="edge10" class="edge">
<title>scope0:scope0_y1&#45;&gt;Con_5</title>
<path fill="none" stroke="cornflowerblue" stroke-dasharray="5,2" d="M486,-45C486,-123.37 388.78,-61.59 315,-88 313.15,-88.66 311.26,-89.39 309.37,-90.16"/>
<polygon fill="cornflowerblue" stroke="cornflowerblue" points="307.8,-87.02 300.03,-94.23 310.6,-93.44 307.8,-87.02"/>
</g>
</g>
</svg>
