<?xml version="1.0" encoding="UTF-8" standalone="no"?>
<!DOCTYPE svg PUBLIC "-//W3C//DTD SVG 1.1//EN"
 "http://www.w3.org/Graphics/SVG/1.1/DTD/svg11.dtd">
<!-- Generated by graphviz version 2.43.0 (0)
 -->
<!-- Title: chapter01 Pages: 1 -->
<svg width="166pt" height="148pt"
 viewBox="0.00 0.00 166.00 148.00" xmlns="http://www.w3.org/2000/svg" xmlns:xlink="http://www.w3.org/1999/xlink">
<g id="graph0" class="graph" transform="scale(1 1) rotate(0) translate(4 144)">
<title>chapter01</title>
<polygon fill="white" stroke="transparent" points="-4,4 -4,-144 162,-144 162,4 -4,4"/>
<g id="clust1" class="cluster">
<title>cluster_Nodes</title>
<polygon fill="none" stroke="black" points="8,-8 8,-132 150,-132 150,-8 8,-8"/>
</g>
<!-- Start1 -->
<g id="node1" class="node">
<title>Start1</title>
<polygon fill="yellow" stroke="black" points="70,-124 16,-124 16,-88 70,-88 70,-124"/>
<text text-anchor="middle" x="43" y="-102.3" font-family="Times,serif" font-size="14.00">Start</text>
</g>
<!-- Con_2 -->
<g id="node2" class="node">
<title>Con_2</title>
<ellipse fill="none" stroke="black" cx="115" cy="-106" rx="27" ry="18"/>
<text text-anchor="middle" x="115" y="-102.3" font-family="Times,serif" font-size="14.00">#1</text>
</g>
<!-- Return3 -->
<g id="node3" class="node">
<title>Return3</title>
<polygon fill="yellow" stroke="black" points="112,-52 46,-52 46,-16 112,-16 112,-52"/>
<text text-anchor="middle" x="79" y="-30.3" font-family="Times,serif" font-size="14.00">Return</text>
</g>
<!-- Return3&#45;&gt;Start1 -->
<g id="edge1" class="edge">
<title>Return3&#45;&gt;Start1</title>
<path fill="none" stroke="red" d="M70.1,-52.3C66,-60.27 61.05,-69.9 56.51,-78.74"/>
<polygon fill="red" stroke="red" points="53.26,-77.4 51.8,-87.9 59.48,-80.6 53.26,-77.4"/>
<text text-anchor="middle" x="67.1" y="-54.9" font-family="Helvetica,sans-Serif" font-size="8.00">0</text>
</g>
<!-- Return3&#45;&gt;Con_2 -->
<g id="edge2" class="edge">
<title>Return3&#45;&gt;Con_2</title>
<path fill="none" stroke="black" d="M87.9,-52.3C92.16,-60.6 97.35,-70.69 102.05,-79.81"/>
<polygon fill="black" stroke="black" points="99.01,-81.56 106.7,-88.86 105.24,-78.36 99.01,-81.56"/>
<text text-anchor="middle" x="84.9" y="-54.9" font-family="Helvetica,sans-Serif" font-size="8.00">1</text>
</g>
</g>
</svg>
